<?xml version="1.0" encoding="UTF-8" standalone="no"?>
<svg
   xmlns:dc="http://purl.org/dc/elements/1.1/"
   xmlns:cc="http://creativecommons.org/ns#"
   xmlns:rdf="http://www.w3.org/1999/02/22-rdf-syntax-ns#"
   xmlns:svg="http://www.w3.org/2000/svg"
   xmlns="http://www.w3.org/2000/svg"
   xmlns:sodipodi="http://sodipodi.sourceforge.net/DTD/sodipodi-0.dtd"
   xmlns:inkscape="http://www.inkscape.org/namespaces/inkscape"
   sodipodi:docname="checkmark.svg"
   inkscape:version="1.0 (4035a4fb49, 2020-05-01)"
   id="svg879"
   version="1.1"
   viewBox="0 0 100 100"
   height="100mm"
   width="100mm">
  <defs
     id="defs873">
    <inkscape:path-effect
       hide_knots="false"
       only_selected="false"
       apply_with_radius="true"
       apply_no_radius="true"
       use_knot_distance="true"
       flexible="false"
       chamfer_steps="1"
       radius="20"
       mode="F"
       method="auto"
       unit="px"
       satellites_param="F,0,0,1,0,0,0,1 @ F,0,0,1,0,5.2916667,0,1 @ F,0,0,1,0,0,0,1 @ F,0,0,1,0,0,0,1 @ F,0,0,1,0,0,0,1 @ F,0,0,1,0,0,0,1 @ F,0,0,1,0,5.2916667,0,1 @ F,0,0,1,0,0,0,1"
       lpeversion="1"
       is_visible="true"
       id="path-effect1444"
       effect="fillet_chamfer" />
  </defs>
  <sodipodi:namedview
     inkscape:window-maximized="1"
     inkscape:window-y="-8"
     inkscape:window-x="-8"
     inkscape:window-height="1017"
     inkscape:window-width="1920"
     showgrid="false"
     inkscape:document-rotation="0"
     inkscape:current-layer="layer1"
     inkscape:document-units="mm"
     inkscape:cy="217.16578"
     inkscape:cx="121.45759"
     inkscape:zoom="0.76896344"
     inkscape:pageshadow="2"
     inkscape:pageopacity="0.0"
     borderopacity="1.0"
     bordercolor="#666666"
     pagecolor="#ffffff"
     id="base" />
  <metadata
     id="metadata876">
    <rdf:RDF>
      <cc:Work
         rdf:about="">
        <dc:format>image/svg+xml</dc:format>
        <dc:type
           rdf:resource="http://purl.org/dc/dcmitype/StillImage" />
        <dc:title></dc:title>
      </cc:Work>
    </rdf:RDF>
  </metadata>
  <g
     id="layer1"
     inkscape:groupmode="layer"
     inkscape:label="Layer 1">
    <path
       inkscape:original-d="M 6.6523886,66.526973 25.254638,71.920947 34.463759,86.250467 90.326416,16.03585 81.931677,7.8363323 38.786607,70.894513 32.344131,63.475903 13.797608,52.933669 Z"
       inkscape:path-effect="#path-effect1444"
       sodipodi:nodetypes="ccccccccc"
       id="path1442"
       d="m 6.6523886,66.526973 13.5199294,3.920286 a 14.114809,14.114809 36.721341 0 1 7.943232,5.925308 l 6.348209,9.8779 L 90.326416,16.03585 81.931677,7.8363323 38.786607,70.894513 35.813806,67.471287 A 30.93565,30.93565 39.32154 0 0 27.743729,60.860938 L 13.797608,52.933669 Z"
       style="fill:none;stroke:#000000;stroke-width:2;stroke-linecap:butt;stroke-linejoin:miter;stroke-miterlimit:4;stroke-dasharray:none;stroke-opacity:1" />
    <path
       id="path1446"
       d="m 81.455878,20.894443 c 0.169217,-0.185043 0.338431,-0.370086 0.507648,-0.555129 0.01537,-0.03084 0.07915,-0.102447 0.04615,-0.09252 -0.552008,0.166001 -0.02484,0.225883 -0.553797,0.647651 -0.210137,0.167556 -0.507754,0.185853 -0.738396,0.323825 -0.113557,0.06793 -1.433632,1.117706 -1.476796,1.156519 -0.270973,0.243663 -1.576861,1.60944 -1.753693,1.781039 -1.077071,1.045205 -2.172721,2.061985 -3.276637,3.076342 -0.127817,0.117446 -1.399744,1.148876 -0.784548,1.457214"
       style="fill:none;stroke:#008000;stroke-width:2;stroke-linecap:round;stroke-linejoin:round;stroke-miterlimit:4;stroke-dasharray:none" />
    <path
       id="path1448"
       d="m 84.317167,17.794972 c -1.652818,1.22831 -0.863812,0.607523 -1.984441,1.526605 -0.630373,0.516998 -1.273781,1.018435 -1.892144,1.549736 -0.566507,0.486745 -1.126498,0.982188 -1.661393,1.503474 -0.323919,0.315676 -0.470699,0.994607 -0.922996,0.994607 -0.02313,0 -0.0029,-0.04644 0,-0.06939 0.05594,-0.448637 0.05315,-0.410427 0.415348,-0.902084 0.8041,-1.091504 1.77691,-2.065852 2.768989,-2.98382 0.256259,-0.237114 0.527465,-0.457687 0.784548,-0.693911 0.145272,-0.133488 0.55813,-0.405791 0.369197,-0.462607 -0.296609,-0.0892 -0.587698,0.224291 -0.830697,0.416346 -0.486002,0.384115 -1.01365,1.005637 -1.430644,1.434084 -1.432581,1.471927 -2.859678,2.975188 -4.430382,4.302251 -0.1929,0.162977 -0.401129,0.306907 -0.599948,0.462607 -0.04734,0.03708 -0.08469,0.142596 -0.138451,0.115652 -0.04967,-0.0249 0.06231,-0.09202 0.0923,-0.138782 0.108463,-0.169126 0.209169,-0.343344 0.323048,-0.508869 1.031312,-1.498996 2.131515,-2.935741 3.27664,-4.348511 0.48329,-0.59625 0.94598,-1.209032 1.430644,-1.80417 0.103402,-0.126971 0.216628,-0.245632 0.323048,-0.370086 0.03205,-0.03749 0.130152,-0.147272 0.0923,-0.115652 -0.729697,0.609543 -2.513771,3.000687 -2.676691,3.191993 -1.415058,1.661626 -2.912867,3.250898 -4.338082,4.90364 -0.485614,0.563137 -0.949725,1.144498 -1.430644,1.711649 -0.288256,0.339936 -0.181796,0.228491 -0.3692,0.416345 -0.01537,0.01543 -0.04615,0.06804 -0.04615,0.04626 0,-0.255945 0.88586,-1.328513 1.015297,-1.503477 1.1573,-1.564355 2.353003,-3.117582 3.553536,-4.649205 0.365353,-0.466113 1.17828,-1.184042 1.384493,-1.80417 0.04811,-0.14468 -0.229581,0.203364 -0.323048,0.323826 -0.141671,0.182587 -0.2769,0.370086 -0.415348,0.555129 -0.643771,0.860423 -1.364583,1.625586 -2.076741,2.42869 -0.188458,0.212524 -0.355688,0.444097 -0.5538,0.64765 -0.119213,0.122487 -0.415348,0.471618 -0.415348,0.300695 0,-0.635806 1.302951,-2.352339 1.615244,-2.821906 0.597025,-0.897691 1.212969,-2.071708 1.984442,-2.845037 0.102264,-0.10251 -0.102968,0.273623 -0.184598,0.393217 -0.121689,0.17828 -0.246134,0.354665 -0.369199,0.531998 -0.138449,0.223594 -0.269711,0.451801 -0.415348,0.670781 -0.508339,0.764341 -1.123837,1.402732 -1.707544,2.104865 -0.146196,0.175857 -0.580221,0.666397 -0.3692,0.57826 0.63664,-0.265905 1.336524,-1.614682 1.661395,-2.081735 1.109467,-1.595033 2.175804,-3.219073 3.322786,-4.787988 0.330978,-0.452732 0.663213,-0.905043 1.015296,-1.341562 0.232902,-0.288756 0.498168,-0.550006 0.738399,-0.832694 0.11375,-0.133854 0.21154,-0.280619 0.323049,-0.416347 0.127952,-0.155744 -0.280689,0.289495 -0.415349,0.439478 -0.57396,0.639264 -0.965342,1.476531 -1.569095,2.081734 -0.02434,0.0244 0.0276,-0.06347 0.04615,-0.09252 0.10464,-0.163895 0.216813,-0.322871 0.323048,-0.485738 0.959382,-1.470818 -0.01945,-0.08411 1.799844,-2.313038 0.29881,-0.36609 0.463797,-0.717865 0.461497,-0.717041 -0.624104,0.22343 -1.116391,0.93403 -1.569093,1.387822 -0.02719,0.02725 -0.06153,0.09252 -0.0923,0.06939 -0.148481,-0.111628 0.801243,-1.836745 0.969145,-2.058603 0.09879,-0.130531 0.308531,-0.475865 0.3692,-0.323826 0.136059,0.340969 -0.525888,1.381675 -0.646097,1.619127 -0.550584,1.087582 -1.146717,2.155543 -1.707544,3.238253 -0.34563,0.667256 -1.344871,1.959771 -1.153747,2.821906 0.006,0.02712 0.03036,-0.04653 0.04615,-0.06939 0.122666,-0.17761 0.248338,-0.353156 0.3692,-0.531999 0.202202,-0.299206 0.394914,-0.604809 0.599945,-0.902084 0.437086,-0.633734 1.011164,-1.59351 1.707544,-2.012343 0.166987,-0.100432 0.0812,0.353999 -0.0923,0.670781 -0.632081,1.154058 -1.348277,2.279224 -2.169041,3.307644 -0.03466,0.04342 0.06479,-0.09052 0.0923,-0.138783 0.126397,-0.221727 0.234691,-0.453877 0.3692,-0.67078 0.672862,-1.085034 1.451046,-2.102188 2.353641,-3.00695 0.269684,-0.270334 0.561009,-0.516098 0.830696,-0.786433 0.0392,-0.0393 0.15902,-0.144074 0.138449,-0.09252 -0.104945,0.262993 -0.404096,0.396888 -0.599948,0.60139 -0.39596,0.413451 -0.773925,0.843844 -1.153745,1.27217 -0.05111,0.05764 -0.186502,0.245254 -0.138449,0.185043 0.599602,-0.751305 2.338724,-2.937558 3.368937,-2.937558 0.234786,0 -0.145283,0.453224 -0.2769,0.647651 -0.847185,1.251486 -1.980321,2.302142 -2.676689,3.6546 -0.02991,0.0581 0.09008,-0.09484 0.138449,-0.138782 0.19784,-0.179722 0.399008,-0.355753 0.599948,-0.531999 0.268483,-0.235489 2.08379,-1.76091 2.261341,-1.642257 0.120391,0.08045 -0.11398,0.266808 -0.1846,0.393217 -0.611637,1.094835 -1.22891,2.212749 -1.984441,3.215122 -0.09512,0.126191 -0.417716,0.473483 -0.323048,0.346956 0.816591,-1.091407 1.844185,-2.028559 2.999737,-2.752515 0.519369,-0.325386 1.151938,-0.571364 1.199896,-0.508869 0.222147,0.289488 -1.968233,2.79885 -2.261341,3.076341 -0.174673,0.165364 -0.374568,0.302196 -0.553799,0.462607 -0.03675,0.03289 -0.128921,0.148691 -0.0923,0.115652 0.653669,-0.589716 1.207259,-1.319661 1.799844,-1.966082 0.242988,-0.265063 0.491955,-0.524578 0.738396,-0.786433 0.171815,-0.182561 0.584819,-0.757638 0.5538,-0.508868 -0.04925,0.394965 -2.111439,3.152807 -2.307492,3.238253 -0.437396,0.190629 -0.953765,0.03084 -1.430645,0.04626"
       style="fill:none;stroke:#008000;stroke-width:2;stroke-linecap:round;stroke-linejoin:round;stroke-miterlimit:4;stroke-dasharray:none" />
    <path
       id="path1450"
       d="m 81.455878,20.894443 c -0.06153,0.470317 0.0094,0.97814 -0.1846,1.410953 -0.133942,0.298741 -0.492577,0.431412 -0.738396,0.647651 -1.551078,1.364422 -1.647391,1.382238 -3.092037,2.960688 -0.270492,0.295543 -0.998768,1.25284 -0.7384,0.948347 0.39869,-0.466255 0.678778,-1.023988 1.061448,-1.503476 0.858017,-1.075102 2.460522,-2.873774 3.507385,-3.608339 0.02275,-0.01596 -0.02697,0.04929 -0.04615,0.06939 -0.150371,0.157582 -0.310719,0.305419 -0.4615,0.462608 -0.233849,0.243787 -0.469379,0.486305 -0.692248,0.740172 -1.637638,1.865428 -3.275009,3.737742 -4.891881,5.620681 -0.450897,0.525098 -0.743786,0.794536 -1.107593,1.341562 -0.126016,0.189479 -0.548839,0.629682 -0.323051,0.60139 0.373591,-0.04681 1.309949,-1.506522 1.384496,-1.595996 0.594674,-0.713756 1.200586,-1.418079 1.799843,-2.127993 0.225269,-0.266869 0.46054,-0.525137 0.692246,-0.786434 0.137496,-0.155054 0.272282,-0.312679 0.415348,-0.462608 0.02657,-0.02785 0.1084,-0.104354 0.0923,-0.06939 -0.188579,0.409572 -0.488699,0.75794 -0.738397,1.133389 -1.352039,2.032934 -2.795508,4.011273 -4.430381,5.828855 -0.58869,0.654479 -1.483924,1.351092 -2.030593,2.081734 -0.257725,0.344461 0.62901,-0.588002 0.922997,-0.902084 1.061836,-1.134414 2.050314,-2.334556 3.138188,-3.446428 0.41153,-0.420608 1.588164,-1.711378 1.292193,-1.202777 -1.43452,2.465091 -4.023905,4.542456 -6.045626,6.499635 -1.338135,1.295416 -2.468348,2.598356 -3.553536,4.094078 -0.02024,0.0279 0.02953,-0.06233 0.04615,-0.09252 0.106463,-0.193429 0.213079,-0.386802 0.323048,-0.57826 0.631923,-1.10019 0.609669,-1.106405 1.522945,-2.220515 2.03492,-2.482416 4.309713,-4.762807 6.322525,-7.26294 0.428062,-0.531701 0.954699,-1.199965 1.246045,-1.850429 0.05504,-0.122873 0.06717,-0.260948 0.0923,-0.393216 0.0058,-0.0303 0.02257,-0.113536 0,-0.09252 -0.410504,0.382098 -0.66951,0.900035 -1.015297,1.341561 -0.405005,0.517139 -0.81916,1.027375 -1.246044,1.526607 -1.56741,1.833038 -3.237246,3.632938 -5.030333,5.250595 -0.02559,0.02307 0.02871,-0.0628 0.04615,-0.09252 0.136435,-0.232498 0.26969,-0.467077 0.415348,-0.693912 0.285181,-0.444117 0.587542,-0.876988 0.876845,-1.318432 1.283459,-1.958401 2.535071,-3.941122 3.784288,-5.921375 0.269901,-0.42785 0.775306,-1.26637 1.061445,-1.804171 0.0195,-0.03664 0.07546,-0.145037 0.04615,-0.115652 -0.226438,0.226984 -0.367369,0.525586 -0.553797,0.786433 -0.880287,1.231688 -0.670292,0.969213 -1.753692,2.3593 -0.411176,0.527568 -0.830771,1.04852 -1.246045,1.572865 -0.384654,0.48568 -0.766231,0.973813 -1.153747,1.457214 -0.304747,0.380154 -0.609598,0.760333 -0.922997,1.133388 -0.178966,0.213035 -0.372977,0.413057 -0.553796,0.62452 -0.05007,0.05855 -0.06539,0.209457 -0.138451,0.185044 -0.07313,-0.02445 -0.01318,-0.155337 0,-0.231304 0.389397,-2.244415 2.184527,-4.154617 3.461236,-5.967637 0.782984,-1.111895 0.140653,-0.188135 0.599948,-0.832695 0.01611,-0.02262 0.06306,-0.09143 0.04615,-0.06939 -0.788948,1.028096 0.498438,-0.593706 -0.922997,1.13339 -0.295851,0.359468 -0.587227,0.722619 -0.876847,1.087128 -2.401954,3.023036 -4.0444,5.80762 -5.722578,9.252151 -0.07859,0.161316 -1.268706,2.371484 -1.246045,2.40556 0.02582,0.03882 0.515173,-0.689359 0.553797,-0.740172 0.33197,-0.436759 0.665893,-0.872366 1.015296,-1.295302 1.440347,-1.743467 3.053215,-3.267033 4.845733,-4.649206 0.429487,-0.331171 0.888214,-0.622699 1.338344,-0.925216 0.226852,-0.152458 0.450652,-0.311663 0.692248,-0.439478 0.04079,-0.02159 0.159047,-0.0413 0.138449,0 -0.103156,0.206806 -0.279956,0.36784 -0.415348,0.55513 -0.959753,1.32764 -2.027024,2.535052 -3.045889,3.816512 -1.199078,1.508122 -2.404023,3.069185 -3.507385,4.649208 -0.02072,0.02966 -1.188263,1.832893 -1.338348,2.127993 -0.05425,0.106672 -0.210335,0.366675 -0.0923,0.346956 0.177332,-0.02963 0.254013,-0.255167 0.369197,-0.393216 0.238924,-0.286358 0.46464,-0.583522 0.692248,-0.878954 1.115933,-1.448464 2.202939,-2.897698 3.507385,-4.186599 0.174665,-0.172583 0.367557,-0.325718 0.5538,-0.485738 0.02919,-0.02508 0.07324,-0.102831 0.0923,-0.06939 0.163941,0.287589 -0.223917,0.63201 -0.415348,0.902084 -1.16734,1.646867 -2.500107,3.224839 -3.830437,4.741727 -0.283877,0.323686 -0.588118,0.628983 -0.876848,0.948346 -0.157435,0.174141 -0.304993,0.357018 -0.461496,0.531998 -0.04356,0.04871 -0.162669,0.199474 -0.138449,0.138782 0.164727,-0.412806 0.492263,-0.740172 0.738397,-1.110258 0.750985,-1.129186 1.497914,-2.256475 2.26134,-3.377036 0.182896,-0.268454 0.544897,-0.787252 0.692248,-1.156517 0.01143,-0.02864 0.02643,-0.108419 0,-0.09252 -0.61986,0.372812 -1.358254,1.404859 -1.799844,1.896693 -1.208246,1.345721 -2.407089,2.681311 -3.691985,3.955293 -0.410485,0.407 -0.736483,0.997362 -1.292196,1.15652 -0.07297,0.0209 0.05412,-0.142568 0.0923,-0.208174 0.177467,-0.304959 0.360889,-0.606653 0.5538,-0.902084 0.361002,-0.552857 0.729993,-1.1006 1.107593,-1.642258 2.03985,-2.926109 4.081134,-5.841381 6.368677,-8.581371 1.451306,-1.738355 0.871228,-1.017183 2.122892,-2.42869 0.141343,-0.159393 0.274005,-0.326345 0.415348,-0.485738 0.04336,-0.04889 0.203793,-0.138782 0.138449,-0.138782 -0.526166,0 -1.824728,1.513052 -2.030593,1.73478 -1.856128,1.999144 -3.265053,4.350758 -4.799581,6.592157 -0.184703,0.269786 -0.364061,0.543296 -0.553797,0.809565 -0.04121,0.05783 -0.15059,0.231878 -0.138451,0.161911 0.323472,-1.864431 1.935258,-4.654941 2.630541,-5.990767 0.364439,-0.700188 1.078124,-1.97911 1.661392,-2.636864 0.02045,-0.02307 0.01233,0.06425 0,0.09252 -0.0965,0.221107 -0.210653,0.434182 -0.323048,0.64765 -0.601506,1.142437 -0.567941,1.082577 -1.384493,2.220516 -2.093013,2.91679 -3.950515,5.990703 -6.045629,8.905197 -0.343529,0.47788 -0.700653,0.945965 -1.061444,1.410952 -0.285398,0.367823 -0.567442,0.739259 -0.876848,1.087128 -0.274577,0.308715 -2.516619,2.426007 -0.969145,0.57826 0.343326,-0.409946 0.692782,-0.815462 1.061445,-1.20278 0.895159,-0.940451 1.435047,-1.434777 2.399792,-2.220516 0.132527,-0.107939 0.247758,-0.334293 0.415348,-0.300696 0.128447,0.02574 -0.109911,0.239331 -0.1846,0.346956 -0.303376,0.43715 -1.151961,1.445866 -1.430644,1.75791 -0.421042,0.471443 -0.866468,0.920605 -1.292196,1.387822 -0.46655,0.512021 -0.933672,1.023813 -1.384493,1.549736 -0.969907,1.131485 -1.854314,2.331304 -2.81514,3.469558 -0.169638,0.200961 0.283927,-0.442987 0.415348,-0.670783 0.241255,-0.418171 0.453853,-0.852363 0.692248,-1.272172 0.981599,-1.728576 2.06543,-3.278706 3.415088,-4.741727 0.233352,-0.252955 1.577737,-1.665531 1.153745,-0.902084 -1.012637,1.823365 -2.243135,3.492524 -3.322789,5.273725 -1.086196,1.791999 -2.128157,3.595018 -3.322785,5.319988 -0.429856,0.620683 -0.932056,1.190945 -1.338345,1.8273 -0.01852,0.02901 0.07116,-0.0191 0.0923,-0.04626 0.22723,-0.291836 0.439989,-0.594971 0.6461,-0.902084 0.363222,-0.541223 0.702029,-1.098499 1.061445,-1.642258 1.435377,-2.171562 2.922897,-4.109799 4.938032,-5.782596 0.394541,-0.327517 0.823539,-0.611528 1.246045,-0.902083 0.239318,-0.164579 0.457663,-0.388117 0.738396,-0.462608 0.08331,-0.02212 0.09245,0.181729 0.04615,0.254434 -0.199257,0.312922 -0.493381,0.554143 -0.738399,0.832694 -0.385701,0.438494 -0.778737,0.870757 -1.153744,1.318432 -1.590138,1.898261 -3.025159,3.917756 -4.568833,5.851985 -0.03875,0.04856 0.05836,-0.109879 0.0923,-0.161912 0.227644,-0.349001 0.457816,-0.696388 0.692247,-1.040868 0.442455,-0.650155 0.849361,-1.327026 1.338345,-1.942952 1.531461,-1.929027 2.602971,-2.943304 4.384233,-4.602945 0.614741,-0.572768 1.193554,-1.198542 1.892144,-1.665386 0.05165,-0.03452 -0.04987,0.116539 -0.0923,0.161912 -0.189725,0.202859 -0.406831,0.378629 -0.599948,0.57826 -0.688803,0.712033 -1.418587,1.551668 -2.030592,2.313038 -1.425086,1.772883 -1.532933,2.039062 -2.953589,3.885903 -1.290447,1.677572 -2.714046,3.23727 -4.015034,4.90364 -0.05129,0.06569 0.09593,-0.136499 0.138449,-0.208172 0.126775,-0.213728 0.244213,-0.432874 0.369197,-0.647652 0.281551,-0.483817 2.071732,-3.384328 2.53824,-3.423296 0.101055,-0.0084 0.0065,0.214019 -0.04615,0.300694 -0.382654,0.630155 -0.809398,1.233284 -1.246045,1.8273 -1.080373,1.469747 -2.360192,2.828472 -3.645836,4.117207 -0.346192,0.347025 -0.707517,0.678612 -1.061445,1.017739 -0.173001,0.165764 -0.676865,0.678489 -0.507648,0.508867 0.173111,-0.173529 0.338431,-0.354666 0.507648,-0.531997 0.276897,-0.277567 0.551807,-0.557131 0.830696,-0.832694 0.327581,-0.323678 0.957114,-1.057968 1.430645,-1.295302 0.03894,-0.01953 -0.06356,0.05978 -0.0923,0.09252 -1.481413,1.687467 1.208341,-1.320059 -1.199896,1.341562 -1.502905,1.677712 -0.515308,0.581546 -1.984441,2.197385 -0.337368,0.371057 -0.724271,0.701842 -1.015297,1.110258 -0.01841,0.02582 0.06862,-0.0021 0.0923,-0.02312 0.38054,-0.339072 0.525727,-0.675558 0.876845,-1.087128 0.75429,-0.884153 1.506437,-1.771719 2.307492,-2.613734 0.308539,-0.324313 0.666081,-0.598909 1.015297,-0.878954 0.113294,-0.09085 0.345379,-0.37456 0.369196,-0.231304 0.02254,0.135644 -0.899093,1.219922 -1.015296,1.364694 -1.046257,1.303475 -2.062085,2.645902 -3.184337,3.885904 -0.277701,0.306837 -0.573519,0.597418 -0.876845,0.878954 -0.11285,0.10474 -0.246134,0.370086 -0.369199,0.277563 -0.118272,-0.08892 0.189531,-0.227533 0.276899,-0.346956 0.251169,-0.343326 0.493236,-0.693221 0.738397,-1.040865 0.601255,-0.852601 2.125914,-3.023539 2.63054,-3.770252 1.107755,-1.639191 1.583973,-2.347134 2.492089,-4.024688 0.200176,-0.369779 0.366112,-0.757116 0.5538,-1.133388 0.07572,-0.151796 0.364096,-0.557807 0.323048,-0.393215 -0.284763,1.141793 -1.77441,2.870625 -2.492092,3.816511 -0.152733,0.201303 -0.302387,0.40509 -0.461497,0.60139 -0.04115,0.05076 -0.147669,0.203472 -0.138451,0.138782 0.144203,-1.011838 1.735707,-3.46564 2.353641,-4.394772 0.148566,-0.223379 -0.333851,0.420156 -0.507646,0.62452 -0.233838,0.274968 -0.462872,0.553995 -0.692247,0.832694 -0.91036,1.10612 -1.853322,2.183072 -2.768989,3.284514 -0.260292,0.313102 -1.371682,1.9421 -1.753696,2.197386 -0.07471,0.04993 0.08408,-0.159764 0.138451,-0.231302 0.529641,-0.696825 1.115418,-1.351365 1.661393,-2.035474 0.03077,-0.03855 -0.06057,0.07789 -0.0923,0.115652 -1.003374,1.194369 -0.287792,0.322509 -1.153744,1.387822"
       style="fill:none;stroke:#008000;stroke-width:2;stroke-linecap:round;stroke-linejoin:round;stroke-miterlimit:4;stroke-dasharray:none" />
    <path
       id="path1452"
       d="m 48.597206,63.708777 c -1.03068,1.272169 -2.093482,2.518973 -3.09204,3.816511 -0.663618,0.862314 -1.236536,1.791573 -1.892142,2.659994 -0.421896,0.558845 -0.892008,1.0796 -1.338344,1.619125 -0.07669,0.09271 -0.118126,0.235231 -0.230751,0.277567 -0.209259,0.07866 0.08273,-0.254008 0.323051,-0.55513 0.605816,-0.759093 1.199764,-1.52644 1.799841,-2.289908 0.16578,-0.210918 0.344326,-0.411692 0.507648,-0.62452 0.07692,-0.100232 0.261324,-0.423283 0.230749,-0.300694 -0.06957,0.278945 -0.443558,0.651373 -0.553797,0.786432 -0.259424,0.317836 -0.527783,0.628359 -0.784548,0.948346 -0.312467,0.389408 -0.611555,0.789413 -0.922996,1.17965 -0.365451,0.457912 -0.730036,0.91671 -1.107596,1.364692 -0.774475,0.918929 -1.610508,1.77892 -2.39979,2.683123 -0.01132,0.01296 0.03442,-0.01053 0.04615,-0.02312 0.09678,-0.103944 0.187735,-0.213281 0.2769,-0.323826 0.203171,-0.251894 0.398825,-0.509768 0.599948,-0.763302 0.238299,-0.3004 2.506935,-3.070551 2.861289,-2.821906 0.09128,0.06404 -0.186085,0.486072 -0.599948,0.994606 -0.879449,1.080624 -1.809597,2.096402 -2.58439,3.261384 -0.168319,0.253084 -0.325829,0.514442 -0.461499,0.786431 -0.03509,0.07036 -0.11402,0.270989 -0.04615,0.231304 0.44036,-0.257492 1.6842,-2.488006 1.845993,-2.752515 1.061622,-1.735617 2.085567,-3.491029 3.184337,-5.204336 1.393534,-2.172928 0.95019,-1.555239 1.845993,-2.752513 0.286636,-0.383099 0.457597,-0.710714 0.369199,-0.717042 -0.775258,-0.05551 -1.48786,1.386355 -1.845992,1.873559 -0.136877,0.186209 -0.281811,0.366512 -0.415349,0.55513 -0.0359,0.0507 -0.12003,0.217504 -0.0923,0.161912 0.363032,-0.727808 0.548161,-1.5411 0.876845,-2.289908 0.249555,-0.568534 0.376883,-0.663053 0.369199,-0.647649 -0.337632,0.676888 -0.946438,1.320688 -1.338344,1.966081 -0.651545,1.072968 -1.166323,2.200736 -1.753693,3.307644 -0.537326,1.0126 -1.097984,2.006719 -1.615244,3.03008 -0.07264,0.143705 -1.292196,2.446027 -1.292196,2.474952"
       style="fill:none;stroke:#008000;stroke-width:2;stroke-linecap:round;stroke-linejoin:round;stroke-miterlimit:4;stroke-dasharray:none" />
    <path
       id="path1454"
       d="m 48.504898,60.748102 c -0.671888,2.835056 -2.861072,4.209291 -4.153477,6.800316"
       style="fill:none;stroke:#008000;stroke-width:2;stroke-linecap:round;stroke-linejoin:round;stroke-miterlimit:4;stroke-dasharray:none" />
    <path
       id="path1456"
       d="m 39.367237,75.620929 c 0.07692,0.370084 0.343252,0.749388 0.230751,1.11025 -0.03727,0.119552 -1.551522,1.821191 -1.707541,2.012344 -0.646597,0.792184 -1.2954,1.58536 -1.938293,2.382428 -0.137461,0.170426 -0.280045,0.336724 -0.415348,0.508867 -0.06475,0.08238 -0.1846,0.359217 -0.1846,0.254437 0,-0.117613 0.121719,-0.201303 0.1846,-0.300696 0.137113,-0.216736 0.288335,-0.424847 0.415348,-0.64765 0.415462,-0.728808 2.367421,-4.019143 2.169041,-4.76486 -0.05188,-0.195011 -0.424074,0.195778 -0.922996,0.809564 -0.335269,0.412456 -1.799844,2.170716 -1.799844,2.659994 0,0.04875 0.02172,-0.0966 0.04615,-0.138782 0.114626,-0.197887 0.241374,-0.388628 0.369197,-0.57826 0.624065,-0.925835 1.225235,-1.951194 1.984444,-2.775646 0.05645,-0.0613 -0.09541,0.136813 -0.138451,0.208174 -0.680239,1.127718 -0.274087,0.480666 -0.969145,1.734778 -0.05734,0.103449 -0.963025,1.805067 -1.246045,1.549736 -0.125695,-0.113398 0.421204,-2.219359 0.646097,-2.42869 0.142872,-0.132985 0.205626,1.204833 0.0923,1.318432 -0.135126,0.135448 -0.34812,-0.249317 -0.3692,-0.439478 -0.03173,-0.28624 0.101412,-2.695498 0.415348,-2.590602 0.302866,0.101198 -0.27492,0.98711 -0.738396,1.757908 -0.149828,0.249177 -0.297794,0.499885 -0.461497,0.740172 -0.05222,0.07665 -0.201152,0.299429 -0.1846,0.208174 0.126516,-0.697518 1.33499,-2.201 1.707544,-2.706254 0.221327,-0.300164 0.441709,-0.602702 0.692246,-0.878953 0.0603,-0.06649 0.245472,-0.227325 0.230751,-0.138785 -0.07476,0.449609 -1.547302,2.250509 -1.799844,2.544342 -0.195977,0.22802 -0.749247,0.873471 -0.692248,0.57826 0.116869,-0.605274 0.537562,-1.035516 0.830696,-1.549736"
       style="fill:none;stroke:#008000;stroke-width:2;stroke-linecap:round;stroke-linejoin:round;stroke-miterlimit:4;stroke-dasharray:none" />
    <path
       id="path1460"
       d="M 39.367237,75.620929 C 39.013423,75.027247 38.706245,74.403158 38.305795,73.839881 38.107855,73.56146 36.370334,72.633675 35.998303,72.382667 35.83192,72.27041 35.66148,72.16422 35.490655,72.058841 c -0.02929,-0.01807 -0.102399,-0.07916 -0.0923,-0.04626 0.193527,0.630475 0.953521,0.929587 1.476796,1.202779 0.180083,0.09402 0.553796,0.457584 0.553796,0.254434 0,-0.06013 -0.09274,-0.07658 -0.138448,-0.115652 -0.215815,-0.18452 -0.424868,-0.377137 -0.646099,-0.555127 -0.861423,-0.693071 -1.782437,-1.303893 -2.630538,-2.012344 -0.07567,-0.06321 0.15149,0.126402 0.230748,0.185041 0.532239,0.393788 1.242605,1.046221 1.938293,1.133391 0.04322,0.0054 0.114469,-0.05502 0.0923,-0.09252 -0.516782,-0.874163 -1.567141,-1.582373 -2.261341,-2.313038 -0.172712,-0.181785 -0.345646,-0.363739 -0.507648,-0.55513 -0.05384,-0.06361 -0.202409,-0.261599 -0.138451,-0.208172 0.222726,0.18605 2.150967,2.137053 2.261343,2.081734 0.07519,-0.03769 -0.262099,-0.25609 -0.646099,-0.647653 -0.605825,-0.617749 -1.095074,-1.508434 -1.753693,-2.058601 -0.04307,-0.03598 0.01693,0.113993 0.04615,0.161912 0.365207,0.599048 0.610147,0.8684 1.107596,1.387822 0.146928,0.153418 0.30508,0.295748 0.461499,0.439478 0.02834,0.02604 0.122328,0.09347 0.0923,0.06939 -0.850061,-0.68168 -1.636292,-1.343181 -2.44594,-2.081733 -0.366599,-0.334407 -0.740156,-0.661123 -1.107596,-0.994606 -0.201756,-0.183108 -0.395862,-0.374621 -0.599948,-0.555128 -0.05766,-0.051 -0.214414,-0.209759 -0.1846,-0.138784 0.303133,0.721669 0.909373,1.274635 1.384495,1.896692 1.003764,1.314188 1.968043,2.662573 2.999738,3.955296 0.01733,0.02172 -0.03128,-0.04593 -0.04615,-0.06939 -3.539574,-5.584944 0.456044,0.761432 -1.892144,-3.076339 -0.120615,-0.197133 -0.500999,-0.769776 -0.415348,-0.55513 0.272444,0.682744 0.77003,1.498478 1.107596,2.081733 0.643784,1.112351 1.271958,2.259479 1.984441,3.330777 0.03077,0.04626 -0.05486,-0.09774 -0.0923,-0.138782 -0.209206,-0.22937 -0.450281,-0.429885 -0.646099,-0.670783 -0.312955,-0.385005 -0.607764,-0.785926 -0.876845,-1.20278 -0.336921,-0.521946 -0.465548,-1.19879 -0.922997,-1.619125 -0.0511,-0.04695 -0.01976,0.141655 0,0.208174 0.08891,0.299215 0.198631,0.592675 0.323049,0.878954 0.672748,1.547974 0.826098,1.4356 1.246044,3.145731 0.105828,0.430959 0.160378,0.875329 0.1846,1.318432 0.0069,0.12695 0.02135,0.427054 -0.0923,0.370086 -0.458978,-0.230042 -1.131956,-2.11664 -1.153744,-2.174255 -0.365099,-0.965415 -0.839772,-3.071403 -1.292196,-3.978426 -0.03097,-0.06209 -0.0186,0.141324 0,0.208174 0.07454,0.267734 0.189203,0.522711 0.276899,0.786432 0.158457,0.476514 0.320114,0.952227 0.461497,1.434084 0.352571,1.201615 0.502328,2.465773 0.876848,3.654599 0.01389,0.04412 0.01,-0.09362 0,-0.138782 -0.06718,-0.303019 -0.155644,-0.600932 -0.230751,-0.902083 -0.336413,-1.348891 -0.66553,-2.703833 -1.015296,-4.047818 -0.01164,-0.04477 -0.0064,0.09296 0,0.138781 0.03984,0.286224 0.08974,0.570977 0.138451,0.855824 0.141888,0.82967 0.484124,2.704349 0.599948,3.469558 0.103619,0.684583 0.0989,1.389494 0.276897,2.058604 0.0218,0.08196 0.01902,-0.171786 0,-0.254434 -0.07388,-0.320921 -0.185285,-0.632031 -0.276897,-0.948346 -0.595104,-2.054725 -1.245058,-4.198337 -1.430645,-6.337723 -0.01804,-0.20796 0.01024,0.418888 0.04615,0.62452 0.07334,0.4201 0.196435,0.830244 0.2769,1.249039 0.289557,1.507088 0.673483,3.170622 0.599948,4.718598 -0.0016,0.03168 -0.0792,0.0058 -0.0923,-0.02313 -0.146048,-0.322074 -0.258403,-0.658772 -0.3692,-0.994605 -0.212365,-0.643697 -0.420915,-1.289201 -0.599948,-1.942952 -0.83575,-3.051844 -0.561549,-2.234597 -1.107596,-5.088684 -0.06819,-0.356446 -0.156157,-0.708837 -0.230748,-1.063998 -0.01773,-0.08435 0.03091,-0.215812 -0.04615,-0.254434 -0.06893,-0.03455 -0.0067,0.154491 0,0.231304 0.02413,0.27822 0.05033,0.556602 0.0923,0.832694 0.761402,5.008727 -0.275291,-2.555237 0.553797,3.747122 0.03567,0.271113 0.400026,2.666497 0.369199,3.284514 -0.0055,0.110207 -0.105608,-0.19535 -0.138451,-0.300697 -0.121338,-0.389217 -0.227518,-0.783304 -0.323048,-1.17965 -0.181436,-0.75275 -0.369456,-1.504899 -0.507648,-2.266775 -0.072,-0.396944 -0.328774,-3.491169 -0.738397,-4.20973 -0.03055,-0.05359 -0.0064,0.123698 0,0.185045 0.07348,0.699733 0.205079,1.368911 0.3692,2.058601 0.373105,1.567931 0.702016,3.148356 1.153745,4.695467 0.0078,0.02667 0.0536,-0.04263 0.04615,-0.06939 -0.08761,-0.314698 -0.228666,-0.612484 -0.323048,-0.925216 -0.18265,-0.605208 -0.366271,-1.211144 -0.507648,-1.8273 -0.357177,-1.556673 -0.609825,-3.360767 -1.015296,-4.926772 -0.121984,-0.471122 -0.41098,-1.152377 -0.461497,-1.133388 -0.116552,0.04381 0.0041,0.866212 0.0923,1.364692 0.227671,1.286333 0.535339,2.557309 0.784545,3.839644 0.286342,1.47342 0.159342,1.160423 0.461499,2.220516 0.07488,0.262731 -0.160515,-0.52242 -0.230748,-0.786432 -0.149014,-0.560136 -0.297992,-1.120907 -0.415351,-1.688518 -0.859668,-4.157882 -0.204174,-1.337574 -0.830696,-5.158076 -0.05689,-0.346943 -0.246513,-1.367999 -0.276898,-1.017735 -0.0976,1.125053 0.312574,2.545897 0.507649,3.608339 0.03897,0.212268 0.45068,3.198858 0.692245,3.562078 0.05551,0.08346 0.0231,-0.203158 0,-0.300694 -0.08538,-0.360685 -0.233355,-0.704363 -0.323048,-1.063998 -0.369454,-1.481373 -0.576136,-2.757194 -0.830697,-4.279122 -0.08239,-0.492564 -0.142727,-0.988756 -0.230748,-1.480344 -0.01979,-0.110482 -0.03014,-0.417285 -0.0923,-0.323823 -0.105082,0.158001 0.183888,1.545402 0.1846,1.549733 0.315116,1.923958 0.379566,2.321595 0.646096,4.325382 0.06658,0.500512 0.114181,1.003488 0.1846,1.503474 0.02193,0.155707 0.223036,0.375242 0.0923,0.462608 -0.120872,0.08077 -0.168217,-0.238845 -0.230749,-0.370086 -0.184134,-0.386456 -0.35797,-0.778587 -0.507648,-1.17965 -0.250579,-0.67142 -0.49676,-1.345994 -0.692247,-2.035472 -0.379109,-1.337103 -0.502905,-2.998388 -1.199896,-4.255989 -0.01122,-0.02024 -0.0038,0.04657 0,0.06939 0.02703,0.162579 0.04168,0.328896 0.0923,0.485738 0.11915,0.369171 0.29381,0.718736 0.415349,1.087128 0.176075,0.533694 1.561801,5.834031 1.061444,5.99077 -0.161877,0.05071 -0.245612,-0.242289 -0.323048,-0.393218 -0.960144,-1.871435 -1.261356,-3.941591 -1.569093,-5.990767 -0.08323,-0.554218 -0.155206,-1.11007 -0.23075,-1.665388 -0.01676,-0.123183 -0.02396,-0.492409 -0.04615,-0.370086 -0.257451,1.419381 0.422216,2.854057 0.646096,4.279119 0.115766,0.736867 0.181062,1.480796 0.2769,2.220518 0.058,0.447659 0.12429,0.894207 0.1846,1.341562 0.01662,0.123203 0.1515,0.436086 0.04615,0.370086 -0.151902,-0.09517 -0.171659,-0.316505 -0.230748,-0.485738 -0.156745,-0.448921 -0.300956,-0.903158 -0.415348,-1.364692 -0.578749,-2.335064 -0.499097,-2.504733 -0.922997,-4.926771 -0.08132,-0.464664 -0.16422,-0.929754 -0.276899,-1.387825 -0.02636,-0.107151 -0.0892,-0.399436 -0.138449,-0.300693 -0.0726,0.145542 0.01186,0.326752 0.04615,0.485738 0.0891,0.413086 0.216888,0.816874 0.323049,1.225909 0.795121,3.063595 0.06609,0.202285 0.738397,3.122602 0.06963,0.302464 0.166304,0.598472 0.230749,0.902084 0.01281,0.06034 0.0245,0.241652 0,0.185044 -0.546576,-1.263189 -1.077032,-2.687396 -1.430645,-4.024685 -0.167378,-0.632992 -0.286283,-1.277925 -0.415348,-1.919822 -0.07096,-0.352901 -0.096,-0.715108 -0.1846,-1.063998 -0.02051,-0.08077 -0.09565,-0.279678 -0.138449,-0.208174 -0.301775,0.504168 0.93994,4.202072 1.061446,4.926771 0.06141,0.36625 0.07054,0.739535 0.0923,1.110258 0.009,0.153937 0.103591,0.348382 0,0.462608 -0.06959,0.07673 -0.179447,-0.118179 -0.23075,-0.208174 -0.16742,-0.293687 -0.295707,-0.609039 -0.415349,-0.925213 -0.638251,-1.686709 -0.698641,-2.041547 -1.061446,-3.885907 -0.07535,-0.383045 -0.113679,-0.772628 -0.184599,-1.156517 -0.0063,-0.03389 -0.05289,-0.12632 -0.04615,-0.09252 0.236443,1.185055 0.664367,2.333937 0.922996,3.515817 0.127361,0.58201 0.211363,1.172689 0.323049,1.75791 0.05754,0.301485 0.11817,0.602433 0.1846,0.902084 0.01055,0.0476 0.07119,0.180613 0.04615,0.138782 -0.747035,-1.24805 -1.011531,-2.674337 -1.338345,-4.070945 -0.127843,-0.546325 -0.259415,-1.09202 -0.369199,-1.642258 -0.02882,-0.14445 -0.09444,-0.578636 -0.04615,-0.439476 0.109109,0.314441 0.144104,0.650116 0.230749,0.971476 0.328527,1.21847 0.652661,2.076061 0.876847,3.330773 0.08042,0.450104 0.0962,0.909416 0.138449,1.364692 0.01929,0.207849 0.126989,0.432067 0.04615,0.62452 -0.03818,0.0909 -0.183387,-0.09857 -0.230749,-0.185042 -0.172589,-0.315113 -0.297787,-0.655103 -0.415348,-0.994606 -0.205845,-0.594455 -0.388645,-1.197152 -0.553798,-1.804169 -0.374977,-1.37822 -0.68956,-2.785309 -0.969146,-4.1866 -0.05122,-0.25671 0.124522,0.508521 0.184599,0.763304 0.143356,0.607962 0.310779,1.211477 0.415348,1.8273 0.141841,0.835316 0.239858,1.67803 0.323049,2.521209 0.05535,0.560956 0.06913,1.125315 0.0923,1.688518 0.0076,0.184888 0.151473,0.448844 0,0.55513 -0.124404,0.08729 -0.167987,-0.254807 -0.230749,-0.393216 -0.168461,-0.371504 -0.338087,-0.74459 -0.461499,-1.13339 -0.489295,-1.541481 -0.669177,-2.732299 -0.969146,-4.348512 -0.09576,-0.515948 -0.187195,-1.032697 -0.276899,-1.549733 -0.03337,-0.19232 0.0822,-0.490799 -0.0923,-0.57826 -0.165998,-0.0832 0.01833,0.371544 0.04615,0.55513 0.06457,0.426112 0.165858,0.846106 0.230749,1.27217 0.182289,1.196858 0.461499,2.594927 0.461499,3.816511 0,0.03442 -0.07737,-0.01524 -0.0923,-0.04626 -0.09629,-0.199948 -0.16152,-0.413665 -0.230749,-0.62452 -0.513918,-1.565272 -0.766442,-3.166546 -1.015296,-4.787989 -0.0082,-0.05335 -0.0084,0.1086 0,0.161914 0.03788,0.240464 0.08078,0.480544 0.138449,0.717042 0.436658,1.790621 0.37291,1.009547 0.646098,2.960687 0.0483,0.344954 0.06754,0.693431 0.0923,1.040869 0.006,0.0846 0.08044,0.28131 0,0.254434 -0.559282,-0.186876 -1.02366,-2.494947 -1.061445,-2.706257 -0.19903,-1.113046 -0.341788,-2.235432 -0.507649,-3.353903 -0.0034,-0.02289 -0.002,-0.09243 0,-0.06939 0.104022,1.199118 0.450013,2.3441 0.599948,3.538947 0.07988,0.636612 0.101934,1.279261 0.13845,1.919822 0.02503,0.439034 0.0338,0.878859 0.04615,1.318432 0.003,0.1079 0.07624,0.400243 0,0.323826 -0.736229,-0.737999 -1.3941,-5.068379 -1.522944,-6.037029 -0.05624,-0.422836 -0.088,-0.848604 -0.138449,-1.27217 -0.01109,-0.09313 0.0058,-0.355663 -0.04615,-0.277566 -0.1172,0.176223 0.682894,4.431913 0.738397,4.78799 0.05895,0.378206 0.136494,0.753647 0.184599,1.133387 0.01357,0.107088 0.07015,0.405866 0,0.323827 -0.109416,-0.127961 -0.08997,-0.324507 -0.138449,-0.485738 -0.120749,-0.401633 -0.250954,-0.800405 -0.369198,-1.20278 -0.82727,-2.815114 -0.235117,-0.736587 -0.876847,-3.60834 -0.07992,-0.357659 -0.186892,-0.708742 -0.276899,-1.063998 -0.03676,-0.145103 -0.0923,-0.589164 -0.0923,-0.439476 0,1.315752 -0.03373,-0.595201 0.276899,1.87356 0.157643,1.252884 0.270697,2.511337 0.369199,3.770251 0.02466,0.315154 0.01432,0.632556 0,0.948346 -0.0013,0.02775 -0.033,0.09386 -0.04615,0.06939 -0.652497,-1.214694 -0.955295,-2.828817 -1.246045,-4.14034 -0.169216,-0.763302 -0.140414,-1.599687 -0.507648,-2.289906 -0.03622,-0.06807 -0.0077,0.154583 0,0.231302 0.02316,0.23219 0.04341,0.465748 0.0923,0.693912 0.640038,2.987339 0.628583,2.012701 0.830697,4.464164 0.0298,0.361476 0.03346,0.724648 0.04615,1.087127 0.0027,0.07706 0.04439,0.294344 0,0.231304 -0.775248,-1.100907 -1.262614,-4.635806 -1.522944,-5.990769 -0.07222,-0.375899 -0.121819,-0.755796 -0.184599,-1.133388 -0.01414,-0.08503 -0.04615,-0.34063 -0.04615,-0.254434 0,1.409258 0.451065,2.852801 0.692247,4.23286 0.1091,0.624274 0.185886,1.254847 0.323049,1.873559 0.0236,0.10645 -0.01855,-0.218342 -0.04615,-0.323823 -0.0957,-0.365726 -0.221788,-0.722905 -0.323049,-1.087128 -0.544492,-1.958465 -0.480431,-1.78934 -0.922996,-3.955296 -0.110175,-0.539205 -0.167454,-1.091232 -0.323049,-1.619126 -0.04712,-0.159874 -0.115226,-0.456864 -0.276899,-0.416348 -0.157056,0.03936 -0.0083,0.324038 0,0.485738 0.02251,0.439978 0.04274,0.880676 0.0923,1.318432 0.154045,1.360789 0.382224,2.712257 0.553798,4.070948 0.09131,0.72308 0.306864,1.449419 0.230749,2.174256 -0.0079,0.07549 -0.06417,-0.137674 -0.0923,-0.208175 -0.125725,-0.315068 -0.26727,-0.624795 -0.369198,-0.948346 -0.624974,-1.983837 -0.775608,-3.950427 -0.876847,-6.013897 -0.01362,-0.277656 -0.03264,-0.555032 -0.04615,-0.832694 -0.0019,-0.0385 -0.0093,-0.153056 0,-0.115652 0.419624,1.682531 0.576039,3.462179 0.738397,5.181206 0.07779,0.823608 0.234526,1.649182 0.1846,2.47495 -0.01706,0.282119 -0.287413,-0.49276 -0.369199,-0.763302 -0.476379,-1.575829 -0.557121,-2.090621 -0.784547,-3.885904 -0.08465,-0.668258 -0.131434,-1.340847 -0.184599,-2.012344 -0.03809,-0.481121 -0.0252,-1.087128 -0.0923,-1.087128 -0.06168,0 0,0.123362 0,0.185044 0,0.239014 -0.01519,0.47851 0,0.71704 0.03101,0.486939 0.08935,0.971767 0.138449,1.457214 0.12012,1.187661 0.247694,2.374558 0.369199,3.56208 0.03233,0.31596 0.068,0.631666 0.0923,0.948346 0.0065,0.08456 0.07321,0.297243 0,0.254434 -0.297291,-0.173837 -0.669022,-1.554951 -0.692248,-1.642258 -0.450657,-1.694027 -0.433898,-1.894473 -0.553798,-3.562078 -0.02988,-0.41556 0.01263,-0.836578 -0.04615,-1.24904 -0.03488,-0.244731 -0.06137,0.493438 -0.04615,0.740172 0.03147,0.509987 0.08912,1.018035 0.138449,1.526604 0.157734,1.626304 0.218967,1.809096 0.276899,3.377036 0.01139,0.308194 0,0.616809 0,0.925216 0,0.06168 0.0299,0.238993 0,0.185041 -0.548816,-0.990242 -0.632426,-2.4902 -0.692247,-3.562077 -0.06747,-1.208873 0.135359,-1.317323 -0.138449,-2.243648 -0.02344,-0.07929 -0.06635,0.519888 -0.04615,1.896692 0.03887,2.649371 0.04755,1.095531 0.0923,3.58521 0.0053,0.292936 0.0139,0.586298 0,0.878954 -0.0016,0.03443 -0.02181,0.116919 -0.04615,0.09252 -0.790149,-0.792049 -0.876847,-3.691644 -0.876847,-4.78799 0,-0.03855 0,0.0771 0,0.115652 0,0.208174 0,0.416346 0,0.62452 0,0.299796 0.06509,3.787232 -0.1846,3.677732 -0.151526,-0.06645 -0.169426,-0.285806 -0.230748,-0.439478 -0.448123,-1.123001 -0.507649,-2.188766 -0.507649,-3.377036 0,-0.02313 0,0.04626 0,0.06939 0,0.239014 0,0.478028 0,0.717042 0,0.25405 0.09293,2.419564 -0.0923,2.382427 -0.428054,-0.08582 -0.129209,-1.632939 -0.184599,-1.966081 -0.0063,-0.03797 -0.07422,-0.103373 -0.0923,-0.06939 -0.354585,0.666446 0.156682,1.758194 -0.323049,2.359301 -0.269567,0.337767 -0.184599,-1.042215 -0.184599,-1.063998 0,-0.802672 -0.23858,1.289624 -0.369199,1.387824 -0.0062,0.0047 -0.02092,-0.402336 0.04615,-1.225913 0.01009,-0.123907 0.07623,-0.490706 0.04615,-0.370086 -0.07075,0.283687 -0.323049,4.105614 -0.323049,1.896692"
       style="fill:none;stroke:#008000;stroke-width:2;stroke-linecap:round;stroke-linejoin:round;stroke-miterlimit:4;stroke-dasharray:none" />
  </g>
</svg>
