<?xml version="1.0" encoding="UTF-8" standalone="no"?>
<svg
   xmlns:dc="http://purl.org/dc/elements/1.1/"
   xmlns:cc="http://creativecommons.org/ns#"
   xmlns:rdf="http://www.w3.org/1999/02/22-rdf-syntax-ns#"
   xmlns:svg="http://www.w3.org/2000/svg"
   xmlns="http://www.w3.org/2000/svg"
   xmlns:sodipodi="http://sodipodi.sourceforge.net/DTD/sodipodi-0.dtd"
   xmlns:inkscape="http://www.inkscape.org/namespaces/inkscape"
   sodipodi:docname="drawing_progress_mask_horizontal.svg"
   inkscape:version="1.0 (4035a4fb49, 2020-05-01)"
   id="svg8"
   version="1.1"
   viewBox="0 0 300 50"
   height="50mm"
   width="300mm">
  <defs
     id="defs2">
    <clipPath
       id="clipPath35"
       clipPathUnits="userSpaceOnUse">
      <path
         sodipodi:nodetypes="sssssasszss"
         d="m 44.023127,286.88887 c -0.0019,0.68136 -0.120301,2.23618 -1.704004,2.94164 -1.089277,0.48522 -3.361884,-0.19894 -4.981774,-0.46281 C 27.042443,287.69069 4.855319,285.26306 5.000711,282.3242 5.1981418,278.33349 5.9564463,12.479319 5.986268,11.689971 6.005501,11.180956 6.4353123,10.775469 6.7958862,10.486966 7.1789986,10.180428 7.6656478,10.054606 8.1288954,10.010303 10.583148,9.7755805 30.238893,13.61023 39.812513,15.521608 c 3.146301,0.628161 3.751731,1.476523 4.000492,1.82711 0.248761,0.350588 1.191649,2.387208 1.186979,3.669881 0,0 -0.918231,244.624201 -0.976857,265.870271 z"
         style="display:block;fill:#ffffff;fill-rule:evenodd;stroke-width:0.356762"
         id="path37" />
    </clipPath>
    <inkscape:path-effect
       message="Use fill-rule evenodd on &lt;b&gt;fill and stroke&lt;/b&gt; dialog if no flatten result after convert clip to paths."
       hide_clip="false"
       flatten="false"
       inverse="true"
       lpeversion="1"
       is_visible="true"
       id="path-effect39"
       effect="powerclip" />
  </defs>
  <sodipodi:namedview
     inkscape:window-maximized="0"
     inkscape:window-y="0"
     inkscape:window-x="323"
     inkscape:window-height="1040"
     inkscape:window-width="1375"
     showgrid="false"
     inkscape:document-rotation="0"
     inkscape:current-layer="layer1"
     inkscape:document-units="mm"
     inkscape:cy="388.01862"
     inkscape:cx="532.00933"
     inkscape:zoom="0.70000001"
     inkscape:pageshadow="2"
     inkscape:pageopacity="0.0"
     borderopacity="1.0"
     bordercolor="#666666"
     pagecolor="#ffffff"
     id="base" />
  <metadata
     id="metadata5">
    <rdf:RDF>
      <cc:Work
         rdf:about="">
        <dc:format>image/svg+xml</dc:format>
        <dc:type
           rdf:resource="http://purl.org/dc/dcmitype/StillImage" />
        <dc:title />
      </cc:Work>
    </rdf:RDF>
  </metadata>
  <g
     id="layer1"
     inkscape:groupmode="layer"
     inkscape:label="Layer 1">
    <path
       id="path847"
       d="m 4.79749,47.355598 c -0.3413257,-3.300031 -0.047822,-5.209132 0.6682087,-7.900699 0.5179568,-1.947008 0.3282174,-4.029956 0.8701611,-5.931321 0.3573155,-1.253609 -0.2144705,-2.809671 0,-4.099586 0.2330005,-1.401366 0.7055048,-2.727481 1.2182253,-4.012363 0.013891,-0.03481 0.5220967,-6.478678 0.5220967,-6.803571 0,-0.995011 0.5199038,-6.101922 0.8701608,-6.716346 0.1732463,-0.30391 1.2182254,-3.1735188 1.2182254,-3.576236 0,-1.2208293 1.044193,-2.1224219 1.044193,-3.4017857 0,-0.2474079 0.672035,-1.3929109 0.696129,-1.3083792 0.238657,0.8373079 -0.928913,4.3634919 -1.218225,5.2335165 -0.45823,1.3779944 0.166986,3.2573524 -0.174032,4.7101644 -0.374947,1.597352 -1.2817746,3.086192 -1.5662904,4.79739 -0.4405579,2.649703 -0.8701608,5.389717 -0.8701608,8.111951 0,2.793532 -0.2728881,6.028338 -0.8701611,8.722527 -0.1945625,0.877636 0.104767,1.898546 0,2.791208 -0.07338,0.625229 -0.2170899,3.510592 -0.6961288,3.750688 -0.341866,0.171342 -0.1740321,1.51633 -0.1740321,1.133928 0,-1.06734 0.7192973,-2.075855 1.0441932,-3.052884 0.6976716,-2.098048 1.4486683,-4.698138 1.740322,-6.890798 0.1661408,-1.24905 0.034926,-2.582944 0.174032,-3.837911 0.275344,-2.484054 1.141308,-5.012333 1.740322,-7.414148 0.363971,-1.459384 0.292293,-3.212849 0.522097,-4.710165 0.470073,-3.06282 0.547476,-5.933136 1.392257,-8.8969779 0.191768,-0.6727994 0.696129,-1.4061783 0.696129,-2.0934065 0,-0.1417479 0.499719,-1.5613386 0.522097,-1.4828295 0.271438,0.9523182 -1.532363,5.0475681 -1.740322,6.4546699 -0.259256,1.754179 -0.282525,3.593247 -0.696129,5.320742 -0.645225,2.694899 -1.549341,5.13234 -1.9143542,7.9375 -0.2772804,2.130926 -0.256244,4.322735 -0.5220968,6.454669 -0.289167,2.318898 0,4.901035 0,7.239698 0,0.901327 0,1.802656 0,2.703983 0,0.377976 0,1.511906 0,1.13393 0,-1.123008 0.4906439,-2.207424 0.6961288,-3.314562 0.3946792,-2.126501 0.7651602,-4.310271 1.0441932,-6.454669 0.637011,-4.895493 0.265317,-9.678384 1.392258,-14.479395 0.306941,-1.307637 1.054537,-2.612489 1.218225,-3.925138 0.140916,-1.130041 0.09722,-2.162598 0.522097,-3.227335 0.247879,-0.6211881 0.269121,-1.3483935 0.522096,-1.9189558 0.212298,-0.4788183 0.972644,-1.8220272 0.870161,-1.3083792 -0.220815,1.106732 -0.974039,1.8641801 -1.218225,2.965659 -0.362027,1.633038 -0.758772,3.09821 -1.218226,4.710165 -1.581712,5.549303 -2.128101,11.377983 -2.43645,17.096154 -0.150297,2.787163 -0.124691,0.553352 -0.6961292,3.48901 -0.2952488,1.516787 -0.030148,3.021303 -0.174032,4.535715 -0.097647,1.027763 -0.5220968,1.837105 -0.5220968,2.878434 0,0.3489 -0.1414182,1.36566 0,1.046702 1.018066,-2.296155 1.262054,-5.236083 1.56629,-7.675824 0.406385,-3.258897 0.835801,-6.510811 1.218225,-9.76923 0.808884,-6.89204 0.404323,-13.604507 4.350805,-19.5384608 0.455388,-0.6847231 -0.133991,1.6483327 -0.348064,2.4423079 -0.578528,2.1456979 -1.046242,4.2950049 -1.56629,6.4546699 -1.699763,7.058803 -2.615383,14.22477 -3.828708,21.370192 -0.108831,0.640914 -0.232043,1.279303 -0.348065,1.918957 -0.174032,0.639651 -0.3954368,1.268264 -0.5220962,1.918954 -0.2074339,1.065655 -0.1740324,1.625608 -0.1740324,2.616758 0,0.08723 -0.030562,0.343371 0,0.261676 1.7993296,-4.809747 1.9207076,-10.16744 2.7845156,-15.177196 0.557039,-3.230618 1.248655,-6.437419 1.740322,-9.682006 0.370564,-2.445414 0.510836,-4.673482 1.218225,-6.978021 0.250442,-0.815894 1.044193,-3.7339716 1.044193,-2.2678577 0,1.3803237 -0.71956,2.2967247 -1.044193,3.6634617 -0.581557,2.44841 -0.974955,5.113624 -1.392257,7.588598 -0.708801,4.203817 -0.72491,8.520492 -1.392258,12.734891 -0.63733,4.024831 -1.392258,8.115782 -1.392258,12.211537 0,0.08722 -0.01628,-0.175982 0,-0.261675 0.100071,-0.526635 0.220842,-1.049314 0.348065,-1.570056 1.728298,-7.074183 -0.415199,2.248648 1.392257,-6.105769 1.519331,-7.022645 2.734173,-14.065786 4.524838,-21.02129 0.484062,-1.880251 0.719718,-3.795747 1.218225,-5.669643 1.24101,-4.6649735 -0.405763,1.496351 0.696129,-2.0934064 0.04266,-0.1389755 0,-0.5815017 0,-0.4361262 0,2.0722836 -1.251541,3.9015006 -1.740322,5.9313186 -0.532671,2.212081 -0.807634,4.478388 -1.218226,6.716346 -0.650438,3.545261 -1.057738,6.977475 -1.392257,10.554258 -0.17198,1.838859 -0.348065,3.482343 -0.348065,5.320742 0,0.581501 -0.243201,2.272707 0,1.744506 1.708693,-3.71107 2.075283,-7.91864 2.958548,-11.862639 0.909697,-4.062027 1.96627,-8.083498 2.958547,-12.124312 0.208093,-0.847411 0.976413,-7.4940289 1.914354,-8.1991758 0.420881,-0.3164194 -0.03281,1.0627894 -0.174032,1.570055 -2.06899,7.4317028 0.388399,-3.6262791 -1.56629,5.8440928 -1.500324,7.268999 -2.725324,14.5987 -3.480644,21.980768 -0.421362,4.11816 -0.348064,1.511707 -0.348064,4.710165 0,0.729189 -0.444286,2.857892 -0.174032,2.180632 1.425639,-3.572666 1.786163,-7.416694 2.43645,-11.164834 0.706357,-4.07131 1.240849,-6.519112 2.436451,-10.467033 1.198859,-3.958676 2.706918,-7.810931 4.350805,-11.6009611 0.0398,-0.091769 0.675714,-1.6212142 0.696129,-1.5700549 0.159253,0.3990914 -1.954928,6.688899 -2.088386,7.326923 -1.667041,7.969614 -3.13258,15.92339 -3.13258,24.074176 0,0.526555 0.106088,-1.047901 0.174032,-1.570056 0.280136,-2.15287 0.601515,-4.300337 0.870161,-6.45467 0.74901,-6.006487 1.09514,-12.081825 2.088387,-18.055631 0.03125,-1.364016 0.641073,-2.604719 0.87016,-3.9251377 0.0497,-0.2864713 0,-1.1630036 0,-0.8722527 0,2.5695034 -0.931133,5.0463214 -1.392257,7.5885984 -0.895077,4.934756 -1.993151,10.003632 -2.436451,15.002748 -0.247414,2.790105 -0.394518,5.734611 -0.522096,8.548076 -0.02502,0.55186 -0.151427,2.188549 0,1.657281 2.206242,-7.740411 3.751743,-15.559312 6.091127,-23.289149 1.414577,-4.67407 1.430266,-3.539003 2.43645,-7.501373 0.240004,-0.9451369 1.106279,-3.6592144 0.522097,-2.878434 -1.106844,1.4793404 -1.39201,5.668399 -1.740323,7.414148 -1.196163,5.995199 -2.15874,12.01855 -2.43645,18.142855 -0.08429,1.858897 0,3.721614 0,5.58242 0,0.494276 -0.494276,1.482828 0,1.482828 0.650089,0 0.218794,-1.281848 0.348065,-1.918956 0.230153,-1.134311 0.474403,-2.265794 0.696129,-3.401785 1.254951,-6.429611 2.571729,-12.792012 4.350803,-19.102335 1.115351,-3.956106 0.677325,-2.656861 1.914356,-5.756867 0.156871,-0.39312 0.348064,-1.6444176 0.348064,-1.2211544 0,0.4621472 -1.344239,2.5764294 -1.392258,2.7039834 -0.362966,0.964171 -0.634736,1.962692 -0.870162,2.965659 -1.506146,6.416517 -2.45873,13.160866 -3.132579,19.712912 -0.207949,2.021959 -0.174033,3.698997 -0.174033,5.669643 0,0.785026 0,3.140109 0,2.355082 0,-2.985137 0.930582,-6.725509 1.392259,-9.594781 1.084948,-6.742839 1.479256,-9.954511 2.958547,-15.700548 0.541589,-2.103701 1.181857,-4.180936 1.740323,-6.28022 0.11602,-0.436126 0.255305,-0.866719 0.348065,-1.3083787 0.02988,-0.1422715 0.04587,-0.5740747 0,-0.4361262 -2.276226,6.8450909 -3.045981,14.2199759 -4.350806,21.2829649 -0.802558,4.344234 -0.893336,4.135687 -1.392258,8.199176 -0.106532,0.867664 -0.844934,3.177188 -0.174033,2.616758 0.501674,-0.419063 1.006722,-2.877595 1.044194,-3.052884 1.470309,-6.877926 2.294835,-13.895506 3.828709,-20.759614 0.476679,-2.133141 0.984896,-4.260434 1.566288,-6.367445 0.770552,-2.7925315 0.616736,-0.846158 0.870162,-2.878434 0.01439,-0.1154065 0,-0.4652016 0,-0.348901 0,1.4516544 -0.919943,3.152842 -1.218226,4.535714 -0.286213,1.326917 -0.469403,2.673996 -0.696127,4.012363 -0.250248,1.477225 -1.586897,9.464735 -1.740323,10.815933 -0.497933,4.385225 -0.870162,9.007734 -0.870162,13.432692 0,0.382402 0.0815,-0.762892 0.174032,-1.133928 0.204851,-0.821367 0.54505,-1.609373 0.69613,-2.442307 1.375883,-7.585544 2.138883,-15.263458 3.480644,-22.853022 0.531225,-3.004827 0.584388,-3.286111 1.566291,-5.9313188 0.172847,-0.4656432 0.522097,-1.8922929 0.522097,-1.3956043 0,1.8672063 -0.724726,3.9269481 -1.044194,5.7568681 -0.83892,4.80535 -1.740141,9.593784 -2.610483,14.392169 -0.777875,4.288589 -1.584859,8.633093 -1.740323,12.996566 -0.02899,0.813586 -0.450831,3.120181 0,2.442308 1.55692,-2.340993 1.647592,-6.705224 2.088388,-9.24588 0.560528,-3.230793 1.17979,-6.451211 1.740321,-9.682004 0.587869,-3.388382 0.70214,-5.153443 1.566291,-8.460851 0.285826,-1.093962 0.670636,-2.160141 1.044191,-3.227335 0.206849,-0.590934 0.52451,-1.142397 0.696129,-1.744506 0.07173,-0.2516532 0,-1.0467034 0,-0.7850275 0,0.6632975 -1.349393,4.6563545 -1.392258,4.8846155 -1.260814,6.714174 -2.275562,13.584321 -2.610483,20.410714 -0.09408,1.917525 -0.121578,3.837752 -0.174032,5.756867 -0.0056,0.203449 -0.126955,0.451501 0,0.610577 0.373758,0.46832 0.587277,-1.068068 0.696129,-1.657279 0.805313,-4.35914 0.349195,-2.712347 1.044194,-7.850275 1.203132,-8.894423 3.485264,-17.888126 8.527577,-25.4697798 0.328371,-0.4937392 -0.17916,1.176107 -0.348065,1.7445053 -0.576038,1.9384957 -1.262271,3.8426115 -1.914353,5.7568685 -1.612498,4.733668 -3.065669,9.373486 -4.002741,14.304943 -0.82073,4.319193 -1.218226,8.529532 -1.218226,12.909341 0,0.52402 0.317857,-1.000249 0.522097,-1.482828 1.11362,-2.631271 1.538017,-5.123863 2.088388,-7.9375 1.200801,-6.138809 2.672574,-12.289193 4.350803,-18.317308 0.832284,-2.989517 0.960419,-3.2930645 2.088388,-5.9313185 0.206002,-0.4818293 0.687448,-1.9800774 0.522097,-1.4828298 -2.92553,8.7976853 -5.062628,17.9677943 -6.961288,27.0398343 -0.881327,4.211089 -1.161767,5.696458 -1.392259,9.682006 -0.03861,0.66761 0,1.337453 0,2.006182 0,0.08722 -0.03893,0.339728 0,0.261675 1.261163,-2.528387 1.30597,-6.29019 1.740323,-8.984204 0.14174,-0.879126 1.83224,-10.422015 1.914353,-10.815933 0.408655,-1.960409 0.839277,-3.919408 1.392259,-5.844094 0.459422,-1.599052 3.654676,-8.698026 3.654676,-10.4670322 0,-0.087225 0.03893,0.1836216 0,0.2616758 -0.255807,0.5128395 -0.639818,0.9580613 -0.870161,1.4828294 -0.952585,2.170166 -1.583246,4.699419 -2.088388,6.978022 -1.304843,5.885914 -2.341658,11.845225 -3.306612,17.793955 -0.801534,4.941285 -0.696127,2.925604 -0.696127,6.367444 0,0.08722 -0.05441,0.329854 0,0.261678 2.121429,-2.658162 2.309911,-7.898042 2.784515,-10.990386 0.776576,-5.059877 1.404326,-10.015394 2.610482,-15.002746 0.533183,-2.204666 1.108975,-4.292385 1.740324,-6.4546699 0.131609,-0.4507466 0.463989,-1.7743376 0.522094,-1.3083791 0.34195,2.742179 -0.521899,5.668653 -1.044191,8.286401 -1.071782,5.371791 -2.402975,10.766189 -2.958547,16.2239 -0.123809,1.216245 -0.135941,2.441525 -0.174033,3.663461 -0.02808,0.90089 -0.446376,3.487017 0,2.703983 1.883807,-3.304588 2.01262,-7.91282 2.784515,-11.513735 0.712483,-3.323763 1.556628,-6.61849 2.262418,-9.943681 0.436832,-2.058042 0.842743,-4.122879 1.218226,-6.192994 0.141626,-0.780814 0.348065,-3.1486371 0.348065,-2.3550824 0,1.6844934 -0.987783,3.7726694 -1.392259,5.3207414 -2.030031,7.769668 -3.276949,15.443848 -3.828709,23.463598 -0.06186,0.899203 -0.247065,1.83718 0,2.703984 0.101968,0.357746 0.575742,-0.520277 0.69613,-0.872252 0.320836,-0.938025 1.16578,-5.38512 1.218226,-5.756868 0.983988,-6.974927 1.347314,-14.061356 2.43645,-21.021291 0.69229,-4.4239639 0.724511,-3.0851583 1.566288,-6.629121 0.101677,-0.4280582 0.174033,-1.7483468 0.174033,-1.3083791 0,1.9280306 -0.789067,3.7326016 -1.218224,5.5824171 -0.743492,3.204701 -1.374775,6.436741 -1.914356,9.682006 -1.267349,7.622371 -1.914353,15.307496 -1.914353,23.027471 0,1.482408 0.615217,-2.900942 0.870162,-4.361264 1.175112,-6.731072 2.350048,-13.391848 3.828709,-20.061812 0.83181,-3.752154 0.409014,-2.842816 1.218223,-5.844093 0.117483,-0.435735 0.42521,-1.753032 0.348065,-1.308379 -1.317757,7.59532 -3.101888,15.133732 -4.176773,22.765797 -0.08907,0.632449 -0.45987,4.173135 -0.522097,5.233516 -0.02215,0.377325 -0.19775,1.456047 0,1.133927 2.406041,-3.919214 2.175512,-10.01714 2.784517,-14.392169 0.765701,-5.500723 1.465887,-9.605475 2.784515,-15.264423 0.196125,-0.841682 0.610481,-1.6180134 0.870161,-2.4423074 0.106275,-0.3373469 0.317392,-1.3700379 0.174033,-1.0467033 -2.002248,4.5158817 -2.353824,10.1724067 -3.132582,14.8282967 -1.067155,6.380121 -2.262418,12.532385 -2.262418,19.015108 0,1.360882 1.09062,-2.51088 1.392259,-3.837911 0.335737,-1.477058 1.745376,-9.140333 1.914353,-10.118132 0.620278,-3.5893 2.375722,-17.5434129 4.524838,-20.236263 0.369879,-0.4634597 -0.232043,1.1630038 -0.348065,1.7445056 -0.150074,0.7521705 -1.181923,6.5973594 -1.218226,6.8035714 -0.971061,5.515909 -1.820831,11.089865 -2.958547,16.572802 -0.303313,1.46174 -2.485393,7.242436 -1.914353,9.245877 0.0048,0.0168 0.285935,-0.08593 1.044191,-2.703983 0.31778,-1.097201 0.625523,-2.198772 0.870162,-3.31456 1.403821,-6.402739 2.341573,-12.831675 4.002741,-19.189559 0.203798,-0.780004 1.026908,-3.524257 1.392258,-4.62294 0.142404,-0.428238 0.348062,-1.7596736 0.348062,-1.308379 0,2.533904 -1.006983,5.420794 -1.566288,7.850275 -1.251027,5.434147 -2.460569,10.826663 -3.480644,16.311126 -0.493853,2.655213 -1.392259,5.9422 -1.392259,8.722527 0,0.156522 0.127447,-0.286698 0.174033,-0.436126 0.243636,-0.781508 0.48996,-1.562868 0.696129,-2.355083 0.316111,-1.21467 0.593177,-2.439276 0.870162,-3.66346 1.594702,-7.048088 3.251911,-13.95491 5.743061,-20.759616 2.314763,-6.3228885 1.083808,-1.970185 2.784515,-6.9780217 0.159721,-0.4703075 0.666395,-1.8708701 0.522097,-1.3956046 -2.670371,8.7951713 -4.945179,17.6295253 -7.309353,26.5164833 -0.517739,1.946191 -1.840635,6.694056 -2.262417,8.984202 -0.121579,0.660136 -0.38584,2.643127 -0.174033,2.006182 1.117431,-3.360348 1.53932,-6.748438 2.262418,-10.205357 1.169897,-5.592924 2.664317,-11.151557 4.176773,-16.660027 0.724379,-2.638239 1.307553,-5.315416 2.088388,-7.9375 0.231087,-0.7760106 0.620909,-1.4974873 0.870159,-2.2678569 0.108879,-0.3365156 0.174033,-1.400394 0.174033,-1.0467032 0,2.1830312 -0.848903,4.5004071 -1.218224,6.6291211 -0.861296,4.964353 -1.479016,9.984321 -1.914356,15.002747 -0.237051,2.732628 -0.511037,5.462535 -0.696129,8.199176 -0.03924,0.580175 0,1.163002 0,1.744503 0,0.08723 0,0.348904 0,0.261676 0,-1.176202 1.437322,-5.44645 1.566291,-6.105768 1.486866,-7.601241 0.165875,-2.795302 2.088385,-10.641483 1.076809,-4.394684 2.504173,-8.766334 3.480644,-13.1710162 0.106979,-0.4825606 0.0845,0.9958284 0,1.4828302 -0.354364,2.042492 -1.069959,4.005833 -1.566288,6.018543 -1.221192,4.95215 -2.018109,9.961106 -2.784515,15.002748 -0.318304,2.093889 -0.589997,3.943993 -0.696129,6.018543 -0.02524,0.493631 -0.220623,1.925135 0,1.482831 2.080159,-4.17032 1.914819,-9.898232 2.610482,-14.392171 0.607529,-3.924593 2.262418,-9.158336 2.262418,-13.083791 0,-0.08723 0.0083,0.174841 0,0.261676 -0.0498,0.524196 -0.06395,1.055132 -0.174032,1.570055 -0.238795,1.117053 -0.62806,2.198218 -0.870159,3.31456 -1.613673,7.440733 -3.13258,15.222799 -3.13258,22.853022 0,0.555464 0.0749,-1.110734 0.174033,-1.657281 0.201482,-1.110832 0.503142,-2.20222 0.696126,-3.31456 1.167519,-6.729367 1.844389,-13.308064 3.828709,-19.887363 0.453938,-1.505094 1.135369,-2.936643 1.566291,-4.448488 0.03985,-0.139808 0.05388,-0.5711489 0,-0.4361267 -1.418519,3.5548177 -1.944055,7.2593927 -2.784515,10.9903847 -0.939048,4.168636 -1.99989,8.309044 -2.958549,12.473213 -0.382805,1.662811 -0.880756,3.29924 -1.218224,4.971841 -0.185439,0.919088 -0.257239,1.85801 -0.348065,2.791208 -0.02535,0.260445 -0.0687,1.037527 0,0.785029 2.36265,-8.683876 2.737416,-17.656066 5.56903,-26.254808 0.06754,-0.205089 3.46679,-10.0447933 3.828708,-9.6820048 0.83757,0.8395824 -0.446077,2.3297456 -0.696129,3.4890109 -0.286213,1.3269169 -0.430527,2.6811659 -0.696127,4.0123629 -1.259395,6.312111 -2.514978,12.625629 -3.828708,18.927884 -0.632918,3.036244 -1.392259,5.965385 -1.392259,9.071427 0,0.145375 -0.03857,-0.29596 0,-0.436126 0.195122,-0.709012 0.483335,-1.389496 0.696129,-2.093407 0.36744,-1.215464 0.719304,-2.435937 1.044194,-3.663461 1.77619,-6.710965 2.863048,-13.57707 4.524836,-20.323488 0.331427,-1.345508 0.80741,-3.310032 1.218226,-4.710165 0.119166,-0.4061412 0.450487,-1.631837 0.348064,-1.2211534 -1.619681,6.4942994 -2.609016,13.1094124 -3.654676,19.7129124 -0.585205,3.695663 -1.566291,7.564131 -1.566291,11.339285 0,0.145375 -0.0245,-0.292833 0,-0.436126 0.149934,-0.876718 0.352153,-1.743699 0.522097,-2.616758 0.294145,-1.511115 0.571336,-3.025519 0.870162,-4.535715 1.111705,-5.618316 2.254118,-11.195362 3.654676,-16.747252 0.358733,-1.422031 0.742757,-2.83877 1.044194,-4.274039 0.01794,-0.08536 0,-0.348901 0,-0.261676 0,1.689784 -0.73061,3.749049 -1.044194,5.320742 -1.089186,5.459028 -2.131094,10.922569 -3.132579,16.398351 -0.502825,2.749269 -1.044194,5.022754 -1.044194,7.763049 0,0.524021 0.338489,-0.992028 0.522097,-1.482828 0.357624,-0.955958 0.779044,-1.892816 1.044194,-2.878436 1.52033,-5.651445 2.675861,-11.429133 4.17677,-17.096153 0.346626,-1.308761 0.730436,-2.60811 1.044194,-3.925137 0.219359,-0.92077 0.522097,-3.737748 0.522097,-2.791208 0,1.443768 0.0723,-0.157382 -0.696129,2.442307 -0.635807,2.151008 -1.073078,4.818384 -1.392256,6.978022 -0.805728,5.451729 -1.530342,10.916361 -2.088388,16.398351 -0.115435,1.133988 -0.264062,2.265037 -0.348064,3.401784 -0.03214,0.434941 -0.241517,0.945235 0,1.308381 0.195865,0.294505 0.09168,-0.702733 0.174032,-1.046702 0.265975,-1.110898 0.648785,-2.193925 0.870162,-3.314563 0.359412,-1.819391 0.532317,-3.67167 0.870161,-5.495192 1.263513,-6.819892 1.30265,-6.387287 3.132579,-12.909339 0.868212,-3.094396 1.485699,-6.990906 2.958547,-9.943681 0.251958,-0.5051274 -0.228012,1.105715 -0.348064,1.65728 -0.57608,2.646713 -1.226804,5.27794 -1.740321,7.9375 -1.295881,6.71148 -2.610485,13.634681 -2.610485,20.497939 0,0.08723 -0.02559,-0.17829 0,-0.261676 1.228685,-4.002826 0.349599,0.08767 1.566291,-5.844093 1.230829,-6.000691 2.383563,-11.838358 4.176773,-17.706731 0.615215,-2.013323 1.352159,-3.989777 1.914353,-6.018543 0.117494,-0.4239899 0.384324,-1.6948374 0.174033,-1.3083796 -2.137191,3.9276006 -2.300216,9.6879526 -3.13258,13.9560436 -1.142568,5.858731 -2.610482,11.868143 -2.610482,17.88118 0,0.145375 -0.03417,-0.294822 0,-0.436126 0.198988,-0.822806 0.501476,-1.618464 0.696129,-2.442308 0.327766,-1.387231 0.579623,-2.791309 0.870159,-4.186811 1.291421,-6.202931 2.438546,-12.393334 4.176774,-18.491759 0.591534,-2.07535 1.06313,-3.07481 1.392258,-4.97184 0.02675,-0.154219 0.151948,-0.5910836 0.174033,-0.4361269 0.286993,2.0137849 -1.316157,8.0333749 -1.566291,9.5947799 -0.680445,4.247506 -1.476711,8.476937 -2.088386,12.73489 -0.419716,2.921701 -0.516498,5.900444 -1.044194,8.809752 -0.297172,1.638379 0.993588,-3.18071 1.392259,-4.797388 2.621473,-10.630551 -0.767202,1.863172 2.43645,-10.72871 1.345433,-5.288198 3.387796,-10.22851 4.8729,-15.438873 0.121349,-0.4257381 -0.349552,0.813469 -0.522094,1.221153 -0.959715,2.267623 -0.926465,2.696283 -1.566291,5.582418 -1.367642,6.169186 -2.287167,12.410402 -3.654677,18.578982 -0.259424,1.170218 -0.65624,2.309628 -0.870161,3.489013 -0.08821,0.486339 -0.119608,1.962415 0,1.482828 2.221928,-8.909073 4.444428,-17.747408 7.483385,-26.429257 0.659011,-1.882697 1.367583,-3.75134 1.914355,-5.6696428 0.05579,-0.1957301 0.06422,-0.8037044 0,-0.6105769 -2.19779,6.6092187 -3.552626,13.5571367 -4.872902,20.4107147 -0.868363,4.507685 -2.088386,9.16455 -2.088386,13.781593 0,0.613325 0.07504,-1.226447 0.174033,-1.831732 0.403489,-2.467215 1.357135,-6.622065 1.914353,-8.809751 1.515327,-5.949302 2.13556,-8.226972 4.350805,-13.956045 1.025983,-2.653402 2.19124,-4.89657 2.958547,-7.5885983 0.02392,-0.083884 0.02228,0.1773412 0,0.2616753 -0.500597,1.89569 -1.052832,3.777397 -1.566291,5.669643 -1.653524,6.093746 -2.836412,12.286375 -4.002738,18.491759 -0.321373,1.70984 -0.627531,3.423512 -0.870162,5.146291 -0.105738,0.750766 -0.121994,1.511469 -0.174032,2.267857 -0.006,0.08702 -0.02622,0.344869 0,0.261676 2.418273,-7.676277 3.662577,-15.615536 6.091126,-23.289149 2.446407,-7.730036 1.37721,-3.739895 3.480644,-9.6820052 0.202549,-0.5721932 0.369224,-1.1570859 0.522097,-1.7445053 0.02196,-0.084414 0,-0.3489013 0,-0.2616758 0,1.843619 -1.915054,6.4161573 -2.262417,7.6758233 -1.601428,5.807321 -1.71975,6.763807 -3.132582,12.822115 -2.060438,8.835287 -1.021477,3.9908 -2.610483,11.600963 -0.175971,0.842775 -0.380886,1.680239 -0.522097,2.52953 -0.03338,0.200772 -0.132267,0.765263 0,0.610579 1.852721,-2.166704 2.523231,-8.358198 3.13258,-10.641483 1.847024,-6.920944 2.470528,-8.650554 4.69887,-15.351649 0.865754,-2.603506 1.65395,-4.350497 2.088388,-6.8907959 0.04411,-0.2579312 0.07863,-1.0346113 0,-0.7850275 -2.204932,6.9990624 -3.863104,14.4292344 -5.220967,21.6318664 -0.543182,2.881247 -0.733841,4.768432 -0.870162,7.501374 -0.01447,0.290391 -0.181364,1.099503 0,0.872252 1.118428,-1.401394 2.189832,-8.947991 2.436453,-10.118129 1.194921,-5.669571 1.728697,-8.238305 3.654676,-13.694369 0.55518,-1.572764 1.268442,-3.085211 1.914353,-4.62294 0.282287,-0.6720422 0.592026,-1.3324088 0.870162,-2.0061809 0.07015,-0.1699334 0.04419,-0.6535041 0.174032,-0.5233516 0.747329,0.7491283 -0.552212,2.0436242 -0.870162,3.0528845 -1.837147,5.831615 -3.037742,11.832258 -4.350805,17.793957 -0.743366,3.375101 -1.663213,6.714476 -2.262418,10.118129 -0.11638,0.661075 -0.12796,1.336527 -0.174032,2.006182 -0.01199,0.174041 -0.02646,0.695783 0,0.523351 1.325713,-8.637852 3.475926,-17.220949 6.613223,-25.382553 0.43961,-1.14364 0.923496,-2.269782 1.392263,-3.401786 0.20048,-0.48415 0.75599,-1.951752 0.52209,-1.482829 -1.18282,2.371331 -1.483849,5.862444 -2.088385,8.2864 -1.382369,5.542766 -3.249092,11.009966 -4.524838,16.572802 -0.295037,1.286504 -0.160295,2.655789 -0.522097,3.925138 -0.04782,0.167767 -0.04658,-0.355237 0,-0.523351 0.245475,-0.885833 0.612526,-1.734389 0.870161,-2.616758 0.438772,-1.502744 0.811292,-3.024042 1.218227,-4.535715 0.981485,-3.646014 2.616856,-9.934165 3.828708,-13.432692 0.169519,-0.489391 3.828704,-8.21995 3.828704,-9.6820056 0,-0.1859973 -0.27557,0.2648379 -0.34806,0.4361262 -0.33684,0.7958857 -0.62684,1.6130364 -0.87016,2.4423074 -2.118245,7.219339 -3.82771,14.456014 -5.394998,21.806317 -0.532691,2.498222 -1.096637,4.990539 -1.566291,7.501374 -0.02138,0.114319 -0.05191,0.452975 0,0.348901 1.950254,-3.90988 2.717046,-8.811001 4.002741,-12.909338 1.591998,-5.074717 2.997798,-8.847629 4.872898,-13.781595 1.53299,-4.033774 1.51913,-3.498003 2.43645,-6.7163455 0.0735,-0.2577626 0.30678,-1.0178788 0.17404,-0.7850275 -1.67276,2.93436 -2.0677,7.381505 -2.78452,10.467033 -0.54248,2.33507 -1.1925,4.644199 -1.74032,6.978022 -0.84453,3.597864 -1.66223,7.202288 -2.436451,10.815933 -0.154207,0.719746 -0.223983,1.455087 -0.348065,2.180632 -0.05962,0.348628 -0.331904,1.363205 -0.174032,1.046702 0.963808,-1.932252 1.745418,-6.903055 2.088388,-8.460851 2.24637,-10.20334 0.62275,-4.525747 3.65467,-14.043268 0.55803,-1.751694 0.66071,-3.745478 1.74033,-5.233516 0.10796,-0.148804 0.21089,0.343241 0.17403,0.523351 -0.20096,0.982012 -0.59279,1.915215 -0.87016,2.878434 -0.53481,1.857192 -1.0527,3.719246 -1.56629,5.582418 -3.59801,13.052662 -0.50444,2.32973 -4.350807,15.089972 -0.472511,1.56754 -0.996074,3.121618 -1.392258,4.710165 -0.198993,0.797888 -0.671338,3.198427 -0.348065,2.442308 1.573586,-3.680526 0.974024,-2.738739 2.61048,-7.588599 2.34276,-6.943063 4.78393,-13.880536 7.30935,-20.759615 0.55809,-1.520173 1.17292,-3.018997 1.74033,-4.5357144 0.30281,-0.8094429 0.59745,-1.6222302 0.87016,-2.4423076 0.0756,-0.2274781 0.17403,-0.9375277 0.17403,-0.697802 0,1.2557395 -2.51425,9.231788 -2.61048,9.59478 -0.61087,2.304328 -1.27624,4.593864 -1.91436,6.890796 -0.5801,2.326008 -1.13396,4.658719 -1.74032,6.978022 -0.80733,3.088026 -2.26242,6.859582 -2.26242,10.205358 0,0.382402 0.0656,-0.767213 0.17404,-1.133931 0.35697,-1.20769 0.86723,-2.366793 1.21822,-3.576235 5.13855,-17.706232 -2.54526,7.094768 3.65468,-13.171016 0.19411,-0.63451 2.33072,-8.686102 3.48064,-10.030906 0.0945,-0.11049 0.0509,0.299967 0,0.436126 -0.30088,0.804292 -0.80302,1.530916 -1.04419,2.355082 -0.40034,1.368056 -0.60517,2.786234 -0.87016,4.186814 -1.18136,6.243939 -2.58983,12.382627 -4.00274,18.578983 -0.34479,1.512057 -0.95957,3.967551 -0.69613,4.099586 0.23961,0.120097 0.10787,-0.52529 0.17403,-0.785026 0.28195,-1.106951 0.60105,-2.204419 0.87016,-3.31456 0.48511,-2.001203 0.91184,-4.016211 1.39226,-6.018543 0.62181,-2.59165 1.20511,-5.19395 1.91435,-7.76305 0.63175,-2.288395 3.48065,-8.732331 3.48065,-11.513736 0,-0.736079 -0.20229,1.459132 -0.34807,2.180631 -0.32974,1.632015 -0.70683,3.254159 -1.04419,4.884616 -1.23481,5.967862 -2.74125,11.885794 -3.82871,17.881181 -0.13649,0.752525 -0.24722,1.509731 -0.34806,2.267858 -0.0154,0.115284 -0.0282,0.461743 0,0.3489 1.50044,-6.016217 2.84367,-12.077162 4.52483,-18.055632 0.54131,-1.924974 1.69943,-7.439883 3.13258,-9.594779 0.0805,-0.121049 0.0409,0.296631 0,0.436126 -2.67866,9.129337 1.68286,-7.5479764 -2.08838,7.239697 -1.69844,6.659861 -3.65205,13.202684 -5.56903,19.800138 -0.31089,1.069943 -0.63402,2.138452 -0.87017,3.227335 -0.0555,0.25573 -0.12959,1.012359 0,0.785026 2.17539,-3.816075 2.78901,-9.945814 3.82871,-13.956043 1.45815,-5.624203 2.54638,-9.395004 4.52484,-14.741071 0.52456,-1.417419 1.16605,-2.788798 1.74032,-4.186813 0.2379,-0.579132 0.0888,-1.5923128 0.69613,-1.7445054 0.54755,-0.1372158 -0.22948,1.1053974 -0.34806,1.6572804 -0.2875,1.338006 -0.58103,2.674708 -0.87016,4.012362 -1.4323,6.626503 -3.01305,13.243461 -4.35081,19.887363 -0.23212,1.152816 -0.35323,2.325246 -0.52209,3.48901 -0.0673,0.463947 -0.2755,1.853298 -0.17404,1.395606 1.31924,-5.950842 2.7966,-11.85989 4.52484,-17.706732 0.62036,-2.098738 1.28688,-4.183599 1.91435,-6.280219 0.12136,-0.405493 0.40778,-1.640183 0.34807,-1.221154 -1.21679,8.538021 -3.73418,17.079316 -5.74307,25.46978 -0.27252,1.138267 0.61229,-2.26011 0.87017,-3.401787 0.45096,-1.996567 0.71669,-4.034071 1.21822,-6.018544 1.08895,-4.30879 2.44445,-8.545804 3.65468,-12.822114 1.41097,-4.985644 1.73618,-4.672772 2.08838,-7.8502745 0.16131,-1.4552219 -0.28828,2.9159195 -0.52209,4.3612635 -1.31268,8.11431 -3.26725,16.113836 -4.8729,24.1614 -0.0171,0.08554 -0.0111,-0.175165 0,-0.261675 0.5214,-4.050594 0.26492,-1.69562 1.56629,-7.239699 1.68345,-7.171892 3.40573,-14.235361 5.56903,-21.2829654 0.28597,-0.9316635 0.62269,-1.8485836 0.87016,-2.7912086 0.0443,-0.168733 0.0358,-0.6940775 0,-0.5233516 -1.93222,9.2000756 -3.48217,18.4783096 -5.56903,27.6504096 -0.56544,2.485192 -0.90368,3.645387 -1.21823,5.931321 -0.0198,0.144018 0,0.581501 0,0.436126 0,-6.441903 2.53229,-13.721507 4.17677,-19.800137 0.59335,-2.193237 1.31787,-4.349511 1.91436,-6.541896 0.27401,-1.007138 0.4385,-2.04143 0.69613,-3.052884 0.0907,-0.35631 0.0194,-1.2114538 0.34806,-1.0467035 0.0805,0.040348 -0.75103,4.0048985 -1.04419,5.4951925 -4.18868,21.293662 2.17472,-10.5255252 -5.04694,24.161401 -0.36045,1.731328 -0.87016,3.46506 -0.87016,5.233517 0,0.239723 0.1111,-0.466487 0.17404,-0.697804 0.28514,-1.048049 0.59339,-2.089817 0.87016,-3.14011 1.9378,-7.353591 3.87546,-14.695981 6.61322,-21.806318 0.39241,-1.019132 0.97309,-1.957239 1.39226,-2.965659 0.19487,-0.468822 0.34806,-1.99054 0.34806,-1.48283 0,2.435065 0.0651,0.422789 -0.87016,5.146291 -2.00003,10.101297 -0.70119,4.336882 -2.95855,14.217721 -0.33923,1.484874 -0.75797,2.952488 -1.04419,4.448487 -0.13158,0.687737 -0.31795,2.778668 -0.17403,2.093407 1.51242,-7.201262 2.74807,-14.375273 5.395,-21.282966 0.24711,-0.644889 3.01137,-6.511241 3.8287,-8.286401 0.11972,-0.260007 0.41002,-1.064486 0.34807,-0.7850273 -0.4183,1.8868523 -1.14456,3.6963293 -1.56629,5.5824173 -0.23914,1.069499 -2.4926,12.617109 -2.61048,13.171017 -0.87238,4.099094 -1.42246,5.455505 -1.91436,9.071427 -0.0353,0.259287 -0.0717,1.03668 0,0.785027 0.64234,-2.253591 0.83674,-4.614248 1.39226,-6.890795 1.68011,-6.885192 1.97187,-7.921269 4.69887,-14.566621 0.69125,-1.684483 1.49605,-3.320181 2.26242,-4.97184 0.3939,-0.848932 0.81838,-1.683384 1.21822,-2.5295335 0.1223,-0.2588025 0.55023,-0.9876748 0.34807,-0.7850275 -1.7128,1.716913 -3.3329,10.192394 -3.65468,11.426511 -1.99745,7.660797 -4.20412,15.300569 -5.91709,23.027471 -0.0189,0.08516 -0.0199,-0.176757 0,-0.261675 0.21268,-0.90609 0.441,-1.808914 0.69613,-2.703984 0.55715,-1.95472 1.13736,-3.903014 1.74032,-5.844092 2.92849,-9.427563 2.42095,-8.239122 6.43919,-17.35783 0.11794,-0.267649 3.11136,-7.7382325 4.17677,-8.984203 0.0567,-0.066294 0.029,0.1794012 0,0.2616758 -0.32088,0.9113581 -0.76717,1.7783492 -1.04419,2.7039832 -2.0268,6.772229 -3.68431,13.725967 -5.395,20.585165 -0.31058,1.245288 -0.63275,2.489401 -0.87016,3.750686 -0.0538,0.285734 -0.21588,1.067014 0,0.872252 1.65853,-1.496264 1.33572,-4.264345 2.08839,-6.367444 1.77691,-4.965047 3.71596,-9.872808 5.74306,-14.741071 0.75939,-1.823757 1.69703,-3.569065 2.61048,-5.3207417 0.42167,-0.8086045 0.93516,-1.5659656 1.39226,-2.3550824 0.0651,-0.1124607 0.20548,-0.4750038 0.17403,-0.348901 -1.74032,6.9780291 -3.80798,13.9757381 -5.91709,20.8468391 -0.59342,1.933247 -1.27624,3.837913 -1.91436,5.75687 -0.34806,1.046702 -0.70254,2.091293 -1.04419,3.14011 -0.12246,0.375938 -0.34807,1.52931 -0.34807,1.133927 0,-2.157529 0.99091,-4.200827 1.56629,-6.280219 2.19945,-7.948654 4.74587,-15.104609 7.65742,-22.7657964 0.47682,-1.2546555 -0.83043,2.5529494 -1.21822,3.8379124 -2.1969,7.279423 -4.64917,14.476346 -6.96129,21.719093 -0.41662,1.30506 -0.86603,2.601235 -1.21823,3.925136 -0.11311,0.42518 -0.33709,1.717013 -0.17403,1.30838 0.81009,-2.030092 0.98338,-4.260852 1.56629,-6.367446 2.52352,-9.119807 1.50742,-6.070126 5.395,-15.264422 1.48529,-3.512782 2.09217,-4.546776 3.13258,-7.588598 0.0776,-0.226825 0.29715,-0.9034962 0.17403,-0.6978027 -2.17978,3.6416977 -2.94656,9.4203867 -4.00274,13.2582417 -0.16768,0.609318 -4.4862,13.868663 -4.17677,15.264422 0.10163,0.458438 0.36696,-0.86518 0.52209,-1.308378 0.42517,-1.214639 0.84523,-2.431804 1.21823,-3.663463 2.27355,-7.507359 4.46335,-14.58605 8.00548,-21.631867 0.64274,-1.278497 1.40742,-2.492135 2.08839,-3.7506865 0.27243,-0.5035079 0.88625,-2.1100473 0.69612,-1.5700547 -1.76084,5.0010622 -2.97912,10.2029582 -4.52483,15.2644222 -1.67989,5.500815 -3.96771,10.980447 -5.04694,16.660027 -0.0395,0.207912 0.11001,-0.408864 0.17404,-0.610577 0.34208,-1.077695 0.71813,-2.144683 1.04419,-3.227334 2.10205,-6.979774 4.35972,-13.8565 6.96129,-20.67239 0.43691,-1.144674 0.97443,-2.250008 1.39225,-3.401786 0.16351,-0.450711 0.57723,-1.8167436 0.34807,-1.3956042 -3.07488,5.6508302 -4.08272,12.9877012 -5.74306,19.1023332 -0.56925,2.096387 -1.23745,4.166934 -1.74033,6.280222 -0.25227,1.060161 -0.31866,2.156727 -0.52209,3.227334 -0.0292,0.153771 -0.21346,0.587603 -0.17403,0.436126 2.42988,-9.336944 4.01754,-19.215521 8.87564,-27.737636 0.091,-0.159715 -0.12267,0.346829 -0.17403,0.523352 -0.35476,1.219227 -0.73692,2.431411 -1.0442,3.663461 -0.62115,2.490579 -1.07724,5.021628 -1.74032,7.501374 -1.60221,5.991859 -3.27413,10.814401 -5.04693,16.660025 -0.36852,1.215139 -0.72063,2.435591 -1.0442,3.663464 -0.0828,0.314314 -0.36876,1.219737 -0.17403,0.959477 1.40455,-1.87723 1.39405,-4.47701 2.08839,-6.716345 1.72066,-5.549355 3.36387,-10.152401 5.56903,-15.5261 1.22699,-2.990038 2.18616,-4.313567 2.95855,-7.152472 0.13065,-0.480213 0.30468,-1.963042 0.17403,-1.482829 -1.3432,4.936898 -2.36609,9.964041 -3.65468,14.915521 -0.43345,1.665554 -0.98537,3.299597 -1.39226,4.971841 -0.17402,0.715211 -0.25409,1.450578 -0.34806,2.180632 -0.0223,0.173022 -0.0517,0.689962 0,0.523351 1.74958,-5.637173 3.18735,-11.274931 5.22097,-16.834478 0.49321,-1.348371 1.02702,-2.681739 1.56628,-4.012362 0.21503,-0.53057 0.50091,-1.031885 0.69613,-1.570055 0.0397,-0.109329 0.0299,-0.461292 0,-0.348901 -1.28387,4.826104 -2.05157,9.813056 -3.30661,14.653846 -1.18706,4.578583 -2.72886,9.054182 -3.65467,13.694367 -0.17661,0.885145 0.45839,-1.746038 0.69613,-2.616758 1.94073,-7.10819 4.2332,-14.021566 6.78725,-20.934065 0.57067,-1.544501 1.19349,-3.069842 1.74032,-4.622939 0.32367,-0.919252 0.61646,-1.850245 0.87016,-2.7912091 0.0379,-0.140363 0.0649,-0.5662165 0,-0.4361265 -0.98927,1.9832976 -1.31475,4.2337606 -1.91435,6.3674446 -1.41196,5.024497 -2.76394,10.065723 -4.17677,15.089971 -0.50805,1.806668 -1.08381,3.594309 -1.56629,5.407967 -0.21403,0.804516 -0.31455,1.636102 -0.5221,2.442308 -0.0261,0.101447 -0.19842,0.363551 -0.17403,0.261676 1.2468,-5.207479 2.82605,-10.652758 4.52483,-15.700548 0.76613,-2.276483 1.74627,-4.475265 2.61049,-6.716346 0.47003,-1.218877 0.88634,-2.459034 1.39226,-3.663462 0.19131,-0.455465 0.49589,-0.856764 0.69613,-1.308379 0.0354,-0.07974 0.0275,-0.344445 0,-0.261676 -0.6808,2.047304 -1.03765,4.188457 -1.5663,6.28022 -3.51029,13.889737 -0.58324,2.373587 -4.3508,15.874999 -0.43589,1.562041 -0.8358,3.134182 -1.21823,4.710165 -0.13982,0.576241 -0.87817,2.010196 -0.34806,1.744506 0.65165,-0.326609 0.63512,-1.316193 0.87016,-2.006182 0.57819,-1.697344 0.99609,-3.446242 1.56629,-5.146291 2.19388,-6.541072 4.59097,-14.710249 7.65742,-21.370191 0.15377,-0.333985 -0.25419,0.691203 -0.34807,1.046703 -0.42844,1.622462 -0.80948,3.257079 -1.21822,4.884615 -1.18506,4.718619 -2.48654,9.40766 -3.65468,14.130495 -0.32859,1.32851 -0.62228,2.666453 -0.87016,4.012362 -0.10585,0.574722 -0.27833,2.319512 -0.17403,1.744506 1.174,-6.472547 -0.118,-1.692309 4.00274,-15.264423 0.13361,-0.440048 4.00274,-9.415426 4.00274,-11.25206 0,-0.34022 -0.25481,0.632289 -0.34806,0.959477 -0.37112,1.302029 -0.7298,2.608262 -1.0442,3.925138 -1.43372,6.005322 -2.72917,12.008141 -4.3508,17.968405 -0.23696,0.870931 -0.50582,1.73446 -0.69613,2.616758 -0.0429,0.198951 -0.0558,0.806307 0,0.610579 0.75806,-2.659586 1.11386,-5.418328 1.74032,-8.11195 1.86428,-8.015987 1.94142,-8.680255 4.69887,-16.223902 0.46515,-1.272515 1.0416,-2.5015453 1.56629,-3.7506868 0.17144,-0.4081497 0.12633,-1.0227945 0.5221,-1.2211537 0.35347,-0.17716 -0.26017,0.7484411 -0.34807,1.1339285 -0.37648,1.6510571 -0.66195,3.322109 -1.04419,4.971841 -1.48843,6.423907 -2.84166,11.462379 -4.52484,17.881181 -0.51868,1.978004 -1.07145,3.947213 -1.56629,5.931318 -0.20834,0.835361 -0.79376,3.346498 -0.5221,2.529533 1.72693,-5.193231 2.88755,-10.520531 4.69887,-15.700549 3.06952,-8.778203 2.76431,-6.958312 6.09113,-14.3921701 0.64319,-1.4372193 1.7576,-4.6229396 2.08839,-4.6229396 0.42326,0 -0.23356,0.8136741 -0.34807,1.2211539 -0.4656,1.6568552 -0.93768,3.311925 -1.39225,4.9718408 -2.22786,8.135261 -4.26615,16.278161 -6.09113,24.510301 -0.20144,0.908658 0.47562,-1.799762 0.69613,-2.703984 0.42435,-1.740149 0.77095,-3.499114 1.21822,-5.233516 1.50575,-5.838861 3.48723,-11.287322 5.56903,-16.921702 0.12744,-0.344897 -0.24577,0.693531 -0.34806,1.046703 -0.41991,1.44982 -0.80448,2.909673 -1.21823,4.361263 -0.52025,1.82525 -4.88111,16.925269 -5.22096,18.142858 -1.06426,3.81287 -2.39071,7.965411 -2.95855,11.949861 -0.0922,0.646649 0.50668,-1.206625 0.69613,-1.831729 1.21142,-3.997201 2.33153,-8.021532 3.48064,-12.037089 2.04768,-7.155588 3.5718,-15.121104 6.61323,-21.980768 0.0471,-0.106319 0.0367,0.238542 0,0.348901 -0.2555,0.768322 -0.6763,1.481718 -0.87016,2.267857 -0.44642,1.810277 -0.66097,3.670493 -1.0442,5.495192 -0.94949,4.520948 -2.39585,10.570467 -3.48064,15.089973 -0.3423,1.426075 -0.74491,2.838318 -1.0442,4.274037 -0.10745,0.515477 -0.31836,1.063667 -0.17403,1.570056 0.0933,0.327189 0.24823,-0.634235 0.34807,-0.95948 0.36441,-1.187182 0.68717,-2.386809 1.04419,-3.576235 2.01947,-6.72791 4.31021,-13.276778 7.13532,-19.712911 0.43893,-0.999975 0.91354,-1.984109 1.39226,-2.96566 0.15961,-0.327261 0.52209,-1.323588 0.52209,-0.959478 0,0.389897 -0.41522,0.671741 -0.52209,1.046704 -1.99057,6.983743 -3.62117,14.104831 -5.56903,21.108514 -0.53288,1.915994 -1.11413,3.820242 -1.56629,5.75687 -0.18697,0.800791 -0.19687,1.633998 -0.34807,2.442308 -0.0239,0.127749 -0.20548,0.475004 -0.17403,0.348901 1.87684,-7.525403 4.37775,-14.986426 7.13532,-22.242445 0.98313,-2.586907 2.3808,-7.281622 4.17677,-9.682006 0.16057,-0.2146077 -0.0972,0.528252 -0.17403,0.785028 -0.44548,1.488523 -0.96352,2.955055 -1.39225,4.448489 -0.73168,2.548671 -1.36523,5.124725 -2.08839,7.675824 -1.63999,5.785359 -3.4184,11.403855 -5.56903,17.008928 -0.0466,0.121341 0.13212,-0.225877 0.17403,-0.348901 0.36459,-1.070292 0.70797,-2.147797 1.04419,-3.227334 1.52015,-4.880936 2.82703,-9.831832 4.52484,-14.653847 0.42205,-1.198693 4.16347,-9.495213 5.22097,-11.8626371 0.23348,-0.5227087 0.5392,-1.0194959 0.69613,-1.5700549 0.045,-0.1579843 -0.27654,0.2010153 -0.34807,0.348901 -1.25182,2.588077 -1.75522,4.898808 -2.61048,7.763049 -2.10925,7.063757 -4.27724,14.091351 -5.9171,21.282967 -0.0289,0.126714 0.13677,-0.224393 0.17403,-0.348901 0.31142,-1.040548 0.58259,-2.092725 0.87017,-3.140109 1.9638,-7.152315 4.50253,-13.864927 7.65741,-20.585165 0.43082,-0.917694 0.93975,-1.796789 1.39226,-2.703984 0.12777,-0.256146 0.44313,-1.0550237 0.34806,-0.785027 -3.04374,8.644688 -5.98207,17.358405 -8.52757,26.167583 -0.43459,1.503957 -0.8654,3.010503 -1.21823,4.535712 -0.11216,0.484865 -0.49746,1.861074 -0.17403,1.482831 0.47791,-0.558903 0.4815,-1.390052 0.69613,-2.093407 0.5396,-1.768332 0.99608,-3.562038 1.56629,-5.320742 0.93841,-2.894362 1.8271,-5.810806 2.95855,-8.635302 1.88746,-4.711809 4.04284,-9.311886 6.09112,-13.956043 0.38827,-0.880326 0.81583,-1.742803 1.21823,-2.6167587 0.11971,-0.2600066 0.52662,-1.0087552 0.34806,-0.7850275 -1.68297,2.1087682 -3.48871,9.3142572 -4.17677,11.4265112 -1.3208,4.054676 -2.5607,8.099269 -3.65468,12.211537 -0.0224,0.08429 -0.0205,-0.176895 0,-0.261675 0.21217,-0.877298 0.42859,-1.754733 0.69613,-2.616758 4.38409,-14.125574 2.37074,-9.123041 6.26516,-17.619505 0.29265,-0.63847 0.56683,-1.285494 0.87016,-1.918956 0.0453,-0.09448 0.19866,-0.3634952 0.17403,-0.2616761 -1.53195,6.3345071 -3.69149,12.6711551 -5.74306,18.8406591 -1.11678,3.358391 -2.39646,6.661852 -3.48064,10.030905 -0.0802,0.249097 -0.17362,0.980816 0,0.785029 1.39069,-1.568288 1.34888,-3.970022 2.08838,-5.931318 2.24702,-5.95952 4.45748,-11.937689 6.96129,-17.793957 0.98115,-2.294834 2.30203,-4.429175 3.48065,-6.6291204 0.50383,-0.9404201 1.0327,-1.8673463 1.56629,-2.7912086 0.10478,-0.1814237 0.42249,-0.7191946 0.34806,-0.5233516 -3.00569,7.9088996 -5.79692,15.8214406 -8.35355,23.8997246 -0.73258,2.314784 -2.08838,4.550079 -2.08838,6.978023 0,0.662903 0.32501,-1.286029 0.5221,-1.918957 3.87414,-12.441456 3.12219,-11.196243 7.65741,-21.282967 0.65025,-1.446198 1.39908,-2.846045 2.08839,-4.2740379 0.18089,-0.3747418 0.15009,-1.3203793 0.5221,-1.1339288 0.37839,0.1896528 -0.22466,0.8162827 -0.34807,1.221154 -0.51473,1.6886187 -1.02233,3.3796357 -1.56629,5.0590657 -3.95935,12.224122 -1.65831,4.495779 -5.395,16.747253 -0.53936,1.768407 -1.06502,3.54116 -1.56629,5.320742 -0.19499,0.692237 -0.31824,1.403726 -0.52209,2.093404 -0.0297,0.10046 -0.21074,0.359791 -0.17404,0.261676 0.74736,-1.997728 1.14692,-4.115668 1.91436,-6.105768 2.11886,-5.494578 4.4128,-10.922071 6.78725,-16.311126 0.83517,-1.8955 2.22223,-4.388051 3.48065,-6.280219 0.47554,-0.7150338 -0.77323,1.540224 -1.0442,2.355082 -0.72575,2.182494 -1.21993,4.436454 -1.91435,6.629121 -2.00111,6.318639 -4.05634,12.620008 -6.09113,18.927883 -0.59548,1.84603 -1.29566,3.656809 -1.91435,5.495192 -0.19361,0.575281 -0.71363,1.16853 -0.5221,1.744507 0.14785,0.444608 0.51021,-0.791075 0.69613,-1.221155 0.56971,-1.317877 1.05717,-2.669916 1.56629,-4.012362 3.49312,-9.210521 7.25723,-19.263182 13.57451,-26.952609 0.64442,-0.784391 -0.8452,1.847068 -1.21822,2.791209 -2.46812,6.246972 -4.6275,12.655566 -6.78726,19.015109 -0.30448,0.896557 -0.62973,1.788168 -0.87016,2.703983 -0.0517,0.196856 -0.0398,0.810168 0,0.610577 1.37451,-6.889062 3.05608,-13.490523 5.395,-20.149038 0.54569,-1.553499 1.14478,-3.087859 1.74032,-4.622939 0.21672,-0.558616 0.46615,-1.103993 0.69613,-1.65728 0.0601,-0.144534 0.1997,-0.590529 0.17403,-0.436127 -1.49064,8.96535 -6.11282,17.346493 -7.30935,26.342033 -0.0115,0.08646 -0.026,-0.178404 0,-0.261676 0.26538,-0.851265 0.60787,-1.67731 0.87016,-2.529533 5.33088,-17.320939 2.32217,-8.853275 6.96129,-21.544642 0.60969,-1.667948 0.93091,-3.4931238 1.91435,-4.9718408 0.18841,-0.2832889 -0.24071,0.6366396 -0.34806,0.9594781 -0.41479,1.2473647 -0.83249,2.4940337 -1.21823,3.7506867 -1.75256,5.709538 -2.1705,7.272286 -3.65467,13.083791 -0.3629,1.420974 -0.74914,2.837445 -1.0442,4.274037 -0.12339,0.600787 -0.37509,2.411167 -0.17403,1.831732 2.33036,-6.715872 3.49084,-15.093576 7.30935,-21.108516 0.0697,-0.109723 0.20277,0.222153 0.17404,0.348901 -0.26843,1.183923 -0.71949,2.319272 -1.0442,3.489011 -1.88401,6.786959 -4.12896,13.295573 -6.61322,19.887362 -0.29514,0.78313 -0.60608,1.560941 -0.87016,2.355083 -0.0275,0.08277 -0.0354,0.341415 0,0.261675 3.95913,-8.929454 5.53323,-18.943342 9.91983,-27.7376363 0.0519,-0.1040722 0.0421,0.2404743 0,0.3489013 -0.36717,0.94643 -0.90617,1.825201 -1.21822,2.791208 -2.37738,7.359534 -4.11806,14.942374 -6.43919,22.32967 -0.39404,1.254074 -0.84561,2.490081 -1.21823,3.750688 -0.0921,0.311711 -0.46462,1.10512 -0.17403,0.959477 0.32871,-0.164751 0.23625,-0.696433 0.34806,-1.046702 0.35228,-1.103519 0.68761,-2.21243 1.0442,-3.314562 0.68762,-2.125253 1.31742,-4.270984 2.08838,-6.367444 1.95622,-5.319527 3.99051,-10.610824 6.09113,-15.875 0.39502,-0.989917 0.90573,-1.930138 1.39226,-2.878434 0.0375,-0.07308 0.19901,-0.252698 0.17403,-0.174451 -1.75054,5.483597 -3.26896,11.03482 -4.8729,16.572802 -0.0153,0.05291 -4.11131,12.670091 -3.65468,14.043268 0.11602,0.348901 0.22962,-0.698616 0.34807,-1.046702 1.15779,-3.40261 2.30855,-6.807644 3.48064,-10.205357 2.86143,-8.294846 2.62552,-7.806577 5.74306,-15.438874 0.77966,-1.908732 1.94964,-3.718906 2.26242,-5.7568674 0.0318,-0.2070843 -0.2662,0.3305 -0.34806,0.5233517 -0.49988,1.1775207 -1.00039,2.3585077 -1.39226,3.5762357 -2.21216,6.874173 -4.32472,13.889345 -6.26516,20.846839 -0.23129,0.829302 -0.36844,1.682406 -0.5221,2.529533 -0.0207,0.114435 -0.0519,0.452975 0,0.348904 2.11316,-4.236469 2.80346,-9.045684 4.35081,-13.519919 1.63279,-4.721309 3.68713,-9.398165 5.91709,-13.8688182 0.0935,-0.1874803 -0.27848,0.3257344 -0.34806,0.5233517 -0.45497,1.2921885 -0.8453,2.6069265 -1.21823,3.9251375 -2.16909,7.667299 -4.33693,15.38324 -6.26515,23.114698 -0.22214,0.890691 -0.32342,1.807766 -0.5221,2.703983 -0.0339,0.152811 -0.23204,0.581502 -0.17403,0.436126 3.09944,-7.767232 4.76212,-15.999302 7.83145,-23.8125 0.94194,-2.397807 2.08449,-4.711893 3.13257,-7.0652466 0.40219,-0.9030686 0.78778,-1.8140402 1.21823,-2.7039834 0.0358,-0.073943 0.20321,-0.2512311 0.17403,-0.1744506 -3.26973,8.6036666 -5.38018,17.5561916 -7.83145,26.4292576 -0.64226,2.324864 -1.26396,4.655418 -1.91435,6.978023 -0.29289,1.045913 -1.28706,4.143062 -0.87016,3.140109 2.12406,-5.109998 3.49769,-10.502098 5.395,-15.700549 0.99191,-2.717739 2.18954,-5.355989 3.30661,-8.024726 0.6233,-1.489116 1.28732,-2.960938 1.91435,-4.448489 0.24319,-0.576929 0.89369,-2.338608 0.69613,-1.744505 -2.09296,6.293967 -3.92287,12.629122 -5.74306,19.01511 -0.58011,2.035257 -1.14449,4.07506 -1.74032,6.105768 -0.27439,0.935144 -0.87016,1.816643 -0.87016,2.791209 0,0.702344 0.64118,-1.254985 0.87016,-1.918957 0.58457,-1.695156 0.98054,-3.45154 1.56629,-5.146291 1.96725,-5.691852 3.9368,-11.385214 6.09112,-17.008927 0.87429,-2.282271 2.39822,-4.298057 3.13258,-6.6291207 0.039,-0.1237814 -0.29013,0.058318 -0.34806,0.1744506 -0.47703,0.9563381 -0.88654,1.9497281 -1.21823,2.9656591 -0.71384,2.18642 -1.29076,4.41527 -1.91435,6.629121 -1.24435,4.417642 -5.04693,15.487165 -5.04693,20.149038 0,0.239726 0.10484,-0.468278 0.17403,-0.697801 1.14912,-3.812199 2.28577,-7.628406 3.48064,-11.426513 3.28941,-10.455968 2.25987,-7.403658 5.74306,-16.049449 0.36943,-0.91696 1.48921,-3.6546981 1.21823,-2.7039836 -1.95237,6.8497136 -4.1731,13.6313766 -6.09113,20.4979396 -0.2829,1.012785 -3.48064,10.821667 -3.48064,13.083791 0,0.239726 0.10706,-0.467622 0.17403,-0.697802 0.33916,-1.165632 0.65054,-2.340636 1.04419,-3.489012 1.86914,-5.452751 3.63322,-10.946919 5.74306,-16.311126 1.73196,-4.403426 4.04403,-8.556063 6.09113,-12.8221147 0.33736,-0.70304 0.84372,-1.3398238 1.0442,-2.0934066 0.0899,-0.3379849 -0.54002,0.4720603 -0.69613,0.7850274 -0.77848,1.5606996 -1.50578,3.1534999 -2.08839,4.7973899 -2.01642,5.689507 -5.67298,19.576569 -6.78726,23.725273 -0.27074,1.008025 -1.07003,4.027366 -0.69612,3.052887 1.50723,-3.928224 0.72535,-2.456326 2.26242,-8.199176 2.43527,-9.098768 1.94391,-7.401013 5.22096,-15.613325 0.5121,-1.283336 1.0201,-2.568706 1.56629,-3.837912 0.0926,-0.215192 0.42044,-0.833391 0.34806,-0.610577 -1.96444,6.048142 -3.78381,12.017478 -5.22096,18.230083 -0.38166,1.649867 -0.68611,3.316697 -1.0442,4.971841 -0.17603,0.81367 -0.71593,3.251922 -0.52209,2.442307 1.87382,-7.826375 4.01887,-17.033187 8.52758,-23.8125 0.33181,-0.498917 -0.47825,1.099119 -0.69613,1.65728 -0.8264,2.116976 -1.65361,4.233979 -2.43645,6.367445 -2.21552,6.037914 -4.29599,12.110988 -6.26516,18.230083 -0.29006,0.901327 0.58807,-1.800132 0.87016,-2.703983 3.5435,-11.353791 3.19506,-12.455173 8.00548,-22.155221 1.02964,-2.076224 2.32,-4.012613 3.48064,-6.0185432 0.52167,-0.9015796 1.23762,-3.6923898 1.56629,-2.7039834 0.3697,1.111755 -0.98272,2.1296314 -1.39225,3.227335 -2.80896,7.5289676 -5.44364,15.1795636 -7.83145,22.8530216 -0.31441,1.01037 -0.63102,2.022102 -0.87016,3.052884 -0.0526,0.226584 -0.12881,0.89148 0,0.697802 0.98757,-1.484926 1.05527,-3.412548 1.74032,-5.059066 2.03041,-4.880068 4.09277,-9.748077 6.26516,-14.56662 0.55572,-1.232646 1.26808,-2.388558 1.91435,-3.576236 0.22772,-0.418496 1.03264,-1.581811 0.87016,-1.133929 -2.05474,5.664131 -4.16132,11.286191 -6.09112,17.008927 -0.56107,1.663822 -1.18027,3.307678 -1.74033,4.971841 -0.25222,0.749462 -0.49283,1.503672 -0.69612,2.267858 -0.0299,0.112392 -0.0252,0.462444 0,0.348901 1.45023,-6.541731 4.46296,-13.903757 6.61322,-19.712911 0.56966,-1.539004 1.23663,-3.041143 1.91435,-4.535715 0.1935,-0.426722 0.69613,-1.6896986 0.69613,-1.221153 0,0.572486 -0.47928,1.040225 -0.69613,1.570055 -0.71144,1.738315 -1.39225,3.489011 -2.08838,5.233516 -5.49581,13.772559 -0.97205,2.112589 -5.395,14.304946 -0.38287,1.055412 -0.83536,2.084694 -1.21823,3.140109 -0.0817,0.225356 -0.30678,0.897414 -0.17403,0.697801 1.38304,-2.079548 4.08205,-10.558165 4.69887,-12.037087 3.76126,-9.01815 2.61328,-6.506884 6.61322,-13.6071425 0.40867,-0.7254227 0.38561,-2.1806318 1.21823,-2.1806318 0.78261,0 -0.58286,1.4526609 -0.87016,2.1806318 -0.7569,1.9178695 -1.53199,3.8287645 -2.26242,5.7568685 -2.52848,6.674339 -5.40526,13.376331 -7.65742,20.149037 -0.0903,0.271619 0.26653,-0.510643 0.34807,-0.785027 0.32538,-1.09497 0.52789,-2.224751 0.87016,-3.314559 1.9624,-6.248495 2.37758,-7.013771 5.395,-13.258243 0.656,-1.357585 1.32723,-2.710812 2.08838,-4.012362 0.22905,-0.391665 0.66764,-1.452719 0.87016,-1.046704 0.23205,0.465202 -0.51679,0.907656 -0.69613,1.395605 -0.63421,1.725572 -1.14958,3.492581 -1.74032,5.233516 -1.00362,2.957757 -3.94673,11.473849 -5.04693,14.566621 -0.50855,1.429571 -1.11037,2.826822 -1.56629,4.274037 -0.0699,0.221853 -0.11118,0.902116 0,0.697804 0.94487,-1.736434 4.27321,-10.454388 4.3508,-10.641483 1.17692,-2.837771 2.38076,-5.665286 3.65468,-8.460852 1.25033,-2.743795 2.50946,-5.492435 4.00274,-8.111951 0.13262,-0.232641 0.56272,-0.875265 0.5221,-0.610577 -0.34587,2.253509 -1.59116,4.275834 -2.26242,6.45467 -5.83059,18.925388 1.70487,-4.571101 -4.35081,14.21772 -0.45964,1.42612 -0.99326,2.829777 -1.39225,4.274037 -0.12484,0.451879 -0.32196,0.950751 -0.17404,1.395605 0.0988,0.297051 0.2477,-0.575733 0.34807,-0.872251 1.002,-2.960355 1.89275,-5.958991 2.95855,-8.89698 2.63275,-7.257478 3.64597,-9.335536 7.13532,-16.136674 0.77175,-1.504248 1.57869,-2.9915684 2.43645,-4.4484893 0.18873,-0.3205628 0.79633,-1.230498 0.69613,-0.8722527 -2.4552,8.777926 -5.57953,17.477928 -8.35355,26.167581 -0.39136,1.22595 -0.83385,2.435307 -1.21823,3.663461 -0.08,0.255794 -0.27731,1.032359 -0.17403,0.785029 3.49501,-8.369252 6.12357,-18.714984 11.13806,-26.254807 0.14843,-0.223179 -0.0762,0.535479 -0.17403,0.785027 -0.5417,1.382202 -1.19761,2.717781 -1.74032,4.099588 -4.86576,12.388728 -0.22868,1.551855 -5.74306,14.479394 -0.73523,1.723621 -1.51828,3.426503 -2.26242,5.146292 -0.30301,0.700272 -1.06083,2.850848 -0.69613,2.180632 2.49153,-4.578792 3.42961,-9.845754 5.22096,-14.741071 2.67563,-7.311795 2.18107,-5.470671 4.69887,-10.728708 0.1352,-0.282345 0.44685,-1.169305 0.34807,-0.872253 -1.86759,5.616228 -3.79777,11.24809 -5.74306,16.834476 -0.31391,0.901465 -3.9908,10.970824 -4.69887,13.607142 -0.0377,0.140185 0.29341,-0.127203 0.34806,-0.261675 0.59191,-1.456367 1.03728,-2.968112 1.56629,-4.448487 1.76787,-4.947163 3.9686,-11.335053 6.26516,-15.962226 1.50459,-3.031488 3.35323,-5.879723 5.04693,-8.809752 0.10485,-0.181385 0.41838,-0.720709 0.34807,-0.523352 -2.70162,7.582732 -5.09176,15.296204 -7.65742,22.940247 -0.35978,1.071917 -0.67353,2.15913 -1.04419,3.227335 -0.0938,0.270425 -0.44891,1.052917 -0.34806,0.785026 2.42335,-6.437328 7.50888,-23.765728 12.00822,-27.824861 0.273,-0.246295 -0.23058,0.698294 -0.34807,1.046704 -0.57864,1.715925 -1.19293,3.420143 -1.74032,5.146291 -2.44463,7.708865 -4.6574,15.472001 -7.30935,23.114697 -0.93458,2.693371 2.0507,-5.322223 2.95854,-8.024725 6.15134,-18.311533 -1.48297,0.436716 9.22371,-24.7719775 0.29471,-0.6938947 0.58523,-1.4081001 1.04419,-2.0061814 0.1805,-0.235208 -0.0887,0.5883127 -0.17403,0.8722529 -1.36536,4.543884 -2.82814,9.058266 -4.17677,13.607142 -1.33995,4.519585 -2.64789,9.522666 -3.82871,14.130496 -0.0572,0.22317 -1.15796,4.941633 -1.39226,5.059063 -0.41911,0.210061 0.0823,-0.93586 0.17404,-1.395603 0.31466,-1.577089 0.59766,-3.165226 1.04419,-4.710165 1.35299,-4.681231 2.87065,-9.313452 4.3508,-13.956043 0.31835,-0.998519 0.67015,-1.986641 1.0442,-2.96566 0.14851,-0.388712 0.54578,-1.54937 0.52209,-1.133928 -0.39056,6.851249 -3.0219,14.225208 -4.8729,20.759614 -0.53123,1.875346 -1.20056,3.709511 -1.74032,5.582417 -0.21482,0.74539 -0.86835,1.573694 -0.5221,2.267858 0.30372,0.608896 0.47373,-1.275887 0.69613,-1.918957 0.53178,-1.537663 1.03043,-3.08669 1.56629,-4.622937 2.92312,-8.380225 6.114,-16.584556 9.7458,-24.684753 0.51523,-1.149128 -0.86196,2.368334 -1.21822,3.576236 -1.9343,6.558211 -3.76254,13.203529 -5.56903,19.800136 -0.27568,1.006684 -0.46024,2.036141 -0.69613,3.052884 -0.0542,0.233524 -0.34334,0.867519 -0.17403,0.697804 1.07777,-1.080365 0.97047,-2.894679 1.39226,-4.361264 1.52083,-5.288071 2.93032,-10.608674 4.52483,-15.875 1.03357,-3.413651 2.66559,-6.645818 3.48065,-10.1181314 0.17269,-0.7356887 -0.64737,1.3713104 -0.87016,2.0934064 -0.64871,2.10253 -1.17312,4.24148 -1.74033,6.367445 -4.24702,15.918359 -0.25651,1.500514 -4.52483,16.572803 -0.79208,2.796971 -1.71606,5.55734 -2.43645,8.373626 -0.0504,0.197175 -0.11271,0.780044 0,0.610576 1.16076,-1.745329 1.33329,-3.975973 2.08838,-5.931318 1.57582,-4.08064 8.36097,-22.862698 12.70435,-28.5226648 0.40357,-0.5259023 -0.33662,1.2825282 -0.5221,1.9189558 -0.5687,1.951391 -1.18316,3.889373 -1.74032,5.844093 -4.12233,14.462866 -0.69515,3.174844 -4.8729,16.921702 -0.52209,1.686357 -1.04419,3.372713 -1.56629,5.059067 -0.17403,0.697801 -0.31589,1.404424 -0.52209,2.093407 -0.0333,0.111418 -0.0295,-0.236413 0,-0.348901 0.2616,-0.996461 0.52123,-1.996318 0.87016,-2.965659 0.67532,-1.876102 5.16321,-15.962612 8.00548,-20.236264 0.29019,-0.436332 -0.35126,0.987439 -0.5221,1.48283 -0.64132,1.859705 -1.29718,3.714559 -1.91435,5.582417 -1.64097,4.966365 -3.27309,9.935748 -4.8729,14.915521 -0.37132,1.155792 -0.7176,2.319798 -1.0442,3.489012 -0.0798,0.285549 -0.41101,1.050415 -0.17403,0.872252 0.33261,-0.250052 0.37303,-0.745426 0.5221,-1.133927 0.43146,-1.124514 0.81878,-2.265505 1.21822,-3.401788 5.31106,-15.108166 3.49192,-11.10334 8.17952,-21.806317 0.56353,-1.286691 1.13925,-2.568323 1.74032,-3.837912 0.21139,-0.446502 0.69613,-1.802393 0.69613,-1.308379 0,0.653183 -0.49646,1.209816 -0.69613,1.831731 -0.61284,1.908755 -1.19081,3.828929 -1.74032,5.756868 -3.27283,12.029214 -0.83062,3.281919 -4.00275,14.130493 -0.35636,1.218758 -0.68249,2.446276 -1.04419,3.663463 -0.0446,0.150037 -0.21583,0.586965 -0.17403,0.436126 0.33164,-1.196753 0.6207,-2.408825 1.04419,-3.576235 1.78198,-4.912233 3.50972,-9.851274 5.56903,-14.653847 0.78975,-1.841782 1.92272,-3.518027 2.95855,-5.233517 0.30032,-0.497365 1.20777,-1.953102 1.04419,-1.395604 -0.44698,1.523416 -1.34922,2.87761 -1.91435,4.361264 -7.39923,19.425535 -3.23056,8.800384 -7.30935,20.585164 -0.42447,1.226397 -1.96076,2.83192 -1.0442,3.750686 0.1893,0.189754 0.0974,-0.528196 0.17404,-0.785027 1.02575,-3.436419 1.91449,-6.919539 3.13257,-10.292583 2.69867,-7.472984 5.34055,-11.953013 9.2237,-19.015108 0.2019,-0.367172 0.78375,-1.4564634 0.69615,-1.046704 -0.25752,1.204641 -0.80796,2.327482 -1.21823,3.489011 -1.73613,4.915174 -3.4333,9.844409 -5.22097,14.741073 -2.15797,5.910966 -1.73422,4.182662 -3.30661,8.460851 -0.073,0.198638 -0.23204,0.814101 -0.17404,0.610576 2.17277,-7.622947 4.58069,-11.514383 9.2237,-19.712912 1.06032,-1.872271 2.44456,-3.541624 3.65469,-5.320741 0.53022,-0.779552 1.74228,-3.2812994 1.56628,-2.3550829 -0.28646,1.5075939 -1.27812,2.7903459 -1.91434,4.1868129 -1.04608,2.296072 -2.15278,4.565671 -3.13259,6.890797 -1.86329,4.421672 -3.6012,8.895146 -5.39499,13.345467 -0.71994,1.786128 -2.3989,5.707287 -2.08839,6.018543 0.48057,0.481722 0.46158,-1.280221 0.69613,-1.918957 0.54513,-1.484505 6.63141,-20.314229 10.09386,-22.242443 0.82724,-0.460675 -0.57957,1.802826 -0.87017,2.703983 -2.88149,8.936135 -1.01346,3.660131 -5.22095,13.956043 -0.27549,0.674124 -3.10818,6.871248 -3.30661,9.158655 -0.0251,0.289412 0.38876,-0.439711 0.52209,-0.697804 4.23892,-8.205176 3.98236,-8.587065 8.35356,-15.874998 1.50498,-2.509192 3.10322,-4.961615 4.69887,-7.414149 0.14602,-0.224461 0.55986,-0.875685 0.52207,-0.610576 -0.0922,0.646649 -0.43738,1.231975 -0.69611,1.83173 -2.23732,5.186262 -4.45979,10.379654 -6.78725,15.526099 -0.32134,0.710512 -0.69615,1.395603 -1.04421,2.093407 -0.058,0.1163 -0.20966,0.473887 -0.17402,0.348901 1.80997,-6.350103 5.53294,-14.031451 10.2679,-19.01511 0.19717,-0.207516 -0.22889,0.524773 -0.34806,0.785027 -0.69299,1.513348 -1.44187,3.00194 -2.08841,4.535715 -1.09434,2.596182 -2.02308,5.260528 -3.13256,7.850275 -2.79413,6.521974 -2.45266,4.516297 -4.00275,9.333103 -0.0321,0.09972 0.136,-0.164076 0.17405,-0.261676 0.94903,-2.434272 1.79615,-4.908349 2.7845,-7.326923 1.18922,-2.910097 7.97491,-17.085933 9.57178,-17.619504 0.28119,-0.09396 -0.0658,0.596242 -0.17405,0.872252 -3.06125,7.804959 -3.2994,8.072502 -6.09113,14.479397 -0.35367,0.811678 -0.73395,1.613048 -1.04418,2.442305 -0.0407,0.108929 -0.0407,0.45783 0,0.348903 2.47285,-6.610093 5.01158,-12.914045 8.52758,-19.102336 1.07111,-1.885213 2.06621,-3.851801 3.48064,-5.4951916 0.23985,-0.2786808 0.46019,0.6965326 0.34806,1.0467036 -0.66688,2.082596 -1.79027,3.991429 -2.61048,6.018543 -2.16223,5.343836 -4.86312,11.362775 -5.74305,17.096153 -0.0177,0.114956 -0.0444,-0.241398 0,-0.348901 0.3075,-0.74494 0.72086,-1.442413 1.04418,-2.180632 4.69863,-10.728121 -1.1271,1.31133 7.4834,-15.351647 0.29831,-0.577305 0.58949,-1.158408 0.87016,-1.744505 0.0676,-0.141172 0.1997,-0.590529 0.17401,-0.436127 -0.73784,4.437704 -2.99286,9.286443 -4.52482,13.432692 -0.95978,2.597597 -1.80038,5.247638 -2.95855,7.76305 -0.23066,0.500975 0.36867,-1.040299 0.52211,-1.570056 0.36883,-1.273471 0.66609,-2.567157 1.04417,-3.837911 1.94602,-6.540517 4.17005,-12.767123 7.65742,-18.666209 0.20121,-0.3403557 -0.215,0.761605 -0.34806,1.133929 -0.56325,1.576181 -1.21574,3.120695 -1.74033,4.710164 -1.4348,4.347452 -2.79011,8.720746 -4.17676,13.083792 -0.3846,1.21014 -0.70178,2.440709 -1.04421,3.66346 -0.12168,0.434578 -0.47175,1.74239 -0.34806,1.308381 2.12673,-7.46143 4.57023,-14.003303 7.4834,-21.457418 0.35983,-0.920761 0.82664,-1.796267 1.21822,-2.703984 0.0728,-0.1688049 0.23791,-0.6957404 0.17402,-0.5233511 -2.55715,6.9012291 -4.91477,13.8304721 -7.13531,20.8468391 -0.57976,1.831848 -1.15742,3.664352 -1.74033,5.495192 -0.28725,0.902224 -0.78464,1.761006 -0.87016,2.703983 -0.0316,0.348311 0.55216,-0.466299 0.69615,-0.785026 0.56025,-1.240205 0.90003,-2.569165 1.39224,-3.837911 1.94439,-5.011862 3.77504,-10.072131 5.91708,-15.002748 1.49173,-3.433634 3.31986,-6.71866 5.22097,-9.9436807 0.12515,-0.2122768 0.58418,-0.7618233 0.52211,-0.5233517 -0.22974,0.8827889 -0.75118,1.6656784 -1.04418,2.5295324 -2.57927,7.604304 -4.78311,15.254039 -7.65744,22.765798 -0.62495,1.633296 -1.304,3.245799 -1.91434,4.884613 -0.20214,0.542771 -0.76957,2.180947 -0.5221,1.657281 2.78842,-5.900804 1.72577,-4.763275 4.35081,-11.42651 1.93516,-4.912125 4.16893,-9.870454 6.61323,-14.566621 0.13213,-0.253909 -0.24199,0.519169 -0.34809,0.785027 -0.4741,1.188127 -0.99845,2.359127 -1.39223,3.576236 -1.30297,4.027094 -2.34852,8.133128 -3.48065,12.21154 -0.36213,1.304552 -0.74668,2.604346 -1.0442,3.925136 -0.10936,0.485502 -0.41191,1.91997 -0.17402,1.482831 1.02489,-1.8835 1.07542,-4.154385 1.7403,-6.192997 1.37953,-4.22986 2.16749,-6.064117 4.00275,-10.030905 0.20743,-0.448354 0.89034,-1.762619 0.69614,-1.308379 -1.91,4.467343 -3.15809,8.891185 -4.35081,13.607142 -0.22132,0.875038 -0.47773,1.740993 -0.69614,2.616758 -0.0717,0.287671 -0.17402,1.168734 -0.17402,0.872252 0,-1.92782 0.79396,-3.783235 1.39224,-5.582417 0.058,-0.174451 0.19997,-0.705355 0.17404,-0.523351 -0.35666,2.502651 -2.62255,8.890928 -2.26242,9.071427 1.45626,0.729885 0.0883,-2.878868 2.43646,-3.66346 0.32777,-0.109522 -0.95527,2.668627 -1.0442,2.791208"
       style="fill:none;stroke:#000000;stroke-width:3;stroke-linecap:round" />
  </g>
</svg>
