<?xml version="1.0" encoding="UTF-8" standalone="no"?>
<svg
   xmlns:dc="http://purl.org/dc/elements/1.1/"
   xmlns:cc="http://creativecommons.org/ns#"
   xmlns:rdf="http://www.w3.org/1999/02/22-rdf-syntax-ns#"
   xmlns:svg="http://www.w3.org/2000/svg"
   xmlns="http://www.w3.org/2000/svg"
   xmlns:sodipodi="http://sodipodi.sourceforge.net/DTD/sodipodi-0.dtd"
   xmlns:inkscape="http://www.inkscape.org/namespaces/inkscape"
   width="100mm"
   height="100mm"
   viewBox="0 0 100 100"
   version="1.1"
   id="svg8"
   inkscape:version="1.0 (4035a4fb49, 2020-05-01)"
   sodipodi:docname="drawing_filled_in_square.svg">
  <defs
     id="defs2" />
  <sodipodi:namedview
     id="base"
     pagecolor="#ffffff"
     bordercolor="#666666"
     borderopacity="1.0"
     inkscape:pageopacity="0.0"
     inkscape:pageshadow="2"
     inkscape:zoom="0.81993261"
     inkscape:cx="249.67902"
     inkscape:cy="266.88203"
     inkscape:document-units="mm"
     inkscape:current-layer="layer1"
     inkscape:document-rotation="0"
     showgrid="false"
     inkscape:window-width="1375"
     inkscape:window-height="1040"
     inkscape:window-x="213"
     inkscape:window-y="0"
     inkscape:window-maximized="0" />
  <metadata
     id="metadata5">
    <rdf:RDF>
      <cc:Work
         rdf:about="">
        <dc:format>image/svg+xml</dc:format>
        <dc:type
           rdf:resource="http://purl.org/dc/dcmitype/StillImage" />
        <dc:title />
      </cc:Work>
    </rdf:RDF>
  </metadata>
  <g
     inkscape:label="Layer 1"
     inkscape:groupmode="layer"
     id="layer1">
    <path
       id="path941"
       d="m 11.208223,-5.9821598 c 0.495255,-0.2978668 0.914259,-0.9795324 1.485763,-0.8936005 0.368195,0.055362 0.01687,0.7450492 0,1.1170007 C 12.53748,-2.30735 12.519547,-3.6115286 11.208223,1.0177118 8.7132691,9.825412 9.3379696,8.3379978 6.0080535,17.84719 3.2741584,25.654335 2.8288784,25.895879 0.65930726,32.963934 c -0.3462185,1.127916 -0.6471946,2.271176 -0.8914577,3.425471 -0.10328812,0.488098 -0.0632916,0.997767 -0.14857629,1.489334 -0.0152876,0.08811 -0.14857627,0.31283 -0.14857627,0.223398 0,-4.380918 2.8225698,-11.201119 4.1601359,-15.042276 C 4.5706715,20.360878 5.5522079,17.67546 6.6023587,15.017455 8.0911546,11.249209 10.179541,4.8041356 13.288291,1.6879123 13.885367,1.0894013 13.520789,3.3785484 13.436868,4.2197808 13.307237,5.5192009 13.111872,6.8142519 12.842563,8.0920502 11.15442,16.101799 8.3293272,23.628776 5.4137483,31.251199 4.6168624,33.33456 3.7945443,35.408589 3.0365279,37.506404 2.651879,38.570923 1.6946705,41.821348 2.1450701,40.782941 3.7075887,37.180509 4.8761488,33.419293 6.305206,29.761865 9.4823115,21.630608 12.695106,13.395419 16.408393,5.4857149"
       style="fill:none;stroke:#000000;stroke-width:3;stroke-linecap:round" />
    <path
       id="path943"
       d="m 25.620123,12.63452 c 0.198102,-0.4468 0.364736,-0.908924 0.594305,-1.340401 0.03498,-0.06574 0.03018,0.155325 0,0.2234 -0.368814,0.831826 -0.875164,1.603172 -1.18861,2.457402 -1.273273,3.470032 -2.382178,6.998192 -3.565831,10.499807 -3.472513,10.272784 -6.595682,20.569994 -9.360306,31.052621 -0.973114,3.68976 -1.80247,6.547213 -2.8229492,10.127475 -0.1485762,0.521266 0.080041,1.695559 -0.445729,1.563801 -0.5318834,-0.133289 0.054843,-1.098007 0.1485763,-1.638268 2.2472259,-12.952608 6.5933899,-25.200443 12.3318319,-37.009958 1.507817,-3.103038 5.743446,-10.814972 7.874543,-14.446544 0.417886,-0.712112 0.913133,-2.793524 1.337186,-2.085069 0.50791,0.848551 -0.54764,1.902481 -0.891458,2.829736 -0.696854,1.879381 -1.471266,3.729186 -2.228644,5.585004 C 22.087871,33.47739 15.596162,45.966234 10.16819,58.95282 9.8055693,59.820399 5.0201324,72.961732 3.7794094,74.516363 c -0.2012874,0.252214 0,-0.645377 0,-0.968066 0,-1.53898 0.01806,-3.078064 0,-4.616936 C 3.5908903,52.868742 3.5999203,44.518355 10.911071,29.761865 c 0.748953,-1.511652 1.566337,-2.988646 2.37722,-4.468003 0.427434,-0.7798 0.962897,-1.501811 1.337187,-2.308468 0.127093,-0.273906 0.384143,-1.082507 0.148576,-0.893601 -0.409124,0.328086 -0.913676,1.539447 -1.18861,2.159535"
       style="fill:none;stroke:#000000;stroke-width:3;stroke-linecap:round" />
    <path
       id="path945"
       d="m 41.517786,17.62379 c 0.198102,0.943245 0.696021,1.871294 0.594305,2.829736 -0.154056,1.451608 -0.794295,2.815083 -1.337186,4.170136 -1.93512,4.830027 -4.023275,9.597588 -6.091629,14.372076 -9.529923,21.998424 0.71337,-2.513242 -9.063153,20.92515 -8.887177,21.306258 -0.21004,0.512535 -7.57739,18.691145 -1.253177,3.092159 -2.210636,6.335316 -3.862984,9.233874 -0.101356,0.1778 -0.180017,-0.393504 -0.148576,-0.595733 0.268455,-1.726727 0.582017,-3.451829 1.040034,-5.138206 0.831166,-3.060277 1.767527,-6.094584 2.822949,-9.08494 3.737527,-10.589627 8.171486,-21.172921 12.926137,-31.350486 1.005076,-2.15142 2.156701,-4.231511 3.268679,-6.329672 0.572074,-1.079434 1.152588,-2.155582 1.782916,-3.20207 0.163859,-0.272044 0.537625,-1.05715 0.594304,-0.744667 0.557665,3.074535 -2.916531,12.19609 -3.714408,14.595478 -3.024685,9.095872 -3.628372,10.479857 -7.428814,19.584746 -1.06174,2.543659 -2.170609,5.067416 -3.268678,7.595605 -0.486765,1.120728 -0.809117,2.333596 -1.485763,3.351004 -0.135329,0.20348 -0.346755,-0.430914 -0.297152,-0.6702 0.357053,-1.722451 0.933137,-3.393729 1.485763,-5.063739 1.131718,-3.419999 2.204652,-6.866615 3.56583,-10.201939 1.762089,-4.31768 3.690807,-8.571852 5.794474,-12.733811 2.62971,-5.202687 6.281198,-10.04724 8.766003,-15.340142"
       style="fill:none;stroke:#000000;stroke-width:3;stroke-linecap:round" />
    <path
       id="path947"
       d="m 61.872738,32.740533 c 2.700258,-0.94107 1.895737,-7.596161 5.051591,-8.861538 0.772253,-0.309643 -0.461089,1.600091 -0.742881,2.382935 -1.451914,4.033547 -2.896843,8.070792 -4.457287,12.063608 -4.102415,10.497122 -9.082553,20.617775 -13.669018,30.903688 -0.748675,1.679027 -6.639197,17.279744 -9.21173,18.39328 -1.672794,0.72408 -1.475288,-4.715727 -1.337186,-6.999872 0.689663,-11.406799 4.050472,-22.609749 6.983084,-33.584488 1.840315,-6.887028 3.616063,-13.793716 5.645899,-20.627283 1.161947,-3.911771 2.075855,-5.34381 3.417255,-8.638139 0.11838,-0.290727 0.297151,-1.207505 0.297151,-0.893601 0,1.904652 -3.544575,11.7271 -3.862983,12.584877 -4.853821,13.076004 -11.504874,25.028127 -20.652102,35.595091 -1.018863,1.176996 -10.396079,12.88507 -13.817595,9.30834 -2.646749,-2.766816 -3.184925,-10.548543 -3.268679,-13.329544 -0.26942,-8.946012 0.588059,-13.594138 2.525797,-22.265549 1.864128,-8.342003 1.877943,-5.490173 2.971526,-11.989142 0.103301,-0.613898 0.0691,-1.244232 0.148576,-1.861667 0.02004,-0.155668 0.303664,-0.422677 0.148577,-0.446801 -1.469952,-0.228644 -2.971526,-0.148933 -4.457289,-0.2234"
       style="fill:none;stroke:#000000;stroke-width:3;stroke-linecap:round" />
    <path
       id="path949"
       d="m 89.656501,31.772468 c -0.04953,1.464511 0.261046,2.986603 -0.148577,4.393536 -3.32935,11.435347 -10.405702,26.38834 -17.234847,36.339758 -0.193077,0.28135 -4.536472,6.608453 -6.240206,7.223273 -1.497602,0.540433 -1.485762,-2.510649 -1.485762,-6.404139 0,-16.036469 3.099514,-30.741365 7.131661,-46.169365 1.07165,-4.100393 2.312882,-8.158075 3.268678,-12.287009 0.09026,-0.389921 0.216258,-1.356037 -0.148574,-1.191468 -1.240803,0.559703 -6.90023,13.880755 -7.131664,14.297611 C 64.270339,34.093091 58.212201,42.938348 54.146769,48.378546 52.667413,50.358161 42.768332,63.30163 39.437717,64.984624 36.056556,66.69316 31.997261,68.01918 28.294496,67.218625 26.073787,66.738497 25.081321,63.83521 24.282937,61.708087 21.832549,55.17956 22.517792,47.447538 23.837208,40.857408 c 1.369007,-6.837834 4.543328,-15.28924 7.725967,-21.669817"
       style="fill:none;stroke:#000000;stroke-width:3;stroke-linecap:round" />
    <path
       id="path951"
       d="m 41.814937,3.4751137 c 0.09905,-0.4468003 0.1368,-0.9117654 0.297154,-1.3404011 0.166158,-0.4441532 0.0097,0.9678339 -0.148577,1.4148678 -0.40132,1.1337136 -0.861208,2.2465524 -1.337186,3.3510023 -0.861483,1.9989657 -1.776978,3.9742343 -2.674373,5.9573373 -5.795979,12.808212 -9.860241,24.76593 -13.22329,38.424828 -0.627541,2.548736 -1.303202,5.089424 -1.782915,7.670072 -0.264512,1.422961 -0.32904,2.876444 -0.445729,4.319069 -0.03202,0.395864 -0.338664,1.398926 0,1.191469 0.686346,-0.420444 0.972524,-1.293061 1.337187,-2.010603 4.997046,-9.832597 8.854568,-19.843565 15.154781,-29.042021 0.958702,-1.399726 2.035525,-2.716581 3.120102,-4.021201 1.784837,-2.146956 2.817529,-3.117266 3.120101,-2.308469 0.843275,2.254136 -2.384178,12.483624 -2.822948,14.148676 -3.899032,14.796103 -0.91572,3.084073 -4.754443,18.542214 -0.641228,2.582161 -1.386258,5.140417 -1.93149,7.744539 -0.297815,1.422411 -0.4342,2.874661 -0.594307,4.319069 -0.03829,0.345395 -0.230563,1.302541 0,1.042535 0.400942,-0.452141 0.370337,-1.151467 0.594307,-1.712735 0.6678,-1.673516 1.329888,-3.351027 2.080067,-4.989272 3.340047,-7.294022 5.045747,-10.753336 9.508881,-17.574146 1.124379,-1.718334 2.407023,-3.331247 3.714409,-4.914802 0.480036,-0.581438 0.936027,-1.27943 1.634339,-1.563801 1.104561,-0.449808 0.876366,2.314795 0.742881,3.499935 -0.239315,2.124747 -0.677926,4.222374 -1.040034,6.329672 -1.488366,8.661569 -4.098486,17.409453 -3.417256,26.286753 0.02551,0.332528 0.592138,-0.372708 0.742884,-0.670203 0.653989,-1.29064 1.056029,-2.694921 1.634339,-4.021201 3.032086,-6.953721 3.968581,-9.195781 8.468847,-15.861411 1.443456,-2.137994 3.086571,-4.138332 4.754441,-6.106271 0.714145,-0.842629 1.329608,-1.958424 2.37722,-2.308468 0.457073,-0.152725 0.335492,0.934482 0.297154,1.414867 -0.112326,1.407454 -0.474009,2.784044 -0.742881,4.170135 -1.320311,6.806491 -3.10791,13.547963 -4.160137,20.403881 -0.173865,1.132848 -0.297153,2.279359 -0.297153,3.42547 0,0.290455 0.06188,0.989463 0.297153,0.819134 0.558311,-0.404193 0.743228,-1.165116 1.040035,-1.787202 0.794118,-1.664419 1.432806,-3.400136 2.228644,-5.063736 1.818338,-3.801015 4.964366,-10.316043 7.725965,-13.776343 0.609217,-0.763352 1.687454,-2.40416 2.377221,-1.712735 0.89681,0.898964 -0.165516,2.53484 -0.297151,3.797802 -0.731999,7.023103 -2.165147,14.098937 -2.525798,21.148548 -0.03746,0.732166 0.652452,-1.31753 0.891458,-2.0106 0.45284,-1.313149 0.826215,-2.655099 1.337186,-3.946737 0.984433,-2.488446 2.542196,-7.090775 4.605867,-9.159407 0.07836,-0.07855 0.153969,0.187045 0.148574,0.297868 -0.0449,0.922658 -0.175353,1.839585 -0.297151,2.755268 -0.703397,5.288155 -1.502709,10.443054 -1.634339,15.786946 -0.01162,0.47148 -0.36793,1.119815 0,1.414868 0.3684,0.295428 1.489768,-2.32473 2.080067,-3.723336 1.486688,-3.522438 2.760106,-8.185367 5.645898,-10.946609 0.596159,-0.570428 0.297154,1.632302 0.297154,2.457403 0,8.21496 0.118716,-2.097482 -0.44573,7.521138 -0.06689,1.139862 -0.0345,2.284166 0,3.425468 0.01508,0.498681 -0.324615,1.331224 0.148576,1.489334 0.499848,0.167018 0.870577,-0.6223 1.188612,-1.042532 2.761472,-3.648874 1.205643,-2.908155 4.457287,-6.031805 0.328017,-0.315105 0.900999,-1.022572 1.188612,-0.6702 0.487574,0.597358 0.12982,1.537613 0.148576,2.308469 0.03511,1.442778 -0.145769,11.208411 1.188609,11.76574 0.228849,0.09558 0.297154,-0.397156 0.44573,-0.595733"
       style="fill:none;stroke:#000000;stroke-width:3;stroke-linecap:round" />
    <path
       id="path953"
       d="m 11.3568,40.55954 c 0.09905,-0.645377 0.100962,-2.558897 0.297152,-1.936134 0.418494,1.328415 -0.08084,7.847814 -0.148576,8.41474 -0.920736,7.706627 -2.9162695,15.266392 -4.4572886,22.86128 -0.6673193,3.288877 -2.6354344,9.024175 -1.7829154,12.584877 0.045077,0.188272 0.3665932,-0.195654 0.445729,-0.372335 0.474921,-1.06032 0.8017452,-2.181013 1.1886102,-3.276534 2.0995039,-5.945357 1.2562424,-4.123642 3.7144068,-9.606208 0.326877,-0.729049 0.666904,-1.453039 1.040034,-2.159535 0.07416,-0.140411 0.260866,-0.526923 0.297153,-0.372332 0.280981,1.197041 -0.502934,4.495871 -0.594305,5.063736 -1.153583,7.169407 -3.5658311,14.888123 -3.5658311,22.116616 0,0.20466 0.088048,-0.40023 0.1485762,-0.595733 0.3853096,-1.244537 0.8008615,-2.479559 1.1886105,-3.723336 1.6380734,-5.254437 1.6169514,-5.86744 3.7144074,-10.723208 0.343204,-0.794546 0.728808,-1.575207 1.18861,-2.308468 0.09493,-0.151397 0.431512,-0.475999 0.445729,-0.297868 0.167554,2.099461 -0.611467,4.167764 -0.891458,6.255205 -0.212829,1.586717 -0.457131,3.17083 -0.594305,4.765871 -0.110679,1.286954 -0.113762,2.581031 -0.148576,3.872269 -0.01472,0.545891 -0.38568,1.251659 0,1.638266 0.273572,0.27423 0.574492,-0.544759 0.742881,-0.893599 0.580898,-1.203409 0.901866,-2.521381 1.485763,-3.723335 0.101279,-0.208487 5.05929,-8.936009 5.645899,-8.936009 0.436688,0 0.306135,1.297118 0.148576,3.797803 -0.197466,3.134064 -0.445729,5.345343 -0.445729,8.489207 0,4.417882 1.499426,0.982517 2.525797,-0.893602 2.529922,-4.624477 4.241484,-9.955143 8.02312,-13.627409 0.802127,-0.778931 0.293291,2.242309 0.148574,3.351003 -0.363482,2.784732 -2.033346,10.346338 -1.188609,12.95721 0.430589,1.330838 1.910938,-2.094624 2.525798,-3.351004 0.990078,-2.023089 6.350232,-14.362842 5.794475,-8.861538 -0.454962,4.503536 -2.205318,9.431099 -1.337188,13.999741 0.06672,0.351116 0.620379,0.828649 0.891458,0.595736 2.012217,-1.728904 6.442072,-11.947398 8.023119,-12.287009 0.266957,-0.05734 0.02262,0.547026 0,0.819134 -0.07653,0.920573 -0.214649,1.835211 -0.297151,2.755268 -0.234908,2.619626 -1.120103,8.870209 0.594304,6.850938 0.864585,-1.018328 1.340303,-2.313152 2.080067,-3.425468 1.850626,-2.782612 3.878554,-5.705705 6.240206,-8.116874 0.336693,-0.343755 0.804003,-1.108281 1.188609,-0.819134 0.456335,0.343074 0.0473,1.143786 0,1.712735 -0.135104,1.62514 -1.245039,9.590632 -0.742881,10.723208 0.172823,0.389784 0.792599,-0.397425 1.040034,-0.744667 1.007277,-1.413579 1.733953,-3.009093 2.674374,-4.468003 0.203176,-0.315198 4.286689,-6.450094 5.497322,-7.744539 0.630981,-0.674667 -0.08057,1.857269 -0.297153,2.755267 -0.249537,1.034653 -2.150068,9.146829 -1.188609,9.904074 0.441775,0.347946 3.038938,-4.944774 3.417252,-5.659469 0.264576,-0.499817 0.943364,-1.8976 1.040035,-1.340401 0.357129,2.05843 -1.890064,10.147999 -0.297154,11.318941 0.535628,0.393735 1.302258,-0.434371 1.782916,-0.893601 0.221409,-0.211537 5.999729,-7.418181 6.091629,-7.521138 2.511748,-2.813997 2.427322,-1.970881 2.377221,1.042532 -0.0355,2.134992 -0.23205,4.270484 -0.148577,6.404139 0.01659,0.423715 0.02559,1.134039 0.445728,1.191467 0.506277,0.0692 0.881261,-0.559848 1.188611,-0.968066 0.696018,-0.924441 1.212517,-1.971857 1.782916,-2.978668 1.345644,-2.375204 1.291998,-2.309614 2.080067,-4.021204"
       style="fill:none;stroke:#000000;stroke-width:3;stroke-linecap:round" />
    <path
       id="path955"
       d="m 91.142263,71.239829 c -1.545227,1.631037 -0.01556,4.851948 -1.188609,6.850938 -0.06272,0.106876 -0.291271,-0.09962 -0.297153,-0.223401 -0.046,-0.968243 -0.0011,-1.946473 0.148577,-2.904201 0.858522,-5.498193 3.048698,-10.452809 4.457289,-15.786944 0.108477,-0.410795 0.306044,-0.871318 0.148575,-1.265936 -0.08473,-0.212336 -0.33722,0.320042 -0.445728,0.521269 -0.958493,1.777473 -1.763403,3.633776 -2.674374,5.436068 -0.400415,0.792197 -0.753287,1.60937 -1.188609,2.382935 -0.11212,0.199237 -0.44573,0.749885 -0.44573,0.521269 0,-1.763316 1.992336,-6.522778 2.228643,-7.148806 1.583304,-4.194503 3.398592,-8.356185 4.45729,-12.733808 0.03501,-0.144762 0.08643,-0.568092 0,-0.446802 -0.321945,0.451808 -0.500967,0.990081 -0.742881,1.489334 -1.546003,3.190597 -2.647601,5.614588 -4.308713,8.861541 -0.616813,1.205675 -1.265021,2.395451 -1.93149,3.574402 -0.176046,0.311412 -0.530463,1.245584 -0.594307,0.893601 -0.640297,-3.53011 3.775503,-15.919174 4.903017,-19.73368 0.235845,-0.797891 0.742882,-1.550919 0.742882,-2.382936 0,-0.447159 -0.543288,0.716857 -0.742882,1.117 -1.615088,3.237944 -3.056884,6.559523 -4.605864,9.829609 -0.750747,1.58492 -1.318389,3.266858 -2.228643,4.765868 -0.167145,0.275257 -0.914347,0.69355 -0.891458,0.372335 0.111244,-1.561176 0.805357,-3.024984 1.188609,-4.54247 0.408315,-1.61672 3.21892,-13.030631 3.565832,-14.595477 0.295018,-1.330775 0.611896,-2.664428 0.742881,-4.021204 0.02132,-0.220882 -0.152935,-0.764392 -0.297154,-0.595733 -1.160626,1.357321 -3.206467,6.851372 -3.565829,7.670072 -1.665089,3.793387 -3.370617,7.603313 -5.497322,11.170007 -0.325292,0.545547 -0.70685,1.903267 -1.188611,1.489335 -0.603642,-0.518652 -0.0032,-1.601679 0.148576,-2.382936 0.394801,-2.032714 0.950855,-4.031387 1.485763,-6.031804 6.877536,-25.720177 -1.950186,7.896029 4.75444,-16.084811 0.369676,-1.322238 0.724144,-2.658492 0.891458,-4.021202 0.0354,-0.288291 -0.08729,-1.019938 -0.297153,-0.819134 -1.554954,1.487843 -8.169058,18.86916 -10.103186,18.020946 -0.62044,-0.272095 0.139406,-1.351743 0.297154,-2.010601 1.120822,-4.681331 2.373579,-8.179847 3.862982,-12.882743 0.620139,-1.958129 2.557455,-7.165738 2.674372,-9.97854 0.04743,-1.141043 -1.428938,1.804225 -1.93149,2.829735 -2.821745,5.758075 -5.626219,11.561791 -9.954612,16.38268 -0.496732,0.553249 -1.195105,1.795708 -1.782916,1.3404 -0.687949,-0.532876 -0.03277,-1.755254 0.148577,-2.606336 0.574936,-2.698216 5.021773,-14.699925 3.862982,-16.829479 -0.937151,-1.722244 -7.512185,11.28129 -8.766,9.755142 -0.482028,-0.58673 0.231526,-1.505497 0.44573,-2.234003 0.361344,-1.228941 3.089476,-8.999661 3.417253,-10.053007 0.355237,-1.141583 1.261644,-4.2809171 0.297153,-3.574402 -0.688469,0.504322 -1.009081,1.377177 -1.485762,2.085068 -2.965344,4.403663 -5.758474,9.205261 -10.251763,12.287008 -0.453445,0.310997 -1.520176,0.761264 -1.634339,0.223401 -0.772739,-3.640606 6.001475,-12.456885 5.200169,-17.2762793 -0.190514,-1.1458318 -1.92722,1.3446255 -2.674374,2.2340013 -1.228305,1.46212 -3.826823,4.665137 -5.348746,6.031804 -0.288525,0.259093 -0.94974,0.898393 -1.040034,0.521267 -0.190614,-0.796141 0.345948,-1.602874 0.594307,-2.382934 0.495281,-1.555615 1.115486,-3.069024 1.634339,-4.6169371 0.521327,-1.5553029 1.0815,-3.1016472 1.485762,-4.6914033 0.802463,-3.1556919 0.696886,-5.17652943 -2.080069,-1.4148675 -1.341872,1.8177002 -7.281828,12.1903029 -8.914577,12.8827419 -0.479893,0.203521 -0.12614,-1.058026 0,-1.563801 0.805352,-3.22915 2.126456,-6.3127552 2.971527,-9.5317398 0.290518,-1.1066206 0.616834,-2.213847 0.742882,-3.3510023 0.02692,-0.2428865 -0.09639,-0.8095264 -0.297154,-0.6702005 -2.525059,1.7523195 -4.208772,7.8433823 -6.685933,9.0849396 -1.36619,0.684737 -1.51029,-3.1862821 -1.485763,-3.3510021 0.159652,-1.0722353 0.55712,-2.0963924 0.891458,-3.1276022 0.309938,-0.9559476 0.801531,-1.8535112 1.040035,-2.8297354 0.06586,-0.26957139 0.10301,-0.93622319 -0.148577,-0.81913393 C 40.713678,1.3440739 26.374859,17.92461 24.282937,16.208922 c -0.797454,-0.65403 3.345579,-7.8866047 4.160136,-9.1594058 0.181838,-0.284135 0.761368,-1.1121993 0.594305,-0.8191341 -3.3152,5.8155459 0.575913,-1.9093013 -3.417255,6.4041379"
       style="fill:none;stroke:#000000;stroke-width:3;stroke-linecap:round" />
    <path
       id="path957"
       d="m 94.113791,26.783196 c 0.884613,-2.926241 0.890656,-3.044103 2.080066,-6.404137 0.08155,-0.230367 0.297154,-0.914575 0.297154,-0.670201 0,1.040861 -2.032958,3.811119 -2.525797,4.840337 -0.316399,0.66075 -0.896692,2.654572 -1.040035,1.936136 -0.254421,-1.275165 1.832756,-8.706819 2.228644,-10.350875 0.10714,-0.44493 0.215476,-0.890101 0.297153,-1.340401 0.01773,-0.09769 0.04713,-0.385259 0,-0.297867 -0.223567,0.414592 -2.479725,5.160522 -2.822948,5.733938 -0.530132,0.885675 -1.211299,1.672382 -1.782916,2.531868 -0.335319,0.504187 -1.086363,2.09307 -1.040034,1.489334 0.292655,-3.813666 1.89911,-7.614792 3.120101,-11.170008 0.44355,-1.291506 0.874371,-2.587541 1.337188,-3.8722691 0.181158,-0.502875 0.594305,-0.9548236 0.594305,-1.4893343 0,-0.2337689 -0.440576,0.1962216 -0.594305,0.3723336 -0.548007,0.6278001 -0.996389,1.336095 -1.485765,2.0106018 -0.510466,0.703578 -4.491013,6.619086 -5.051591,6.478604 -0.409321,-0.102576 -0.07422,-0.850535 0,-1.265934 0.171561,-0.960195 3.406912,-11.6107392 2.674371,-11.8402083 -0.794078,-0.2487462 -6.375744,8.4038503 -7.725965,9.5317403 -0.803712,0.671369 0.01929,-2.117911 0.29715,-3.1276024 0.860859,-3.1281137 1.148424,-3.7326657 1.782916,-6.7764715 0.128239,-0.6151877 0.219393,-1.2380865 0.297154,-1.8616681 0.02151,-0.1724203 0.140745,-0.62315988 0,-0.52126704 C 83.397438,1.9166916 79.511892,8.4692661 77.770399,8.389917 76.011073,8.3097554 80.176676,1.6460004 76.581787,3.9219139 74.350525,5.3345206 71.962827,8.5388504 69.152976,8.5388504"
       style="fill:none;stroke:#000000;stroke-width:3;stroke-linecap:round" />
    <path
       id="path959"
       d="m 85.644941,47.782813 c -1.731875,3.976034 -3.340692,8.004259 -5.051594,11.989141 -0.446527,1.040014 -1.625814,4.176255 -1.485762,3.053135 0.853993,-6.848371 4.216339,-12.975415 6.38878,-19.435815 0.195696,-0.581959 0.806288,-1.290238 0.44573,-1.787199 -0.278133,-0.38335 -0.766368,0.581517 -1.040035,0.968065 -1.567233,2.213684 -3.530872,6.07123 -4.754441,8.340273 -0.642794,1.192027 -1.235942,2.41237 -1.931492,3.574404 -0.198941,0.332364 -0.659043,1.271773 -0.742882,0.893601 -0.164348,-0.741347 0.239679,-1.503148 0.445731,-2.234001 1.416761,-5.02521 3.567655,-9.878809 4.754441,-14.967813 0.101472,-0.435123 0.446799,-1.3404 0,-1.3404 -1.175097,0 -5.59521,8.58216 -6.09163,9.457275 -0.5921,1.043786 -1.129194,2.121259 -1.782913,3.127599 -0.05563,0.08563 -0.323405,0.173149 -0.297153,0.07447 0.872855,-3.281071 6.355458,-13.522285 6.091626,-15.63801 -0.04561,-0.365775 -0.536247,0.513887 -0.742881,0.819135 -2.812209,4.15427 -4.713333,8.836017 -7.577389,12.957209 -0.500676,0.720439 -0.908629,1.8631 -1.782916,1.936133 -0.593667,0.04959 -0.109947,-1.2017 0,-1.787199 0.402172,-2.141678 3.393255,-10.0003 2.971525,-11.691276 -0.08996,-0.360715 -0.668742,0.372533 -0.891458,0.6702 -2.303767,3.079075 -2.556788,4.481176 -4.605864,7.893473 -0.680003,1.132396 -1.328539,2.309818 -2.228644,3.276534 -0.203197,0.218236 -0.925557,0.3707 -0.891458,0.07447 0.506162,-4.397285 4.217252,-9.352912 5.348746,-13.776343 0.129759,-0.507281 0.353999,-1.416863 -0.148577,-1.563802 -1.172795,-0.342886 -6.019268,6.909615 -5.497322,4.468006 0.181105,-0.847185 3.839914,-11.955841 0.891458,-10.872142 -1.994093,0.732925 -5.435396,8.43335 -8.171696,9.382805 -0.328308,0.113919 -0.08005,-0.704366 0,-1.042532 0.269412,-1.138111 0.684355,-2.236835 1.040035,-3.351004 0.27659,-0.866426 2.683071,-8.607504 2.080067,-9.010472 -1.476246,-0.986531 -8.770091,10.000342 -10.548917,10.64874 -0.764309,0.278601 -1.467929,-1.122825 -1.485762,-1.936133 -0.02016,-0.919049 3.039218,-9.432355 1.782916,-10.201941 -0.982734,-0.602003 -5.743895,8.488629 -6.83451,9.084939 -0.348467,0.190532 -0.09842,-0.806699 0,-1.191466 0.400648,-1.566276 0.99051,-3.077959 1.485765,-4.616938 0.495252,-1.538979 1.110612,-3.04436 1.485762,-4.616937 1.555621,-6.520957 -5.278289,2.799181 -6.983087,2.457402 -0.634645,-0.127234 0.0085,-1.304201 0.148577,-1.936135 0.208926,-0.942417 0.691033,-1.811006 0.891458,-2.755268 0.05255,-0.247599 -0.385506,-0.833729 -0.148577,-0.744667 0.558821,0.210061 0.891458,0.794311 1.337188,1.191467"
       style="fill:none;stroke:#000000;stroke-width:3;stroke-linecap:round" />
    <path
       id="path961"
       d="m 69.152976,74.59083 c 3.071873,-9.207699 -4.599985,6.292072 -5.943053,7.148806 -0.244877,0.156204 -0.286811,-0.528863 -0.297153,-0.819134 -0.03981,-1.117389 0.110789,-2.233544 0.148576,-3.351004 0.225079,-6.655805 -0.147997,-5.438973 1.337186,-12.882742 0.400447,-2.007047 1.172348,-3.93487 1.485765,-5.957337 0.08873,-0.572606 0.165997,-2.060932 -0.297153,-1.712735 -1.084766,0.81553 -1.376982,2.339128 -2.08007,3.499937 -2.235692,3.69117 -3.481557,6.021618 -6.38878,9.233874 -2.392619,2.643658 -4.337883,3.986323 -4.903017,2.829734 -1.63317,-3.342404 3.889629,-15.502207 4.903017,-18.318813 0.666885,-1.853533 1.381858,-3.693385 1.931493,-5.585005 0.195887,-0.674161 0.858303,-1.663192 0.297154,-2.085067 -0.695474,-0.522859 -2.549512,2.78488 -4.160137,5.659472 -1.182708,2.110856 -2.211012,4.306641 -3.417255,6.404136 -0.20669,0.359407 -5.027888,8.588795 -6.537357,9.75514 -0.306382,0.236738 -0.921244,-0.358627 -0.891458,-0.744667 0.478587,-6.202321 2.702825,-16.465069 3.862983,-22.861283 0.377233,-2.079758 0.73378,-4.163817 1.040035,-6.255203 0.0902,-0.61596 0.744733,-2.040945 0.148577,-1.861669 -0.902872,0.271513 -1.173279,1.48608 -1.634339,2.308468 -1.226302,2.187343 -2.208642,4.504841 -3.417256,6.702005 -2.183759,3.969901 -9.751996,18.782262 -15.15478,19.73368 -0.801177,0.141087 -1.411618,-1.126014 -1.485762,-1.936133 -0.71355,-7.796366 5.031232,-17.713444 8.32027,-24.425085 0.664088,-1.35514 2.915782,-5.277786 2.080069,-4.021203 -2.049727,3.08198 -5.068387,10.148205 -6.38878,12.882742 -1.35088,2.797678 -2.627452,5.637911 -4.160136,8.340273 -1.245585,2.196163 -2.572317,4.366654 -4.160136,6.329672 -0.667146,0.82479 -1.543307,2.336231 -2.525797,1.936136 -0.897749,-0.365588 -0.117129,-1.971998 0.148576,-2.904205 1.784773,-6.261719 8.640004,-19.421035 10.251763,-22.935749 0.372962,-0.813303 1.265666,-1.719136 0.891458,-2.531867 -0.286843,-0.622988 -0.969597,0.984774 -1.337186,1.563801 -1.024133,1.613218 -1.862537,3.337325 -2.82295,4.989269 -1.814217,3.120517 -7.35527,13.017675 -10.400339,14.967812 -0.337039,0.215848 -0.267062,-0.809177 -0.148577,-1.191469 0.686182,-2.213953 1.608584,-4.349951 2.525797,-6.478603 0.127282,-0.295394 6.576597,-14.079312 7.131661,-16.010345 0.200737,-0.698351 0.427326,-2.103673 -0.297151,-2.159537 -1.336884,-0.103084 -2.487284,1.065041 -3.565832,1.86167 -3.366249,2.486355 -5.872183,5.402683 -8.617424,8.489206 -0.607747,0.6833 -0.947594,1.71292 -1.782915,2.085067 -0.473351,0.210884 0.203965,-1.030986 0.445728,-1.489334 2.482928,-4.70726 3.678641,-5.893279 6.834509,-10.350873 0.906418,-1.280295 1.797246,-2.571734 2.674374,-3.872269 0.311687,-0.462146 0.891457,-0.857438 0.891457,-1.414868 0,-0.40355 -0.626079,0.515115 -0.891457,0.819134 -1.024621,1.173808 -4.702715,5.924902 -5.348747,6.702005 -0.909639,1.094189 -1.753209,2.263796 -2.822949,3.202069 -0.187097,0.164103 -0.791576,0.16959 -0.742881,-0.07447 0.630295,-3.159053 6.824154,-14.219859 4.903017,-16.680546 -0.785622,-1.006263 -2.483761,1.818804 -2.82295,1.563801 -0.412825,-0.310363 0.994976,-6.490967 -0.742881,-4.095669 -2.665331,3.673639 -0.542259,1.521727 -3.268678,4.840336 -0.113438,0.138077 -0.409,0.472751 -0.445729,0.297867 -0.117784,-0.56082 0.125727,-1.140134 0.148576,-1.712734 0.09505,-2.381852 -0.165093,-3.196563 -1.634339,-4.914804"
       style="fill:none;stroke:#000000;stroke-width:3;stroke-linecap:round" />
    <path
       id="path963"
       d="m 16.408393,5.4857149 c 1.485763,-0.074467 3.031231,-0.6469515 4.457289,-0.2234001 0.474007,0.1407842 -0.287057,0.946545 -0.445729,1.4148678 -0.287114,0.8474236 -0.578962,1.6934722 -0.891458,2.5318683 -1.397553,3.7495021 -3.69598,7.5994581 -4.457288,11.5423421 -0.0367,0.190082 0.34482,-0.20712 0.445729,-0.372334 0.648114,-1.061132 1.21621,-2.169785 1.782915,-3.276536 3.712649,-7.2506524 1.209181,-3.06268 5.348746,-9.9785401 0.526662,-0.8798798 1.029744,-1.7780688 1.63434,-2.6063353 0.146124,-0.2001829 0.537668,-0.6880838 0.594304,-0.4468002 0.549232,2.3398429 -4.514947,11.9439906 -4.605864,12.1380746 -0.197749,0.422144 -1.011055,1.474811 -0.594305,1.265935 0.585343,-0.293376 0.826024,-1.018615 1.18861,-1.563801 0.926077,-1.392455 1.800709,-2.81868 2.674373,-4.244603 0.799179,-1.304355 5.389343,-9.789052 6.685934,-10.87214133 0.762953,-0.6373242 0.08116,2.01145463 -0.148577,2.97866883 -0.965451,4.064644 -1.117724,4.1516466 -2.971527,8.1913395 -0.481386,1.049009 -2.089617,4.111224 -1.485762,3.127602 1.999016,-3.256209 5.750387,-11.039542 8.468849,-13.1806095 0.165266,-0.1301649 0.492924,0.2417915 0.445727,0.4468003 -0.570624,2.4786496 -1.472623,4.8692105 -2.228643,7.2977384 -0.333574,1.0715238 -0.748932,2.1182358 -1.040035,3.2020688 -0.05795,0.215754 -0.139904,0.844369 0,0.670201 0.635209,-0.790783 10.403446,-14.617808 4.01156,-4.0212033"
       style="fill:none;stroke:#000000;stroke-width:3;stroke-linecap:round" />
    <path
       id="path965"
       d="m 11.3568,40.55954 c -1.4786549,-1.482209 -0.706364,-0.294101 -0.148577,-3.648869 0.03664,-0.220374 0.07049,-0.882187 0,-0.6702 -0.805449,2.422154 -0.942074,5.440995 -1.4857625,7.89347 -0.8563673,3.862917 -2.9715256,8.130215 -2.9715256,12.138076 0,0.102115 0.2537582,0.01797 0.2971525,-0.07447 0.3702966,-0.788771 0.5780733,-1.644338 0.8914577,-2.4574 1.5890089,-4.122616 1.6896503,-4.355492 3.7144069,-8.41474 0.376504,-0.754819 0.731149,-1.525317 1.188611,-2.234001 0.09691,-0.150138 0.445728,-0.476567 0.445728,-0.297868 0,1.756024 -1.882636,8.666713 -1.931491,8.861539 -1.4038107,5.598149 -3.4771481,11.246794 -4.6058651,16.903946 -0.02168,0.108653 0.2494426,-0.04894 0.2971525,-0.148934 0.5079643,-1.06466 0.8832586,-2.187739 1.3371867,-3.276534 2.9685249,-7.120332 2.9146039,-7.302013 6.8345089,-14.521011 0.732861,-1.349655 1.483753,-2.697588 2.377221,-3.946736 0.08644,-0.120846 0.467852,-0.146921 0.445729,0 -0.330682,2.196028 -2.989167,9.952204 -3.268679,10.872142 -0.780941,2.570255 -1.473128,5.166695 -2.228644,7.744539 -0.532167,1.815766 -1.12602,3.61348 -1.634339,5.436068 -0.135997,0.487622 -0.673026,1.828435 -0.297153,1.489334 0.593236,-0.535194 0.743916,-1.417457 1.040034,-2.159534 0.645897,-1.61862 1.107039,-3.308469 1.782916,-4.914802 0.860935,-2.046158 1.832084,-4.045313 2.822949,-6.031804 0.644258,-1.291614 1.332302,-2.563228 2.080068,-3.797803 0.100295,-0.165589 0.494887,-0.559583 0.445729,-0.372335 -0.898711,3.423312 -2.471302,6.642449 -3.417254,10.053008 -0.89452,3.225117 -1.582413,6.504014 -2.377221,9.75514 -0.740481,3.028902 -1.675403,6.016312 -2.228645,9.084939 -0.193784,1.074851 -0.604824,4.185955 0,3.276537 1.195332,-1.797307 1.237381,-4.136885 1.931492,-6.180738 1.298152,-3.822489 3.522256,-11.426434 6.091628,-14.96781 0.212203,-0.292481 -0.18313,0.699643 -0.297153,1.042532 -0.430892,1.295787 -0.8977,2.579376 -1.337186,3.87227 -1.751694,5.1532 -3.72563,10.349799 -4.754441,15.712479 -0.165173,0.86096 0.594305,1.671066 0.594305,2.606334"
       style="fill:none;stroke:#000000;stroke-width:3;stroke-linecap:round" />
    <path
       id="path967"
       d="m 31.860328,73.324896 c 1.274628,-1.583885 0.546669,-3.793632 1.337186,-5.510538 0.176482,-0.383299 0.0785,0.851324 0,1.265936 -0.566891,2.994264 -1.238311,5.968434 -1.931493,8.936006 -0.272089,1.164849 -2.228643,7.774501 -2.228643,9.978541 0,0.221591 0.488854,-0.102976 0.594304,-0.297868 0.70857,-1.309566 1.175642,-2.736165 1.782916,-4.095671 0.842867,-1.886926 4.532111,-11.480789 6.091629,-12.957206 0.237077,-0.224446 0.211587,0.647737 0.148574,0.968065 -0.288205,1.465136 -0.784392,2.881612 -1.188609,4.319072 -0.635825,2.261089 -1.306451,4.512376 -1.931493,6.776471 -0.464568,1.682824 -1.06899,3.338687 -1.337185,5.063736 -0.04122,0.26511 0.273743,0.876123 0.445727,0.6702 2.306146,-2.761181 3.505187,-6.284034 5.200172,-9.457272 0.690324,-1.292381 1.350306,-2.601743 2.080066,-3.872269 0.212532,-0.37002 0.601168,-1.445028 0.742882,-1.042536 0.448193,1.272932 -2.716718,12.190593 -2.971525,13.850811 -0.131794,0.858724 -0.8352,2.845535 0,2.606333 1.223594,-0.350438 1.442339,-2.100572 2.080069,-3.202066 2.582468,-4.460492 4.98892,-9.021466 7.577389,-13.478478 0.483722,-0.832903 0.901195,-1.758263 1.634339,-2.382936 0.285906,-0.243602 -0.0508,0.75434 -0.148577,1.117002 -0.398515,1.478058 -0.90987,2.923545 -1.337185,4.393536 -0.831654,2.860948 -2.730797,8.812593 -2.822951,12.138075 -0.0069,0.248775 0.600395,0.278509 0.742884,0.07447 0.97845,-1.401146 1.533467,-3.056313 2.37722,-4.54247 0.890598,-1.568672 1.863937,-3.089126 2.822948,-4.616936 0.427916,-0.681713 0.84065,-1.377125 1.337186,-2.010601 0.063,-0.08037 0.27382,-0.173879 0.297153,-0.07447 0.716254,3.051392 -1.598009,7.384815 -0.594304,10.201942 0.101526,0.284959 0.566193,-0.275725 0.742881,-0.521269 0.924534,-1.284819 1.683864,-2.680801 2.525797,-4.021204 1.040035,-1.538978 2.034866,-3.109491 3.120102,-4.616934 0.64943,-0.902089 1.381704,-1.741577 2.080067,-2.606336 0.143637,-0.177861 0.367768,-0.736179 0.44573,-0.521266 0.266539,0.73474 -1.554977,8.127328 -1.634339,8.712604 -0.150678,1.111216 -0.297154,2.22962 -0.297154,3.351004 0,0.140247 0.216649,0.412707 0.297154,0.297865 2.409502,-3.437152 3.837355,-7.602074 6.091626,-11.170007 0.217263,-0.343868 0.379246,-1.150321 0.742881,-0.968068 0.399439,0.2002 0.07238,0.899504 0,1.340403 -1.157171,7.048958 -2.37722,10.16509 -2.37722,16.755012 0,0.905867 -0.459854,2.658107 0.44573,2.6808 1.209424,0.03031 1.822974,-1.621618 2.525798,-2.606336 3.777794,-5.293018 6.134391,-11.710572 10.251762,-16.755009 0.896604,-1.098484 0.196019,1.836571 0,2.978668 -0.839123,4.889133 -0.769501,3.373335 -1.188609,8.41474 -0.08031,0.965999 -0.36173,3.728334 0.148574,2.904201 0.719805,-1.16247 3.907396,-9.904073 4.160137,-9.904073 0.375613,0 -0.08595,0.746643 -0.148577,1.116999 -0.185057,1.094465 -0.436113,2.177868 -0.594304,3.276537 -0.03926,0.272687 -0.754087,5.399561 -0.445728,6.404139 0.07732,0.251904 0.455848,-0.297069 0.594304,-0.521269 1.181182,-1.912652 1.673688,-4.28493 2.971525,-6.106271 0.361262,-0.506982 0.169267,1.239483 0.148577,1.861669 -0.05902,1.774793 -0.148577,3.512796 -0.148577,5.287137 0,0.580911 0.330219,-1.120857 0.594307,-1.638268 0.575059,-1.126684 1.585307,-4.071097 2.822948,-4.691404 0.218284,-0.109403 0.148577,1.030917 0.148577,2.531869 0,1.191694 -0.714833,5.676522 0.297154,6.627537 0.587703,0.552297 3.138262,-3.774969 3.714406,-4.468002 1.998699,-2.404206 -0.08556,3.71204 1.931492,5.733936 0.19254,0.193005 3.364757,-1.073873 2.971525,-1.936134 -0.351314,-0.770345 -0.891458,-1.43969 -1.337188,-2.159534"
       style="fill:none;stroke:#000000;stroke-width:3;stroke-linecap:round" />
    <path
       id="path969"
       d="m 99.611113,72.431295 c -1.182307,3.736986 -3.341275,7.20648 -5.943053,10.127475 -0.386291,0.433686 -0.783867,1.293479 -1.337185,1.116999 -1.683491,-0.536942 3.207162,-12.892235 2.525797,-14.372076 -0.09777,-0.212342 -0.434293,0.201911 -0.594305,0.372335 -1.914273,2.038802 -3.445351,5.895387 -6.091629,7.074336 -1.270542,0.566044 -0.35569,-2.794714 -0.148576,-4.170135 0.335856,-2.23039 1.986512,-8.900393 0.297153,-10.946609 -1.332172,-1.613577 -5.167056,6.578965 -5.794475,7.297741 -0.130588,0.1496 -0.04488,-0.402294 0,-0.595734 0.424534,-1.829884 0.947171,-3.636454 1.485762,-5.436071 0.166558,-0.556521 0.392973,-1.093361 0.594305,-1.638268 0.04632,-0.125346 0.202739,-0.494493 0.148576,-0.372335 -2.400189,5.413407 -0.742881,3.251822 -0.742881,0.07447 0,-0.226552 -1.140037,2.179299 -2.080067,2.085068 -0.316,-0.03167 -0.396203,-0.496443 -0.594307,-0.744667"
       style="fill:none;stroke:#000000;stroke-width:3;stroke-linecap:round" />
    <path
       id="path971"
       d="m 78.661857,49.19768 c 1.425138,5.916507 -2.026568,12.269123 -6.091629,16.457144 -0.603784,0.622049 -1.390745,1.56273 -2.228644,1.3404 -1.918898,-0.509164 4.262321,-17.295891 4.754441,-18.914546 0.256384,-0.843277 0.988129,-3.301066 0.44573,-2.606334 -1.997188,2.558098 -3.190382,5.72815 -5.051594,8.41474 -0.509228,0.735047 -1.97604,2.754765 -1.931493,1.861666 0.106067,-2.126403 1.602849,-5.635392 2.228647,-7.297737 0.431845,-1.147146 0.916112,-2.274327 1.337185,-3.42547 0.124135,-0.33936 0.63059,-1.181799 0.297151,-1.042533 -0.45679,0.190786 -7.747532,10.933848 -7.874542,11.09554 -1.074957,1.368478 -2.177923,2.725132 -3.417255,3.946737 -0.268716,0.264872 -1.020249,0.823595 -1.040032,0.446799 -0.130371,-2.482998 3.64957,-10.774648 4.457287,-13.701876 0.180205,-0.653074 0.775629,-1.530975 0.297153,-2.010601 -1.172509,-1.175327 -4.968933,6.883593 -4.160136,3.87227 0.275008,-1.023919 0.632127,-2.025137 0.891458,-3.053136 0.56515,-2.240288 1.433894,-5.51461 0.891458,-7.893473 -0.164409,-0.721016 -1.398648,-1.774343 -1.782916,-2.159534 -0.419878,-0.420889 -1.548871,-1.787859 -2.37722,-1.936134 -1.467213,-0.262633 -2.155788,1.657959 -3.120102,2.382933 -0.893193,0.671504 1.330066,-3.031723 0.594305,-0.819134 -0.667179,2.006351 -2.205215,3.608609 -3.268679,5.436071 -0.916233,1.574464 -1.741164,3.201408 -2.674374,4.76587 -0.540133,0.9055 -1.920121,3.425092 -2.080066,2.382936 -0.57608,-3.753512 0.06648,-8.657815 0.594304,-12.361476 0.138184,-0.969606 1.056661,-2.138701 0.44573,-2.904202 -0.208036,-0.26067 -0.52614,0.416727 -0.742881,0.6702"
       style="fill:none;stroke:#000000;stroke-width:3;stroke-linecap:round" />
    <path
       id="path973"
       d="m 38.843413,39.591472 c -0.54478,1.737558 -1.159632,3.454677 -1.63434,5.21267 -0.417565,1.546383 -0.698523,3.126467 -1.040034,4.691403 -0.351851,1.612326 -0.798756,3.207801 -1.040035,4.840338 -1.888609,12.778761 4.73978,-7.081687 4.011562,-7.446671 -0.238927,-0.119751 -0.205195,0.493731 -0.297153,0.744667 -0.353817,0.96548 -0.681813,1.940345 -1.040035,2.904201 -0.610047,1.641433 -3.302169,8.680035 -3.862983,10.053008 -0.160203,0.392203 -2.480963,5.24981 -2.525797,6.55307 -0.07101,2.064375 0.297153,4.120491 0.44573,6.180738"
       style="fill:none;stroke:#000000;stroke-width:3;stroke-linecap:round" />
    <path
       id="path975"
       d="m 54.592497,64.761223 c 0.44573,-0.446799 1.055487,-1.905156 1.337188,-1.3404 0.898861,1.802045 -5.502396,14.126662 -4.160136,16.010344 0.193538,0.271606 0.563409,-0.389101 0.742881,-0.6702 0.621197,-0.972952 1.066742,-2.04797 1.634339,-3.053135 0.03655,-0.06472 8.888148,-15.771111 6.240204,-7.29774 -0.414317,1.325808 -0.880224,2.635017 -1.337186,3.946736 -1.089559,3.127603 -2.632882,6.132454 -3.268678,9.382808 -0.03921,0.20043 0.466912,0.01069 0.594304,-0.148934 0.793941,-0.994812 1.401575,-2.125205 2.08007,-3.20207 0.445399,-0.706913 4.379044,-7.612348 5.645898,-7.670072 1.733659,-0.07899 -1.063149,5.019887 -2.37722,7.819006"
       style="fill:none;stroke:#000000;stroke-width:3;stroke-linecap:round" />
    <path
       id="path977"
       d="m 85.644941,12.708987 c 0,-0.521267 0.438171,-1.846159 0,-1.563801 -0.690467,0.444938 -0.624305,1.525563 -1.040034,2.234001 -2.048958,3.491601 -4.376278,6.820529 -6.38878,10.350874 -0.477007,0.836768 -1.533748,3.340849 -1.63434,2.382935 -0.405034,-3.857095 5.051595,-11.772947 5.051595,-16.5316116 0,-1.4518684 -1.523902,1.3299236 -1.634339,1.4893346 -2.264426,3.268613 -2.39998,3.886993 -5.200169,6.776471 -1.264438,1.304756 -2.888252,2.606778 -2.971527,2.085068 -0.359135,-2.249984 5.280345,-12.2710611 4.011559,-13.7018759 -0.511984,-0.5773672 -1.35232,1.5839762 -2.822948,3.2765356 -1.326412,1.5265783 -3.360793,3.5180343 -5.051594,4.6914033 -0.400886,0.278204 -0.910873,0.833144 -1.337186,0.595734 -0.620236,-0.345403 2.424208,-8.2973574 2.674372,-9.0104732 0.303948,-0.866425 0.613666,-1.731174 0.891458,-2.606335 0.06923,-0.2181003 0.342487,-0.7916865 0.148576,-0.6702006 -1.720873,1.078132 -2.736963,6.1803569 -5.497322,7.148805 -1.325713,0.4651148 2.429653,-5.720552 -0.148576,-5.3616037 -4.211818,0.5863807 -10.878489,7.0300485 -13.966172,9.9040735"
       style="fill:none;stroke:#000000;stroke-width:3;stroke-linecap:round" />
    <path
       id="path979"
       d="M 16.408393,5.4857149 C 14.031173,4.4928252 11.720178,3.3234862 9.2767318,2.5070462 8.8513638,2.3649161 8.3871527,2.6279369 7.9395451,2.6559795 7.346403,2.6931403 6.7331089,2.5115134 6.1566297,2.6559795 4.4471195,3.0843847 5.3968657,7.9634161 5.265172,9.2835176 5.131904,10.619401 5.046223,10.047111 4.5222906,11.666453 4.3648751,12.152984 4.2723569,13.702454 3.4822566,13.900454 2.1105754,14.244199 5.0126936,7.553086 5.265172,6.7516493 5.4246023,6.2455736 5.8308671,4.7302287 5.5623248,5.1878481 4.8233353,6.4471496 1.0350525,13.498056 0.06500212,13.08132 -0.23966767,12.950434 2.1771724,6.5231858 2.590799,5.4112482 2.7852187,4.8885967 3.0155184,4.3786763 3.1851041,3.8474472 c 0.030195,-0.094586 0.036799,-0.390085 0,-0.2978668 C 2.198241,6.0226685 4.8566842,1.0299612 2.1450701,5.5601816 0.5384702,8.2442848 3.4511853,2.7547953 3.9279856,4.6665811 c 0.3312361,1.3281294 0.02046,2.7551147 0.2971525,4.0956695 0.2712939,1.3144064 0.9692978,2.5070974 1.3371867,3.7978024 0.1320977,0.463454 0.3200199,0.933499 0.2971524,1.414868 -0.013269,0.279288 -0.6741977,2.357296 -0.5943052,2.457402 0.4374182,0.548087 0.9905087,-1.985779 1.4857629,-1.489335 0.1402472,0.140585 0.029388,0.399343 0,0.595734 -0.1195908,0.79919 -0.237981,1.602008 -0.4457289,2.382935 -0.8666999,3.257938 -3.8629833,8.958393 -3.8629833,11.765741"
       style="fill:none;stroke:#000000;stroke-width:3;stroke-linecap:round" />
    <path
       id="path981"
       d="M 88.467892,0.64537825 C 88.170738,1.4148677 87.873585,2.1843571 87.576434,2.9538467 c -0.04953,0.074467 -0.198101,0.2978668 -0.148577,0.2234001 0.542105,-0.815111 0.564801,-0.8771976 1.485763,-1.9361348 5.626428,-6.4693574 -0.207045,3.8014198 0.148576,5.1382038 0.05441,0.2045221 0.450943,-0.067718 0.594305,-0.2234005 0.423809,-0.4602302 4.15354,-6.36233679 4.903017,-4.7658699 0.870913,1.8551403 -2.20636,5.5763083 -1.634339,6.6275381 0.350544,0.6442053 4.157631,-4.3186514 4.605867,-4.3935364 0.855043,-0.1428499 -0.249351,1.7365622 -0.594307,2.5318682 -0.459277,1.0588763 -1.043731,2.0614111 -1.485763,3.1276023 -0.351647,0.8481864 -0.624702,1.7277474 -0.891458,2.6063354 -1.042387,3.433217 4.675164,-6.5163746 2.08007,-0.744667 -2.072524,4.609461 -3.7182,8.819379 -4.308713,13.850809 -0.0352,0.299898 -0.361836,0.67983 -0.148577,0.893601 0.501018,0.50222 1.287661,0.595732 1.931493,0.8936"
       style="fill:none;stroke:#000000;stroke-width:3;stroke-linecap:round" />
    <path
       id="path983"
       d="m 94.262365,93.207511 c 5.169408,2.738969 7.025705,1.509321 3.120104,6.031804 -0.612373,0.709094 -1.33142,1.442925 -2.228646,1.712735 -0.696254,0.20938 1.905833,-8.579228 1.782916,-9.010473 -0.02453,-0.08601 -0.09905,0.148932 -0.148577,0.223399 -0.226356,0.340354 -2.203678,4.222324 -2.37722,4.170137 -0.882619,-0.265422 2.374487,-7.704923 1.782915,-8.340272 -1.144793,-1.229514 -4.373784,5.640435 -4.75444,3.351001 -0.169119,-1.017149 0.742881,-5.905455 0.742881,-6.106271 0,-0.596554 -1.495115,-0.679249 -1.634339,-0.744668 -1.499492,-0.704574 -2.476148,-2.111414 -3.565829,-3.276533"
       style="fill:none;stroke:#000000;stroke-width:3;stroke-linecap:round" />
  </g>
</svg>
