<?xml version="1.0" encoding="UTF-8" standalone="no"?>
<svg
   xmlns:dc="http://purl.org/dc/elements/1.1/"
   xmlns:cc="http://creativecommons.org/ns#"
   xmlns:rdf="http://www.w3.org/1999/02/22-rdf-syntax-ns#"
   xmlns:svg="http://www.w3.org/2000/svg"
   xmlns="http://www.w3.org/2000/svg"
   xmlns:sodipodi="http://sodipodi.sourceforge.net/DTD/sodipodi-0.dtd"
   xmlns:inkscape="http://www.inkscape.org/namespaces/inkscape"
   sodipodi:docname="drawing_forward_button.svg"
   inkscape:version="1.0 (4035a4fb49, 2020-05-01)"
   id="svg150"
   version="1.1"
   viewBox="0 0 100 100"
   height="100mm"
   width="100mm">
  <defs
     id="defs144" />
  <sodipodi:namedview
     inkscape:window-maximized="1"
     inkscape:window-y="-8"
     inkscape:window-x="-8"
     inkscape:window-height="1017"
     inkscape:window-width="1920"
     showgrid="false"
     inkscape:document-rotation="0"
     inkscape:current-layer="layer1"
     inkscape:document-units="mm"
     inkscape:cy="181.14585"
     inkscape:cx="252.71184"
     inkscape:zoom="1.5260545"
     inkscape:pageshadow="2"
     inkscape:pageopacity="0.0"
     borderopacity="1.0"
     bordercolor="#666666"
     pagecolor="#ffffff"
     id="base" />
  <metadata
     id="metadata147">
    <rdf:RDF>
      <cc:Work
         rdf:about="">
        <dc:format>image/svg+xml</dc:format>
        <dc:type
           rdf:resource="http://purl.org/dc/dcmitype/StillImage" />
        <dc:title />
      </cc:Work>
    </rdf:RDF>
  </metadata>
  <g
     id="layer1"
     inkscape:groupmode="layer"
     inkscape:label="Layer 1">
    <circle
       style="fill:none;stroke:#000000;stroke-width:3.49515;stroke-linecap:round"
       id="path845"
       cx="50"
       cy="50"
       r="48.252422" />
    <path
       sodipodi:nodetypes="cccccccc"
       d="M 21.00808,40.995193 H 50.398159 L 50.212628,22.459602 78.598862,50.865545 50.398159,77.583486 V 59.213778 H 21.00808 Z"
       style="fill:none;stroke:#000000;stroke-width:2.01616;stroke-linecap:round;stroke-linejoin:miter;stroke-miterlimit:4;stroke-dasharray:none"
       id="rect836" />
    <path
       id="path839"
       d="m 52.478988,71.895565 c -0.176086,-3.047798 0.170849,-6.066457 0.170849,-9.100309"
       style="fill:none;stroke:#000000;stroke-width:2.01616;stroke-linecap:round;stroke-linejoin:miter;stroke-miterlimit:4;stroke-dasharray:none" />
    <path
       id="path841"
       d="m 52.478988,71.895565 c -0.468289,-1.301032 0.42712,-3.253252 0.42712,-5.033358"
       style="fill:none;stroke:#000000;stroke-width:2.01616;stroke-linecap:round;stroke-linejoin:miter;stroke-miterlimit:4;stroke-dasharray:none" />
    <path
       id="path843"
       d="m 52.478988,71.895565 c -0.08543,0.402667 -0.01449,1.549902 -0.256274,1.208006 -0.575018,-0.813147 1.029171,-4.918049 1.195943,-5.395759 0.30004,-0.859472 0.693275,-1.687734 1.02509,-2.536811 0.100403,-0.256934 0.170849,-1.079075 0.170849,-0.805339 0,0.617796 -0.429478,1.18174 -0.59797,1.771744 -0.346599,1.213667 -0.460384,2.479142 -0.768818,3.70455 -0.09091,0.361216 -0.125195,0.737072 -0.256274,1.087204 -0.12712,0.339553 -0.854736,1.127703 -0.512546,0.966405 0.31897,-0.150356 2.092866,-5.262818 2.477304,-5.999762 0.202604,-0.388375 0.272179,-0.933635 0.683397,-1.127472 0.03483,-0.01642 -0.06728,0.933941 -0.08543,1.006672 -0.295496,1.18396 -0.824862,2.337096 -1.195942,3.503217 -0.06352,0.19959 -0.127505,0.399692 -0.170846,0.604002 -0.01397,0.06581 0,0.268447 0,0.201334 0,-1.602638 2.306127,-6.152405 3.416972,-7.409101 1.471257,-1.664433 -0.559985,1.684707 -0.854244,2.254942 -2.058377,3.988875 0.519228,-0.663432 -1.623064,3.060283 -0.176096,0.306092 -0.356364,0.610627 -0.512544,0.926137 -0.04385,0.08857 0.0075,0.325644 -0.08543,0.281868 -0.487179,-0.229644 2.428172,-4.722273 2.648152,-5.033357 0.571873,-0.808696 0.976949,-1.474208 1.793912,-2.013343 0.04662,-0.03077 0.190269,-0.05035 0.17085,0 -0.833785,2.161632 -2.503517,3.955306 -3.587822,5.999762 -0.01912,0.03603 -0.01099,-0.08188 0,-0.120801 0.103294,-0.365199 0.178831,-0.741736 0.341697,-1.087204 0.351687,-0.745994 0.785345,-1.45553 1.195942,-2.174411 2.012484,-3.523502 1.454124,-2.546755 3.673245,-5.838693 0.343217,-0.509145 0.639271,-1.048732 1.025091,-1.530141 0.104688,-0.130626 0.34949,-0.428246 0.427123,-0.281869 0.488413,0.92091 -3.742837,7.793441 -4.35664,8.858708 -0.22618,0.392539 -0.922455,1.549917 -0.768819,1.127473 1.173166,-3.225839 2.988368,-6.449842 4.95461,-9.301643 0.263226,-0.381782 0.872425,-1.39818 1.025089,-0.966406 0.439439,1.242843 -1.583664,4.718718 -2.135607,5.798428 -0.248775,0.486655 -0.508835,0.968159 -0.76882,1.449608 -0.221454,0.410096 -0.55106,0.951949 -0.512545,0.966404 0.07136,0.02678 0.05113,-0.136676 0.08543,-0.201334 0.193644,-0.365118 0.402266,-0.723063 0.59797,-1.087207 1.721917,-3.203954 0.294255,-0.678676 2.135608,-3.785082 1.498941,-2.528752 -0.112315,1.449309 -0.170849,1.570406 -0.785952,1.625983 -0.962439,1.805222 -2.050184,3.221348 -0.384246,0.50025 -0.792045,1.025041 -0.854243,0.966405 -0.303684,-0.286298 0.887239,-2.250741 0.939668,-2.335478 0.169268,-0.273563 0.385167,-0.519869 0.59797,-0.76507 0.04505,-0.05191 0.180244,-0.187225 0.170849,-0.1208 -0.243875,1.724349 -2.865395,4.28018 -4.014941,5.677625 -0.953976,1.1597 -0.497545,0.585125 -1.452214,1.530141 -0.09054,0.08962 -0.297752,0.399176 -0.256274,0.281869 0.828235,-2.342452 4.892654,-6.263488 6.833947,-8.093638 0.626443,-0.59058 1.219017,-1.214757 1.879333,-1.771741 0.223733,-0.188722 0.929894,-0.681561 0.768819,-0.442936 -0.919797,1.362645 -2.223669,2.640701 -3.416972,3.785083 -0.626466,0.600782 -1.324975,1.165201 -1.36679,1.046941 -0.05248,-0.148439 0.16578,-0.271419 0.256273,-0.40267 0.279756,-0.405752 0.571751,-0.803934 0.854244,-1.208005 1.888333,-2.701031 3.778904,-5.362279 5.979702,-7.852038 0.103585,-0.117194 1.933218,-2.408577 2.477303,-2.536813 0.08307,-0.01958 0.03615,0.168594 0,0.241604 -0.167254,0.337886 -0.386294,0.651314 -0.597968,0.966402 -0.329575,0.490595 -0.680337,0.968331 -1.025092,1.449607 -0.854248,1.192528 -1.751239,2.340566 -2.648154,3.503218 -0.03019,0.03914 0.05695,-0.08054 0.08543,-0.120801 0.582723,-0.824043 1.116678,-1.678251 1.708487,-2.496546 0.354081,-0.489588 2.674256,-3.948612 3.502397,-4.026685 0.337491,-0.03182 -0.107015,0.639688 -0.256274,0.926137 -0.892261,1.712399 -2.125206,3.410918 -3.416972,4.872289 -0.09823,0.11113 0.0974,-0.27573 0.170849,-0.402669 0.268909,-0.464776 0.547942,-0.925231 0.854243,-1.369072 1.312551,-1.90194 2.831903,-3.587986 4.698337,-5.033356 0.379211,-0.293662 0.842217,-0.891541 1.281367,-0.684538 0.730014,0.344114 -0.634141,1.429858 -1.110518,2.05361 -0.266307,0.348694 -0.710201,1.414058 -0.854243,1.006672 -0.234396,-0.662927 1.167284,-2.380162 1.793912,-2.577077 0.312496,-0.09821 0.05158,0.644324 -0.08543,0.926136 -0.58036,1.193748 -1.582787,2.395069 -2.391882,3.462949 -0.158943,0.209781 -0.344644,0.400488 -0.512545,0.604005 -0.03151,0.03821 -0.09952,0.167306 -0.08543,0.120798 0.18622,-0.614452 2.734218,-3.543301 3.1607,-3.422683 0.332705,0.09409 -0.59778,1.497671 -1.281367,2.416012 -0.639124,0.858618 -1.595276,2.241846 -2.648153,2.738147 -0.378437,0.178387 0.993248,-1.27792 0.683395,-1.006673 -0.206581,0.180846 -0.404434,0.370549 -0.59797,0.563738 -0.549289,0.548304 -5.028725,5.281621 -5.381733,5.073625 -0.09504,-0.05601 0.325417,-0.642973 1.025094,-1.852277 1.076672,-1.860893 2.153468,-3.679056 3.416971,-5.436026 0.195041,-0.271214 0.400129,-0.535925 0.597969,-0.805336 0.05845,-0.07958 0.219153,-0.326986 0.17085,-0.241602 -0.714366,1.262754 -0.489509,0.713475 -1.537638,2.254944 -0.386108,0.567845 -0.739024,1.155067 -1.110515,1.731474 -0.311907,0.483955 -0.629203,0.964836 -0.939669,1.449608 -1.735585,2.709994 3.286077,-4.803774 3.587822,-4.590421 0.42157,0.298073 -3.266246,4.438839 -3.929519,4.751489 -0.239611,0.112945 0.222065,-0.458969 0.341697,-0.684538 1.20404,-2.270212 0.381224,-0.811462 2.050184,-3.462948 0.345181,-0.548391 0.696623,-1.093549 1.025092,-1.65094 0.09901,-0.168021 0.457732,-0.491816 0.256271,-0.523471 -0.15282,-0.024 -1.240922,1.365924 -1.537634,1.731474 -1.170142,1.441613 -2.119964,3.092039 -3.587824,4.268288 -0.05431,0.04353 -0.03122,-0.14099 0,-0.201336 0.257036,-0.496754 0.535526,-0.985543 0.854244,-1.449605 0.963613,-1.403043 1.990669,-2.76663 2.989851,-4.147489 0.263149,-0.363664 1.106741,-1.417224 0.854243,-1.046937 -1.185826,1.739013 -2.497999,3.442018 -3.844094,5.073625 -0.29046,0.35207 -1.186671,1.345045 -1.02509,0.926138 0.956923,-2.480889 2.917957,-4.567185 4.271215,-6.845365 0.03107,-0.0523 -0.132686,0.03257 -0.170849,0.08054 -0.222797,0.280059 -0.394791,0.592917 -0.59797,0.885871 -0.764982,1.102991 -1.51742,2.213985 -2.306458,3.301885 -0.350342,0.483041 -0.714214,0.958805 -1.110514,1.409339 -0.09083,0.10326 -0.355176,0.375016 -0.341699,0.241601 0.118244,-1.170483 2.211795,-4.260379 2.819002,-5.355494 0.247916,-0.44712 0.534719,-0.875143 0.76882,-1.328805 0.02491,-0.0483 0.035,-0.203486 0,-0.161068 -1.100919,1.334432 -1.82721,3.025852 -2.733578,4.469623 -0.410438,0.65379 -0.839185,1.297588 -1.281363,1.932808 -0.156208,0.224401 -0.354618,0.867602 -0.512549,0.644269 -0.229986,-0.32523 2.545656,-5.66204 2.733581,-5.999762 0.402774,-0.723833 0.844454,-1.428037 1.281363,-2.134142 0.161198,-0.26052 0.286195,-0.978464 0.512546,-0.76507 0.109583,0.103307 -1.742784,3.636052 -2.477304,5.033356 -0.418438,0.796007 -0.870927,1.576066 -1.281366,2.375745 -0.01862,0.03626 -0.01257,0.159295 0,0.120801 0.603646,-1.849527 1.314051,-3.631656 2.050183,-5.436026 0.458402,-1.123614 -0.964518,2.229498 -1.452214,3.34215 -0.618898,1.411985 -2.653535,6.002297 -4.185791,6.724563 -0.86596,0.408193 1.365744,-4.145294 1.366788,-4.147486"
       style="fill:none;stroke:#000000;stroke-width:2.01616;stroke-linecap:round;stroke-linejoin:miter;stroke-miterlimit:4;stroke-dasharray:none" />
    <path
       id="path846"
       d="m 64.609241,52.929876 c 0.08302,0.07596 0.476738,-2.276751 0,-1.852276 -0.722735,0.643505 -0.980998,1.633716 -1.366789,2.496545 -0.954146,2.133969 -1.71933,4.339137 -2.648153,6.482964 -0.104556,0.241323 0.103044,-0.512407 0.170849,-0.76507 0.843152,-3.141675 1.815655,-6.242831 2.648153,-9.382178 0.105915,-0.399399 -0.30715,0.771873 -0.42712,1.167739 -0.796446,2.627966 -1.554792,5.127445 -2.819006,7.610437 -0.253694,0.498271 -0.544448,0.980231 -0.854239,1.449607 -0.09054,0.137174 -0.313543,0.52167 -0.3417,0.3624 -0.05111,-0.289123 0.17714,-0.562114 0.256274,-0.845605 0.205638,-0.736692 0.386847,-1.479355 0.597971,-2.214677 0.680648,-2.370659 1.420413,-4.727096 2.135606,-7.086966 0.09893,-0.326475 -0.233708,0.642476 -0.341698,0.966406 -0.205256,0.615702 -0.386768,1.238351 -0.59797,1.852274 -0.625277,1.817567 -1.205723,3.452922 -2.050183,5.194426 -0.275391,0.567926 -0.620846,1.103477 -0.939668,1.65094 -0.0799,0.137201 -0.21068,0.553109 -0.256271,0.402669 -0.292986,-0.966733 1.017842,-5.51924 1.281364,-6.885632 0.0077,-0.03962 0,0.08054 0,0.120801 0,0.308712 0.05107,0.621185 0,0.926138 -0.104135,0.621761 -1.691707,6.727201 -1.964758,6.684296 -0.624635,-0.09814 1.18475,-7.455368 1.366789,-8.214437 0.134239,-0.559763 0.241626,-1.125155 0.341694,-1.691209 0.01406,-0.07944 0.04531,-0.309938 0,-0.241599 -1.107095,1.669941 -1.159444,4.027067 -1.708483,5.838691 -0.530605,1.750789 -1.137853,3.481658 -1.793912,5.194425 -0.08714,0.227487 -0.175041,0.651534 -0.427122,0.604004 -0.237884,-0.04486 -0.0287,-0.457961 0,-0.684536 0.337297,-2.663136 0.866222,-5.327634 1.537637,-7.932572 0.125601,-0.487298 0.306634,-0.961168 0.427122,-1.449607 0.02258,-0.09153 0.02739,-0.372224 0,-0.281868 -0.447807,1.477602 -0.773986,3.077993 -1.025093,4.590421 -0.292767,1.763379 -0.368901,3.694547 -1.025089,5.39576 -0.01376,0.03564 -0.07862,-0.04316 -0.08543,-0.08053 -0.07997,-0.439781 -0.140703,-0.883548 -0.170849,-1.328807 -0.191648,-2.830589 -0.06129,-5.665093 0,-8.496307 0.0087,-0.402586 0,-0.805339 0,-1.208005 0,-0.04027 0,-0.161067 0,-0.120802 0,3.388053 -0.348655,6.901112 -0.76882,10.26805 -0.05002,0.400807 -0.06431,-0.804938 -0.08543,-1.208008 -0.09656,-1.843309 -0.170234,-3.62662 0.256274,-5.436026 0.224602,-0.952843 -0.270257,1.297068 -0.427123,2.657612 -0.06035,0.523374 -0.492548,5.547402 -0.768819,5.677628 -0.09622,0.04536 0.05254,-0.389557 0.08543,-1.489873 0.05205,-1.742215 0.08543,-3.491388 0.08543,-5.234692 0,-0.228177 0,-0.912715 0,-0.684535 0,1.827914 -0.256271,3.648809 -0.256271,5.476291 0,0.295291 0.01205,-0.590798 0,-0.885871 -0.116679,-2.859939 -0.08543,0.523591 -0.08543,-2.536811 0,-0.174491 0.15109,-0.624734 0,-0.523469 -0.819065,0.548958 -1.444173,1.316899 -2.166256,1.975347"
       style="fill:none;stroke:#000000;stroke-width:2.01616;stroke-linecap:round;stroke-linejoin:miter;stroke-miterlimit:4;stroke-dasharray:none" />
    <path
       id="path848"
       d="m 55.297991,44.312768 c 0.227858,2.25553 0.774231,6.886783 0.512544,8.778176 -0.16309,1.178789 -0.34637,-2.357185 -0.42712,-3.543483 -0.09028,-1.326362 -0.0607,-2.657548 -0.08543,-3.98642 -0.0037,-0.201305 0.05868,-0.41038 0,-0.604002 -0.142766,-0.471075 -0.20326,0.962314 -0.256274,1.449608 -0.2139,1.96613 -0.177109,2.358323 -0.256271,4.429354 -0.02615,0.684617 -0.06656,1.368777 -0.08543,2.05361 -0.003,0.107971 0.0011,1.289452 0,1.288537 -1.381707,-1.042083 -0.934232,-6.815522 -0.939669,-7.006432 -0.01185,-0.416803 -0.0609,-1.664585 -0.08543,-1.248273 -0.13063,2.216717 0.124694,4.46301 0.08543,6.684299 -0.01235,0.698376 -0.02555,1.397678 -0.08543,2.093876 -0.02572,0.299131 -0.120551,0.589512 -0.170849,0.885871 -0.0068,0.03977 0.01039,0.15987 0,0.120801 -0.561078,-2.115829 -0.427121,-4.398659 -0.427121,-6.563499 0,-0.362401 -0.01175,0.724971 0,1.087204 0.04609,1.423112 0.128916,2.845064 0.17085,4.268287 0.01502,0.509852 0,1.020094 0,1.530142 0,0.174489 0.175968,0.578767 0,0.523468 -0.550063,-0.172855 -0.597971,-5.275681 -0.597971,-6.040029 0,-0.214755 0,-0.859024 0,-0.644268 0,2.147567 0,4.295131 0,6.442697 0,0.778491 0.487991,1.706656 0,2.335478 -0.458016,0.590193 -1.501119,0.377338 -2.251679,0.566008"
       style="fill:none;stroke:#000000;stroke-width:2.01616;stroke-linecap:round;stroke-linejoin:miter;stroke-miterlimit:4;stroke-dasharray:none" />
    <path
       id="path850"
       d="m 64.18212,61.345649 c -1.194231,2.316613 -3.145044,4.257195 -5.125459,5.999763 -0.149152,0.131237 0.134884,-0.368979 0.256275,-0.523471 0.874498,-1.112986 1.887081,-2.142958 2.989848,-3.060282 0.53977,-0.448998 1.003487,-0.748568 1.025092,-0.724803 0.371579,0.408687 -1.948567,2.712336 -2.306457,3.06028 -0.190431,0.185142 -0.634798,0.834512 -0.512544,0.604004 0.377637,-0.712031 2.46095,-3.229057 2.733577,-3.100548 0.161947,0.07633 -0.192183,0.339072 -0.939668,1.006672 -1.649523,1.473241 -3.258873,2.78659 -4.612912,4.509888 -0.513497,0.653532 -1.13447,1.011866 -1.623063,1.610675 -0.687027,0.842003 -1.051546,1.689779 -1.964758,2.335477 -0.41451,0.293085 -0.775978,1.369073 -1.452214,1.369073 -0.361308,0 0.0065,-0.704009 0.170848,-1.006671 0.343895,-0.63368 0.943755,-1.215714 1.281366,-1.852277 0.114808,-0.216472 0.490738,-0.784004 0.256271,-0.684536 -0.657159,0.278791 -1.25289,0.671115 -1.879334,1.006672"
       style="fill:none;stroke:#000000;stroke-width:2.01616;stroke-linecap:round;stroke-linejoin:miter;stroke-miterlimit:4;stroke-dasharray:none" />
    <path
       id="path852"
       d="m 55.297991,44.312768 c 1.480687,1.744898 3.705341,3.112467 4.442064,5.234693 0.805424,2.320115 -5.403045,-2.712059 -3.673246,-1.369073 1.140703,0.964308 2.400568,1.788462 3.587821,2.697878 0.234943,0.179963 0.463357,0.367818 0.683395,0.563737 0.03734,0.03325 0.134961,0.13377 0.08543,0.120801 -1.002603,-0.262557 -1.54296,-0.742408 -2.391882,-1.409341 -0.448895,-0.352665 -0.868268,-0.738026 -1.281364,-1.127473 -0.185668,-0.175037 -0.386894,-0.346563 -0.512545,-0.563736 -0.04568,-0.07894 0.17479,0.07386 0.256271,0.120801 0.431416,0.24855 0.848979,0.51802 1.281367,0.765069 3.204741,1.831075 0.135615,-0.01172 2.562728,1.489877 0.112289,0.06947 0.341699,0.07493 0.341699,0.201333 0,0.960629 -5.436287,-4.804613 -4.014944,-4.46962 0.882315,0.20795 3.736045,2.245758 4.527489,2.818679 0.279655,0.202441 0.502008,0.467302 0.768818,0.684536 0.04816,0.03921 0.222449,0.115666 0.170849,0.08054 -1.588908,-1.081848 -2.996938,-2.294625 -4.442064,-3.543483 -0.282392,-0.244039 -1.16078,-0.941544 -0.854244,-0.724804 1.818547,1.285824 3.569458,2.932556 5.72343,3.744817 0.03974,0.01498 0.0319,-0.09395 0,-0.120799 -0.378119,-0.318278 -0.813199,-0.572521 -1.19594,-0.88587 -2.284641,-1.870446 -1.741645,-1.484952 -3.673246,-3.462952 -0.289363,-0.296312 -1.113494,-1.204694 -0.768819,-0.966406 1.654026,1.143511 3.195314,2.553266 4.78376,3.785087 0.319645,0.247879 0.634607,0.501441 0.939669,0.765069 0.03787,0.03272 0.128176,0.147671 0.08543,0.120801 -0.918964,-0.577567 -6.86988,-5.438261 -6.663098,-6.120561 0.05002,-0.165063 0.277991,0.223198 0.427121,0.322135 0.620041,0.411344 1.264067,0.790372 1.879337,1.208004 1.476058,1.001918 2.890471,2.028075 4.271215,3.140815 0.267976,0.21596 0.475405,0.500125 0.768819,0.684538 0.05934,0.03729 0.04893,-0.152489 0,-0.201335 -0.449709,-0.448902 -0.957317,-0.843602 -1.452214,-1.248273 -3.70212,-3.027191 -1.751776,-1.208551 -5.040034,-4.308553 -0.377375,-0.355771 -0.727536,-0.736772 -1.110518,-1.087204 -0.102129,-0.09345 -0.445175,-0.333739 -0.341695,-0.241602 1.787555,1.591596 4.018003,2.719905 6.065128,3.986418 0.541427,0.334972 1.077585,0.677553 1.623059,1.006672 0.166581,0.100506 0.585899,0.454746 0.512549,0.281869 -0.0974,-0.229552 -0.397943,-0.322913 -0.597974,-0.483205 -0.654213,-0.524246 -1.305875,-1.051354 -1.964758,-1.570405 -1.419801,-1.118487 -2.837487,-2.239491 -4.271216,-3.342151 -0.189774,-0.145953 -0.356173,-0.364676 -0.597969,-0.402668 -0.169326,-0.02661 0.205979,0.263534 0.341695,0.362403 0.989364,0.720737 2.275717,1.445318 3.33155,2.053609 0.425017,0.244861 0.840291,0.506497 1.281365,0.724804 0.131566,0.06512 0.449675,0.259004 0.42712,0.120798 -0.04326,-0.265109 -0.309253,-0.456163 -0.512545,-0.644269 -0.568671,-0.526185 -1.18757,-1.002307 -1.793908,-1.489872 -2.782377,-2.237334 -1.973469,-1.448749 -4.185796,-3.422683 -0.263242,-0.234879 -0.531042,-0.467017 -0.768818,-0.724803 -0.05034,-0.05458 -0.136399,-0.255397 -0.08543,-0.201336 1.055988,1.119971 2.166884,2.184361 3.331551,3.221349 0.278493,0.247965 0.541547,0.515992 0.854244,0.724803 0.04787,0.03197 0.20336,0.0057 0.170846,-0.04027 -1.147018,-1.622024 -2.758635,-2.918379 -3.929517,-4.550155 -0.243563,-0.339434 -0.489049,-0.6805 -0.683395,-1.046938 -0.03823,-0.07207 -0.07654,-0.277686 0,-0.241602 1.638305,0.772255 2.712585,2.470907 4.185791,3.462951 0.360597,0.24282 -0.626444,-0.590581 -0.939668,-0.885871 -1.159467,-1.093088 -1.866363,-1.807579 -2.819002,-3.020016 -0.190473,-0.242414 -0.351347,-0.504548 -0.512545,-0.765069 -0.03865,-0.06245 -0.154111,-0.233711 -0.08543,-0.201334 0.768377,0.362194 1.285272,1.075409 1.964758,1.570406 0.462383,0.336839 0.967378,0.61849 1.452214,0.926139 0.276362,0.175363 1.084323,0.604624 0.939668,0.322135 -0.340658,-0.665251 -3.459122,-4.469445 -4.100366,-4.670956 -0.145739,-0.0458 0.07099,0.292833 0.170846,0.40267 0.279262,0.307152 2.116757,1.759798 2.477307,1.731475 0.360481,-0.02832 -0.908906,-1.40518 -1.793912,-2.416013 -0.406235,-0.463994 -0.819144,-0.923869 -1.19594,-1.409338 -0.0532,-0.06856 -0.08543,-0.326473 -0.08543,-0.241603 0,0.649194 1.310738,1.76939 1.708487,2.214678 0.175157,0.196089 0.742045,0.740789 0.59797,0.523469 -0.633616,-0.955748 -1.622034,-1.683449 -2.306457,-2.617346 -0.27626,-0.376958 -0.505362,-0.782758 -0.76882,-1.167739 -0.02181,-0.03188 -0.102284,-0.114977 -0.08543,-0.08054 0.101869,0.208083 1.849691,2.605852 2.135607,2.134143 0.09993,-0.164883 -1.608217,-1.830762 -1.879334,-2.093877 -0.30864,-0.299528 -0.641733,-0.576904 -0.939668,-0.885871 -0.03455,-0.03582 -0.118841,-0.157554 -0.08543,-0.1208 1.298149,1.427801 -1.202353,-1.212174 1.025093,1.167739 0.426581,0.455781 0.74897,0.762227 0.768819,0.724803 0.119721,-0.225735 -3.558712,-4.277383 -0.42712,-1.852274 0.179114,0.138707 0.34271,0.294259 0.512545,0.442934 0.09785,0.08566 -1.252497,-1.320131 -1.452214,-1.530141 -0.282146,-0.296683 -0.428341,-0.286467 -0.512545,-0.604002 -0.01039,-0.03907 0,-0.161067 0,-0.120801 0,0.644202 1.083389,1.25018 1.452214,1.771742 0.06163,0.08716 -0.190124,-0.117145 -0.256275,-0.201334 -0.420783,-0.535537 -0.782889,-1.110105 -1.195939,-1.650942 -0.06,-0.07855 -0.124946,-0.328149 -0.170849,-0.241601 -0.264283,0.498303 2.92971,4.268154 3.331546,4.75149 0.38007,0.457151 0.787665,0.893698 1.195943,1.328806 0.363696,0.387597 1.023509,1.008156 1.025091,1.006672 0.08564,-0.08034 -0.17434,-0.157922 -0.256272,-0.241603 -0.259849,-0.265386 -0.508969,-0.539949 -0.768819,-0.805335 -0.252739,-0.258126 -0.526346,-0.498381 -0.768819,-0.765073 -0.100248,-0.11026 -0.109968,-0.316422 -0.256273,-0.3624 -0.09475,-0.02978 -0.05307,0.202267 0,0.281868 0.498054,0.746998 3.505644,3.778118 4.442064,3.70455 0.232723,-0.01829 -0.357807,-0.701412 -1.110517,-1.489872 -0.410836,-0.430353 -0.837886,-0.847605 -1.281364,-1.248275 -0.24081,-0.217562 -0.516357,-0.39845 -0.76882,-0.604002 -0.06097,-0.04964 -0.210781,-0.226952 -0.170848,-0.161067 0.38053,0.627801 4.694361,4.674706 5.040036,4.348822 0.100643,-0.09488 -0.233828,-0.154032 -0.341698,-0.241603 -0.429946,-0.349033 -3.583638,-3.027903 -3.673246,-2.858946 -0.06634,0.125077 2.086262,1.941679 2.221032,2.05361 0.727831,0.604475 0.939669,0.678612 0.939669,0.644269 0,-0.01045 -3.248009,-3.36091 -2.391882,-1.489874 0.232198,0.507457 0.526038,0.991434 0.854244,1.449607 0.14737,0.205727 3.530672,3.80692 3.416972,3.503217 -0.407002,-1.087156 -1.639007,-2.511579 -2.477304,-3.301883 -0.09292,-0.08759 0.02027,0.254908 0.08543,0.362403 0.223332,0.368457 0.461518,0.736536 0.768818,1.046939 0.892987,0.901995 1.843753,1.753878 2.819006,2.577077 0.279848,0.236222 1.132905,0.781743 1.025089,0.442934 -0.278356,-0.874729 -2.285929,-2.870897 -3.160697,-3.342146 -0.264719,-0.142606 0.0095,0.602137 0.170845,0.845602 0.350647,0.528912 2.627279,3.231191 3.587822,2.778413 0.0029,-0.0013 -2.082656,-3.118437 -2.306454,-2.617346 -0.528727,1.183839 3.220217,3.97421 4.271215,4.469622 0.04597,0.02167 -0.05695,-0.08054 -0.08543,-0.1208 -0.170849,-0.241602 -0.341697,-0.483202 -0.512545,-0.724804 -0.291362,-0.412019 -0.458702,-0.921988 -0.854244,-1.248274 -0.215651,-0.177891 -0.169597,0.547436 -0.08543,0.805339 0.27014,0.827691 1.027323,1.838063 1.708483,2.41601 0.721204,0.611923 -0.506737,-1.217175 -0.683394,-1.409339 -0.145596,-0.158379 -0.28993,-0.402669 -0.512545,-0.402669 -0.14553,0 -0.146844,0.278589 -0.08543,0.402669 0.15413,0.311369 0.448111,0.542664 0.683394,0.805336 0.695422,0.776376 1.080801,1.188023 1.879336,1.852276 0.195888,0.162945 0.765915,0.595788 0.683394,0.362402 -0.06491,-0.183554 -0.224814,-0.324036 -0.341697,-0.483203 -1.647291,-2.243196 0.32631,1.361821 1.195942,1.771742 0.410505,0.193501 -1.350255,-2.083498 -1.366789,-2.013344 -0.367857,1.56058 3.997933,4.05025 1.964758,2.05361 -1.788043,-1.755911 0.468304,1.98521 1.793909,2.375745 0.449162,0.132328 -0.07422,-0.924296 -0.341695,-1.288538 -0.120439,-0.164008 -0.478408,-0.636332 -0.427123,-0.442936 0.235651,0.888634 1.99475,2.784838 1.793912,1.932809 -0.09688,-0.411013 -0.962617,-1.416252 -0.683394,-1.087206 0.41831,0.492956 0.774238,1.111813 1.281363,1.530142 0.06771,0.05586 0.168907,0.05995 0.256274,0.08054 0.04987,0.01174 0.05334,-0.158597 0.08543,-0.120798 0.442265,0.521179 -0.189344,0.180389 0.512546,0.805336 0.385439,0.343184 0.53103,0.07778 0.939668,0.201333 0.850294,0.257083 1.695174,0.529745 2.542761,0.794617"
       style="fill:none;stroke:#000000;stroke-width:2.01616;stroke-linecap:round;stroke-linejoin:miter;stroke-miterlimit:4;stroke-dasharray:none" />
    <path
       id="path856"
       d="m 71.016067,48.138119 c -0.08543,0.536893 -0.17085,1.073785 -0.256274,1.610675"
       style="fill:none;stroke:#000000;stroke-width:2.01616;stroke-linecap:round;stroke-linejoin:miter;stroke-miterlimit:4;stroke-dasharray:none" />
    <path
       id="path858"
       d="m 70.759793,49.748794 c 1.135149,-0.26428 0.450545,1.455127 1.110515,1.610674 0.193811,0.04568 0.03149,-0.378173 0,-0.563736 -0.08295,-0.488745 -0.222764,-0.967477 -0.341696,-1.449608 -0.02348,-0.09517 -0.158793,-0.351032 -0.08543,-0.281865 0.576303,0.543307 0.548358,1.627552 1.366789,2.013341 1.039987,0.490224 -0.804716,-2.062131 -1.366789,-3.020013 -0.123293,-0.210117 -0.218,-0.434363 -0.341698,-0.644271 -0.01955,-0.03316 -0.09815,-0.116516 -0.08543,-0.08054 0.761861,2.154734 0.415062,1.18401 1.195939,2.738146 0.104368,0.207722 0.326993,0.718699 0.08543,0.684536 -1.05656,-0.149409 -1.962031,-1.38813 -2.477306,-2.134141 -0.160217,-0.231965 -0.341697,-1.04168 -0.341697,-0.765073 0,0.872493 0.808828,1.026328 1.281364,1.892543 0.224594,0.411709 0.539557,1.779295 0.427121,1.328806 -0.493584,-1.977633 -0.09471,-0.814089 -1.452214,-2.093876 -0.549377,-0.517927 -1.029215,-1.097253 -1.537637,-1.650941 -0.317381,-0.345641 -0.639596,-0.687884 -0.939666,-1.046937 -0.07106,-0.08504 -0.248746,-0.361426 -0.170848,-0.281869 0.963856,0.984399 1.706195,2.216275 2.733577,3.140814 0.274118,0.24668 1.207611,0.856609 0.939667,0.604003 -3.520171,-3.31864 3.757898,6.067242 -3.502396,-4.107219 -0.235892,-0.330574 -0.44346,-0.678682 -0.683395,-1.006672 -0.04571,-0.06249 -0.19158,-0.234355 -0.170848,-0.161067 0.361896,1.279419 2.916761,3.94528 3.58782,4.670955 0.219132,0.236967 0.957685,0.862992 0.768819,0.604003 -0.497685,-0.682461 -1.169547,-1.238383 -1.708486,-1.892543 -0.601073,-0.729572 -1.143462,-1.500318 -1.708485,-2.254943 -0.46009,-0.614473 -0.902149,-1.240843 -1.366791,-1.852276 -0.222991,-0.293439 -0.981608,-1.065008 -0.854242,-0.724802 0.458232,1.223996 1.167067,1.82252 2.135608,2.778412 1.232334,1.216244 2.407306,2.081139 2.050184,1.650943 -1.502962,-1.810504 -3.542312,-3.584944 -5.296306,-5.154154 -0.542092,-0.484984 -1.09176,-0.970694 -1.708487,-1.369075 -0.168051,-0.108554 -0.563118,-0.309717 -0.597971,-0.120798 -0.236985,1.284657 3.975534,4.437577 5.040035,5.113889 0.184755,0.117378 0.376744,0.307938 0.597973,0.281868 0.141484,-0.01669 -0.162317,-0.221255 -0.256273,-0.322135 -0.418934,-0.4498 -0.862146,-0.879244 -1.281366,-1.328806 -1.601172,-1.717059 -2.964309,-3.690253 -4.612913,-5.355491 -0.08695,-0.08782 0.09339,0.226789 0.170849,0.322135 0.436714,0.537512 0.900276,1.055512 1.366789,1.570405 0.688623,0.760039 5.962519,6.064555 5.723429,6.966168 -0.04359,0.164379 -0.365894,-0.06269 -0.512545,-0.161068 -0.60165,-0.403589 -1.173579,-0.849244 -1.708488,-1.328805 -0.919406,-0.824283 -1.812286,-1.677555 -2.648153,-2.57708 -0.675643,-0.727098 -1.238878,-1.540473 -1.879337,-2.29521 -0.04444,-0.05237 -0.212194,-0.175374 -0.170845,-0.120801 2.230804,2.944326 1.610966,1.965884 4.100366,4.952822 0.760026,0.911928 1.294824,2.014377 2.221032,2.778414 0.0751,0.06195 0.05354,-0.202547 0,-0.281869 -0.354606,-0.525336 -0.781864,-1.004546 -1.19594,-1.489874 -0.732845,-0.85894 -2.312716,-2.695977 -3.33155,-3.543482 -0.03852,-0.03204 -0.108375,0.07753 -0.08543,0.120801 0.302451,0.570268 0.641584,1.125561 1.025093,1.65094 0.366167,0.501628 2.516872,3.699148 3.587821,3.825351 0.15306,0.01803 -0.149898,-0.257338 -0.256274,-0.3624 -0.493543,-0.487446 -1.002923,-0.961952 -1.537639,-1.409342 -0.628965,-0.52625 -2.499187,-2.043293 -2.819001,-1.892541 -0.280694,0.132311 -0.141322,0.622183 0,0.885871 0.560815,1.046404 1.278535,2.019439 2.050183,2.93948 0.242665,0.289328 1.28053,0.69441 1.110518,0.362403 -0.284306,-0.555205 -3.914105,-3.866231 -3.673246,-2.617346 0.192588,0.998588 1.755641,2.17732 1.793909,2.375744 0.193644,1.004062 0.05696,2.040187 0.08543,3.060281"
       style="fill:none;stroke:#000000;stroke-width:2.01616;stroke-linecap:round;stroke-linejoin:miter;stroke-miterlimit:4;stroke-dasharray:none" />
    <path
       id="path860"
       d="m 57.946143,38.111672 c -0.455594,-0.791913 -2.132029,-2.916816 -1.366789,-2.375744 1.415362,1.000748 2.205728,2.610562 3.416975,3.825351 0.144818,0.145243 0.551324,0.395555 0.59797,0.201334 0.182481,-0.759811 -0.06424,-1.556779 -0.08543,-2.335476 -0.0073,-0.268358 0,-0.536892 0,-0.805338 0,-0.05369 0,-0.214755 0,-0.161067 0,0.697959 -0.05678,1.397961 0,2.093876 0.105829,1.297027 0.758325,2.959027 0.341695,4.268287 -0.183187,0.57567 -0.799389,0.985259 -1.025089,1.570407"
       style="fill:none;stroke:#000000;stroke-width:2.01616;stroke-linecap:round;stroke-linejoin:miter;stroke-miterlimit:4;stroke-dasharray:none" />
    <path
       id="path862"
       d="m 53.247808,30.742837 c -0.08543,1.731477 -0.17085,3.462952 -0.256274,5.194424 0,0.362404 0.07397,1.442868 0,1.087208 -0.215439,-1.035837 -0.331778,-2.089167 -0.42712,-3.140817 -0.04729,-0.521574 0,-1.046938 0,-1.570406 0,-0.563737 0,-1.127472 0,-1.691209 0,-0.107376 0,-0.429514 0,-0.322134 0,1.749108 0.113849,3.530835 0,5.274958 -0.02299,0.352403 -0.125783,0.696425 -0.170851,1.046938 -0.01199,0.09327 0.07056,0.348383 0,0.281867 -0.184652,-0.174079 -0.239499,-5.07171 -0.256273,-5.838693 -0.02473,-1.130642 0.05682,-1.543443 -0.08543,-1.409339 -0.30532,0.28784 -0.01389,5.705025 0,6.241361 0.01215,0.469642 0.03974,0.94105 0,1.409341 -0.01763,0.207676 -8.26e-4,0.737566 -0.170846,0.604003 -0.127214,-0.09994 -0.0909,-3.659023 -0.08543,-3.865617 0.01354,-0.510592 0.04939,-1.020518 0.08543,-1.530143 0.02093,-0.295849 0.06219,-0.590174 0.08543,-0.885871 0.0053,-0.06693 0,-0.268446 0,-0.201333 0,1.848964 0.0653,3.709765 0,5.556827 -0.08395,2.374133 -0.512547,4.756204 -0.512547,7.127233 0,0.201333 0.0044,-0.402711 0,-0.604004 -0.04236,-1.956718 -0.332631,-4.052327 0.341698,-5.959495 0.01351,-0.03821 0,0.08054 0,0.120802 0,0.241601 0,0.483201 0,0.724802 0,0.416091 0,0.832183 0,1.248274 0,2.2447 -0.427123,4.444287 -0.427123,6.684297"
       style="fill:none;stroke:#000000;stroke-width:2.01616;stroke-linecap:round;stroke-linejoin:miter;stroke-miterlimit:4;stroke-dasharray:none" />
    <path
       id="path864"
       d="m 57.946143,38.111672 c -5.691542,2.216268 -3.752578,0.254965 -5.040035,7.006435 -0.106879,0.560487 -0.350479,2.253704 -0.256271,1.691207 0.214146,-1.278608 0.901403,-6.970358 1.025091,-7.086967 0.315039,-0.297003 0.157163,0.828946 0.170849,1.248274 0.04535,1.389594 0.07272,2.890526 -0.170849,4.268286 -0.326357,1.846038 -0.262671,-1.637365 -0.08543,-2.013343 0.02585,-0.05485 0.08191,0.10116 0.08543,0.161066 0.02528,0.428855 0.04269,0.860909 0,1.28854 -0.177503,1.777984 -0.635765,3.531531 -1.025091,5.27496"
       style="fill:none;stroke:#000000;stroke-width:2.01616;stroke-linecap:round;stroke-linejoin:miter;stroke-miterlimit:4;stroke-dasharray:none" />
    <path
       id="path866"
       d="m 56.66478,62.59392 c -0.08543,1.087207 0.313059,2.312003 -0.256274,3.261618 -1.334619,2.226063 -0.71153,-9.436906 -2.306455,-4.550156 -0.02044,0.06258 -0.102764,6.892623 -0.939668,3.342148 -0.08431,-0.357654 -0.116839,-0.724405 -0.170849,-1.087204 -0.09699,-0.651506 -0.209142,-1.387127 -0.256274,-2.05361 -0.0085,-0.120535 0.09072,-0.276882 0,-0.3624 -0.104603,-0.09862 -0.08543,0.182262 -0.08543,1.087204 0,0.893297 0.310172,3.054044 0,3.785085 -0.02478,0.05839 -0.27764,-0.100789 -0.341698,-0.765073 -0.06708,-0.695616 -0.04316,-1.396535 -0.08543,-2.093876 -0.02117,-0.349436 -0.08543,-1.396943 -0.08543,-1.046938 0,1.10052 0.25145,2.602628 -0.170847,3.664285 -0.01802,0.0453 -0.0491,0.155038 -0.08543,0.1208 -0.298004,-0.280943 -0.04947,-1.518258 -0.08543,-1.812007 -0.161166,-1.316795 -0.505196,-2.630168 -0.683394,-3.946152 -0.05557,-0.410345 -0.05009,-0.566471 0.08543,-0.885871 0.02366,-0.05573 0.149136,-0.158042 0.08543,-0.161067 -0.29779,-0.01415 -0.589925,0.08204 -0.884888,0.123072"
       style="fill:none;stroke:#000000;stroke-width:2.01616;stroke-linecap:round;stroke-linejoin:miter;stroke-miterlimit:4;stroke-dasharray:none" />
    <path
       id="path868"
       d="m 51.966443,54.661352 c 0.142373,-0.362404 0.755472,-1.319371 0.42712,-1.087207 -0.808387,0.571579 -1.380371,1.3981 -1.964758,2.174412 -0.361256,0.479897 -1.413173,1.833872 -0.854243,1.570407 0.678938,-0.320036 0.790705,-1.226575 1.281364,-1.771741 0.313602,-0.348443 0.834249,-0.51052 1.110517,-0.885871 0.228693,-0.310723 0.196947,-0.734677 0.341697,-1.087207 0.02904,-0.07074 0.151335,-0.234649 0.170848,-0.161067 0.139606,0.526458 -0.847585,2.034836 -1.025092,2.416013 -0.08252,0.177187 -0.341696,0.676637 -0.341696,0.483201 0,-0.128979 1.238101,-2.736936 1.366788,-3.020015 0.17555,-0.386169 0.997192,-1.315653 0.59797,-1.127471 -0.857478,0.404193 -1.037128,3.395971 -1.110515,2.496546 -0.06749,-0.827206 0.194778,-1.655937 0.42712,-2.456279 0.141188,-0.486345 0.478307,-0.903288 0.683395,-1.369072 0.97007,-2.203199 -0.856744,0.675856 -0.939668,0.805334 -0.227798,0.34898 -0.455595,0.697961 -0.683394,1.046939 -0.08543,0.161067 -0.157982,0.328761 -0.256272,0.483202 -0.149485,0.234876 0.07901,-0.545584 0.170847,-0.805336 0.397302,-1.123666 0.786556,-1.810756 1.281366,-2.899214 0.120814,-0.265759 0.240953,-0.532279 0.341697,-0.805337 0.01403,-0.03804 0.02371,-0.154328 0,-0.120801 -0.685886,0.969931 -1.163739,2.098012 -1.79391,3.100547 -0.183171,0.291404 -0.398649,0.563738 -0.597972,0.845606 -0.02847,0.04026 -0.07698,0.168504 -0.08543,0.120801 -0.144,-0.814539 1.154649,-4.04044 1.537636,-5.033359 0.0914,-0.236962 -0.226282,0.457032 -0.341696,0.684538 -0.215322,0.42444 -2.014954,3.938265 -2.221032,3.905885 -0.369975,-0.05813 1.85466,-4.195431 2.050183,-4.590423 0.173376,-0.350251 0.837918,-1.087204 0.427123,-1.087204 -0.216325,0 -1.606822,3.489133 -2.050186,3.140814 -0.3315,-0.260437 1.213625,-3.663881 1.452214,-4.147486 0.832376,-1.687148 -1.157861,1.356949 -1.281364,1.570408 -0.09148,0.158101 -0.281508,0.661623 -0.256274,0.483201 0.129765,-0.91752 0.709909,-1.954401 1.110517,-2.778412 0.127353,-0.261955 0.29485,-0.505279 0.427121,-0.76507 0.03897,-0.07655 0.133169,-0.31362 0.08543,-0.241603 -0.315981,0.476629 -1.550122,2.742072 -2.050182,2.899215 -0.347964,0.109347 0.1203,-0.686203 0.256273,-1.006671 0.250735,-0.590949 0.58003,-1.149822 0.854243,-1.731474 0.06228,-0.132112 0.255942,-0.523003 0.170847,-0.40267 -0.220549,0.311887 -1.92962,2.776131 -1.281363,1.248273 0.29829,-0.70303 0.63704,-1.3198 1.025092,-1.973075 0.09333,-0.157136 0.370923,-0.627322 0.256271,-0.483202 -0.433003,0.544285 -0.78241,1.34162 -1.281363,1.812008 -0.23955,0.225833 0.49582,-1.151974 0.256273,-0.926138 -0.165263,0.155801 -1.22435,1.543625 -1.452213,1.328807 -0.33207,-0.313059 0.683395,-1.312979 0.683395,-1.650944 0,-0.296829 -0.939669,1.291823 -0.939669,1.087208 0,-0.342857 0.256617,-0.658232 0.42712,-0.926138 0.05281,-0.08299 0.262787,-0.284939 0.170849,-0.241601 -0.281316,0.132603 -1.480296,1.567373 -1.623061,1.449607 -0.623353,-0.514208 1.743929,-2.250376 0.597972,-1.530142 -0.467349,0.29373 -1.058703,1.771742 -1.623064,1.771742 -0.301882,0 0.513099,-1.047459 0.512547,-1.046939 -0.0853,0.08042 -1.480802,1.617095 -1.623064,1.248273 -0.25315,-0.656309 0.939669,-1.101559 0.939669,-1.570408 0,-0.477213 -1.45404,1.724585 -1.537639,1.409342 -0.139493,-0.526028 2.3022,-2.733797 0.256274,-0.644271 -0.112243,0.114634 -0.47362,0.523469 -0.768819,0.523469 -0.04032,0 0.06071,-0.05057 0.08543,-0.08053 0.282855,-0.342851 0.601622,-0.689703 0.854243,-1.046938 0.02234,-0.03157 0.12519,-0.08679 0.08543,-0.08054 -0.154084,0.02422 -1.928714,0.900996 -1.964759,0.765071 -0.146682,-0.553141 0.569023,-1.222274 0.854244,-1.610675 0.09452,-0.128717 0.394565,-0.489585 0.256274,-0.402669 -1.110934,0.698221 -1.56063,1.704936 -2.819005,2.456279 -0.460185,0.274765 -1.537636,1.036121 -1.537636,0.523468 0,-0.518103 1.191933,-1.512781 1.537636,-1.852274 0.132628,-0.130245 0.498191,-0.529899 0.427123,-0.362403 -0.284261,0.669965 -1.493559,1.437752 -2.050183,1.892542 -0.17901,0.146259 -0.765442,0.520286 -0.597973,0.362403 0.526418,-0.496279 0.986493,-0.963025 1.452214,-1.530142 0.188584,-0.229637 0.821061,-0.724803 0.512547,-0.724803 -0.413404,0 -0.567108,0.565885 -0.854243,0.845604 -0.266365,0.259487 -0.641867,0.424479 -0.854244,0.724804 -0.106186,0.150162 0.307513,-0.221449 0.427123,-0.362401 0.73633,-0.86772 0.256986,-0.443577 1.110515,-1.208007 0.0806,-0.07219 0.291395,-0.300668 0.256275,-0.201333 -0.307142,0.868666 -1.247547,1.639947 -1.964761,2.214676 -0.04849,0.03886 -0.206125,0.130421 -0.170848,0.08054 0.128759,-0.182084 1.061291,-1.040797 1.110516,-1.087207 1.618436,-1.525778 -1.96476,1.8482 -1.96476,1.449608 0,-0.113271 2.372905,-2.280675 1.025092,-1.248272 -0.304879,0.233532 -0.563611,0.515984 -0.854244,0.765069 -0.251918,0.215905 -1.21737,1.167739 -1.793909,1.167739 -0.01653,0 1.65164,-1.99332 1.708487,-2.053609 0.421256,-0.446782 1.073984,-1.180455 0.683395,-0.885871 -0.406411,0.306511 -2.722905,2.395876 -2.819003,2.335478 -0.230058,-0.144592 1.599492,-1.910592 1.964759,-2.254945 0.08543,-0.08054 0.364404,-0.292572 0.256271,-0.2416 -0.701693,0.330759 -3.648367,3.377988 -2.562728,2.013342 0.125939,-0.158306 0.857138,-0.870517 1.110514,-1.288537 0.09606,-0.158474 -0.212396,0.30697 -0.341695,0.442934 -0.31671,0.333027 -1.491348,1.595995 -2.050185,1.53014 -0.147245,-0.01735 0.80909,-1.154126 1.793911,-2.134145 0.195888,-0.194931 0.731418,-0.816218 0.512547,-0.644268 -1.082406,0.850364 -2.062928,1.950004 -3.075277,2.858945 -0.05153,0.04627 -0.151318,0.185245 -0.170848,0.120802 -0.173563,-0.572692 1.142198,-1.815058 1.452213,-2.29521 0.07293,-0.112951 0.301261,-0.41158 0.170849,-0.362403 -0.219296,0.0827 -1.211635,1.165004 -1.281364,1.248274 -0.215404,0.257222 -0.378755,0.550976 -0.597971,0.805335 -1.398762,1.622995 0.709808,-1.557956 0.597971,-1.610674 -0.132488,-0.06245 -1.418521,1.472868 -1.452214,1.409341 -0.149249,-0.281408 1.257805,-1.532939 1.366789,-1.892542 0.01747,-0.05762 -0.122531,0.04149 -0.170849,0.08054 -0.135993,0.109891 -1.864047,2.082433 -1.964759,1.89254 -0.07841,-0.147844 1.315817,-2.074075 1.537638,-2.335475 0.02514,-0.02964 -0.05949,0.0515 -0.08543,0.08054 -0.201972,0.226109 -0.405066,0.451528 -0.597971,0.684536 -0.473335,0.571743 -0.994323,1.108445 -1.452212,1.691207 -0.08351,0.106274 -0.07162,0.268852 -0.170849,0.362403 -0.07337,0.06917 0.03906,-0.194442 0.08543,-0.281868 0.153983,-0.290337 0.315031,-0.579595 0.512545,-0.845605 0.202764,-0.273078 0.451329,-0.513473 0.683395,-0.76507 0.05283,-0.05729 0.200734,-0.231503 0.170849,-0.161067 -0.05718,0.134745 -0.153928,0.253856 -0.256274,0.3624 -0.16089,0.170638 -2.305456,2.497255 -2.306456,2.496546 -0.249174,-0.176181 1.372656,-2.690623 1.537638,-2.93948 0.184195,-0.277838 -0.389408,0.543175 -0.59797,0.805338 -0.111199,0.139774 -1.085979,1.553272 -1.195941,1.449604 -0.161995,-0.152719 0.996567,-1.902912 1.195941,-2.174408 0.05188,-0.07065 0.235327,-0.140547 0.170848,-0.201335 -0.08294,-0.07819 -1.482494,1.838002 -1.793911,1.691209 -0.279285,-0.13165 2.131756,-1.892543 1.36679,-1.892543 -0.232031,0 -0.471053,0.236103 -0.597971,0.362401 -0.137258,0.13659 -1.626307,1.723826 -1.708487,1.530142 -0.107537,-0.253454 0.729394,-1.232788 0.854244,-1.409341 0.129508,-0.183139 0.427122,-0.743415 0.427122,-0.523468 0,0.639748 -2.677925,3.142647 -0.939667,0.684535 0.271727,-0.384255 0.548167,-0.76678 0.854242,-1.12747 0.03979,-0.04689 -0.0489,0.111876 -0.08543,0.161067 -0.107413,0.144663 -1.534254,2.394681 -2.050185,2.577077 -0.215338,0.07612 1.214785,-1.928366 1.025094,-1.973075 -0.256276,-0.0604 -1.911638,1.669115 -2.050185,1.771741 -0.07076,0.05241 -0.181388,0.127599 -0.256273,0.08053 -0.247718,-0.155689 0.123286,-0.554587 0.256273,-0.805336 0.336302,-0.634095 0.62052,-0.885871 0.512546,-0.885871 -0.282859,0 -1.899805,2.076867 -2.733578,2.295212 -0.454964,0.119143 0.331323,-0.841409 0.597971,-1.208006 0.987492,-1.357648 -1.504371,1.765199 -0.427122,-0.04027 0.15684,-0.262864 0.357185,-0.50143 0.512545,-0.765069 0.436417,-0.740578 0.534671,-1.288541 0.512547,-1.288541 -0.04282,0 0.02565,0.08855 0,0.120802 -0.151095,0.189924 -0.341697,0.348978 -0.512547,0.523469 -0.170848,0.17449 -0.334418,0.355538 -0.512545,0.523468 -0.812065,0.765574 0.375742,-1.065709 0,-1.006673 -0.09425,0.01483 -0.170849,0.08054 -0.256273,0.120803 -0.86583,-0.555546 -1.731659,-1.11109 -2.597488,-1.666637"
       style="fill:none;stroke:#000000;stroke-width:2.01616;stroke-linecap:round;stroke-linejoin:miter;stroke-miterlimit:4;stroke-dasharray:none" />
    <path
       id="path870"
       d="m 51.966443,54.661352 c -1.72659,-3.371746 -0.827819,-3.225118 -3.075275,0.966402 -0.635394,1.18501 0.75494,-1.782062 1.025089,-1.973074 0.03422,-0.02419 0.01837,0.08443 0,0.120802 -0.126024,0.2495 -0.281667,0.484828 -0.42712,0.7248 -0.353703,0.583546 -1.198737,2.309073 -1.879337,2.416013 -0.602909,0.09473 0.822819,-2.412811 0.939668,-2.657612 0.116435,-0.243928 0.483516,-0.925744 0.256274,-0.765071 -0.352394,0.249164 -2.549402,3.196218 -1.879335,1.93281 0.165172,-0.311434 0.322496,-0.62752 0.512547,-0.92614 0.1524,-0.239457 0.380096,-0.434801 0.512545,-0.684535 0.02622,-0.04941 -0.136372,-0.0044 -0.170849,0.04026 -0.202587,0.262614 -0.344295,0.562358 -0.512545,0.845605 -0.483323,0.813665 -0.945155,1.954606 -1.623064,2.657612 -0.167416,0.173616 0.06984,-0.470273 0.17085,-0.684538 0.436829,-0.926597 1.050705,-2.416806 1.964759,-3.020012 0.255105,-0.168351 -0.111941,0.585836 -0.256271,0.845602 -0.931808,1.67706 -0.281514,0.269579 -1.025094,1.771743 -0.07617,0.153881 -0.170849,0.652941 -0.170849,0.483203 0,-0.498549 0.83215,-1.208071 1.110518,-1.530142 0.08994,-0.104063 0.383751,-0.262045 0.256271,-0.322135 -0.04239,-0.02 -1.769712,1.744383 -2.733577,2.093876 -0.265687,0.09634 -0.854244,0.267802 -0.854244,0 0,-0.790217 0.744274,-1.54879 1.110518,-2.214677 0.04147,-0.07537 0.166096,-0.279628 0.08543,-0.241599 -0.712225,0.335724 -2.821068,3.593573 -3.246125,3.543483 -0.130541,-0.01539 0.03543,-0.247949 0.08543,-0.362403 0.431188,-0.987224 0.663118,-1.222421 1.281363,-2.174408 0.615619,-0.947942 0.710516,-1.133866 0.683395,-1.127473 -0.499132,0.11764 -1.596017,1.7875 -1.879334,2.093876 -0.231587,0.250435 -0.768819,1.016437 -0.768819,0.684537 0,-0.469756 0.622098,-1.45409 0.768819,-1.69121 0.225144,-0.363864 1.102401,-1.235334 0.683394,-1.087203 -0.74556,0.263579 -0.947412,1.323673 -1.708487,1.610674 -0.308572,0.116363 -1.079412,0.291281 -0.854243,-0.281867 0.101797,-0.259107 0.261002,-0.497007 0.427122,-0.724805 0.14869,-0.203896 0.512545,-0.316492 0.512545,-0.563736 0,-0.237202 -0.346687,0.34477 -0.512545,0.523469 -0.232889,0.250923 -0.444081,0.519553 -0.683394,0.765072 -0.308994,0.317006 -2.764202,2.577648 -3.075276,2.17441 -0.314866,-0.408156 0.459006,-0.917245 0.76882,-1.328806 0.278381,-0.369807 0.372334,-0.779512 0.341694,-0.76507 -0.155152,0.07314 -1.532923,1.494314 -1.708484,1.328806 -0.123108,-0.116062 0.660099,-1.358098 0.683395,-1.40934 0.07628,-0.16783 0.322254,-0.637662 0.170849,-0.523471 -0.944135,0.712064 -2.464027,2.566264 -3.844096,2.295212 -0.580434,-0.114001 0.631854,-2.044948 0.768819,-2.335479 0.09882,-0.209613 0.414718,-0.818538 0.256272,-0.644268 -0.516931,0.56856 -1.018943,1.152602 -1.623061,1.65094 -0.770516,0.635604 -0.301914,-1.044483 -0.683394,-0.724803 -1.002584,0.840165 -1.737773,1.955434 -3.075276,2.375743 -0.175968,0.0553 -0.07293,-0.363026 0,-0.523467 0.170421,-0.374884 0.611822,-1.422399 0.939667,-1.731475 0.04032,-0.03801 0.03287,0.117169 0,0.161068 -0.4202,0.561203 -1.056601,1.102058 -1.708486,1.40934 -0.80415,0.379055 1.321996,-2.631099 -0.256273,-0.845605 -0.09461,0.107042 -1.779165,1.680182 -1.79391,1.610675 -0.124942,-0.588941 1.075714,-1.266169 0.854243,-1.892543 -0.08705,-0.246176 -1.465181,1.012785 -1.708487,1.127473 -1.253792,0.591005 0.03161,-0.648529 -1.19594,-0.483205 -0.193959,0.02613 -0.974849,0.639531 -1.025092,0.604003 -0.266966,-0.188759 0.608663,-1.07463 0.341697,-0.88587 -0.360454,0.254863 -0.48752,0.715447 -0.768819,1.046937 -0.157325,0.1854 -0.340678,0.349869 -0.512546,0.52347 -0.02747,0.02775 -0.09331,0.117722 -0.08543,0.08054 0.101693,-0.479336 0.7581,-1.799377 1.110516,-2.214677 0.21513,-0.253519 -0.03487,0.41172 -0.08543,0.483201 -0.155616,0.220058 0.21395,-0.489409 0.341697,-0.724803 0.191486,-0.35284 0.394454,-0.700107 0.59797,-1.046938 0.458359,-0.781136 0.934559,-1.69121 0.76882,-1.69121 -0.128518,0 -1.015534,1.503888 -1.36679,2.013344 -0.1831,0.265565 -0.597969,1.081581 -0.597969,0.765069 0,-0.544577 0.584808,-1.412382 0.768818,-1.932808 0.05696,-0.161067 0.170849,-0.652942 0.170849,-0.483202 0,0.24197 -1.623056,2.456277 -1.708487,2.456277 -0.103876,0 0.03664,-0.195617 0.08543,-0.281868 0.426299,-0.753547 0.92331,-1.469954 1.36679,-2.214678 0.199703,-0.335355 0.408691,-0.666006 0.59797,-1.006669 0.124129,-0.22341 0.22669,-0.456851 0.341698,-0.684538 0.02737,-0.05419 0.133383,-0.200629 0.08543,-0.161066 -0.149485,0.12331 -1.539331,1.740254 -1.452214,1.28854 0.167448,-0.868236 0.583169,-1.6094 0.939667,-2.416014 0.03463,-0.07837 0.166098,-0.279628 0.08543,-0.241598 -0.58729,0.276831 -1.551729,2.550096 -2.221033,3.181079 -0.07263,0.06848 0.117643,-0.158834 0.170849,-0.241598 0.71642,-1.114419 1.403035,-2.231163 1.964759,-3.422685 0.181486,-0.384964 0.937221,-1.301192 0.512547,-1.167739 -0.750742,0.235922 -0.940487,2.254945 -1.793911,2.254945 -0.314807,0 0.277728,-0.625219 0.939667,-1.731476 0.162725,-0.27195 0.427122,-1.157661 0.427122,-0.845603 0,0.49946 -1.463049,1.935461 -1.879335,2.295211 -0.225517,0.194887 0.280737,-0.512063 0.427121,-0.76507 0.312885,-0.540783 1.537639,-2.454562 1.537639,-3.060282 0,-0.22751 -0.375432,0.295766 -0.512547,0.483202 -0.196502,0.268617 -0.936391,1.771741 -1.366788,1.771741 -0.235217,0 1.507459,-2.450733 1.19594,-2.254943 -0.301695,0.189614 -0.520444,0.476014 -0.768819,0.724804 -0.110389,0.110574 -0.404152,0.461973 -0.341698,0.322134 0.12816,-0.286953 1.143013,-1.509137 0.939668,-1.892542 -0.0843,-0.158928 -0.616857,0.313231 -0.768818,0.241601 -0.178351,-0.08407 0.291838,-0.820379 0.341696,-0.926139 0.260887,-0.55339 -0.312493,-0.713098 -0.08543,-1.24827 0.169661,-0.399871 0.398517,-0.657536 0.683394,-1.006677"
       style="fill:none;stroke:#000000;stroke-width:2.01616;stroke-linecap:round;stroke-linejoin:miter;stroke-miterlimit:4;stroke-dasharray:none" />
    <path
       id="path872"
       d="m 28.560179,45.561041 c -0.190129,-0.878342 -2.114162,3.133767 -2.733579,2.174412 -0.352026,-0.545222 0.627036,-1.147967 0.768819,-1.771742 0.05962,-0.26229 -0.334653,0.434632 -0.512546,0.644269 -0.08464,0.09974 -0.653681,0.74406 -0.854244,0.88587 -0.623263,0.440686 1.423325,-2.950756 1.36679,-2.657612 -0.290049,1.503937 -1.730202,2.801951 -2.306456,4.228021 -0.150578,0.372636 0.589842,-0.574295 0.854242,-0.885871 1.089721,-1.284166 0.691605,-0.904865 1.79391,-2.013344 1.605561,-1.614552 -1.237016,2.665753 -1.537637,3.020013 -0.159173,0.187578 0.200387,-0.444438 0.341698,-0.644269 0.31492,-0.445335 0.654557,-0.806287 1.025092,-1.208005 0.132097,-0.143216 0.511431,-0.574884 0.427121,-0.402669 -0.216921,0.443088 -1.062628,1.592648 -1.19594,1.771741 -0.274781,0.369145 -0.574161,0.721601 -0.854244,1.087205 -0.09018,0.117709 -0.313444,0.497148 -0.256272,0.362403 0.460886,-1.08625 2.068561,-2.555197 2.819003,-3.503217 0.286116,-0.361446 1.095229,-1.476672 0.854243,-1.087205 -0.08304,0.1342 -3.160701,4.061941 -3.160701,4.268287 0,0.285065 0.416388,-0.416021 0.597971,-0.644271 0.683393,-0.859023 1.426076,-1.679029 2.050183,-2.577077 0.223496,-0.321597 0.65347,-1.407549 0.512547,-1.046939 -0.865673,2.215162 -2.028961,4.278541 -3.416974,6.241362 -0.08543,0.120802 0.167955,-0.243457 0.256273,-0.3624 0.531314,-0.715566 1.725231,-2.291575 2.221033,-2.899215 0.271168,-0.332336 0.573288,-0.641338 0.854243,-0.966405 0.03243,-0.03752 0.109576,-0.163491 0.08543,-0.120798 -0.959135,1.695416 -1.858284,3.392912 -2.989852,4.99309 -0.113899,0.161067 -0.448112,0.648732 -0.341698,0.483201 0.391091,-0.608356 0.781042,-1.217767 1.195941,-1.812007 0.325751,-0.466559 0.69644,-0.904318 1.025092,-1.369075 0.155782,-0.220293 0.26051,-0.471365 0.427121,-0.684535 0.03774,-0.04828 0.183943,-0.139167 0.170849,-0.08054 -0.141626,0.634209 -1.122046,2.278471 -1.281364,2.536811 -0.567555,0.920307 -1.338651,1.723109 -1.879335,2.657613 -0.101298,0.175079 0.309757,-0.276969 0.427121,-0.442936 0.42533,-0.60147 0.794107,-1.236678 1.195941,-1.852273 0.626884,-0.960369 3.345255,-5.741534 4.442064,-6.201096 0.08244,-0.03454 0.108917,0.159657 0.08543,0.2416 -0.123463,0.430659 -0.318314,0.841357 -0.512547,1.248273 -0.993255,2.08087 -2.222536,4.149966 -3.416972,6.120561 -0.06516,0.107495 0.02334,-0.253315 0.08543,-0.362401 0.253992,-0.446249 0.556206,-0.867075 0.854243,-1.288541 1.365738,-1.93132 1.328492,-1.786476 2.819003,-3.624016 0.25946,-0.31987 0.473499,-0.675337 0.768819,-0.966404 0.04053,-0.03994 0.194964,-0.01009 0.170848,0.04027 -0.524691,1.095302 -1.275435,2.082223 -1.879334,3.140813 -0.543067,0.951955 -1.083521,1.905225 -1.623063,2.858949 -0.02996,0.05297 -0.105554,0.217999 -0.08543,0.161067 0.587658,-1.662046 1.704033,-3.134137 2.819002,-4.509889 0.398406,-0.49159 0.811035,-0.977606 1.281365,-1.409339 0.08403,-0.07713 0.382393,-0.184121 0.341697,-0.08054 -0.433977,1.104653 -2.098471,3.254424 -2.819003,4.348822 -0.189486,0.287804 -0.389096,0.56992 -0.59797,0.845604 -0.07627,0.100674 -0.318013,0.391004 -0.256273,0.281866 0.402192,-0.710937 0.813757,-1.419261 1.281364,-2.093877 0.473489,-0.683096 1.026451,-1.314447 1.537638,-1.973074 0.343058,-0.442004 0.674863,-0.891805 1.025092,-1.328807 0.134052,-0.167264 0.20614,-0.457161 0.427122,-0.483201 0.158311,-0.01866 -0.03243,0.301397 -0.08543,0.442936 -0.204126,0.545246 -0.429995,1.084027 -0.683395,1.610672 -0.448443,0.932016 -2.047069,4.265646 -2.904426,4.99309 -0.118464,0.100514 0.0187,-0.306635 0.08543,-0.442936 0.277577,-0.566985 0.60966,-1.109372 0.939667,-1.650941 1.164356,-1.910802 2.394488,-3.868204 4.014943,-5.476291 0.11964,-0.118726 0.446284,-0.444449 0.427123,-0.281869 -0.138844,1.178045 -2.22484,3.698069 -2.904428,4.670957 -0.536421,0.76793 -2.011817,3.138155 -1.623062,2.295209 0.549003,-1.190416 0.980213,-1.800986 1.879335,-2.979747 0.627629,-0.82283 1.269469,-1.642529 2.135607,-2.254942 0.05099,-0.03606 -0.05757,0.107089 -0.08543,0.161066 -0.228422,0.442652 -0.447736,0.889523 -0.683393,1.328807 -0.164666,0.30695 -2.873813,4.791754 -2.904427,4.791754 -0.281007,0 0.21954,-0.486797 0.341697,-0.724801 0.305054,-0.594352 0.598964,-1.194778 0.939668,-1.771742 0.855557,-1.448852 1.820336,-2.899 2.98985,-4.147488 0.623185,-0.665262 1.994525,-1.757852 1.623062,-0.926136 -0.561103,1.256328 -1.714846,2.196911 -2.562729,3.30188 -0.929644,1.211525 -1.751701,2.430224 -2.56273,3.704552 -0.03946,0.062 0.0487,-0.137865 0.08543,-0.201335 0.305265,-0.527611 0.57364,-1.078171 0.939668,-1.570405 0.581981,-0.782654 3.473123,-4.294756 4.52749,-4.791758 0.130101,-0.06133 -0.01708,0.281838 -0.08543,0.402669 -0.276937,0.489526 -0.62928,0.937899 -0.939669,1.409339 -1.049684,1.594339 -1.92781,3.572705 -3.246123,4.99309 -0.06832,0.07361 0.03399,-0.196989 0.08543,-0.281868 0.291989,-0.481724 0.618486,-0.944337 0.939667,-1.409338 1.049568,-1.519555 2.127167,-3.245593 3.587821,-4.469623 0.03196,-0.02679 0.02274,0.08668 0,0.120801 -0.294201,0.441251 -0.615126,0.866526 -0.939668,1.28854 -0.943101,1.226358 -1.885038,2.376523 -2.904427,3.543483 -0.134534,0.154011 -0.457022,0.640263 -0.42712,0.442935 0.213579,-1.409454 3.041147,-4.277532 3.92952,-5.234689 0.517212,-0.557259 1.056777,-1.097345 1.623059,-1.610675 0.17651,-0.160003 0.597973,-0.633229 0.597973,-0.402669 0,0.654282 -2.466877,3.627203 -2.904427,4.228022 -0.261505,0.359078 -0.482847,0.745016 -0.768818,1.087203 -0.08806,0.105367 -0.405303,0.361526 -0.3417,0.241602 0.36895,-0.695652 2.216002,-2.897103 2.477306,-3.181082 0.633197,-0.688144 1.27675,-1.385945 2.050184,-1.93281 0.221469,-0.156592 -0.04538,0.532731 -0.17085,0.76507 -0.283586,0.52516 -0.592848,1.039699 -0.939668,1.53014 -0.493972,0.698541 -4.208542,5.651849 -4.869185,5.838694 -0.405377,0.114651 0.432044,-0.686332 0.683395,-1.006671 1.629259,-2.076418 3.926947,-4.435031 5.638004,-6.201095 0.291982,-0.301367 0.560929,-0.647238 0.939668,-0.845605 0.145902,-0.07641 -0.08553,0.307921 -0.170849,0.442935 -0.315237,0.498858 -0.680653,0.968129 -1.02509,1.449608 -1.625572,2.272335 -1.326662,1.855034 -3.075275,4.147486 -0.369118,0.483917 -0.69496,1.000228 -1.110516,1.449606 -0.07985,0.08636 -0.386796,0.227092 -0.341698,0.120801 1.114593,-2.626952 6.0825,-7.394887 8.371584,-9.180842 0.186628,-0.145609 -0.216073,0.408937 -0.341698,0.604003 -0.358707,0.556988 -0.724297,1.110468 -1.110516,1.65094 -0.872823,1.22142 -2.285796,3.053896 -3.246124,4.22802 -0.358436,0.438232 -0.730314,0.86685 -1.110518,1.288541 -0.1043,0.115682 -0.36815,0.471754 -0.341696,0.322135 0.286804,-1.622323 4.534367,-5.497213 5.894278,-6.6843 0.192612,-0.168134 0.434046,-0.676377 0.59797,-0.483202 0.175475,0.206784 -0.269426,0.46545 -0.427121,0.684538 -0.230214,0.31984 -2.544092,3.323456 -2.648155,3.462948 -0.688436,0.922828 -1.254918,1.934962 -2.050184,2.778413 -0.06892,0.0731 0.0279,-0.200518 0.08543,-0.281868 0.344294,-0.486874 0.725647,-0.950126 1.110514,-1.409338 1.035096,-1.235043 2.35431,-3.18045 3.75867,-4.10722 0.136154,-0.08985 -0.164163,0.272414 -0.256271,0.402668 -1.134219,1.603924 -1.234518,1.671482 -2.477307,3.342148 -0.317457,0.426757 -0.607908,0.87152 -0.939667,1.288541 -0.09661,0.121442 -0.341696,0.473808 -0.341696,0.322134 0,-0.650079 3.034854,-3.921854 3.331547,-4.228021 0.427781,-0.441435 0.918273,-0.82543 1.366789,-1.24827 0.09284,-0.08751 0.290067,-0.401336 0.256274,-0.281869 -0.410036,1.4496 -1.751233,3.112992 -2.562729,4.348821 -0.324214,0.493743 -0.683397,0.966403 -1.025092,1.449606 -0.08543,0.1208 -0.345791,0.480552 -0.256274,0.362402 1.510701,-1.993897 2.996315,-4.063932 4.698338,-5.919227 0.09897,-0.107883 0.257798,-0.400512 0.341696,-0.281868 0.350077,0.495051 -2.491195,4.861919 -2.904426,5.436026 -0.153537,0.213311 -0.246868,0.666617 -0.512546,0.604001 -0.247523,-0.05833 0.207753,-0.439999 0.341699,-0.644271 0.350873,-0.535094 0.720224,-1.060029 1.110515,-1.570405 0.305196,-0.399102 2.148603,-2.645742 2.648155,-3.221349 0.134009,-0.154414 0.215186,-0.442935 0.427121,-0.442935 0.657703,0 -5.732715,8.801059 -2.391882,3.785083 0.476722,-0.715756 0.913172,-1.458633 1.452213,-2.134142 0.277477,-0.347725 2.553073,-2.900289 3.33155,-3.462951 0.07921,-0.05725 0.05025,0.200664 0,0.281868 -0.356115,0.575534 -0.795477,1.101798 -1.195942,1.650943 -2.572751,3.527937 -0.708225,0.866951 -2.989851,4.308553 -0.251166,0.378859 -0.516618,0.749216 -0.768819,1.127473 -0.06109,0.09163 -0.207134,0.384489 -0.170847,0.281866 0.607439,-1.717992 2.085407,-3.39745 3.246123,-4.791755 0.317487,-0.381382 0.641334,-0.764179 1.025092,-1.087204 0.04746,-0.03995 0.200404,0.02746 0.170849,0.08053 -1.066498,1.91512 -2.505405,3.524936 -3.587824,5.395759 -0.06283,0.108587 0.178012,-0.182546 0.256274,-0.281868 0.485211,-0.615775 2.813959,-3.397781 2.135609,-2.214678 -0.319864,0.55787 -2.672416,4.504405 -2.562728,4.711223 0.0918,0.173098 0.231736,-0.319731 0.341696,-0.483204 0.686287,-1.020262 0.872347,-1.37659 1.623062,-2.375744 1.40471,-1.869585 0.308232,-0.138787 0,0.684537 -0.10903,0.291232 -0.03625,0.7468 0.170849,0.161067"
       style="fill:none;stroke:#000000;stroke-width:2.01616;stroke-linecap:round;stroke-linejoin:miter;stroke-miterlimit:4;stroke-dasharray:none" />
    <path
       id="path874"
       d="m 47.353529,52.084264 c -0.911191,1.167742 -1.727503,2.406543 -2.733578,3.503225 -0.429969,0.46869 2.016202,-2.907572 2.135608,-3.100548 0.157227,-0.254103 -0.462618,0.395863 -0.683394,0.604003 -0.249231,0.234959 -1.694178,1.899285 -2.135611,1.691206 -0.544075,-0.256462 2.819124,-4.852282 0.597973,-2.496545 -0.341698,0.362403 -0.639756,0.765846 -1.025092,1.087207 -0.729405,0.608301 -1.486995,1.19457 -2.306458,1.691207 -0.07585,0.04596 -0.118868,-0.162775 -0.08543,-0.2416 0.294468,-0.694023 2.135608,-2.137857 2.135608,-2.617346 0,-0.295309 -0.400253,0.455123 -0.597971,0.684538 -0.326827,0.379221 -0.918524,0.958232 -1.281363,1.328805 -0.184461,0.188392 -0.523327,0.769762 -0.597971,0.523468 -0.18694,-0.616835 0.851827,-1.240302 1.025091,-1.812008 0.09408,-0.310456 -0.533869,0.408929 -0.768819,0.644269 -0.421974,0.422682 -1.266752,1.312117 -2.050183,1.127473 -0.629725,-0.148418 1.10175,-1.416562 1.025093,-1.328806 -0.224021,0.256452 -0.506792,0.462213 -0.76882,0.684535 -0.307607,0.260999 -0.620175,0.517023 -0.939667,0.765072 -0.579468,0.449888 -1.184983,0.790353 -0.59797,-0.281868 0.378002,-0.69045 1.091859,-1.164452 -0.256274,-0.161068 -0.279349,0.207915 -0.543929,0.439444 -0.854244,0.604002 -0.177585,0.09417 -0.453986,0.256544 -0.597969,0.120802 -0.385569,-0.363495 0.506504,-1.28854 0.341698,-1.28854 -0.663425,0 -1.465523,1.085836 -2.135609,1.328806 -0.51033,0.185042 -0.402306,-0.845605 -1.110516,-0.845605 -0.04179,0 -2.728657,0.07097 -2.819003,0 -0.190949,-0.150013 0.03005,-0.710639 -0.08543,-0.765069 -0.0499,-0.02351 -0.86435,0.632965 -1.110517,0.684537 -0.147243,0.03085 -0.878278,-0.01174 -1.025092,0.08053 -0.122396,0.07693 -0.615265,0.40267 -0.768819,0.40267 -0.01462,0 0.713845,-1.082473 0.59797,-0.966406 -0.08455,0.08469 -1.334556,1.85759 -1.537638,1.570408 -0.107407,-0.151887 0.467747,-0.581573 0.341697,-0.442935 -0.664876,0.73128 -1.021406,1.122261 -0.42712,0.281868"
       style="fill:none;stroke:#000000;stroke-width:2.01616;stroke-linecap:round;stroke-linejoin:miter;stroke-miterlimit:4;stroke-dasharray:none" />
    <path
       id="path876"
       d="m 24.886933,58.526969 c -0.313223,-0.01343 -0.626445,-0.02685 -0.939668,-0.04027 -0.02847,0 -0.107278,0.01718 -0.08543,0 1.007708,-0.791681 -0.616612,0.603071 1.025092,0.04027 0.476758,-0.163441 0.76017,-0.641335 1.19594,-0.885871 0.424142,-0.238011 0.847916,-0.04221 1.281365,-0.1208 1.224484,-0.221995 2.553625,-0.686252 3.844094,-0.442936 0.728142,0.13729 0.772174,0.701079 0.683395,1.328807 -0.02379,0.168257 -0.170849,0.652941 -0.170849,0.483201 0,-1.578455 3.217217,-0.76507 3.929519,-0.76507 1.111811,0 1.780559,-0.436864 2.819003,-0.724803 1.19782,-0.33213 1.81634,0.628234 2.135607,0.563735 0.333126,-0.0673 0.509645,-0.377962 0.854244,-0.442934 0.232215,-0.04379 6.010248,-0.132271 6.065128,-0.08054 0.05257,0.04958 0.05629,0.1876 0.170846,0.241602 0.118668,0.05594 0.281706,-0.08053 0.256274,-0.08053 -0.995959,0 1.617699,1.093746 2.446657,1.612946"
       style="fill:none;stroke:#000000;stroke-width:2.01616;stroke-linecap:round;stroke-linejoin:miter;stroke-miterlimit:4;stroke-dasharray:none" />
    <path
       id="path878"
       d="m 50.398159,40.995192 c -0.10368,0.488433 0.07779,1.127161 -0.311051,1.465302 -0.31431,0.273322 -0.853291,-0.08054 -1.281366,-0.08054 -0.442178,0 -1.306372,0.233744 -1.793912,0.08054 -0.639452,-0.200948 -1.308171,-0.440129 -2.050182,-0.362403 -1.261903,0.132185 -2.566865,0.02727 -3.844095,0.161067 -1.123516,0.117689 -2.198392,0.485305 -3.331547,0.604002 -1.234348,0.129298 -2.532681,-0.112098 -3.758671,0.08054 -1.595893,0.250753 -3.388083,0.677874 -5.040035,0.483201 -0.389838,-0.04594 -0.661247,-0.454865 -1.025091,-0.523468 -0.253682,-0.04784 -1.185506,0.170905 -1.36679,0 -0.07337,-0.06916 0.01845,-0.281868 -0.08543,-0.281868 -0.148672,0 -0.284749,0.08054 -0.427122,0.120801 -0.825768,-0.02684 -1.651536,-0.05369 -2.477304,-0.08054"
       style="fill:none;stroke:#000000;stroke-width:2.01616;stroke-linecap:round;stroke-linejoin:miter;stroke-miterlimit:4;stroke-dasharray:none" />
    <path
       id="path880"
       d="m 51.368471,46.326111 c -0.569496,0.52347 -1.138989,1.046938 -1.708485,1.570408 0.05696,-0.161066 0.207209,-0.649462 0.170847,-0.483203 -0.320885,1.467194 -0.776473,2.909542 -1.025091,4.389087 -0.02516,0.149816 0.256574,-0.19331 0.341697,-0.322134 0.458506,-0.693886 0.907723,-1.396619 1.281366,-2.134145 0.08681,-0.171354 0.112034,-0.375582 0.08543,-0.563734 -0.0195,-0.137784 -0.757027,0.06882 -0.427121,0.2416 0.79952,0.41875 1.708486,0.617427 2.562729,0.92614"
       style="fill:none;stroke:#000000;stroke-width:2.01616;stroke-linecap:round;stroke-linejoin:miter;stroke-miterlimit:4;stroke-dasharray:none" />
    <path
       id="path882"
       d="m 60.594299,52.406406 c -0.01392,-1.455 -1.614561,-1.074723 -2.733577,-1.12747 -0.492944,-0.02323 -1.357139,0.214986 -1.708487,-0.281869 -0.203023,-0.287098 -0.489928,-1.811909 -0.512546,-2.174411 -0.05358,-0.858827 0.120425,-1.765851 0,-2.617346 -0.131082,-0.92683 -0.439015,-1.784974 -0.512549,-2.738143 -0.05939,-0.769882 0.03786,-2.13667 -0.256271,-2.899216 -0.187408,-0.485863 -0.612798,-0.813992 -0.768818,-1.328806 -0.07957,-0.262569 -0.140662,-1.984883 -0.256274,-2.093875 -0.409502,-0.386058 -0.756594,0.419883 -0.854243,0.604002"
       style="fill:none;stroke:#000000;stroke-width:2.01616;stroke-linecap:round;stroke-linejoin:miter;stroke-miterlimit:4;stroke-dasharray:none" />
    <path
       id="path884"
       d="m 53.247808,30.742837 c 0.797292,-0.536892 1.794904,-0.879034 2.391881,-1.610673 0.173501,-0.21264 -0.423609,-0.372991 -0.683397,-0.483203 -0.06495,-0.02754 -0.127472,0.06764 -0.170846,0.1208 -0.527841,0.646906 -1.025094,1.315384 -1.537638,1.973076"
       style="fill:none;stroke:#000000;stroke-width:2.01616;stroke-linecap:round;stroke-linejoin:miter;stroke-miterlimit:4;stroke-dasharray:none" />
    <path
       id="path886"
       d="m 70.759793,49.748794 c -1.424848,3.253883 -0.975294,-2.70113 -1.195939,-1.973075 -0.09389,0.309796 0.0296,0.645474 0,0.966403 -0.056,0.607044 -0.194015,1.205506 -0.256274,1.81201 -0.0426,0.415021 -0.214157,1.555623 0.08543,1.248271 0.580251,-0.595298 0.911192,-1.369071 1.36679,-2.053609"
       style="fill:none;stroke:#000000;stroke-width:2.01616;stroke-linecap:round;stroke-linejoin:miter;stroke-miterlimit:4;stroke-dasharray:none" />
    <path
       id="path888"
       d="m 67.171971,41.775957 c 2.162426,0.204313 3.200451,1.517382 4.014942,3.181082 0.274409,0.560514 0.225809,1.135685 0.597973,1.691207 0.07546,0.112653 1.128047,1.09127 0.683394,1.28854 -0.442539,0.196329 -0.968142,0.13422 -1.452213,0.201333"
       style="fill:none;stroke:#000000;stroke-width:2.01616;stroke-linecap:round;stroke-linejoin:miter;stroke-miterlimit:4;stroke-dasharray:none" />
    <path
       id="path892"
       d="m 73.149914,53.410013 c 0.08304,-0.109109 0.269139,0.139655 0.402079,0.102055 0.377365,-0.106726 1.067769,-0.688588 1.360884,-0.94765 0.148619,-0.131352 0.229404,-0.332902 0.371149,-0.466536 0.21926,-0.206705 0.998937,-0.833789 1.113452,-1.049702 0.01912,-0.03605 -0.04775,-0.06292 -0.06186,-0.07289"
       style="fill:none;stroke:#000000;stroke-width:2.01616;stroke-linecap:round;stroke-linejoin:miter;stroke-miterlimit:4;stroke-dasharray:none" />
    <path
       id="path894"
       d="m 47.262197,45.435176 c 0.113406,0.01459 0.228311,0.06634 0.340221,0.04374 0.651467,-0.131605 -0.837958,-0.18528 -0.989735,-0.204109"
       style="fill:none;stroke:#000000;stroke-width:2.01616;stroke-linecap:round;stroke-linejoin:miter;stroke-miterlimit:4;stroke-dasharray:none" />
    <path
       id="path896"
       d="m 51.65414,75.133061 c 0.412604,-0.57017 0.144081,-1.233166 0.278362,-1.866142"
       style="fill:none;stroke:#000000;stroke-width:2.01616;stroke-linecap:round;stroke-linejoin:miter;stroke-miterlimit:4;stroke-dasharray:none" />
    <path
       id="path898"
       d="m 65.541337,42.125693 c 0.0058,-0.755114 -0.878877,-0.928165 -1.175309,-1.487083"
       style="fill:none;stroke:#000000;stroke-width:2.01616;stroke-linecap:round;stroke-linejoin:miter;stroke-miterlimit:4;stroke-dasharray:none" />
  </g>
</svg>
