<?xml version="1.0" encoding="UTF-8" standalone="no"?>
<svg
   xmlns:dc="http://purl.org/dc/elements/1.1/"
   xmlns:cc="http://creativecommons.org/ns#"
   xmlns:rdf="http://www.w3.org/1999/02/22-rdf-syntax-ns#"
   xmlns:svg="http://www.w3.org/2000/svg"
   xmlns="http://www.w3.org/2000/svg"
   xmlns:sodipodi="http://sodipodi.sourceforge.net/DTD/sodipodi-0.dtd"
   xmlns:inkscape="http://www.inkscape.org/namespaces/inkscape"
   sodipodi:docname="drawing_circled_square.svg"
   inkscape:version="1.0 (4035a4fb49, 2020-05-01)"
   id="svg8"
   version="1.1"
   viewBox="0 0 100 100"
   height="100mm"
   width="100mm">
  <defs
     id="defs2">
    <inkscape:path-effect
       hide_knots="false"
       only_selected="false"
       apply_with_radius="true"
       apply_no_radius="true"
       use_knot_distance="true"
       flexible="false"
       chamfer_steps="1"
       radius="45"
       mode="F"
       method="auto"
       unit="px"
       satellites_param="F,0,0,1,0,11.90625,0,1 @ F,0,0,1,0,11.90625,0,1 @ F,0,0,1,0,11.90625,0,1 @ F,0,0,1,0,11.90625,0,1 @ F,0,0,1,0,11.90625,0,1 @ F,0,0,1,0,11.90625,0,1 @ F,0,0,1,0,11.90625,0,1 @ F,0,0,1,0,11.90625,0,1 @ F,0,0,1,0,11.90625,0,1 @ F,0,0,1,0,11.90625,0,1 @ F,0,0,1,0,11.90625,0,1"
       lpeversion="1"
       is_visible="true"
       id="path-effect856"
       effect="fillet_chamfer" />
  </defs>
  <sodipodi:namedview
     inkscape:window-maximized="0"
     inkscape:window-y="0"
     inkscape:window-x="213"
     inkscape:window-height="1040"
     inkscape:window-width="1375"
     showgrid="false"
     inkscape:document-rotation="0"
     inkscape:current-layer="layer1"
     inkscape:document-units="mm"
     inkscape:cy="191.27367"
     inkscape:cx="163.72895"
     inkscape:zoom="1.4032056"
     inkscape:pageshadow="2"
     inkscape:pageopacity="0.0"
     borderopacity="1.0"
     bordercolor="#666666"
     pagecolor="#ffffff"
     id="base" />
  <metadata
     id="metadata5">
    <rdf:RDF>
      <cc:Work
         rdf:about="">
        <dc:format>image/svg+xml</dc:format>
        <dc:type
           rdf:resource="http://purl.org/dc/dcmitype/StillImage" />
        <dc:title />
      </cc:Work>
    </rdf:RDF>
  </metadata>
  <g
     id="layer1"
     inkscape:groupmode="layer"
     inkscape:label="Layer 1">
    <path
       sodipodi:nodetypes="cccccccccccc"
       inkscape:original-d="M 4.1482398,21.118312 20.17553,7.3536978 47.327645,3.9596835 79.193669,7.1651413 93.712508,24.700882 95.598071,61.846483 86.924479,91.449832 64.297717,95.786629 24.32377,94.843847 6.9765852,80.890677 4.7139089,53.172892 Z"
       inkscape:path-effect="#path-effect856"
       id="path854"
       d="M 13.180633,13.36108 A 35.088722,35.088722 158.30242 0 1 31.989838,5.8769093 L 35.513337,5.436472 A 105.57127,105.57127 179.30957 0 1 59.17411,5.1513397 l 8.173094,0.8221454 a 29.006967,29.006967 28.060432 0 1 19.439524,10.3624929 34.305376,34.305376 69.609193 0 1 7.529381,20.255844 l 0.678361,13.363721 a 70.259112,70.259112 96.712163 0 1 -2.744119,23.316856 l -1.978152,6.751517 a 19.498051,19.498051 137.74007 0 1 -15.041122,13.667152 107.77917,107.77917 175.45618 0 1 -22.8363,1.814831 L 36.22671,95.124577 A 35.114626,35.114626 20.081224 0 1 15.04626,87.381502 25.906642,25.906642 63.786606 0 1 6.0078688,69.023901 L 5.6826253,65.039668 A 373.07019,373.07019 87.161072 0 1 4.5038313,41.268495 L 4.3583174,33.022709 A 25.32832,25.32832 114.16612 0 1 13.180633,13.36108 Z"
       style="fill:none;stroke:#0000a1;stroke-width:2;stroke-linecap:butt;stroke-linejoin:miter;stroke-opacity:1;stroke-miterlimit:4;stroke-dasharray:none" />
  </g>
</svg>
