<?xml version="1.0" encoding="UTF-8" standalone="no"?>
<svg
   xmlns:dc="http://purl.org/dc/elements/1.1/"
   xmlns:cc="http://creativecommons.org/ns#"
   xmlns:rdf="http://www.w3.org/1999/02/22-rdf-syntax-ns#"
   xmlns:svg="http://www.w3.org/2000/svg"
   xmlns="http://www.w3.org/2000/svg"
   xmlns:sodipodi="http://sodipodi.sourceforge.net/DTD/sodipodi-0.dtd"
   xmlns:inkscape="http://www.inkscape.org/namespaces/inkscape"
   sodipodi:docname="drawing_audio_button_start.svg"
   inkscape:version="1.0 (4035a4fb49, 2020-05-01)"
   id="svg164"
   version="1.1"
   viewBox="0 0 100 100"
   height="100mm"
   width="100mm">
  <defs
     id="defs158">
    <inkscape:path-effect
       effect="skeletal"
       id="path-effect843"
       is_visible="true"
       lpeversion="1"
       pattern="M 0,5 C 0,2.24 2.24,0 5,0 7.76,0 10,2.24 10,5 10,7.76 7.76,10 5,10 2.24,10 0,7.76 0,5 Z"
       copytype="single_stretched"
       prop_scale="1"
       scale_y_rel="false"
       spacing="0"
       normal_offset="0"
       tang_offset="0"
       prop_units="false"
       vertical_pattern="false"
       hide_knot="false"
       fuse_tolerance="0" />
  </defs>
  <sodipodi:namedview
     inkscape:window-maximized="0"
     inkscape:window-y="10"
     inkscape:window-x="239"
     inkscape:window-height="1040"
     inkscape:window-width="1375"
     showgrid="false"
     inkscape:document-rotation="0"
     inkscape:current-layer="layer1"
     inkscape:document-units="mm"
     inkscape:cy="197.61015"
     inkscape:cx="187.09184"
     inkscape:zoom="1.4337225"
     inkscape:pageshadow="2"
     inkscape:pageopacity="0.0"
     borderopacity="1.0"
     bordercolor="#666666"
     pagecolor="#ffffff"
     id="base" />
  <metadata
     id="metadata161">
    <rdf:RDF>
      <cc:Work
         rdf:about="">
        <dc:format>image/svg+xml</dc:format>
        <dc:type
           rdf:resource="http://purl.org/dc/dcmitype/StillImage" />
        <dc:title></dc:title>
      </cc:Work>
    </rdf:RDF>
  </metadata>
  <g
     id="layer1"
     inkscape:groupmode="layer"
     inkscape:label="Layer 1">
    <ellipse
       style="fill:none;stroke:#000000;stroke-width:3.16942;stroke-linecap:round;stroke-linejoin:miter;stroke-miterlimit:4;stroke-dasharray:none"
       id="path877"
       cx="50"
       cy="50"
       rx="48.415295"
       ry="48.415291" />
    <path
       id="path839"
       d="M 26.452993,37.788992 26.296275,55.566787"
       style="fill:none;stroke:#000000;stroke-width:2.59255;stroke-linecap:round" />
    <path
       id="path841"
       d="M 43.8487,62.390586 26.296275,55.566787"
       style="fill:none;stroke:#000000;stroke-width:2.59255;stroke-linecap:round" />
    <path
       id="path843"
       d="m 26.452993,37.788992 17.23899,-4.84849 0.156717,29.450084"
       style="fill:none;stroke:#000000;stroke-width:2.59255;stroke-linecap:round" />
    <path
       sodipodi:nodetypes="czc"
       id="path845"
       d="m 49.333834,40.662169 c 0,0 2.434488,3.557539 2.369464,6.654161 -0.06502,3.096622 -2.056027,5.55685 -2.056027,5.55685"
       style="fill:none;stroke:#000000;stroke-width:2.59255;stroke-linecap:round" />
    <path
       id="path851"
       d="m 27.884331,38.252153 c 0.03664,0.16834 0.09649,0.332209 0.109921,0.505019 0.0326,0.419322 0.0084,0.842138 0.02748,1.262549 0.0084,0.185066 0.02477,0.370309 0.05496,0.552367 0.0069,0.04164 0.02788,0.139353 0.05497,0.110472 0.177369,-0.189173 0.194126,-0.509071 0.302283,-0.75753 0.200329,-0.460195 0.420739,-0.936681 0.659528,-1.373022 0.04393,-0.08029 0.05469,-0.236728 0.137401,-0.236728 0.110904,0 -0.09558,0.229507 -0.137401,0.347202 -0.05639,0.158667 -0.09081,0.326455 -0.137401,0.489238 -0.192335,0.671945 -0.425605,1.349502 -0.522127,2.051641 -0.02361,0.1718 -0.02155,0.347016 -0.02748,0.520802 -0.0032,0.09462 0,0.189382 0,0.284074 0,0.01579 -0.0086,0.05969 0,0.04734 0.198428,-0.284893 0.319281,-0.840912 0.439685,-1.152076 0.42126,-1.088676 0.100733,-0.258414 0.549607,-1.152077 0.381678,-0.759882 0.372409,-0.741355 0.192362,0.33142 -0.04251,0.253264 -0.100078,0.503193 -0.137402,0.757529 -0.220673,1.503891 -0.274803,2.156229 -0.274803,3.535136"
       style="fill:none;stroke:#000000;stroke-width:2.59255;stroke-linecap:round" />
    <path
       id="path853"
       d="m 32.088822,37.904954 c -0.10076,0.09469 -0.230119,0.159738 -0.302284,0.284072 -0.321939,0.554664 -1.356083,2.817475 -1.291576,3.187936 0.0032,0.01858 0.02115,-0.02983 0.02748,-0.04734 0.09455,-0.261654 0.180775,-0.527189 0.274801,-0.789093 0.264278,-0.7361 0.5537,-1.461907 0.934332,-2.130552 0.01312,-0.02306 0.355171,-0.507402 0.357246,-0.505018 0.08335,0.09574 -0.06721,0.260444 -0.08244,0.394545 -0.01244,0.109548 0.0136,0.222052 0,0.33142 -0.08151,0.65543 -0.283438,1.297803 -0.412205,1.941169 -0.04388,0.219209 -0.07539,0.441444 -0.109922,0.662836 -0.02045,0.131105 -0.03912,0.262611 -0.05497,0.394548 -0.0025,0.02085 -0.01065,0.08027 0,0.06313 0.520124,-0.836371 0.826269,-2.150601 1.236614,-3.093243 0.255992,-0.588059 0.229279,-0.534101 0.522127,-0.946911 0.03272,-0.04613 0.09869,-0.184293 0.109921,-0.126257 0.06709,0.346807 -0.182368,1.074802 -0.247323,1.357242 -0.242316,1.053652 -0.507438,2.100408 -0.741967,3.156372 -0.169731,0.764199 -0.158539,0.719853 -0.192363,1.341457 -8.88e-4,0.01576 -0.0037,0.06254 0,0.04734 0.420584,-1.710904 0.802788,-3.389978 1.401498,-5.034411 0.08074,-0.221769 0.158813,-0.444996 0.24732,-0.662839 0.04352,-0.107099 0.147973,-0.416391 0.164884,-0.299854 0.07539,0.519584 -0.165667,1.238489 -0.247323,1.720222 -0.161669,0.953777 -0.315337,1.918397 -0.384726,2.888081 -0.0082,0.115345 -0.0125,0.232357 0,0.3472 0.0035,0.03301 0.02002,-0.06256 0.02748,-0.09469 0.131096,-0.564663 0.223372,-1.140635 0.357245,-1.704441 0.186965,-0.787412 0.929598,-3.611327 1.648819,-4.024376 0.08658,-0.04973 0.03899,0.221235 0.02748,0.331419 -0.01777,0.170047 -0.04196,0.340162 -0.08244,0.505021 -0.317451,1.292748 -0.729515,2.568954 -0.934332,3.898119 -0.03766,0.244358 -0.03625,0.494537 -0.05496,0.741748 -0.0087,0.115773 -0.01941,0.23136 -0.02748,0.3472 -10e-4,0.01574 -0.0068,0.06106 0,0.04734 0.28453,-0.571915 0.465515,-1.87489 0.522126,-2.098987 0.178184,-0.705349 0.430349,-1.495205 0.714487,-2.162114 0.0097,-0.02292 0.447347,-1.015731 0.632048,-0.962694 0.03227,0.0093 -0.01822,0.291756 -0.1374,0.820656 -0.32213,1.429524 -0.637726,2.893806 -0.824411,4.355794 -0.04603,0.360507 -0.05944,0.725556 -0.08244,1.088949 -0.01363,0.215374 -0.02012,0.43128 -0.02748,0.647055 -0.0017,0.05256 -0.02194,0.204027 0,0.157819 0.45788,-0.964182 0.57194,-2.096391 0.906851,-3.124808 0.273383,-0.83949 0.838226,-2.05556 1.236614,-2.840736 0.276203,-0.544361 0.689016,-1.264563 1.016774,-1.799132 0.07911,-0.129023 0.162426,-0.254663 0.24732,-0.378765 0.01601,-0.0234 0.04934,-0.09215 0.05497,-0.06313 0.02733,0.141235 -0.317132,1.41016 -0.329764,1.467713 -0.280774,1.279233 -0.596659,2.548981 -0.90685,3.819211 -0.09786,0.400751 -0.207441,0.797717 -0.302285,1.199421 -0.05176,0.219213 -0.09707,0.440495 -0.137402,0.662838 -0.0056,0.03091 -0.0061,0.125449 0,0.09469 0.219521,-1.092606 0.40472,-2.199445 0.714491,-3.266843 0.314287,-1.082969 0.6618,-2.153169 1.016771,-3.219502 0.12156,-0.365173 0.264892,-0.720659 0.412204,-1.073166 0.07925,-0.189625 0.317171,-0.714768 0.329766,-0.50502 0.04808,0.800873 -0.422178,2.212819 -0.60457,2.96699 -0.216449,0.895002 -0.430615,1.79161 -0.604565,2.698698 -0.160682,0.837891 -0.470821,1.692927 -0.357245,2.540881 0.02428,0.181303 0.173653,-0.313613 0.219844,-0.489238 0.492115,-1.871145 0.915848,-3.682803 1.593859,-5.476306 0.128928,-0.341052 0.271116,-0.675368 0.412205,-1.010039 0.15641,-0.37102 0.248204,-0.614985 0.329763,-0.568149 0.0984,0.05651 -0.261421,2.308992 -0.274804,2.398843 -0.508189,3.412416 0.0678,-0.892657 -0.412205,2.809173 -0.13654,1.052999 -0.39254,2.279671 -0.274803,3.361536 0.0099,0.09116 0.04065,-0.177906 0.05496,-0.268291 0.04983,-0.314834 0.09478,-0.630694 0.137402,-0.946912 0.220526,-1.63586 0.419095,-3.244813 0.90685,-4.813469 0.115891,-0.372707 0.263075,-0.732094 0.412205,-1.088949 0.07925,-0.189623 0.31869,-0.714877 0.329766,-0.50502 0.01128,0.213943 -0.188056,1.389199 -0.192364,1.420369 -0.182843,1.323081 -0.349983,2.647748 -0.494647,3.97703 -0.06352,0.583762 -0.268865,1.961611 -0.164882,2.635571 0.01286,0.08338 0.158587,0.201561 0.192365,0.126253 0.160835,-0.358602 0.17835,-0.780112 0.274802,-1.167857 0.248498,-0.998986 0.41876,-1.619237 0.687008,-2.572442 0.05572,-0.198011 0.130446,-0.779508 0.192361,-0.58393 0.07739,0.244427 0.0064,1.49431 0,1.688659 -0.05203,1.583787 -0.139321,3.16638 -0.192361,4.750341"
       style="fill:none;stroke:#000000;stroke-width:2.59255;stroke-linecap:round" />
    <path
       id="path855"
       d="m 42.284024,40.398487 c 0.04579,-0.126257 0.127305,-0.242527 0.137401,-0.378766 0.0092,-0.124574 -0.0608,-0.240444 -0.08244,-0.362982 -0.04252,-0.240722 -0.09352,-0.481083 -0.109921,-0.725965 -0.05998,-2.893357 0.04837,0.108327 -0.164883,-2.414625 -0.0377,-0.445946 -0.03256,-0.881443 -0.109921,-1.325678 -0.01137,-0.06523 -0.01395,-0.236478 -0.05496,-0.18938 -0.0891,0.102339 -0.06621,0.197998 -0.08245,0.3472"
       style="fill:none;stroke:#000000;stroke-width:2.59255;stroke-linecap:round" />
    <path
       id="path857"
       d="m 42.366463,58.98952 c 0,-1.011322 0.0084,-1.519473 -0.10992,-2.793391 -0.07667,-0.825604 -0.230991,-1.639454 -0.329765,-2.46197 -0.06614,-0.550753 -0.127279,-1.102825 -0.164881,-1.657096 -0.01743,-0.256994 0.01299,-0.515969 0,-0.77331 -0.0056,-0.10964 -0.06672,-0.423975 -0.08245,-0.315637 -0.112951,0.778428 0.09249,1.72255 0.109923,2.493534 0.02766,1.223292 0.02748,2.453263 0.02748,3.677172 0,0.352462 0,0.704924 0,1.057384 0,0.215687 0,0.431373 0,0.647057 0,0.05261 0,0.210425 0,0.157819 0,-0.889531 -0.03317,-1.744125 -0.08244,-2.63557 -0.02965,-0.536431 -0.06008,-1.072855 -0.08244,-1.609751 -0.0743,-1.783488 -0.05497,-1.652213 -0.05497,-3.472008 0,-1.668044 0.02748,-3.334915 0.02748,-5.002851 0,-0.210424 0.0067,0.420988 0,0.631275 -0.01184,0.373846 -0.03637,0.747024 -0.05497,1.120513 -0.121311,2.4384 -0.301323,4.870229 -0.439685,7.307001 -0.02298,0.404754 -0.04268,0.809835 -0.05497,1.215203 -0.006,0.199783 0,0.399808 0,0.59971 0,0.01579 0.0013,0.06306 0,0.04734 -0.217499,-2.747995 -0.242496,-5.496021 -0.219844,-8.253913 0.01575,-1.915526 0.02193,-0.862827 0.05497,-2.30415 0.0029,-0.126212 0,-0.50502 0,-0.378766 0,3.634397 0.02748,7.270268 0.02748,10.905267 0,0.03682 0.0069,-0.07452 0,-0.110474 -0.20571,-1.06324 -0.157743,-0.296427 -0.357245,-1.862259 -0.334363,-2.624308 -0.247324,-5.279114 -0.247324,-7.922496 0,-0.583927 0.02257,-1.16843 0,-1.751785 -0.0019,-0.04845 -0.02281,-0.190237 -0.02748,-0.142035 -0.04299,0.44443 0.01096,0.89448 0,1.341456 -0.05901,2.406441 -0.153313,4.825535 -0.247324,7.228093 -0.08764,2.239738 -0.0774,0.750688 -0.109921,2.525097 -0.003,0.163045 0,0.326159 0,0.489238 0,0.0263 0,0.105214 0,0.07891 0,-1.365551 -0.270784,-2.979513 -0.357242,-4.21376 -0.100742,-1.438101 -0.07746,-2.762256 -0.109923,-4.197973 -0.02428,-1.073679 -0.06173,-1.845766 -0.109921,-2.888081 -0.0087,-0.189407 -0.01254,-0.379247 -0.02748,-0.568145 -0.0034,-0.0432 -0.01214,-0.165907 -0.02748,-0.126257 -0.116004,0.299786 -0.02748,1.739977 -0.02748,1.95695 0,2.002473 0.03873,4.011146 0,6.01289 -0.100592,5.199285 -0.08244,-0.553157 -0.08244,3.251065 0,0.18938 0,0.378762 0,0.568146 0,0.03682 0.0048,0.146871 0,0.110472 -0.09851,-0.735481 -0.211014,-1.471886 -0.302284,-2.20946 -0.07803,-0.630527 -0.159496,-1.260755 -0.219843,-1.893824 -0.115694,-1.213681 -0.267528,-3.425581 -0.329763,-4.67143 -0.04792,-0.959132 -0.03053,-1.930534 -0.109923,-2.888081 -0.01433,-0.172823 -0.0035,0.347249 0,0.5208 0.03041,1.484122 0.02279,0.245961 0.109923,2.067426 0.1121,2.343423 0.08244,4.692966 0.08244,7.038709 0,0.241989 0,0.483979 0,0.725966 0,0.05787 0.04036,0.138827 0,0.173602 -0.02263,0.01948 -0.10539,-0.273005 -0.192363,-0.741748 -0.08069,-0.434912 -0.17461,-0.868295 -0.219842,-1.309895 -0.283976,-2.772457 -0.372533,-4.052376 -0.439685,-6.549473 -0.02057,-0.764976 0.0815,-2.782269 -0.08244,-3.598265 -0.0074,-0.03693 -0.05222,0.05692 -0.05496,0.09469 -0.01598,0.220184 -0.0064,0.442014 0,0.662836 0.01185,0.405385 0.03659,0.810138 0.05496,1.215203 0.135697,2.992518 0.01897,5.89762 -0.08244,8.90097 -0.01226,0.362864 -0.02061,0.7259 -0.02748,1.08895 -0.0023,0.120964 0.0944,0.308768 0,0.362981 -0.08774,0.05039 -0.03809,-0.220645 -0.05497,-0.331418 -0.101668,-0.667281 -0.269301,-1.821659 -0.329764,-2.414625 -0.216156,-2.119881 -0.242799,-4.259574 -0.274806,-6.391655 -0.01145,-0.762676 0.0465,-1.52744 0,-2.288368 -0.0038,-0.06141 -0.03385,-0.230201 -0.05496,-0.173602 -0.171311,0.459121 0.06894,2.553121 0.08245,2.888081 0.07695,1.908949 0.109922,3.818181 0.109922,5.728817 0,0.626012 0,1.252025 0,1.878042 0,0.04209 0.004,0.168081 0,0.126253 -0.0132,-0.136343 -0.01833,-0.273552 -0.02748,-0.410329 -0.0458,-0.3472 -0.09699,-0.693524 -0.1374,-1.041602 -0.198644,-1.711214 -0.22838,-2.263832 -0.412205,-4.071721 -0.699231,-6.876807 0.151431,1.759721 -0.357243,-3.535135 -0.03552,-0.369731 0.0075,-0.771876 -0.137403,-1.104731 -0.02254,-0.05179 -0.0034,0.115861 0,0.173601 0.01497,0.258053 0.03736,0.515475 0.05497,0.77331 0.07399,1.083624 0.182128,2.164986 0.219844,3.251066 0.03467,0.998275 -0.06165,3.081959 -0.08244,4.150628 -0.0062,0.320818 0.02568,0.643146 0,0.962693 -0.0031,0.03772 -0.07181,0.09899 -0.08244,0.06313 -0.07671,-0.258857 -0.09483,-0.535888 -0.137401,-0.804875 -0.322268,-2.035856 -0.484035,-4.036748 -0.522127,-6.107581 -0.07731,-4.202853 0.09263,-0.203809 -0.08244,-3.345753 -0.01201,-0.215503 0.0043,-0.434207 -0.02748,-0.647058 -0.0056,-0.03737 -0.05327,0.05684 -0.05496,0.09469 -0.0169,0.378271 -0.0133,0.757837 0,1.136295 0.02334,0.663626 0.08415,1.325005 0.109922,1.988514 0.108893,2.803697 0.0385,3.368556 -0.05496,6.723074 -0.0135,0.484185 -0.03521,0.968026 -0.05496,1.45193 -0.0077,0.189467 0.01258,0.384111 -0.02748,0.568146 -0.01405,0.06455 -0.04626,-0.12361 -0.05496,-0.189382 -0.119664,-0.903202 -0.250865,-1.805412 -0.329765,-2.71448 -0.191274,-2.203825 -0.138363,-4.447819 -0.192361,-6.659945 -0.01131,-0.462872 -0.02119,-0.925806 -0.02748,-1.388804 -0.0028,-0.210399 0.01588,-0.421636 0,-0.631274 -0.0028,-0.03776 -0.05044,-0.132243 -0.05497,-0.09469 -0.121583,1.012476 0.02098,2.578932 0.02748,3.566701 0.0183,2.77452 0.0062,2.010324 -0.08244,4.860813 -0.01977,0.636477 -0.03628,1.273083 -0.05496,1.909606 -0.0088,0.299869 -0.01969,0.599657 -0.02748,0.899564 -0.0013,0.05258 0.01592,0.207164 0,0.15782 -0.167548,-0.519598 -0.260977,-1.433786 -0.302284,-1.878043 -0.195183,-2.099193 -0.153682,-4.206438 -0.247323,-6.312744 -0.02433,-0.547301 -0.05392,-1.094277 -0.08244,-1.641314 -0.01728,-0.331492 -0.0247,-0.66399 -0.05496,-0.994257 -0.0065,-0.07115 -0.04768,-0.276215 -0.05496,-0.205162 -0.06743,0.658402 0.0091,1.325924 0.02748,1.988514 0.04699,1.700087 0.09039,2.019328 0.05496,3.803427 -0.02373,1.195006 -0.09153,2.388326 -0.137402,3.582483 -0.0085,0.220983 -0.0088,0.882994 -0.02748,0.662838 -0.25189,-2.965511 -0.405533,-5.912203 -0.522126,-8.885188 -0.01269,-0.323581 -0.09309,-1.707836 -0.137402,-2.225242 -0.0054,-0.06369 -0.02285,-0.253156 -0.02748,-0.189384 -0.08276,1.140638 0.211436,2.343895 0.274803,3.472012 0.09985,1.777539 0.04364,2.9615 0,4.76612 -0.01615,0.668172 -0.0362,1.336214 -0.05497,2.004299 -0.0087,0.310392 0.0065,0.623037 -0.02748,0.931128 -0.0041,0.03758 -0.07716,0.100515 -0.08244,0.06313 -0.21061,-1.491736 -0.320814,-3.2071 -0.357245,-4.718778 -0.01799,-0.746723 0.01548,-1.494228 0,-2.241023 -0.029,-1.398962 -0.179138,-2.730744 -0.384725,-4.103284 -0.02273,-0.151778 -0.01811,-0.309577 -0.05497,-0.457674 -0.01888,-0.07588 -0.0017,0.157843 0,0.236727 0.0074,0.336737 0.01377,0.673562 0.02748,1.010039 0.08416,2.066296 0.09735,4.117032 0.05496,6.186491 -0.03251,1.587422 -0.05102,1.363308 -0.08244,2.572441 -0.0019,0.07362 0,0.294596 0,0.220947 0,-0.874911 -0.288205,-1.720899 -0.357245,-2.588223 -0.109044,-1.369903 -0.166667,-2.74483 -0.219844,-4.119066 -0.101491,-2.622901 0.08662,-0.662232 -0.05496,-2.288372 -0.0064,-0.07402 0.0085,-0.282891 -0.02748,-0.220945 -0.04323,0.07447 -0.0095,0.17953 0,0.268291 0.172913,1.608714 0.163035,0.55258 0.274803,2.588226 0.07328,1.334679 0.07335,2.593877 0,3.929682 -0.02753,0.501518 -0.09923,0.998677 -0.137402,1.499279 -0.01826,0.239508 0.01579,0.902687 -0.109922,0.710181 -0.338791,-0.518846 -0.560111,-2.097247 -0.659527,-2.635568 -0.399178,-2.161462 -0.796931,-4.409315 -0.796931,-6.628383 0,-0.05261 -0.0072,0.105871 0,0.157819 0.02952,0.211891 0.08851,0.418109 0.109922,0.631273 0.03367,0.335121 0.04697,0.672832 0.05496,1.010041 0.03448,1.455365 0.02654,2.932078 0,4.387357 -0.0023,0.123434 -0.07835,2.547262 -0.192361,2.80917 -0.03304,0.0759 -0.01087,-0.169849 -0.02748,-0.25251 -0.06594,-0.328207 -0.154693,-0.650057 -0.219843,-0.978475 -0.209673,-1.056975 -0.394669,-2.179232 -0.522126,-3.251062 -0.102751,-0.86407 -0.116967,-1.739957 -0.219842,-2.604008 -0.04698,-0.394583 -0.19514,-1.565089 -0.219843,-1.167859 -0.05809,0.934222 0.223898,2.031471 0.274803,2.966992 0.03716,0.682875 0.04055,1.367639 0.05496,2.051641 0.01307,0.620661 0.02137,1.241458 0.02748,1.862261 0.0031,0.310357 0,0.620754 0,0.93113 0,0.0526 0,0.210424 0,0.157817 0,-0.830813 -0.139279,-1.649547 -0.192362,-2.477751 -0.163363,-2.548729 0.0674,-0.187622 -0.164883,-2.493533 -0.02546,-0.25279 -0.05655,-0.5048 -0.08244,-0.75753 -0.01075,-0.105014 0.0648,-0.315638 -0.02748,-0.315638 -0.09363,0 -0.05134,0.208431 -0.05496,0.315638 -0.01475,0.436302 0.0062,0.873319 0,1.309893 -0.01214,0.857626 -0.01319,1.716042 -0.05496,2.572445 -0.04987,1.022413 -0.146562,2.041119 -0.219843,3.061678"
       style="fill:none;stroke:#000000;stroke-width:2.59255;stroke-linecap:round" />
    <path
       id="path859"
       d="m 28.296516,53.055526 c 0.19237,0.336686 0.317366,0.739195 0.577107,1.010051 0.116414,0.121396 0.312607,0.04477 0.467165,0.07891 0.674736,0.149037 1.34084,0.317975 1.978583,0.599709 0.300893,0.132926 0.632385,0.476738 0.961812,0.599712 0.343055,0.12806 0.332501,0.03314 0.604568,0.18938 0.456867,0.262378 0.83569,0.700881 1.291574,0.962694 0.265819,0.15266 0.683202,0.371105 0.934332,0.473456 0.508023,0.207054 1.081652,0.235982 1.593859,0.441892 0.655841,0.263653 1.226195,0.734533 1.868662,1.025821 0.248337,0.112594 0.525281,0.121251 0.769449,0.236728 0.725705,0.343222 -0.766554,-0.1 0.687009,0.347201 0.227238,0.06991 0.458276,0.01322 0.687008,0.07891"
       style="fill:none;stroke:#000000;stroke-width:2.59255;stroke-linecap:round" />
  </g>
</svg>
