<?xml version="1.0" encoding="UTF-8" standalone="no"?>
<svg
   xmlns:dc="http://purl.org/dc/elements/1.1/"
   xmlns:cc="http://creativecommons.org/ns#"
   xmlns:rdf="http://www.w3.org/1999/02/22-rdf-syntax-ns#"
   xmlns:svg="http://www.w3.org/2000/svg"
   xmlns="http://www.w3.org/2000/svg"
   xmlns:sodipodi="http://sodipodi.sourceforge.net/DTD/sodipodi-0.dtd"
   xmlns:inkscape="http://www.inkscape.org/namespaces/inkscape"
   width="400mm"
   height="300mm"
   viewBox="0 0 400 300"
   version="1.1"
   id="svg870"
   inkscape:version="1.0 (4035a4fb49, 2020-05-01)"
   sodipodi:docname="me_name.svg">
  <defs
     id="defs864" />
  <sodipodi:namedview
     id="base"
     pagecolor="#ffffff"
     bordercolor="#666666"
     borderopacity="1.0"
     inkscape:pageopacity="0.0"
     inkscape:pageshadow="2"
     inkscape:zoom="0.59782777"
     inkscape:cx="510.03715"
     inkscape:cy="526.26639"
     inkscape:document-units="mm"
     inkscape:current-layer="layer1"
     inkscape:document-rotation="0"
     showgrid="false"
     inkscape:window-width="1920"
     inkscape:window-height="1017"
     inkscape:window-x="-8"
     inkscape:window-y="-8"
     inkscape:window-maximized="1" />
  <metadata
     id="metadata867">
    <rdf:RDF>
      <cc:Work
         rdf:about="">
        <dc:format>image/svg+xml</dc:format>
        <dc:type
           rdf:resource="http://purl.org/dc/dcmitype/StillImage" />
        <dc:title></dc:title>
      </cc:Work>
    </rdf:RDF>
  </metadata>
  <g
     inkscape:label="Layer 1"
     inkscape:groupmode="layer"
     id="layer1">
    <rect
       y="21.500959"
       x="21.500959"
       height="256.99808"
       width="356.99808"
       id="rect846"
       style="fill:none;stroke:#000000;stroke-width:3.00192;stroke-linecap:round;stroke-linejoin:round;stroke-miterlimit:4;stroke-dasharray:none" />
    <rect
       y="151.38638"
       x="51.386379"
       height="97.227234"
       width="297.22723"
       id="rect848"
       style="fill:none;stroke:#000000;stroke-width:2.77276;stroke-linecap:round;stroke-linejoin:round;stroke-miterlimit:4;stroke-dasharray:none" />
    <text
       id="text852"
       y="86.90097"
       x="120.08138"
       style="font-style:normal;font-weight:normal;font-size:61.9204px;line-height:1.25;font-family:sans-serif;fill:none;fill-opacity:1;stroke:#000000;stroke-width:2;stroke-miterlimit:4;stroke-dasharray:none;stroke-opacity:1"
       xml:space="preserve"><tspan
         style="fill:none;stroke:#000000;stroke-width:2;stroke-miterlimit:4;stroke-dasharray:none;stroke-opacity:1"
         y="86.90097"
         x="120.08138"
         id="tspan850"
         sodipodi:role="line">Hello</tspan></text>
    <text
       id="text856"
       y="115.71197"
       x="123.45377"
       style="font-style:normal;font-weight:normal;font-size:22.5306px;line-height:1.25;font-family:sans-serif;fill:none;fill-opacity:1;stroke:#000000;stroke-width:1;stroke-miterlimit:4;stroke-dasharray:none;stroke-opacity:1"
       xml:space="preserve"><tspan
         style="fill:none;stroke:#000000;stroke-width:1;stroke-miterlimit:4;stroke-dasharray:none;stroke-opacity:1"
         y="115.71197"
         x="123.45377"
         id="tspan854"
         sodipodi:role="line">my name is...</tspan></text>
    <path
       id="path862"
       d="m 126.42499,114.73909 c 0.28481,-0.49588 0.12473,-1.05187 0.218,-1.56611 0.17898,-0.98676 0.291,-2.2194 0.14534,-3.24149 -0.17994,-1.26261 -1.06721,-3.41936 -0.65401,-4.66192 0.0576,-0.17311 0.2813,0.60865 0.29067,0.65558 0.11848,0.59381 0.14533,1.14425 0.14533,1.74822 0,1.13546 0.21801,2.24759 0.21801,3.38718"
       style="fill:none;stroke:#000000;stroke-width:1;stroke-linecap:round;stroke-linejoin:round;stroke-miterlimit:4;stroke-dasharray:none;stroke-opacity:1" />
    <path
       id="path864"
       d="m 127.22433,107.09063 c 1.16083,-0.8941 2.37851,-3.33744 4.21474,-2.87728 0.26652,0.0668 0.6958,0.52311 0.87201,0.65558 0.2716,0.20419 0.53697,0.33852 0.79935,0.58274 0.12807,0.11921 0.15639,0.32489 0.29067,0.43706 0.21228,0.17732 0.51873,0.21824 0.72668,0.40063 0.66633,0.58445 1.01735,4.7851 1.01735,5.60888 0,0.68257 0.14533,1.33218 0.14533,2.00316 0,0.31565 0,0.6313 0,0.94696 0,0.1214 -0.1214,0.36421 0,0.36421 0.24402,0 -0.0225,-0.48962 -0.0727,-0.72843 -0.16841,-0.80185 -0.13208,-1.69475 -0.21801,-2.51306 -0.11292,-1.07532 -0.48365,-2.06044 -0.72668,-3.09581 -0.0252,-0.10727 0.0925,-0.87411 -0.14533,-0.87411 -0.12417,0 0.12608,2.88879 0.14533,3.16865 0.0405,0.58879 -0.12319,3.87175 0.14534,4.00634"
       style="fill:none;stroke:#000000;stroke-width:1;stroke-linecap:round;stroke-linejoin:round;stroke-miterlimit:4;stroke-dasharray:none;stroke-opacity:1" />
    <path
       id="path866"
       d="m 135.14513,108.11042 c -0.0247,-2.02568 1.1955,-3.03941 2.83404,-3.86065 0.21681,-0.10866 0.65636,0.0728 0.87202,0.0728 0.83285,0 1.09221,-0.0348 1.67136,0.40064 0.1361,0.10232 0.91072,0.51705 0.94468,0.61916 0.0273,0.0821 0.006,0.55263 0.0727,0.61916 0.29419,0.29489 0.2937,0.6958 0.58135,1.05622 0.0268,0.0335 0.26942,0.18485 0.29067,0.29137 0.29754,1.49128 0.72668,2.93868 0.72668,4.55265 0,0.79667 0.0878,1.68085 -0.14534,2.44023 -0.11637,0.3791 -0.27475,0.78878 -0.29067,0.76484 -0.265,-0.39845 0.12264,-2.52895 0,-3.20507 -0.20512,-1.13089 -0.29392,-2.25697 -0.50867,-3.38717 -0.1174,-0.61782 0.0465,-1.3301 -0.58135,-1.56612"
       style="fill:none;stroke:#000000;stroke-width:1;stroke-linecap:round;stroke-linejoin:round;stroke-miterlimit:4;stroke-dasharray:none;stroke-opacity:1" />
    <path
       id="path868"
       d="m 147.93466,104.43188 c 0.55818,0.77602 0.86256,1.71545 1.38069,2.51306 0.20786,0.49165 0.65718,0.80603 0.94468,1.23833 0.76071,1.14379 0.89564,2.65651 1.23536,3.93349 0.18627,0.70019 0.50867,1.44342 0.50867,2.18528 0,0.35856 -0.25453,-0.67413 -0.436,-0.98338 -0.50931,-0.8679 -0.38532,-0.50144 -0.79935,-1.42042 -0.91676,-2.03485 -1.66202,-4.06398 -2.83405,-5.97309"
       style="fill:none;stroke:#000000;stroke-width:1;stroke-linecap:round;stroke-linejoin:round;stroke-miterlimit:4;stroke-dasharray:none;stroke-opacity:1" />
    <path
       id="path870"
       d="m 152.1494,114.48414 c 1.00795,-0.89411 1.5192,-2.09072 1.67136,-3.38717 0.15325,-1.30574 1.23023,-2.46209 1.67136,-3.71497 0.0863,-0.245 0.0621,-0.57186 0.14533,-0.80127 0.17004,-0.46872 0.53641,-0.90718 0.72668,-1.38401 0.0603,-0.1512 0.10302,-0.55231 0.21801,-0.43705 0.0648,0.0649 -0.90713,2.08552 -1.16269,2.95012 -0.49146,1.66267 -1.42456,3.16574 -2.0347,4.77118 -0.0769,0.20239 -0.53716,1.67665 -0.65401,1.74823 -0.18043,0.11053 -0.48689,0.0656 -0.58134,0.25494 -0.11286,0.22627 -0.0738,1.51514 -0.21801,1.96675 -0.35353,1.10745 -0.94519,2.85563 -2.18003,3.35076 -0.38098,0.15276 -1.29032,0.0728 -1.45336,0.0728"
       style="fill:none;stroke:#000000;stroke-width:1;stroke-linecap:round;stroke-linejoin:round;stroke-miterlimit:4;stroke-dasharray:none;stroke-opacity:1" />
    <path
       id="path872"
       d="m 169.80768,113.57361 c -0.45735,0.31379 -0.24279,0.9478 -0.50867,1.34759 -0.30984,0.46587 -0.65401,-2.66611 -0.65401,-2.69517 0,-0.99406 0.19283,-1.93302 0.29067,-2.91371 0.10059,-1.00831 0,-2.08107 0,-3.0958 0,-0.29238 0.21675,-0.91556 -0.0727,-0.87411 -0.15591,0.0223 -0.29067,0.1214 -0.43601,0.18211"
       style="fill:none;stroke:#000000;stroke-width:1;stroke-linecap:round;stroke-linejoin:round;stroke-miterlimit:4;stroke-dasharray:none;stroke-opacity:1" />
    <path
       id="path874"
       d="m 168.42696,105.52452 c 0.46024,0.27923 0.8447,0.78794 1.38072,0.83768 0.21757,0.0202 0.67716,-0.87065 0.87202,-1.05621 0.47461,-0.45197 0.41455,-0.12956 0.87201,-0.47348 0.49793,-0.37434 -0.0528,-0.1431 0.43601,-0.43705 0.49948,-0.30041 2.56502,-0.52741 3.19738,-0.40064 0.17087,0.0343 0.32643,0.27706 0.43601,0.40064 0.31107,0.35079 0.34121,0.7738 0.50867,1.16548 0.35818,0.83776 0.88592,1.73654 1.01735,2.65875 0.0456,0.32026 -0.053,0.66436 0,0.98337 0.15833,0.95228 0.24385,1.91417 0.43601,2.87728 0.0647,0.32447 0.16812,0.65836 0.218,0.98337 0.0375,0.24451 -0.0549,3.09427 -0.29067,2.14886"
       style="fill:none;stroke:#000000;stroke-width:1;stroke-linecap:round;stroke-linejoin:round;stroke-miterlimit:4;stroke-dasharray:none;stroke-opacity:1" />
    <path
       id="path876"
       d="m 184.26858,104.54114 c -0.95885,-0.35597 -1.30895,0.34787 -0.58134,0.18211 0.61095,-0.13919 1.18334,-0.42057 1.81669,-0.47348 0.3489,-0.0291 0.5596,-0.18784 0.87202,-0.25495 0.65528,-0.14075 1.96981,-0.12643 2.54337,0.21853 0.86552,0.52056 1.45149,2.02745 1.59869,2.98654 0.0767,0.4999 -0.0677,1.03729 0.0727,1.5297 0.0607,0.21289 0.22801,0.39932 0.29067,0.61916 0.222,0.77886 0,4.02997 0,5.06255 0,0.23067 0,-0.46133 0,-0.692 0,-0.47149 -0.0727,-0.91376 -0.0727,-1.38401 0,-1.04085 0.19421,-2.64634 -0.87201,-3.31433 -0.28478,-0.17842 -0.63126,-0.12428 -0.94468,-0.21853 -1.41114,-0.42436 -2.63144,0.22239 -3.92407,0.54632 -0.18256,0.0457 -0.71874,0.57022 -0.87201,0.65558 -0.17374,0.0968 -0.42487,0.0411 -0.58134,0.14568 -0.45698,0.30539 -1.02855,0.99604 -1.23535,1.56612 -0.2304,0.63509 0.24675,1.34706 0.50867,1.78464 0.42865,0.71614 1.35003,1.63127 2.2527,1.85749 0.50811,0.12733 0.92903,-0.10666 1.38069,-0.18211 0.35811,-0.0598 0.8553,0.0105 1.16269,-0.18211 0.4714,-0.29534 0.81283,-0.84895 1.23535,-1.2019 0.36677,-0.30638 1.09002,-0.7719 1.09002,-1.27474"
       style="fill:none;stroke:#000000;stroke-width:1;stroke-linecap:round;stroke-linejoin:round;stroke-miterlimit:4;stroke-dasharray:none;stroke-opacity:1" />
    <path
       id="path878"
       d="m 197.27612,114.04709 c -0.31479,-0.78711 -0.0521,-1.11234 0.0727,-1.82106 0.27857,-1.5824 0.0727,-3.34776 0.0727,-4.95329 0,-0.54407 -0.14534,-0.97953 -0.14534,-1.49328 0,-0.16996 0.10602,-0.64274 0,-0.50989 -0.56449,0.70731 -0.24705,1.86437 -0.29067,2.69517 -0.044,0.83902 -0.0727,1.67073 -0.0727,2.51307"
       style="fill:none;stroke:#000000;stroke-width:1;stroke-linecap:round;stroke-linejoin:round;stroke-miterlimit:4;stroke-dasharray:none;stroke-opacity:1" />
    <path
       id="path880"
       d="m 198.51147,106.1801 c 1.05631,-0.55861 1.80317,-1.59711 2.90671,-2.03959 0.29994,-0.12026 0.64289,-0.0701 0.94469,-0.14569 0.15656,-0.0392 0.55987,-0.23467 0.72667,-0.10926 1.41122,1.06096 1.11986,2.00246 1.30803,3.6057 0.12172,1.03711 0.54859,2.00266 0.65401,3.05939 0.10951,1.09777 0.218,2.21303 0.218,3.31433 0,0.37455 0.14533,0.69482 0.14533,1.05622 0,0.10926 0,0.43706 0,0.32779 0,-1.25887 0.11358,-2.57193 0,-3.82423 -0.0883,-0.97363 -0.89162,-3.26519 -0.50867,-4.22487 0.2732,-0.68462 1.94247,-2.52027 2.68871,-2.84086 0.61863,-0.26576 2.83205,0.0287 3.41539,0.14569 0.22166,0.0444 0.93838,0.53368 1.01735,0.692 0.0582,0.11666 -0.0582,0.3204 0,0.43706 0.17067,0.34216 0.47845,0.70425 0.65401,1.05621 0.18717,0.37525 -0.044,1.04764 0.0727,1.45686 0.2868,1.00624 0.65401,1.89605 0.65401,2.95012 0,1.19254 0.21977,2.58324 -0.43601,3.56928 -0.024,0.0361 0.0605,0.21244 -0.0727,0.14569 -0.10191,-0.0511 0.1241,-2.00884 0.14534,-2.2217 0.0723,-0.72485 0.0727,-1.45269 0.0727,-2.18528"
       style="fill:none;stroke:#000000;stroke-width:1;stroke-linecap:round;stroke-linejoin:round;stroke-miterlimit:4;stroke-dasharray:none;stroke-opacity:1" />
    <path
       id="path882"
       d="m 197.27612,114.04709 c 0,0.27923 0,0.55846 0,0.83769 0,0.27923 0,-0.55846 0,-0.83769 0,-1.89548 0.36295,-1.80117 -0.36331,-3.56928"
       style="fill:none;stroke:#000000;stroke-width:1;stroke-linecap:round;stroke-linejoin:round;stroke-miterlimit:4;stroke-dasharray:none;stroke-opacity:1" />
    <path
       id="path884"
       d="m 227.21526,114.66625 c 0.45477,0.13919 -1.47664,0.16973 -1.38069,0.14569 0.79737,-0.19983 -0.23266,0.65742 -0.79934,0.72842 -0.17714,0.0222 -2.0347,0.0994 -2.0347,-0.14568 0,-0.0107 0.40073,0.0177 0.43601,0 0.0727,-0.0364 -0.13783,-0.0959 -0.21801,-0.10927 -0.98724,-0.16494 0.18626,0.13204 -1.01735,-0.10926 -1.56248,-0.31325 -0.40025,-0.28455 -1.09001,-0.83769 -0.83354,-0.66843 -0.61706,0.12841 -1.38069,-1.0198 -0.21345,-0.32094 -0.47234,-0.68592 -0.65401,-1.01979 -0.029,-0.0533 0,-0.24281 0,-0.18211 0,0.41132 0.0526,1.03108 -0.50868,0.32779 -0.22064,-0.27647 -0.086,-1.05132 -0.218,-1.60253 -0.0769,-0.32111 -0.21921,-0.6246 -0.29067,-0.94695 -0.021,-0.0948 0,-0.3885 0,-0.29138 0,0.15302 0.0884,0.53842 -0.0727,0.61917 -0.30602,0.15337 0.70182,-2.59458 0.50868,-1.52969 -0.01,0.0534 -0.0343,0.10726 -0.0727,0.14568 -0.10289,0.10314 -0.0249,-0.29352 0,-0.43706 0.032,-0.18461 0.61879,-1.9949 0.72668,-2.07601 0.0528,-0.0397 0.23369,-0.80272 0.436,-1.05621 0.10405,-0.13038 2.75397,-0.97 3.05205,-1.0198 0.39892,-0.0666 2.91377,-0.24045 3.19738,-0.14568 0.38014,0.12701 0.94714,2.08338 1.09002,2.51306 0.12264,0.36879 0.56237,0.54306 0.65401,0.91053 0.0745,0.29883 0.12672,1.41451 -0.218,1.5297 -0.23109,0.0772 -0.58414,-0.10787 -0.79935,0 -0.0873,0.0437 -0.13074,0.17479 -0.218,0.21853 -0.48771,0.24444 -4.3086,0.2467 -5.01408,0.14568 -0.30269,-0.0433 -0.97689,-0.089 -1.23535,-0.21853 -0.2502,-0.1254 -0.43256,-0.2668 -0.72668,-0.29137 -0.38827,-0.0324 -0.65529,0.14569 -1.01735,0.14569"
       style="fill:none;stroke:#000000;stroke-width:1;stroke-linecap:round;stroke-linejoin:round;stroke-miterlimit:4;stroke-dasharray:none;stroke-opacity:1" />
    <path
       id="path886"
       d="m 239.85947,114.33846 c 0.79751,-0.99886 0.25968,-1.89742 0.436,-2.9137 0.0316,-0.18213 0.1495,-0.68158 0.21801,-0.5099 0.14564,0.36498 -0.0223,1.04486 -0.14534,1.38401 -0.0785,0.21649 -0.218,0.88588 -0.218,0.65558 0,-1.71142 -0.21801,-3.38414 -0.21801,-5.09897 0,-0.82349 0.0727,-1.62833 0.0727,-2.44023 0,-0.19425 0.19425,-0.58274 0,-0.58274 -0.17168,0 0.0456,0.34036 0.0727,0.5099 0.12236,0.76662 0.0727,1.55585 0.0727,2.33096"
       style="fill:none;stroke:#000000;stroke-width:1;stroke-linecap:round;stroke-linejoin:round;stroke-miterlimit:4;stroke-dasharray:none;stroke-opacity:1" />
    <path
       id="path888"
       d="m 240.15014,99.478588 c -0.43917,0.916242 -0.52185,0.902222 0,0.509897 0.0388,-0.02918 -0.0471,0.133875 0,0.145685 0.0484,0.0121 0.0969,-0.0243 0.14533,-0.0364"
       style="fill:none;stroke:#000000;stroke-width:1;stroke-linecap:round;stroke-linejoin:round;stroke-miterlimit:4;stroke-dasharray:none;stroke-opacity:1" />
    <path
       id="path890"
       d="m 251.92232,103.88556 c -0.218,0.0728 -0.436,0.14568 -0.65401,0.21853 -0.0484,0 -0.0978,-0.01 -0.14533,0 -0.57853,0.11598 -0.41795,0.33483 0.0727,0.14568 0.25281,-0.0975 0.99762,-0.36421 0.72667,-0.36421 -0.33748,0 -0.62694,0.25046 -0.94468,0.36421 -0.5849,0.2094 -1.56049,-0.20125 -2.10736,0.0728 -0.34124,0.17103 -0.77265,0.20561 -1.16269,0.3278 -0.47917,0.15009 -0.85564,0.46527 -1.30802,0.692 -0.7615,0.38166 -0.94468,0.64234 -0.94468,1.52969 0,0.13867 -0.14827,0.32191 -0.0727,0.47348 0.15771,0.31618 0.66935,0.56169 0.87202,0.76484 0.29457,0.29529 0.38177,0.69817 0.79934,0.83769 0.84087,0.28097 1.81483,0.36235 2.32537,0.87411 0.1664,0.1668 0.66976,0.0443 0.87201,0.14569 0.0843,0.0422 0.79007,0.0542 0.79935,0.0728 0.20027,0.40149 0.96061,0.63513 1.30802,0.98337 0.0939,0.0941 0.0795,0.59639 0.14534,0.72843 0.0459,0.0921 0.17207,0.12646 0.218,0.21853 0.40108,0.80408 -0.54827,2.8607 -1.30802,3.24149 -0.59828,0.29986 -1.56933,0.29137 -2.2527,0.29137 -0.23251,0 -3.2986,-0.44399 -3.34272,-0.47348 -0.48026,-0.32094 -0.39981,-0.50989 -1.01735,-0.50989"
       style="fill:none;stroke:#000000;stroke-width:1;stroke-linecap:round;stroke-linejoin:round;stroke-miterlimit:4;stroke-dasharray:none;stroke-opacity:1" />
    <path
       id="path892"
       d="m 258.68043,114.19277 c 0.27957,-0.77093 -0.25314,-1.20533 0,0 z"
       style="fill:none;stroke:#000000;stroke-width:1;stroke-linecap:round;stroke-linejoin:round;stroke-miterlimit:4;stroke-dasharray:none;stroke-opacity:1" />
    <path
       id="path894"
       d="m 265.9472,114.9212 c 0.69663,-1.46228 -0.25352,-0.50005 -0.29067,-0.10926 -0.01,0.10304 0.34015,0.20018 0.29067,0.10926 -0.45889,-0.84337 -1.19247,-1.11411 -0.72667,-1.34759 0.13898,-0.0697 0.14533,0.58036 0.14533,0.65559"
       style="fill:none;stroke:#000000;stroke-width:1;stroke-linecap:round;stroke-linejoin:round;stroke-miterlimit:4;stroke-dasharray:none;stroke-opacity:1" />
    <path
       id="path896"
       d="m 273.14133,114.81194 c -1.55723,1.38111 -0.60722,-0.95992 -0.29067,-0.80127 0.0415,0.0208 -0.0206,0.1717 0,0.21853 0.088,0.19844 0.19378,0.38849 0.29067,0.58274 z"
       style="fill:none;stroke:#000000;stroke-width:1;stroke-linecap:round;stroke-linejoin:round;stroke-miterlimit:4;stroke-dasharray:none;stroke-opacity:1" />
    <path
       id="path902"
       d="m 130.63972,84.910085 c 0.61889,-1.378707 -0.78586,0.460708 -0.94468,0.182107 -0.35791,-0.627856 0.24614,-2.049716 0.43601,-2.658753 0.0457,-0.146571 0.14533,-0.590584 0.14533,-0.437054 0,0.31565 0.0185,0.631843 0,0.946951 -0.14728,2.509825 -0.21707,-1.021193 0.58134,-2.221695 0.0242,-0.03642 0.086,0.0676 0.0727,0.109265 -0.0892,0.279373 -0.25828,0.527463 -0.36334,0.801267 -0.18662,0.486394 -0.67985,2.558938 -1.01735,2.840857 -0.40221,0.335987 -0.32164,-1.007271 -0.36334,-1.529694 -0.0461,-0.577347 0.0675,-0.734284 0,-0.692001 -0.18206,0.114062 -0.60934,0.903777 -0.65401,0.983371 -0.12843,0.228873 -0.3465,0.902296 -0.436,0.655585 -0.20376,-0.561689 0.23269,-1.385578 0.29067,-1.966749 0.004,-0.03624 0.0162,-0.141856 0,-0.109265 -0.16697,0.334746 -0.20782,1.854933 -0.65401,1.966749 -0.25359,0.06355 0.2174,-0.477478 0.29067,-0.728425 0.0176,-0.06043 0.35659,-1.572879 0.218,-1.711798 -0.18536,-0.185812 -0.65401,2.828367 -0.65401,0.874109 0,-0.339931 0,-0.679863 0,-1.019794 0,-1.298186 -0.10308,-1.009407 0.29067,-2.221698 0.0641,-0.19725 0.21801,-0.790133 0.21801,-0.58274 0,0.897795 -0.264,1.762498 -0.36334,2.658753 -0.0176,0.1587 0.0308,-0.319405 0.0727,-0.473477 0.10379,-0.381492 0.24261,-0.752581 0.36333,-1.129059 0.31529,-0.983247 0.58406,-1.982584 0.94469,-2.950123 0.0542,-0.145544 0.1465,-0.422018 0.29067,-0.364212 0.15935,0.06389 0.0651,0.338384 0.0727,0.509897 0.0229,0.517679 -0.002,1.833449 -0.0727,2.330961 -0.006,0.04065 -0.34368,1.022789 -0.21801,1.274744 0.18008,0.361021 0.34087,-0.736997 0.43601,-1.129059 0.27511,-1.133721 0.53002,-2.273668 0.72668,-3.423598 0.0472,-0.276267 -0.004,-0.568145 0.0727,-0.837689 0.0532,-0.186806 0,0.388493 0,0.582742 0,1.610482 -0.29466,3.081375 -0.58135,4.661919 -0.0527,0.290629 -0.0791,0.586269 -0.14533,0.874112 -0.008,0.03342 -0.0691,0.10695 -0.0727,0.07284 -0.0667,-0.634973 0.007,-3.557093 0.43601,-3.933497 0.0163,-0.01431 0.25824,0.148196 0.14533,1.129059 -0.0649,0.56392 -0.5715,2.504845 -1.01735,2.877281 -0.10416,0.08701 -0.0677,-0.265002 -0.0727,-0.400635 -0.0194,-0.533826 -0.009,-1.068438 0,-1.602536 0.0149,-0.850043 0.0598,-1.699411 0.0727,-2.549488 0.0169,-1.116791 0,-2.233835 0,-3.350755 0,-0.03642 0,0.07284 0,0.109265 0,0.461335 -0.03,0.923644 0,1.384006 0.0739,1.136507 0.86703,5.396603 0.14534,6.300878 -0.11359,0.142335 0.0107,-0.364525 0,-0.54632 -0.0378,-0.644155 -0.10639,-1.286237 -0.14534,-1.930326 -0.15201,-2.514325 -0.22254,-5.02271 -0.0727,-7.539199 0.0123,-0.207436 -0.11311,-0.52605 0.0727,-0.619162 0.17366,-0.08704 0,0.388493 0,0.58274 0,0.546319 0,1.092639 0,1.638956 0,1.396148 0,2.792296 0,4.188447 0,0.364212 -0.0227,0.72913 0,1.092636 0.002,0.03423 0.0657,0.106431 0.0727,0.07284 0.39605,-1.918825 0.47486,-3.996129 0.72668,-5.936666 0.0802,-0.618228 0.16334,-1.236474 0.218,-1.857483 0.0181,-0.205592 0,-0.825548 0,-0.619162 0,1.783191 0.0395,3.571343 0,5.353926 -0.009,0.4255 -0.0534,0.849577 -0.0727,1.274744 -0.005,0.109151 0,0.437054 0,0.327789 0,-2.632564 0.0294,2.357803 -0.21801,-2.768015 -0.0547,-1.132361 0.0122,-3.339735 0.0727,-4.552656 0.0152,-0.304096 -0.0632,-0.638069 0.0727,-0.910532 0.1138,-0.228142 -0.0161,0.510408 0,0.764847 0.35349,5.58084 -0.0165,-2.581825 0.14533,3.095807 0.009,0.328552 0.054,0.655222 0.0727,0.983375 0.006,0.09696 0,0.388493 0,0.291369 0,-2.375172 0.10882,-4.846388 -0.0727,-7.211409 -0.0251,-0.327721 -0.0895,0.655119 -0.0727,0.983374 0.0811,1.58518 0.22184,2.220034 0.29067,3.824232 0.0203,0.473041 0,0.946952 0,1.420429 0,0.133543 0,0.534178 0,0.400635 0,-1.349079 0.0874,-2.700346 0.218,-4.042762 0.0368,-0.377672 0.10671,-0.75157 0.14534,-1.129056 0.01,-0.09662 -0.0173,-0.386935 0,-0.291373 0.21464,1.183386 0.17937,2.484276 0.14533,3.678547 -0.0119,0.418952 0.0481,1.562169 -0.218,1.238324 -0.78501,-0.955516 -0.80791,-2.888064 -1.01735,-4.042759 -0.0506,-0.278852 -0.0899,-0.559766 -0.14534,-0.837689 -0.0173,-0.08666 -0.0448,-0.338802 -0.0727,-0.25495 -0.26061,0.783709 -0.0871,1.65087 -0.0727,2.476645 0.0292,1.669817 0.18699,2.96621 -0.0727,4.625502 -0.17279,1.104169 -0.82083,2.786239 -1.16269,0.509897 -0.11021,-0.73392 -0.12165,-1.479926 -0.14533,-2.221699 -0.0384,-1.201287 0,-2.403803 0,-3.605701 0,-0.03642 -0.002,0.07289 0,0.109262 0.0224,0.449289 0.0414,0.898824 0.0727,1.347586 0.10845,1.558211 0.14849,3.030831 0.0727,4.589079 -0.089,1.828996 -0.24443,-7.231454 0,-2.330961 0.063,1.263817 -0.44918,5.009859 -0.58134,3.75139 -0.23332,-2.221902 0.19104,-4.52792 0.58134,-6.701512 0.0939,-0.522595 0.23137,-1.038482 0.29068,-1.566114 0.038,-0.337804 0,-0.679863 0,-1.019794 0,-0.09712 0,-0.388493 0,-0.29137 0,1.122908 -0.0127,0.614357 0.0727,2.112434 0.0221,0.388614 0.0397,0.777626 0.0727,1.165479 0.0155,0.183051 -0.009,0.710713 0.0727,0.546319 0.10296,-0.206415 0,-0.461335 0,-0.692004 0,-0.558459 0,-1.116918 0,-1.675379 0,-2.027449 0,-4.054898 0,-6.08235 0,-0.03642 -7.9e-4,0.07286 0,0.109265 0.0433,1.715995 0.0727,3.420353 0.0727,5.135396 0,0.04856 0.003,-0.09719 0,-0.145685 -0.0216,-0.400783 -0.0448,-0.801503 -0.0727,-1.201902 -0.16472,-2.366714 -0.22186,-4.703794 0.0727,-7.065721 0.012,-0.09638 0.004,0.194325 0,0.291369 -0.0203,0.497933 -0.0624,0.995029 -0.0727,1.493272 -0.0275,1.335164 0.0299,2.671228 0,4.006336 -0.0258,1.149226 -0.13742,1.821064 -0.14534,1.821064 -0.52206,0 -0.436,-3.916336 -0.436,-4.261287 0,-0.388493 0,-1.553974 0,-1.165479 0,1.609746 0.10312,3.245922 -0.14534,4.844026 -0.0615,0.39564 -0.20213,0.774997 -0.29067,1.165479 -0.0327,0.144032 0.009,0.560028 -0.0727,0.437058 -0.005,-0.0078 0.14387,-3.291052 0.14534,-3.350758 0.0524,-2.127133 0.0152,-0.646573 0.218,-2.221695 0.0124,-0.09633 -0.0971,-0.29137 0,-0.29137 0.12577,0 0.0727,1.815629 0.0727,1.311164 0,-1.432568 0,-2.865139 0,-4.297707 0,-1.662385 0.0199,-3.369225 -0.14534,-5.026133 -0.0338,-0.339111 -0.0727,0.679 -0.0727,1.019794 0,1.104778 0,2.209557 0,3.314335 0,0.388493 0,0.776986 0,1.165479 0,0.121404 0,0.485619 0,0.364215 0,-1.821183 0.11144,-3.610912 0.218,-5.426769 0.0398,-0.679127 0.0515,-1.359624 0.0727,-2.03959 0.003,-0.09708 0,-0.388493 0,-0.29137 0,1.286886 0,2.573769 0,3.860654 0,0.412774 0,0.825548 0,1.238322 0,0.121404 0.0184,0.484211 0,0.364212 -0.2371,-1.544812 -0.26463,-3.143753 -0.14534,-4.698341 0.044,-0.573522 0.14216,-1.141614 0.218,-1.711799 0.1262,-0.948719 0.21214,-1.327907 0.14534,-1.311166 -0.19847,0.04974 -0.53582,3.436379 -0.58134,3.824232 -0.0247,0.210552 -0.12971,0.830582 -0.14534,0.619162 -0.19366,-2.620772 0.48327,-5.503186 -0.36334,-8.049099 -0.023,-0.06912 0.004,0.145791 0,0.218527 -0.0203,0.376587 -0.0727,0.751928 -0.0727,1.129059 0,1.390407 0.0291,1.608929 0.36333,2.877281 0.0637,0.241596 0.27459,0.889129 0.36334,0.655582 0.44932,-1.182299 0.32749,-2.802692 0.36334,-4.04276 0.009,-0.303381 0,-0.60702 0,-0.910531 0,-0.157824 -0.0463,-0.624354 0,-0.473475 0.26732,0.870874 -0.004,3.235833 0.29067,3.678547 0.24536,0.368914 0.20623,-0.868267 0.21801,-1.311166 0.0386,-1.449621 0.21454,-3.810376 0,-5.208239 -0.0539,-0.351276 -0.12594,0.701355 -0.14534,1.056217 -0.0998,1.826538 -0.0215,1.45564 -0.218,3.277912 -0.42226,3.915318 -0.158,-2.556838 0.218,-3.059385 0.0325,-0.04345 0.0669,0.09173 0.0727,0.145685 0.043,0.39905 0.0634,0.800643 0.0727,1.201902 0.0774,3.337189 -0.0943,0.556601 0.0727,3.569282 0.0182,0.328181 0.0307,0.657378 0.0727,0.983374 0.007,0.05382 0.0388,0.1881 0.0727,0.145685 0.61805,-0.774414 0.21218,-3.05063 0.58134,-3.605705 0.0269,-0.04044 0,0.09712 0,0.145685 0,0.327793 0.0211,0.65626 0,0.983374 -0.0275,0.426784 -0.10217,0.84926 -0.14533,1.274744 -0.0307,0.302922 -0.10621,1.213155 -0.0727,0.910532 0.0256,-0.230526 0.0636,-0.460245 0.0727,-0.692004 0.0533,-1.361959 0.0258,-2.656726 0.29067,-4.00634 0.0556,-0.283128 0.15556,-0.555995 0.218,-0.837686 0.0105,-0.04741 0,-0.194247 0,-0.145685 0,1.197488 -0.15393,4.910407 0,5.026133 0.17436,0.13108 0.6974,-3.556912 0.72668,-3.751389 0.0327,-0.217416 0.0528,-0.436616 0.0727,-0.655585 0.004,-0.04836 0.005,-0.193979 0,-0.145685 -0.22931,2.183675 -0.47807,4.319543 -0.58134,6.519405 -0.0279,0.59472 -0.29333,1.23167 -0.0727,1.784641 0.0415,0.103947 0.0603,-0.216556 0.0727,-0.32779 0.057,-0.514339 0.0247,-2.149594 0.29067,-2.549487 0.0739,-0.1112 0.0224,0.268972 0,0.400632 -0.0749,0.441348 -0.20514,0.871749 -0.29067,1.311166 -0.31427,1.614477 -0.43601,3.169518 -0.43601,4.807606 0,0.08498 -0.0136,-0.171056 0,-0.25495 0.18791,-1.161539 0.43601,-2.275363 0.43601,-3.460019 0,-0.04856 0,0.09712 0,0.145685 0,0.424915 0.01,0.849939 0,1.274743 -0.0146,0.643734 -0.038,1.287365 -0.0727,1.930329 -0.0673,1.248066 -0.009,2.982627 -0.36334,4.224864 -0.03,0.105079 0,-0.218527 0,-0.32779 0,-1.323871 0.031,-2.62129 0.218,-3.933497 0.048,-0.336531 0,0.679863 0,1.019797 0,0.424913 0.0149,0.850088 0,1.274744 -0.0116,0.331147 0.0887,1.217954 -0.14533,0.983372 -0.06,-0.06016 0,-0.169966 0,-0.254947 0,-0.424916 0.018,-0.850213 0,-1.274744 -0.0305,-0.717275 -0.0758,-1.434309 -0.14534,-2.148854 0.0541,-1.358439 -0.44691,-2.639271 -0.58134,-3.969916 -0.0427,-0.422765 0.0302,-1.698586 0,-1.274744 -0.14721,2.065919 0.0551,4.018253 0.14533,6.082347 0.0323,0.73986 0,1.481132 0,2.221698 0,0.376352 -0.37635,1.129059 0,1.129059 0.37636,0 0.008,-0.7528 0,-1.129059 -0.0801,-3.573388 -0.13884,-0.66785 0.0727,-4.625501 0.0279,-0.521854 0.0526,-1.043898 0.0727,-1.566114 0.004,-0.109183 0,-0.437054 0,-0.327789 0,1.311164 0.0626,2.623825 0,3.933494 -0.13667,2.859807 -0.61017,5.697622 -0.72668,8.558995 -0.003,0.0767 0.0649,-0.142155 0.0727,-0.218527 0.0651,-0.641969 0.0715,-1.289296 0.14534,-1.930326 0.0103,-0.08969 0.25481,-2.113393 0.50867,-2.62233 0.0488,-0.09778 0,0.218527 0,0.32779 0,0.449196 0,0.898392 0,1.347586 0,4.024868 0.0262,-0.09975 -0.0727,3.71497 -0.009,0.36409 -0.0998,1.442899 0,1.092636 0.39269,-1.377722 0.56015,-2.805906 0.72668,-4.224867 0.0298,-0.254349 0.0323,-0.51195 0.0727,-0.764844 0.009,-0.05359 0.0595,-0.198339 0.0727,-0.145685 0.52682,2.112367 -0.21801,4.547735 -0.21801,6.70151 0,0.08498 0,-0.169966 0,-0.254947 0,-0.388496 0.0255,-0.777825 0,-1.165482 -0.0479,-0.727969 -0.66573,-6.191612 -0.218,-6.191612 0.20226,0 0.31686,0.81503 0.36334,2.003168 0.1006,2.571424 -0.29067,5.117343 -0.29067,7.684884"
       style="fill:none;stroke:#000000;stroke-width:2;stroke-linecap:round;stroke-linejoin:round;stroke-miterlimit:4;stroke-dasharray:none;stroke-opacity:1" />
    <path
       id="path904"
       d="m 156.14613,84.327345 c 0.218,-0.230669 0.43601,-0.461335 0.65401,-0.692004 0,-0.04856 0.0203,-0.189796 0,-0.145685 -0.1782,0.387022 -0.52299,1.855539 -0.65401,0.837689 -0.0556,-0.432255 0.19465,-0.849632 0.29067,-1.274744 0.0756,-0.334928 0.14534,-1.363162 0.14534,-1.019796 0,1.143984 -0.43601,2.212591 -0.43601,3.387177 0,0.03642 0,-0.07284 0,-0.109262 0,-0.753761 0.2449,-2.859784 0.58134,-2.185276 0.34892,0.699526 -0.23165,1.717434 0.0727,2.403803 0.22664,0.511162 0.85255,-2.532565 0.87201,-2.62233 0.0474,-0.21875 0.14534,-0.879417 0.14534,-0.655582 0,0.946951 0,1.893903 0,2.840857 0,0.231937 -0.0558,0.885129 0.0727,0.692002 0.55428,-0.833414 0.79934,-5.398915 0.79934,-1.456849 0,0.323909 0.1612,-0.628065 0.21801,-0.946951 0.15477,-0.868783 0.26786,-1.745052 0.36334,-2.622331 0.025,-0.229314 0,-0.461338 0,-0.692004 0,-0.04856 0,-0.194247 0,-0.145685 0,0.454499 -0.20476,3.00646 -0.0727,3.20507 0.062,0.09319 0.0548,-0.21731 0.0727,-0.327792 0.0548,-0.338958 0.12756,-0.676889 0.14533,-1.019795 0.0652,-1.258159 0.23751,-2.981176 -0.0727,-4.224866 -0.0158,-0.06341 -0.0589,0.118221 -0.0727,0.182107 -0.0833,0.386345 -0.1652,0.773793 -0.21801,1.165479 -0.14872,1.103225 -0.29067,2.271517 -0.29067,3.387178 0,0.291369 0.009,-0.582878 0,-0.87411 -0.0433,-1.410586 -0.0727,-2.813111 -0.0727,-4.224866 0,-0.07284 0.01,0.146349 0,0.218527 -0.063,0.462762 -0.15434,0.921343 -0.218,1.384009 -0.34438,2.502717 -0.13131,0.97913 -0.29067,3.095805 -0.0156,0.207219 0.0201,0.805116 -0.0727,0.619162 -0.31185,-0.625195 0.21897,-3.632843 0.29067,-4.297707 0.03,-0.278664 0.35295,-0.837689 0.0727,-0.837689 -0.14583,0 -0.81579,2.845753 -0.87201,3.20507 -0.0359,0.229148 -0.0517,0.461015 -0.0727,0.692004 -0.003,0.03627 0,0.145685 0,0.109263 0,-0.884643 -0.0118,-1.04012 0.0727,-2.112434 0.0355,-0.450405 0.10628,-0.897474 0.14533,-1.347586 0.009,-0.108855 0.0321,-0.432244 0,-0.32779 -0.34152,1.112616 -0.42896,2.332596 -0.72668,3.46002 -0.5336,2.020671 -0.26191,0.315746 -0.436,1.711799 -0.0285,0.228893 0,-0.461336 0,-0.692005 0,-0.998969 0.0727,-1.989161 0.0727,-2.986542 0,-0.0607 0.0135,0.122922 0,0.182104 -0.0838,0.367451 -0.22801,0.721006 -0.29067,1.09264 -0.17784,1.054761 -0.29067,2.240274 -0.29067,3.314334 0,0.03642 -0.003,-0.07297 0,-0.109264 0.0212,-0.255218 0.0389,-0.510985 0.0727,-0.764847 0.20801,-1.56381 0.471,-3.122208 0.58134,-4.698342 0.0153,-0.217992 0,-0.437054 0,-0.655581 0,-0.03642 0,-0.145685 0,-0.109265 0,0.898392 0,1.796782 0,2.695172 0,0.09712 0,0.388493 0,0.29137 0,-2.335763 -0.17748,-4.65718 -0.218,-6.992879 -0.009,-0.546238 -0.017,-1.092904 0,-1.638956 0.0777,-0.740302 0.0727,-0.923941 0.0727,-0.54632 0,2.263246 -0.36334,4.501184 -0.36334,6.774352 0,0.0607 0,-0.121404 0,-0.182105 0,-0.352073 -0.008,-0.704246 0,-1.056216 0.0498,-2.070825 0.41466,-4.012986 0.72668,-6.045928 0.0609,-0.396721 -0.038,0.802037 -0.0727,1.201902 -0.17859,2.058662 -0.26784,4.139543 -0.50868,6.191612 -0.0316,0.269597 0.0973,0.922896 -0.14533,0.801267 -0.26049,-0.130554 0.008,-0.582843 0,-0.874109 -0.0641,-2.410209 0.23721,-4.638609 0.50867,-7.029302 0.11382,-1.002377 0.28286,-4.022365 0.14534,-3.022965 -0.219,1.591527 -0.43601,3.161646 -0.43601,4.771183 0,0.04856 0,-0.09712 0,-0.145685 0,-0.327789 -0.0275,-0.65674 0,-0.983371 0.0453,-0.537194 0.13622,-1.069676 0.218,-1.602536 0.18932,-1.233546 0.29068,-2.230538 0.29068,-3.46002 0,-0.03642 0,0.07284 0,0.109265 0,0.303509 0.0178,0.607541 0,0.910532 -0.0487,0.829908 -0.18571,3.290064 -0.43601,4.042759 -0.0504,0.151514 -0.0613,-0.314209 -0.0727,-0.473477 -0.0371,-0.52128 -0.0625,-1.043615 -0.0727,-1.566114 -0.0288,-1.475097 -0.0271,-3.046701 0.14534,-4.516236 0.005,-0.04344 0.0694,0.06564 0.0727,0.109265 0.0214,0.290576 0,0.582739 0,0.874109 0,0.811519 0.0981,3.203252 -0.36334,3.897074 -0.2017,0.303266 -0.0108,-0.728586 0,-1.092639 0.0201,-0.673973 0.25768,-4.554889 0.79934,-4.916868 0.0832,-0.05562 0.0781,0.191418 0.0727,0.291369 -0.0381,0.706451 -0.27069,1.668116 -0.43601,2.330961 -0.0641,0.257225 -0.16062,0.506029 -0.218,0.764847 -0.0158,0.07111 0,0.29137 0,0.218527 0,-1.248344 0.10032,-2.292577 0.29067,-3.532862 0.0407,-0.265081 -0.012,-0.546783 0.0727,-0.801267 0.0391,-0.117472 0.068,0.240504 0.0727,0.364212 0.0196,0.521669 0.0179,1.044385 0,1.566114 -0.0305,0.88705 -0.0469,1.776648 -0.14534,2.658753 -0.33089,2.966765 -1.16268,5.813478 -1.16268,8.813943 0,0.483288 0.20208,-0.94533 0.29067,-1.420429 0.14586,-0.782214 1.0465,-4.894847 0.65401,-5.681715 -0.0894,-0.179147 -0.11669,0.384603 -0.14534,0.582739 -0.32771,2.266688 -0.43601,4.524505 -0.43601,6.810775 0,0.473477 -0.0384,0.948515 0,1.420428 0.0106,0.130281 0.053,0.456753 0.14534,0.364213 0.15809,-0.158465 0.11441,-0.433896 0.14534,-0.655582 0.21141,-1.515198 0.36665,-3.037922 0.58134,-4.552657 0.10026,-0.707413 0.22682,-1.411113 0.36334,-2.112433 0.0574,-0.294762 0.13832,-0.584578 0.218,-0.874109 0.0173,-0.06302 0.0675,-0.247256 0.0727,-0.182108 0.15337,1.921738 0,3.939196 0,5.863823 0,0.60702 0,1.214041 0,1.821061 0,0.169968 0,0.679865 0,0.5099 0,-2.654911 -0.1469,-5.380943 0.29067,-8.012676 0.0539,-0.324236 -0.0469,0.655703 -0.0727,0.983371 -0.11474,1.456891 -0.61129,4.941083 -0.14533,6.264458 0.0228,0.0647 0.13734,-0.07756 0.14533,-0.145685 0.0425,-0.36173 -0.0159,-0.728776 0,-1.092639 0.0997,-2.273438 0.13792,-2.28949 0.50868,-4.589076 0.0686,-0.425588 0.218,-1.70583 0.218,-1.274744 0,0.805143 -0.44004,6.520415 0,6.410139 0.0672,-0.01683 0.35667,-5.618562 0.58134,-6.519404 0.0176,-0.07068 0,0.145685 0,0.218527 0,0.995516 0,1.991029 0,2.986543 0,0.03642 0,-0.07284 0,-0.109263 0,-0.364212 0,-0.728424 0,-1.092639 0,-1.774264 0.0727,-3.54352 0.0727,-5.317503 0,-0.03642 0,0.07284 0,0.109265 0,0.388493 0,0.776986 0,1.165479 0,0.5099 0,1.019797 0,1.529694 0,0.327792 0,0.655582 0,0.983374 0,0.0607 0,0.242808 0,0.182105 0,-2.658669 -0.0393,-5.319012 0.0727,-7.976254 0.0308,-0.729387 0.0969,-1.456851 0.14534,-2.185276 0.025,-0.376301 0.0727,-1.50619 0.0727,-1.129059 0,2.600026 -0.38222,5.195644 -0.50867,7.794149 -0.0171,0.351655 0,0.704144 0,1.056217 0,0.109262 0,0.437054 0,0.327792 0,-1.416547 -0.0801,-2.892272 0,-4.297709 0.05,-0.878038 0.22925,-1.745014 0.29067,-2.62233 0.0356,-0.508654 0,-1.019795 0,-1.529694 0,-0.133543 0.0468,-0.525711 0,-0.400632 -0.69384,1.854692 -0.81243,6.044938 -0.94468,8.121938 -0.0255,0.400555 -0.0307,0.802733 -0.0727,1.201901 -0.007,0.065 -0.0675,0.247256 -0.0727,0.182108 -0.13874,-1.738474 -0.26302,-6.928649 0.58135,-8.304046 0.0585,-0.09538 0.0685,0.215953 0.0727,0.32779 0.0201,0.533802 0.0397,1.069837 0,1.602536 -0.13897,1.863222 -0.32131,4.320955 -0.65401,6.155193 -0.0285,0.157109 -0.0671,-0.313902 -0.0727,-0.473478 -0.0187,-0.533852 -0.009,-1.068437 0,-1.602536 0.0744,-4.249856 -0.0502,-0.861285 0.50867,-5.062553 0.0577,-0.433904 0.43098,-1.059741 0.0727,-1.311164 -0.31179,-0.218779 -0.342,0.68711 -0.43601,1.056214 -0.3257,1.278726 -0.60518,3.504446 -0.72668,4.807606 -0.0474,0.50827 -0.10091,2.039385 -0.0727,1.529694 0.0256,-0.461264 0.0398,-0.923205 0.0727,-1.384009 0.0876,-1.229498 0.40972,-4.960837 0.50868,-6.009505 0.0654,-0.692732 0.15955,-1.382662 0.218,-2.076013 0.0143,-0.169365 0,-0.679863 0,-0.509897 0,1.710716 -0.25105,3.435868 -0.43601,5.135398 -0.0648,0.595783 -0.15198,1.188984 -0.218,1.784641 -0.0335,0.302622 -0.0463,1.213866 -0.0727,0.910532 -0.27241,-3.14026 -0.0407,-6.083086 0.29067,-9.214578 0.0603,-0.569476 0.1039,-1.140648 0.14534,-1.711801 0.007,-0.09687 0.0117,-0.387789 0,-0.29137 -0.29591,2.447102 -0.47846,6.100757 -1.23535,8.376888 -0.023,0.06912 0,-0.145684 0,-0.218527 0,-0.449194 -0.009,-0.898475 0,-1.347586 0.0575,-2.9391 0.42685,-5.804162 0.87201,-8.704678 0.006,-0.036 0.005,0.07313 0,0.109262 -0.0681,0.534779 -0.14325,1.068644 -0.218,1.602536 -0.34887,2.491651 -0.38591,2.526165 -0.65401,4.989711 -0.0818,0.751766 -0.0701,1.516529 -0.21801,2.258119 -0.0214,0.107151 0,-0.218528 0,-0.327793 0,-0.473474 -0.009,-0.947036 0,-1.420429 0.0487,-2.563386 0.0301,-2.303653 0.36334,-4.880448 0.063,-0.486968 0.13226,-0.97337 0.21801,-1.456849 0.0114,-0.06435 0.0817,-0.246838 0.0727,-0.182107 -0.28313,2.034037 -0.69131,4.024855 -0.79934,6.08235 -0.0159,0.303093 0,1.214043 0,0.910532 0,-2.507869 0.16836,-4.82799 0.72668,-7.284252 0.0692,-0.304326 0.15045,-1.215221 0.218,-0.910532 0.18527,0.835745 -0.6328,3.688062 -0.79935,4.661921 -0.0538,0.314778 -0.10323,0.630394 -0.14533,0.946952 -0.006,0.04814 0,0.194249 0,0.145688 0,-1.610591 0.0584,-3.121602 0.218,-4.734764 0.11819,-1.194644 0.36334,-2.467904 0.36334,-3.678547 0,-0.08498 0.0152,0.171331 0,0.254947 -0.082,0.452149 -0.21128,0.894972 -0.29067,1.347587 -0.39487,2.251202 -0.243,1.531167 -0.36334,3.642127 -0.0173,0.303982 -0.0727,1.215006 -0.0727,0.910531 0,-2.073457 0.37153,-3.98781 0.79935,-6.009507 0.0537,-0.253889 0.0871,-0.51195 0.14533,-0.764847 0.0147,-0.06369 0.0599,-0.2462 0.0727,-0.182105 0.13543,0.678783 -0.36725,2.569594 -0.43601,3.350755 -0.0288,0.327419 -0.0534,0.655254 -0.0727,0.983374 -0.005,0.08484 0,0.339931 0,0.254947 0,-1.134673 -0.0391,-2.295056 0.0727,-3.423597 0.10628,-1.072946 0.30528,-2.134828 0.43601,-3.20507 0.0147,-0.120509 0,-0.242808 0,-0.364212 0,-0.0607 0.0107,0.122349 0,0.182105 -0.13484,0.754658 -0.30898,1.502106 -0.43601,2.258118 -0.0247,0.147264 -0.1885,1.539034 -0.218,1.893906 -0.005,0.06049 0.0607,0.182105 0,0.182105 -0.75551,0 0.82107,-6.433418 0.14534,-2.877278 -0.0836,0.439796 -0.19523,0.873792 -0.29067,1.311164 -0.10812,0.49544 -0.0643,1.039492 -0.29068,1.493271 -0.0488,0.09778 0,-0.218527 0,-0.327789 0,-1.178272 -0.01,-2.25969 0.21801,-3.4236 0.0524,-0.267666 0.0814,-0.939697 0.29067,-0.764844 0.40917,0.341791 -0.0365,2.003983 -0.14534,2.440223 -0.0176,0.07068 0,-0.145685 0,-0.218528 0,-0.291369 -0.0219,-0.583562 0,-0.874109 0.0568,-0.754279 0.18616,-1.574506 0.43601,-2.294541 0.4624,-1.332613 0.0228,0.660998 -0.0727,1.019797 -0.009,0.0352 0,-0.07284 0,-0.109265 0,-0.206385 0,-0.412774 0,-0.619162 0,-0.791665 0.0727,-1.581732 0.0727,-2.36738 0,-0.188439 -0.0709,0.373226 -0.14534,0.546319 -0.20169,0.468694 -0.45879,0.912577 -0.65401,1.384006 -0.0721,0.174104 -0.10455,0.362347 -0.14533,0.54632 -0.008,0.03556 0,0.145685 0,0.109262 0,-0.956265 0.0242,-1.853308 0.14533,-2.804435 0.0278,-0.218104 0.0537,-0.436538 0.0727,-0.655582 0.005,-0.06047 0,-0.242808 0,-0.182107 0,0.60702 0,1.214043 0,1.821063 0,0.0033 0.26054,-1.080211 0.29067,-1.019796 0.42755,0.857162 -0.0634,2.190562 0.14534,3.13223 0.0981,0.442462 0.38109,-1.948955 0.43601,-1.893906 0.56673,0.568092 -0.14534,4.490937 -0.14534,5.463188 0,0.256095 0.0485,-0.509897 0.0727,-0.764847 0.14525,-1.528778 0.359,-3.044497 0.65401,-4.552656 0.042,-0.214736 0.14338,-0.824852 0.218,-0.619162 0.13067,0.360198 0.075,1.523701 0.0727,1.638956 -0.0166,0.837877 -0.0334,1.67595 -0.0727,2.513068 -0.1124,2.394214 -0.0824,-4.374589 0.65401,-4.989714 0.0318,-0.02656 -0.062,1.353995 -0.0727,1.456852 -0.15282,1.474456 -0.29067,2.887398 -0.29067,4.370551 0,0.03642 -0.003,-0.07297 0,-0.109265 0.0212,-0.255217 0.0372,-0.511222 0.0727,-0.764847 0.10924,-0.780187 0.18376,-2.037363 0.58134,-2.768015 0.0164,-0.03013 0.0698,0.03866 0.0727,0.07284 0.0221,0.266171 0.0166,0.534697 0,0.80127 -0.12694,2.03585 -0.48521,4.051863 -0.65401,6.082347 -0.0533,0.641686 -0.0568,1.286624 -0.0727,1.930329 -0.0691,2.805258 0.0272,-0.404186 0.0727,-1.019797 0.0342,-0.462611 0.10691,-0.921729 0.14534,-1.384006 0.0101,-0.120989 0.0383,-0.479415 0,-0.364212 -0.0857,0.257577 -0.10082,0.533495 -0.14534,0.801266 -0.10082,0.60638 -0.22476,1.209903 -0.29067,1.821061 -0.18892,1.751738 -0.14534,2.501861 -0.14534,4.224867 0,0.412774 0,0.825548 0,1.238324 0,0.121404 0,0.485616 0,0.364212 0,-1.691007 0.23533,-3.081488 0.50868,-4.771186 0.0823,-0.508439 0.16228,-1.017664 0.218,-1.529691 0.0171,-0.156901 0,-0.631301 0,-0.473477 0,1.807241 -0.51456,4.967597 -0.0727,6.628669 0.014,0.05244 0.0695,-0.09151 0.0727,-0.145685 0.0213,-0.363587 -0.008,-0.728516 0,-1.092639 0.061,-2.753701 -0.003,-1.813793 0.50868,-4.734763 0.0936,-0.534766 0.21407,-1.06507 0.29067,-1.602534 0.0206,-0.144227 0.0748,-0.56206 0,-0.437055 -0.76243,1.273773 -0.65401,5.02584 -0.65401,6.555825 0,0.303511 0,0.60702 0,0.910532 0,0.0607 0,0.242808 0,0.182107 0,-2.831782 0.2175,-5.446059 0.36334,-8.340468 0.0244,-0.485002 0,-0.971235 0,-1.456851 0,-0.109263 0.0166,-0.43579 0,-0.32779 -0.22324,1.454547 -0.32667,2.936706 -0.36334,4.406971 -0.009,0.364099 0,0.728425 0,1.092637 0,0.09712 0,0.388493 0,0.29137 0,-1.602534 0,-3.20507 0,-4.807604 0,-0.449196 0,-0.898393 0,-1.347586 0,-0.09712 0,-0.388496 0,-0.291373 0,2.104417 -0.34472,4.169019 -0.50868,6.264458 -0.21907,2.799839 -0.14533,5.607952 -0.14533,8.413308"
       style="fill:none;stroke:#000000;stroke-width:2;stroke-linecap:round;stroke-linejoin:round;stroke-miterlimit:4;stroke-dasharray:none;stroke-opacity:1" />
    <path
       id="path906"
       d="m 152.22207,63.895022 c 2.09201,-0.06553 0.37562,-0.06676 1.81669,0.03642 0.1208,0.0087 0.48445,0 0.36334,0 -0.71605,0 -1.47,0.05584 -2.18003,-0.03642 -0.36748,-0.04775 -1.45233,-0.296352 -1.09002,-0.218527 0.3623,0.07782 0.71945,0.218527 1.09002,0.218527 0.61459,0 1.93659,-0.571823 2.54337,0.03642 0.10264,0.102891 -0.2943,0.03228 -0.43601,0 -0.2651,-0.0604 -1.01275,-0.420918 -1.23535,-0.400632 -0.31371,0.02859 -1.09449,0.587221 -0.87201,0.364212 0.83693,-0.838946 1.94138,-0.582742 2.97938,-0.582742 0.19378,0 0.77512,0 0.58134,0 -0.888,0 -1.66837,-0.05394 -2.54337,-0.254947 -0.75231,-0.172818 -1.22149,-0.315003 -1.01735,-0.327793 1.12437,-0.07044 2.29513,-0.02074 3.41538,0.07284 0.0483,0.004 -0.0969,0 -0.14533,0 -0.75296,0 -1.39725,-0.103211 -2.10737,-0.364212 -0.17321,-0.06366 -0.68768,-0.173667 -0.50867,-0.218528 0.68732,-0.172243 1.61285,0 2.32537,0 0.0484,0 -0.0978,0.0095 -0.14534,0 -0.19587,-0.03927 -0.38325,-0.119784 -0.58134,-0.145684 -0.36108,-0.04721 -0.7262,-0.05721 -1.09002,-0.07284 -1.32153,-0.05677 -3.02002,0.148619 -4.2874,-0.327792 -0.18175,-0.06832 0.38718,-0.03642 0.58134,-0.03642 0.5329,0 1.0658,0 1.59869,0 8e-4,0 1.09074,0 1.09002,0 -1.81793,0 -3.6312,0.07284 -5.45008,0.07284 -0.21936,0 0.4362,0.04685 0.65401,0.07284 0.30611,0.03653 3.52591,0.559168 3.48805,0.692004 -0.15372,0.539303 -4.11629,-0.04887 -4.72341,-0.145685 -0.19174,-0.03058 -0.38815,-0.01706 -0.58134,-0.03642 -0.0497,-0.005 -0.1946,-0.02819 -0.14534,-0.03642 0.48278,-0.08066 4.93453,-0.0069 5.01408,0.07284 0.0857,0.08587 -0.10587,0.245089 -0.218,0.29137 -1.44728,0.597374 -3.10453,0.178057 -4.57807,0.473475 -0.0751,0.01505 0.14152,0.06833 0.218,0.07284 0.33853,0.01995 0.67882,-0.01995 1.01735,0 0.96844,0.0571 1.93875,0.081 2.90671,0.145685 0.2465,0.01648 0.48252,0.108032 0.72668,0.145685 0.0718,0.01109 0.24494,-0.06749 0.21801,0 -0.26866,0.673253 -2.76702,0.327792 -3.34272,0.327792 -0.16956,0 0.33911,0 0.50867,0 0.60557,0 1.21113,0 1.8167,0 0.29067,0 1.16268,0 0.87201,0 -1.39875,0 -3.40767,0.394944 -4.57807,-0.582739 -0.001,-7.94e-4 1.99107,0.123888 2.10736,-0.109265 0.0234,-0.04701 -0.24959,-0.03642 -1.30802,-0.03642 -1.38907,0 -2.75566,-0.110223 -4.14206,-0.182108 -0.32026,-0.01662 -1.1035,0.0965 -0.94469,-0.182104 0.20646,-0.362165 2.18177,-0.0033 2.25271,0 0.36294,0.01704 0.72668,0 1.09002,0 0.0727,0 0.29067,0 0.218,0 -1.0658,0 -2.13159,0 -3.19739,0 -0.0484,0 0.0971,-0.004 0.14534,0 0.2426,0.02027 0.48613,0.03543 0.72668,0.07284 1.37172,0.213365 2.67522,0.437055 4.0694,0.437055 0.24222,0 -0.48486,-0.014 -0.72668,0 -0.37732,0.02183 -4.0694,0.551817 -4.0694,0.728424 0,0.04557 2.00651,-0.107849 2.0347,-0.109262 0.19354,-0.0097 0.77512,0 0.58134,0 -1.18557,0 -2.5436,0.25518 -2.2527,-0.03642 0.3152,-0.315955 2.54153,-0.442375 2.97938,-0.509897 2.35048,-0.362482 -2.38639,-0.327792 -2.76138,-0.327792 -0.59764,0 0.55927,0.0078 0.65401,-0.182105 0.14066,-0.281996 -0.62955,-0.03642 -0.94468,-0.03642 -0.98251,0 -1.85527,-0.08943 -2.83404,-0.218527 -0.50789,-0.06699 -1.01864,-0.111466 -1.52603,-0.182105 -0.36485,-0.0508 -0.72668,-0.121404 -1.09002,-0.182107 -0.0727,-0.01214 -0.29149,-0.03116 -0.218,-0.03642 0.97336,-0.06969 4.46513,0.303573 5.23208,0.764847 0.24996,0.150337 -0.58107,0.09368 -0.87201,0.07284 -1.26759,-0.09076 -2.50427,-0.218528 -3.77873,-0.218528 -0.0484,0 0.0969,0 0.14534,0 0.26645,0 0.5329,0 0.79934,0 0.62979,0 1.26234,0.05893 1.88937,0 0.10305,-0.0097 0.38674,-0.07074 0.29067,-0.109262 -0.76838,-0.308091 -2.23898,-0.06661 -3.05205,-0.03642 -0.34234,0.0127 -1.17026,-0.160872 -1.01735,0.145684 0.12805,0.256715 1.63219,0.07284 2.32537,0.07284 0.3149,0 0.62979,0 0.94468,0 0.0485,0 0.19359,-0.0044 0.14534,0 -0.99472,0.09065 -1.98494,0.244724 -2.97938,0.327792 -0.14483,0.01209 -0.43601,-0.145335 -0.43601,0 0,0.145336 0.29067,0 0.43601,0 0.31489,0 0.62979,0 0.94468,0 0.218,0 0.43601,0 0.65401,0 0.0969,0 -0.19378,0 -0.29067,0 -0.41179,0 -0.82357,0 -1.23535,0 -1.7576,0 -3.48657,0.06114 -5.23209,0.29137 -0.12007,0.01585 0.24297,0.01341 0.36334,0 1.07765,-0.120026 2.10883,-0.218527 3.19739,-0.218527 0.0969,0 0.38756,0 0.29067,0 -1.35326,0 -0.17286,-0.02543 -2.10737,0.145685 -0.89661,0.0793 -0.80305,0.07284 -1.38069,0.07284 -0.29067,0 0.58138,0.0044 0.87202,0 0.6399,-0.0097 3.53716,0.126973 3.99673,-0.218527 0.15489,-0.116449 -0.38757,0 -0.58135,0 -1.14417,0 -2.6395,0.214119 -3.77872,0 -0.25648,-0.04821 0.47,-0.2442 0.72668,-0.29137 0.84072,-0.154504 1.70278,-0.172575 2.54337,-0.327792 0.10658,-0.01968 0.38354,-0.08983 0.29067,-0.145685 -0.47574,-0.286129 -6.11909,0.392668 -3.27005,-0.400635 0.78089,-0.217435 0.52746,-0.182105 1.16268,-0.182105 0.0727,0 -0.14533,0 -0.218,0 -1.93395,0 -0.10178,-0.04807 -2.0347,0.145685 -0.16871,0.01691 -0.67823,0 -0.50867,0 0.90239,0 1.78547,0.04837 2.68871,0.07284 0.41163,0.01114 0.82356,0 1.23535,0 0.16956,0 0.61887,-0.128868 0.50867,0 -0.33583,0.39275 -3.00707,0.789794 -3.63339,0.910531 -0.21538,0.04152 -0.85011,-0.02545 -0.65401,0.07284 0.81993,0.410951 6.24902,-0.444257 2.39804,0.327789 -0.53337,0.106932 -1.06724,0.211686 -1.59869,0.327793 -0.60849,0.13294 -1.2386,0.205258 -1.8167,0.437054 -0.0675,0.02705 0.14534,0 0.218,0 0.3149,0 0.62979,0 0.94469,0 1.10779,0 2.39432,-0.182726 3.48805,0 0.12184,0.02035 -0.24271,0.04624 -0.36334,0.07284 -0.48496,0.10695 -0.97078,0.210523 -1.45335,0.327792 -0.32389,0.07871 -1.27734,0.306951 -0.94468,0.327792 3.35497,0.210191 6.81383,0 10.17349,0 0.89992,0 1.53664,0.300715 2.39804,0.437055 1.1641,0.184245 2.54923,0.137255 3.70606,0.03642 0.21079,-0.01836 -0.3746,-0.209897 -0.58134,-0.254947 -0.36208,-0.0789 -0.72383,-0.161722 -1.09002,-0.218528 -1.04249,-0.161726 -3.12608,-0.396615 -4.14207,-0.473477 -0.89141,-0.06744 -1.93295,0.04006 -2.83404,-0.07284 -0.39129,-0.04903 0.76947,-0.188667 1.16268,-0.218528 0.89367,-0.06787 1.79257,0.0132 2.68871,0 0.36411,-0.0054 1.45385,-0.05765 1.09002,-0.07284 -0.84705,-0.03538 -1.69558,0 -2.54338,0 -0.70245,0 -1.42171,0.152733 -2.10736,0 -0.11338,-0.02527 0.4048,-0.400423 0.436,-0.509897 0.11844,-0.41552 -0.36066,-0.695632 0.21801,-0.874112 0.12857,-0.03965 1.28294,-0.278477 1.38069,-0.29137 0.36342,-0.04793 1.44559,-0.234791 1.09001,-0.145685 -0.94137,0.235908 -1.93342,0.400635 -2.90671,0.400635"
       style="fill:none;stroke:#000000;stroke-width:2;stroke-linecap:round;stroke-linejoin:round;stroke-miterlimit:4;stroke-dasharray:none;stroke-opacity:1" />
    <path
       id="path908"
       d="m 172.9324,68.374836 c -0.3149,1.335445 0.28194,4.621125 -0.94468,4.006337 -1.26012,-0.631574 0.42939,-2.787127 0.58134,-4.188444 0.0311,-0.286849 -0.1587,0.55532 -0.21801,0.837689 -0.18301,0.871392 -0.28952,1.759318 -0.50867,2.62233 -0.0508,0.200038 0,-0.412774 0,-0.619162 0,-0.861967 -0.0803,-1.727684 0,-2.585908 0.0313,-0.33429 0.16141,-0.652428 0.218,-0.983374 0.0164,-0.09573 0,-0.388493 0,-0.29137 0,0.946952 0,1.893906 0,2.840858 0,0.355388 -0.15921,1.239385 0.14534,1.056217 0.37943,-0.228203 0.18757,-1.285349 0.218,-1.420429 0.10054,-0.446312 0.4413,-0.822238 0.50868,-1.274744 0.0577,-0.387234 -0.10445,-0.776118 -0.14534,-1.165482 -0.008,-0.07244 0,-0.291369 0,-0.218527 0,1.250463 -0.0889,2.504091 0,3.751389 0.0205,0.287801 0.0452,1.068713 0.21801,0.83769 0.24045,-0.321384 0.46179,-2.94544 0.50867,-3.16865 0.0225,-0.106929 0,0.218527 0,0.327792 0,0.437055 0,0.874109 0,1.311164 0,1.040209 -0.28763,2.728092 0.0727,3.751389 0.10479,0.29763 0.31158,-0.562842 0.36334,-0.874109 0.0679,-0.408371 0.44677,-4.916868 0.29067,-4.916868 -0.17168,0 -0.0185,0.346985 -0.0727,0.509897 -0.3093,0.930137 -0.63545,1.874501 -0.94468,2.804435 -0.0466,0.140142 0.0443,-0.292116 0.0727,-0.437055 0.1413,-0.722368 0.54458,-2.688497 0.72667,-3.277912 0.52521,-1.700035 1.34854,-3.497085 1.74403,-5.281081 0.0659,-0.29715 -0.24889,0.55566 -0.36334,0.837687 -0.38565,0.950341 -0.71489,1.922738 -1.09001,2.87728 -0.11953,0.304139 -0.38934,1.236279 -0.36334,0.910532 0.16446,-2.060689 1.27983,-6.48149 2.76137,-8.049098 0.33569,-0.35519 -0.17822,0.968123 -0.36334,1.420428 -0.23479,0.573696 -0.46742,1.148734 -0.72667,1.711799 -0.34106,0.740735 -1.77989,3.896505 -2.32537,4.552659 -0.0699,0.08402 -0.0166,-0.219792 0,-0.327792 0.0563,-0.367094 0.11496,-0.735828 0.218,-1.092637 0.34671,-1.200608 0.89699,-3.172349 1.88936,-4.042759 0.34627,-0.303713 -0.23789,0.895363 -0.436,1.311164 -0.67961,1.42635 -1.28104,2.949093 -2.0347,4.334129 -0.0232,0.04266 -0.003,-0.09725 0,-0.145685 0.0208,-0.291635 0.005,-0.589598 0.0727,-0.874109 0.05,-0.211172 0.64161,-1.960536 0.79934,-2.039591 0.0171,-0.0086 -0.14654,0.840697 -0.50867,1.748221 -0.50369,1.26224 -1.15787,2.783149 -2.10737,3.787809 -0.0373,0.03944 -0.0727,-0.09142 -0.0727,-0.145685 0,-0.328684 0.0172,-0.659392 0.0727,-0.983374 0.0903,-0.528233 0.20384,-1.054497 0.36334,-1.566114 0.53478,-1.715404 1.26893,-3.479686 2.2527,-4.989711 0.19682,-0.302111 0.62784,-1.148027 0.72668,-0.801269 0.19091,0.669809 -0.55233,1.817002 -0.79935,2.294541 -0.15615,0.301884 -0.55064,1.176181 -0.58134,0.837689 -0.17512,-1.931019 2.00959,-4.757938 3.12472,-6.155192 0.0987,-0.123664 0.63233,-0.952387 1.09001,-0.83769 0.50855,0.127442 -1.4734,2.401732 -1.59869,2.549488 -0.16092,0.189778 -0.57264,0.786778 -0.50867,0.54632 0.36485,-1.371481 1.62477,-2.855423 2.61604,-3.824232 0.20676,-0.202073 0.54634,-0.699442 0.72668,-0.473477 0.0454,0.05693 0.0282,0.151368 0,0.218527 -0.38689,0.92106 -1.27895,1.775632 -1.88937,2.549488 -0.14429,0.18293 -0.436,0.779312 -0.436,0.54632 0,-0.797248 4.00353,-4.476406 4.57807,-4.188445 0.3568,0.17883 -2.32537,2.155521 -2.32537,2.658751 0,0.143078 0.13871,-0.09112 0.72668,-0.509897 0.7613,-0.542227 2.44991,-1.943328 3.27005,-2.148854 1.20713,-0.302508 -1.11783,1.302626 -1.52602,1.711799 -0.0342,0.0343 0.10276,0.02313 0.14533,0 0.71491,-0.388175 1.35535,-0.900083 2.0347,-1.347586 0.40988,-0.27 0.81637,-0.545621 1.23535,-0.801267 1.12732,-0.687843 -0.27916,0.540552 -0.436,0.619159 -0.46674,0.233929 -1.05119,0.321305 0,0.145685 0.26954,-0.04503 0.54206,-0.09 0.79934,-0.182105 0.89419,-0.320122 1.72849,-0.790977 2.61604,-1.129059 0.14002,-0.05333 0.54966,-0.206907 0.43601,-0.109265 -1.44644,1.242785 -3.11795,0.58161 -4.86874,0.874112 -0.0727,0.01214 0.14622,-0.01982 0.218,-0.03642 0.82238,-0.190238 0.86064,-0.267894 1.8167,-0.327793 1.41646,-0.08874 2.50337,0.619162 3.85139,0.619162 0.20702,0 0.65807,-0.02625 0.58134,-0.218527 -0.0888,-0.222604 -0.90937,-0.1675 -0.87201,-0.03642 0.15177,0.532471 2.22903,1.444157 2.61604,1.056217 0.10905,-0.109313 -0.83798,-0.305763 -1.45336,-0.327792 -0.14524,-0.0052 -0.58134,0 -0.436,0 0.4004,0 1.03221,0.298248 1.45335,0.364212 0.16923,0.02651 0.67997,0.07284 0.50868,0.07284 -0.97636,0 -1.81895,-0.556088 -2.47071,-1.274744 -0.67781,-0.747392 0.70727,0.787517 1.52603,1.165482 1.49081,0.688205 5.1302,1.14736 6.61277,0.218527 0.87519,-0.548312 -1.21062,0.0362 -1.38069,0.109262 -0.14234,0.06115 0.4829,0.737844 0.43601,0.655582 -0.3666,-0.643093 -0.89084,-1.010451 -1.45336,-1.456848 -0.0849,-0.06737 -0.31295,-0.251751 -0.29067,-0.145685 0.13946,0.664017 0.86257,2.003168 1.67136,2.003168 0.2426,0 -0.27029,-0.405556 -0.43601,-0.582739 -0.34558,-0.369512 -0.61016,-0.89588 -1.09001,-1.056217 -0.39295,-0.131297 0.82974,1.444958 0.72668,1.238321 -0.27219,-0.545671 -1.97262,-2.485535 -2.54338,-2.403803 -0.83212,0.119163 0.21761,1.352315 0.36334,1.529694 0.0601,0.07316 0.30538,0.218599 0.218,0.182108 -0.30438,-0.127133 -1.98417,-0.946441 -2.4707,-1.201902 -0.20837,-0.109405 -0.72815,-0.584576 -0.58135,-0.400635 0.66181,0.829242 0.25447,0.688549 1.45336,1.347587 0.39039,0.214598 0.80917,0.380209 1.23535,0.509897 2.30456,0.701281 -0.73456,-1.287026 -1.23535,-0.910532 -0.51697,0.38866 2.48076,3.678547 3.19739,3.678547 0.22799,0 -0.23915,-0.39706 -0.29068,-0.619159 -0.0276,-0.119187 -0.10881,-1.349092 -0.0727,-1.638959 0.0416,-0.333925 0.30057,0.602475 0.436,0.910532 0.0644,0.146587 0.9723,2.136296 1.09002,2.367383 0.10862,0.213225 0.23577,0.416697 0.36334,0.619159 0.0183,0.02902 0.0888,0.103122 0.0727,0.07284 -0.48249,-0.906844 -1.05625,-1.831327 -1.30802,-2.840858 -0.0561,-0.225041 -0.0352,-0.897356 0.0727,-0.692002 0.64436,1.227243 0.84831,3.794535 1.59869,4.734761 0.0379,0.04744 0.0191,-0.124505 0,-0.182105 -0.10312,-0.310089 -0.28427,-0.59346 -0.36334,-0.910531 -0.11592,-0.464783 -0.17474,-0.943367 -0.21801,-1.420429 -0.0296,-0.326451 -0.0225,-0.656355 0,-0.983374 0.002,-0.03422 0.0585,-0.10408 0.0727,-0.07284 0.80019,1.764641 0.7053,3.738512 1.16269,5.572453 0.0854,0.342416 -0.0609,-0.703508 -0.0727,-1.056217 -0.0181,-0.545592 -0.0122,-1.931527 0.0727,-2.513068 0.0173,-0.118268 0.066,-0.417216 0.14533,-0.327789 0.38945,0.439184 0.7169,4.268541 0.79935,5.026133 0.0753,0.692301 0.0727,0.874057 0.0727,0.58274 0,-1.007655 0,-2.01531 0,-3.022965 0,-0.02751 0,0.955868 0,0.983374 0,1.092636 0,2.185276 0,3.277912 0,0.03642 -0.006,-0.0733 0,-0.109262 0.0428,-0.268055 0.12604,-0.530508 0.14533,-0.80127 0.17479,-2.452965 -0.21001,-0.07502 0.14534,-2.330958 0.0156,-0.09888 0.0531,-0.389535 0.0727,-0.291372 0.28809,1.443948 0.14533,3.615177 0.14533,5.135398 0,0.0607 -0.0141,-0.123073 0,-0.182107 0.059,-0.246483 0.14581,-0.485476 0.218,-0.728424 0.0849,-0.285684 0.86672,-2.64935 0.79935,-1.602537 -0.0495,0.769096 -0.24872,1.818439 -0.58134,2.513068 -0.0631,0.131713 -0.19958,0.213651 -0.29067,0.32779 -0.0546,0.06838 -0.0908,0.286904 -0.14534,0.21853 -0.27366,-0.342903 0.9084,-3.669572 0,-1.529694 -0.14446,0.340305 -0.28381,0.682882 -0.43601,1.019794 -0.73376,1.624301 -0.28029,0.359019 -0.50867,1.274744 -0.0474,0.189934 0.0124,-0.396494 0.0727,-0.582739 0.19503,-0.6028 0.44972,-1.184916 0.65401,-1.784641 0.72677,-2.133524 -0.58134,1.537991 -0.58134,1.821063 0,0.207804 0.005,-0.422542 0.0727,-0.619162 0.16793,-0.490976 0.45214,-0.915135 0.72668,-1.347586 0.0469,-0.07386 0.23019,-0.239792 0.14534,-0.218527 -0.56567,0.141755 -1.66049,1.637231 -1.8167,2.185275 -0.005,0.0181 0.73982,-0.727554 0.50868,-0.582742 -0.5079,0.318201 -1.40168,1.154965 -2.10737,0.80127 -2.6e-4,-1.33e-4 1.02592,-0.608984 0.94468,-0.619162 -0.31513,-0.03949 -0.46154,0.288276 -0.72668,0.364212 -0.37258,0.106709 -0.77512,0 -1.16268,0 -0.29169,0 -1.1637,0.07284 -0.87202,0.07284 0.18477,0 1.59899,-0.327789 0.94469,-0.327789 -0.35587,0 -3.34273,-0.05013 -3.34273,0.07284 0,0.454287 2.56293,-0.145685 2.76138,-0.145685 0.0485,0 -0.0983,-0.01177 -0.14533,0 -0.14864,0.03725 -0.28512,0.118991 -0.43601,0.145685 -1.03185,0.182528 -2.07863,0.254947 -3.12472,0.254947 -0.24222,0 -0.48445,0 -0.72668,0 -0.0727,0 -0.28993,-0.01029 -0.218,0 1.031,0.14764 1.17812,0.07942 2.47071,-0.254947 0.22138,-0.05727 0.80315,-0.308629 0.58134,-0.364215 -1.10889,-0.277889 -2.63202,0.13148 -3.70606,0.400635 -0.16447,0.04122 0.33912,0 0.50868,0 0.48445,0 0.9689,0 1.45335,0 0.19378,0 -0.38766,0.0061 -0.58134,0 -0.89986,-0.02819 -1.78588,-0.152358 -2.68871,-0.109262 -0.17618,0.0084 -0.67976,0.102809 -0.50867,0.145684 0.53515,0.13411 2.024,-0.51105 1.30802,-0.400634 -0.82334,0.126973 -1.2022,0.187618 -2.0347,0.218527 -0.43571,0.01617 -0.88509,-0.105987 -1.30802,0 -0.0916,0.02294 1.07502,0.426585 0.65401,0.473477 -1.03988,0.115819 -2.15061,0 -3.19739,0 -0.34685,0 1.33929,-0.08944 1.01735,-0.218527 -0.60402,-0.242189 -1.59998,0.290724 -2.18003,0 -0.22919,-0.114872 0.0976,-0.239414 0.58134,-0.29137 0.19305,-0.02074 0.38729,-0.02994 0.58134,-0.03642 0.24209,-0.0081 0.48446,0 0.72668,0 0.0874,0 -0.13075,-0.140542 -0.218,-0.145685 -1.01611,-0.05992 -2.04742,0.276643 -3.05205,0.364212 -0.31742,0.02767 -0.94468,-0.172932 -0.94468,0.145685 0,0.08371 1.99509,0.122547 1.74402,-0.254947 -0.14816,-0.222782 -0.53179,-0.07284 -0.79934,-0.07284 -0.48445,0 -0.96891,0 -1.45336,0 -0.14533,0 -0.31054,-0.07336 -0.43601,0 -0.29828,0.174416 -0.37759,0.33701 -0.72667,0.400632 -0.26213,0.04778 -0.55204,-0.09916 -0.79935,0 -0.45392,0.182004 -0.74111,0.56328 -1.23535,0.728425"
       style="fill:none;stroke:#000000;stroke-width:2;stroke-linecap:round;stroke-linejoin:round;stroke-miterlimit:4;stroke-dasharray:none;stroke-opacity:1" />
    <path
       id="path910"
       d="m 175.25801,69.97737 c -1.9674,4.337722 -0.75886,0.547163 -0.50892,6.810777 0.035,0.877789 -0.35384,-1.721176 -0.50867,-2.585911 -0.22515,-1.25739 0.36869,2.528247 0.58134,3.787809 0.0403,0.238469 0.13553,0.464659 0.218,0.692005 0.0149,0.04112 0.0727,0.153006 0.0727,0.109265 0,-0.498221 -0.32187,-1.12291 -0.43601,-1.529694 -0.26873,-0.957807 -0.25672,-1.185963 -0.436,-2.039591 -0.0725,-0.345368 -0.002,0.711187 0.0727,1.056217 0.13287,0.618408 0.59802,1.85869 0.87201,2.476645 0.088,0.198441 0.38292,0.779235 0.29067,0.58274 -0.26883,-0.572646 -2.02573,-5.352463 -2.2527,-4.698341 -0.29476,0.849468 0.16285,2.797968 0.43601,3.605704 0.11478,0.339426 0.28516,1.227008 0.50867,0.946952 0.20042,-0.251121 -0.91258,-2.704978 -0.94468,-2.804435 -0.10857,-0.336383 -0.19628,-0.679162 -0.29067,-1.019797 -0.0267,-0.09646 -0.051,-0.389093 -0.0727,-0.29137 -0.21669,0.977435 0.14375,2.031318 0.58134,2.877281 0.20734,0.400822 0.71105,1.535186 0.79935,1.092636 0.0435,-0.217964 -0.87397,-2.990469 -1.01735,-3.277912 -0.0553,-0.110781 -0.10004,0.24348 -0.0727,0.364212 0.0598,0.263739 1.67702,4.057809 1.96203,3.71497 0.23443,-0.281988 -0.27465,-1.766152 -0.36334,-2.185276 -0.0671,-0.316892 -0.24023,-1.270098 -0.218,-0.946954 0.0849,1.23367 0.66984,2.244523 1.30802,3.277914 0.13548,0.219377 0.50867,0.840582 0.50867,0.58274 0,-0.625642 -0.62362,-1.828104 -0.94468,-2.330961 -0.19643,-0.307657 -0.0607,0.752856 0.0727,1.092637 0.27126,0.69111 0.79911,1.420177 1.30802,1.966748 0.11686,0.125505 0.51665,0.441053 0.36334,0.364213 -0.10585,-0.05305 -0.76745,-0.79293 -0.43601,-0.32779 0.18442,0.258799 0.67327,1.165915 0.94469,1.274744 0.90834,0.364212 -0.2826,-0.242808 0.36333,0 0.45746,0.171958 0.52045,0.368572 1.09002,0.327789 0.0685,-0.0049 0.26311,0.07284 0.218,0.07284 -0.0681,0 -0.50867,-0.335743 -0.50867,-0.254947 0,1.021056 1.52247,2.235022 2.54338,1.893903 0.24247,-0.08102 -0.44351,-0.255561 -0.65402,-0.400632 -0.80487,-0.554683 -0.56151,-0.394229 -1.30802,-1.092639 -0.14413,-0.134845 -0.29153,-0.266155 -0.436,-0.400632 -0.0251,-0.02336 -0.10009,-0.09345 -0.0727,-0.07284 1.04034,0.78213 2.27702,1.517592 3.48806,2.003169 1.40584,0.563689 0.39162,-0.858409 0,-1.201902 -0.23207,-0.203539 0.39895,0.481727 0.65401,0.655582 0.37266,0.254026 0.74578,0.51993 1.16268,0.692004 1.04111,0.429723 3.40719,0.105156 3.63339,0.218528 0.0263,0.01318 0.1594,0.218236 0.218,0.25495 0.34293,0.214844 0.96503,0.0191 1.30803,0 0.7011,-0.03905 1.49814,0.188317 2.18003,0.03642 1.09789,-0.244563 2.17947,-0.716127 3.27005,-1.019795 0.5618,-0.156429 0.92874,-0.640386 1.45336,-0.874109 0.32704,-0.145701 0.53312,-0.327792 0.50867,-0.327792 -0.0768,0 -0.0149,0.16791 -0.0727,0.218527 -0.47468,0.416343 -0.93725,0.958427 -1.45336,1.311164 -0.46778,0.319709 -1.98901,0.609277 -2.54338,0.655585 -0.61864,0.05168 -1.52536,0.112786 -2.10736,-0.07284 -0.88087,-0.28095 0.29225,-0.160097 -1.01735,-0.29137 -0.79362,-0.07955 -1.60335,0.01336 -2.39804,-0.03642 -0.90584,-0.05675 -1.77641,-0.300895 -2.68871,-0.327792 -0.94829,-0.02796 -1.56481,-0.312584 -2.54337,-0.364213 -0.29254,-0.01543 -1.07891,0.09813 -0.87202,-0.109262 0.11089,-0.111154 3.04188,1.755688 3.34272,1.893903 0.72968,0.335243 1.44574,-0.367757 2.10737,-0.546316 0.50934,-0.137459 1.15081,-0.03642 1.67136,-0.03642"
       style="fill:none;stroke:#000000;stroke-width:2;stroke-linecap:round;stroke-linejoin:round;stroke-miterlimit:4;stroke-dasharray:none;stroke-opacity:1" />
    <path
       id="path912"
       d="m 172.64173,73.728759 c 0.19378,1.214043 0.38756,2.428084 0.58134,3.642127"
       style="fill:none;stroke:#000000;stroke-width:2;stroke-linecap:round;stroke-linejoin:round;stroke-miterlimit:4;stroke-dasharray:none;stroke-opacity:1" />
    <path
       id="path914"
       d="m 212.82703,81.450065 c 1.08718,1.103961 -0.48234,2.826602 0.14534,4.00634 0.17702,0.332716 0.19378,-0.728425 0.29067,-1.09264 0.19378,-0.728424 0.26858,-1.499465 0.58134,-2.185273 0.26775,-0.587094 -0.0938,2.529636 0.14534,1.930326 0.0841,-0.210706 0.69041,-2.549554 0.87201,-2.731595 0.20578,-0.206277 0.0157,0.583163 0,0.874112 -0.0337,0.624414 -0.0727,1.230765 -0.0727,1.857483 0,0.194247 0,-0.388493 0,-0.582739 0,-1.031936 0,-2.063872 0,-3.095808 0,-0.86197 0.0223,-1.724229 0,-2.58591 -0.002,-0.07674 -0.0302,-0.282446 -0.0727,-0.218528 -0.74809,1.124831 -0.59656,3.95809 -0.94468,5.353926 -0.0206,0.08246 0,-0.169966 0,-0.25495 0,-0.364212 0,-0.728424 0,-1.092636 0,-2.622331 0,-5.244661 0,-7.866991 0,-0.473478 0,-0.946952 0,-1.420429 0,-0.04856 0.004,-0.194104 0,-0.145685 -0.22193,2.892041 0.10073,5.829146 -0.21801,8.70468 -0.008,0.0724 0,-0.145685 0,-0.21853 0,-0.412774 -0.009,-0.82564 0,-1.238321 0.16946,-7.983471 -0.0251,8.658468 0.14534,-7.830569 0.005,-0.461311 0,-0.922673 0,-1.384009 0,-0.169965 0,-0.679862 0,-0.509897 0,2.720158 -0.23534,5.442456 -0.36334,8.158361 -0.0389,0.82605 0.11561,1.691926 -0.14534,2.476646 -0.046,0.138242 0.0163,-0.292291 0,-0.437055 -0.0565,-0.499856 -0.18405,-0.991386 -0.218,-1.493271 -0.10003,-1.478947 -0.0727,-4.559028 -0.0727,-5.973088 0,-0.886248 0.20253,-1.795952 0,-2.65875 -0.0139,-0.059 -0.13566,0.04943 -0.14533,0.109262 -0.066,0.408178 -0.056,0.825175 -0.0727,1.238324 -0.10202,2.53101 -0.14534,5.079333 -0.14534,7.612041 0,0.109265 0,-0.218527 0,-0.327789 0,-0.54632 0,-1.092639 0,-1.638956 0,-5.71948 -0.0112,0.213214 0.0727,-8.777523 0.006,-0.624102 0.0908,-1.955604 -0.14534,-2.695173 -0.12894,-0.403913 -0.27376,0.814665 -0.29067,1.238321 -0.0219,0.549013 0.0239,7.292248 0.21801,7.357094 0.18988,0.06345 0.12698,-0.383386 0.14533,-0.582739 0.0546,-0.592865 0.0632,-1.189344 0.0727,-1.784641 0.0602,-3.803571 0.1159,-7.624056 0.65401,-11.399853 0.0103,-0.07212 0,0.145685 0,0.218527 0,0.497755 -0.0281,0.996304 0,1.493271 0.13432,2.378647 0.29067,4.716315 0.29067,7.102144 0,0.04262 0,-1.487077 0,-1.529693 0,-1.204773 -0.02,-3.882562 0.0727,-4.989711 0.0696,-0.831477 0.24792,-1.650281 0.36334,-2.476646 0.0541,-0.387739 0.0859,-1.55245 0.14533,-1.165479 0.083,0.540525 -0.0551,1.092383 -0.0727,1.638956 -0.0987,3.065926 -0.29907,6.260055 -0.0727,9.32384 0.003,0.04362 0.0659,-0.06606 0.0727,-0.109262 0.0665,-0.42246 0.12845,-0.84741 0.14533,-1.274744 0.0316,-0.800642 -0.028,-1.603026 0,-2.403803 0.12725,-3.635269 0.53411,-7.254272 0.65401,-10.889956 0.0248,-0.752295 0,-1.505411 0,-2.258118 0,-0.04856 0,-0.194247 0,-0.145685 0,2.401059 -0.1295,4.77861 -0.29067,7.174989 -0.067,0.995913 -0.14221,1.991259 -0.218,2.986542 -0.0453,0.595128 -0.10761,1.188985 -0.14534,1.784641 -0.0107,0.169627 0.0466,0.673354 0,0.509898 -0.26655,-0.935194 -0.11947,-1.941603 -0.14533,-2.913701 -0.0809,-3.04171 -0.137,-3.875296 0.0727,-6.992881 0.12188,-1.812105 0.36334,-3.539853 0.36334,-5.353923 0,-0.461974 -0.0559,0.92234 -0.0727,1.384006 -0.10817,2.981661 -0.17766,5.945222 -0.36334,8.923208 -0.0363,0.582112 -0.0533,1.165299 -0.0727,1.748221 -0.005,0.145605 0.0748,0.562057 0,0.437054 -0.91004,-1.520385 -0.65401,-8.397716 -0.65401,-10.197951 0,-3.344127 -0.12062,-1.891583 0.218,-4.479814 0.0238,-0.182158 -0.0916,-0.628634 0.0727,-0.54632 0.24836,0.124481 -0.22654,8.089741 -0.29067,8.668261 -0.1012,0.912958 -0.25802,1.8191 -0.36334,2.731592 -0.0643,0.556861 -0.10686,1.116145 -0.14534,1.675379 -0.01,0.145341 0.0375,0.577842 0,0.437055 -0.19404,-0.729412 -0.28461,-3.124756 -0.29067,-3.350755 -0.0759,-2.834087 0.15577,-5.56773 0.43601,-8.376891 0.0931,-0.933 0.1529,-1.869067 0.218,-2.804435 0.008,-0.109 0.0488,-0.425566 0,-0.327792 -0.54824,1.099129 -0.26642,3.562344 -0.29067,4.552659 -0.12958,5.293156 -0.0742,1.40131 -0.50867,6.482982 -0.0756,0.884346 0.0283,1.788334 -0.14534,2.65875 -0.0214,0.107154 -0.0132,-0.219332 0,-0.32779 0.0595,-0.487402 0.18007,-0.967295 0.218,-1.456851 0.25306,-3.265903 0.0727,-6.596536 0.0727,-9.870159 0,-0.87411 0,-1.748221 0,-2.622331 0,-0.169965 0,-0.679862 0,-0.509897 0,1.711799 0,3.423597 0,5.135396 0,0.388493 0,0.776989 0,1.165482 0,0.09712 0,0.388493 0,0.291369 0,-2.337162 -0.0483,-4.663101 0.14534,-6.992881 0.0852,-1.024779 0.0727,-0.720929 0.0727,-1.493272 0,-0.03642 0,-0.145685 0,-0.109262 0,0.729919 0.0947,1.304054 0.14533,2.039588 0.0809,1.175314 -0.16061,3.45213 0.14534,0.692005 0.0158,-0.142738 0.40057,-2.806005 0.436,-2.986543 0.0525,-0.267634 0.22468,-1.02948 0.29068,-0.764847 0.33632,1.348547 0.14533,3.41421 0.14533,4.589079 0,0.352073 0,0.704143 0,1.056217 0,0.09712 -0.006,0.388278 0,0.291369 0.10318,-1.551323 0.22253,-3.022883 0.50868,-4.552656 0.0543,-0.290335 0.10639,-0.581319 0.14533,-0.874112 0.01,-0.07221 0,-0.29137 0,-0.218527 0,2.041485 -0.14533,4.080404 -0.14533,6.118772"
       style="fill:none;stroke:#000000;stroke-width:2;stroke-linecap:round;stroke-linejoin:round;stroke-miterlimit:4;stroke-dasharray:none;stroke-opacity:1" />
    <path
       id="path916"
       d="m 229.6133,81.377223 c 0.0485,1.384009 0.0273,2.772203 0.14534,4.152024 0.0456,0.532783 0.0418,-1.0687 0.0727,-1.602536 0.066,-1.141603 0.13815,-2.282878 0.21801,-3.423597 0.017,-0.24342 -0.0997,-0.901177 0.0727,-0.728425 0.55029,0.551619 -0.50868,1.246214 -0.50868,1.602534 0,0.595259 0.40109,1.126344 0.50868,1.711798 0.0922,0.501502 0,1.019797 0,1.529694 0,0.03642 0,-0.07284 0,-0.109265 0,-0.206385 -0.008,-0.412943 0,-0.619159 0.0501,-1.229532 0.0861,-1.346362 0.29067,-2.658753 0.0436,-0.280019 0.1067,-0.556932 0.14534,-0.837689 0.01,-0.07216 0,-0.29137 0,-0.218528 0,1.005547 -0.0346,2.018316 0,3.022965 0.01,0.280112 0.0317,0.560422 0.0727,0.83769 0.008,0.05368 0.0275,0.175836 0.0727,0.145685 0.39494,-0.263928 0.41243,-2.228536 0.43601,-2.476646 0.0311,-0.327213 0.0528,-0.655288 0.0727,-0.983374 0.004,-0.07271 0,-0.29137 0,-0.218527 0,0.722759 0.07,2.475981 0.0727,2.476645 0.13592,0.03406 0.24064,-0.790824 0.29067,-1.311166 0.17947,-1.86644 0.21801,-3.735727 0.21801,-5.608873 0,-0.109263 0,0.218527 0,0.327792 0,0.424915 0,0.849828 0,1.274744 0,1.15334 0,2.30668 0,3.46002 0,0.254947 0,1.019794 0,0.764844 0,-3.386572 0.0541,1.437931 -0.29067,-3.642125 -0.0925,-1.363122 -0.0727,-4.050456 -0.0727,-5.49961 0,-0.400632 0,-0.801267 0,-1.201899 0,-0.08498 0,-0.339934 0,-0.25495 0,2.442295 -0.17039,4.91549 -0.29067,7.357094 -0.0168,0.340381 0.26812,1.019794 -0.0727,1.019794 -0.33993,0 0,-0.679863 0,-1.019794 0,-2.415945 0,-4.831887 0,-7.247832 0,-0.279228 0.24963,-0.712573 0,-0.837686 -0.232,-0.116282 -0.10443,0.508579 -0.14534,0.764844 -0.10445,0.65442 -0.23666,1.30625 -0.29067,1.966748 -0.1258,1.53841 -0.11669,3.085283 -0.218,4.625499 -0.0256,0.388408 -0.0517,0.776798 -0.0727,1.165482 -0.003,0.06061 0,0.242808 0,0.182104 0,-1.832229 -0.0288,-3.667881 0,-5.499607 0.0103,-0.65595 0.0547,-1.310963 0.0727,-1.966749 0.006,-0.230582 0.10296,-0.48559 0,-0.692004 -0.082,-0.164394 -0.048,0.364267 -0.0727,0.546319 -0.0723,0.534234 -0.14823,1.067972 -0.218,1.602536 -0.29577,2.265961 -0.35304,4.548011 -0.65401,6.810775 -0.008,0.06017 0,-0.121404 0,-0.182108 0,-0.412773 0.0173,-0.825912 0,-1.238321 -0.2024,-4.818435 -0.14534,0.551577 -0.14534,-4.844029 0,-0.497755 0,-0.995513 0,-1.493271 0,-0.109262 0.0103,-0.436565 0,-0.327789 -0.16504,1.7371 -0.22958,3.12951 -0.43601,4.844026 -0.11387,0.945795 -0.36334,2.065766 -0.36334,3.059384 0,0.07676 0.0587,-0.143052 0.0727,-0.218527 0.083,-0.447394 0.17951,-0.894183 0.21801,-1.347586 0.20014,-2.357403 0.33798,-4.707573 0.58134,-7.065725 0.06,-0.581659 0.0969,-1.165478 0.14533,-1.748218 0.0383,-0.460042 0.10847,-1.165482 0.0727,-1.165482 -0.0568,0 0.0486,5.063657 0.14534,5.645296 0.0184,0.1104 0.068,-0.215972 0.0727,-0.327792 0.0197,-0.473068 0.009,-0.947034 0,-1.420429 -0.0449,-2.409296 -0.10307,-3.293923 -0.29067,-5.86382 -0.14572,-1.996393 -0.21141,-2.162369 -0.29067,-3.75139 -0.005,-0.097 0,-0.388493 0,-0.29137 0,1.55661 -0.006,3.105873 0.0727,4.661919 0.0345,0.680712 0.11446,1.358704 0.14534,2.039591 0.0176,0.388093 0,0.776986 0,1.165481 0,0.09712 0,0.388493 0,0.29137 0,-2.656065 0.10371,-5.294005 0.36333,-7.939833 0.0562,-0.572461 0.14217,-1.141614 0.21801,-1.711802 0.0211,-0.158279 0.0135,-0.621776 0.0727,-0.473474 0.45525,1.140857 0.20259,2.450309 0.218,3.678547 0.0271,2.157825 0.26829,4.914241 0,7.065722 -0.0332,0.266125 -0.0661,-0.533162 -0.0727,-0.801267 -0.0177,-0.716069 0,-1.432568 0,-2.148853 0,-2.42546 -0.0508,-3.501229 0.14534,-5.900243 0.0429,-0.52532 0.13952,-1.044919 0.218,-1.566116 0.0184,-0.122415 0.0604,-0.487397 0.0727,-0.364213 0.21463,2.15147 0,4.471215 0,6.62867 0,0.740566 0,1.48113 0,2.221696 0,0.377132 0.0245,1.503106 0.0727,1.129059 0.29036,-2.255737 0.0468,-4.615408 0.218,-6.883617 0.0846,-1.120278 0.23957,-2.234128 0.36334,-3.350755 0.10147,-0.915397 0.33238,-2.528583 0.218,-2.58591 -0.19656,-0.09851 -0.0473,0.437181 -0.0727,0.655582 -0.38503,3.319166 -0.29202,1.928884 -0.43601,5.681718 -0.0317,0.825296 -0.0564,1.650902 -0.0727,2.476645 -0.008,0.400556 -0.40063,1.201902 0,1.201902 0.40355,0 0.12259,-0.798992 0.14534,-1.201902 0.22991,-4.071609 -0.0146,-8.136302 0.436,-12.201123 0.0535,-0.482658 0,0.971236 0,1.456852 0,1.44471 0.0192,2.889546 0,4.334129 -0.005,0.389212 -0.0727,1.554728 -0.0727,1.165481 0,-3.338221 -0.0727,-6.676429 -0.0727,-10.015846 0,-0.461336 0.0219,-0.92319 0,-1.384007 -0.003,-0.05421 -0.0526,-0.196088 -0.0727,-0.145685 -0.98435,2.466793 -0.86678,7.927383 -1.09002,10.635007 -0.0151,0.183089 0.11104,0.546317 -0.0727,0.546317 -0.1821,0 0,-0.364213 0,-0.546317 0,-2.267472 0.0522,-4.510516 0.14534,-6.774355 0.0175,-0.424556 0,-0.849828 0,-1.274744 0,-0.133543 0,-0.534178 0,-0.400632 0,1.788999 -0.16836,3.497609 -0.36334,5.281081 -0.0916,0.838279 -0.17843,1.677297 -0.29067,2.513065 -0.0574,0.427249 -0.15093,0.848913 -0.218,1.274744 -0.006,0.03598 0,0.145688 0,0.109265 0,-1.835388 -0.10569,-3.662661 -0.0727,-5.499611 0.01,-0.546766 0.0338,-1.093483 0.0727,-1.638956 0.01,-0.135379 0.0276,-0.528653 0.0727,-0.400632 0.11404,0.323877 0.11479,0.677791 0.14534,1.019794 0.09,1.007817 0.0727,1.485599 0.0727,2.440223 0,0.09712 0,-0.194246 0,-0.291369 0,-0.437055 0,-0.87411 0,-1.311164 0,-0.667724 -0.0436,-1.336871 0,-2.003169 0.21603,-3.302391 1.23535,-6.511848 1.23535,-9.833739 0,-0.194247 0.0112,0.388816 0,0.582739 -0.0373,0.644187 -0.12389,1.28542 -0.14533,1.930326 -0.25474,7.660286 0.23873,-2.11174 -0.0727,4.443394 -0.0168,0.352507 0.24283,0.898089 -0.0727,1.056217 -0.3039,0.152312 0.0242,-0.680723 0,-1.019794 -0.0486,-0.682009 -0.18755,-1.356535 -0.218,-2.039591 -0.0665,-1.491986 -0.0525,-2.986482 -0.0727,-4.479814 -0.001,-0.08624 5.3e-4,-1.134422 0,-1.129059 -0.22244,2.452735 -0.42556,4.921649 -0.79935,7.357091 -0.0111,0.072 0,-0.145685 0,-0.218527 0,-0.364212 0,-0.728424 0,-1.092637 0,-0.619162 0,-1.238324 0,-1.857483 0,-1.561637 -0.0486,-3.143456 0.14534,-4.698344 0.008,-0.06024 0.0115,0.122508 0,0.182108 -0.0614,0.318034 -0.15754,0.62874 -0.21801,0.946951 -0.21974,1.156409 -0.24977,1.43796 -0.29067,2.585911 -0.0121,0.339717 0,0.679862 0,1.019794 0,0.0607 0,-0.121404 0,-0.182105 0,-1.397841 0.25024,-2.702065 0.65401,-4.042759 0.066,-0.219189 0.2785,-0.795351 0.36334,-0.582742 0.53151,1.331965 -0.11912,6.121765 0.21801,6.628669 0.0787,0.118288 0.12738,-0.259712 0.14533,-0.400634 0.0553,-0.434219 0.0526,-0.873898 0.0727,-1.311164 0.0817,-1.781403 0.0137,-1.920031 0.29067,-3.678547 0.0625,-0.396854 0.35978,-1.465773 0.50868,-1.092639 0.38576,0.966734 -0.51569,2.55012 -0.79935,3.460019"
       style="fill:none;stroke:#000000;stroke-width:2;stroke-linecap:round;stroke-linejoin:round;stroke-miterlimit:4;stroke-dasharray:none;stroke-opacity:1" />
    <path
       id="path918"
       d="m 245.81823,74.784976 c 0,-0.388493 0.0341,-0.778484 0,-1.165479 -0.11144,-1.266047 0.3815,-4.760937 -0.43601,-3.787812 -0.96102,1.14396 -0.0288,2.99031 -0.14533,4.479816 -0.0202,0.25872 -0.13273,-0.505642 -0.14534,-0.764847 -0.0602,-1.237096 -0.0727,-2.47641 -0.0727,-3.714969 0,-0.595374 0.0136,-1.192208 0.0727,-1.784641 0.0349,-0.350332 0,0.704143 0,1.056216 0,3.68072 0.0252,-0.01185 -0.0727,3.569282 -0.0103,0.376992 0.23605,1.345679 -0.0727,1.129059 -0.80048,-0.561686 -0.436,-3.464803 -0.436,-4.042759 0,-0.558458 0,-1.116917 0,-1.675376 0,-0.242808 -0.10838,-0.945705 0,-0.728427 0.22323,0.447538 0.13496,7.303024 -0.29067,4.188447 -0.0806,-0.589891 -0.0727,-1.18927 -0.0727,-1.784644 0,-0.777364 -0.008,-1.557774 0.0727,-2.33096 0.0959,-0.921205 0.35035,-1.819043 0.50867,-2.731593 0.0477,-0.275119 0,0.558459 0,0.837689 0,1.691939 -0.0829,3.372676 -0.14533,5.062554 -0.007,0.181983 -0.0356,0.724905 0,0.546319 0.47404,-2.375948 0.66148,-4.79824 1.16268,-7.174986 0.17618,-0.835475 0.22186,-1.740234 0.65401,-2.476646 0.18596,-0.316889 0.19945,0.729223 0.14534,1.092637 -0.17347,1.164986 -0.5855,2.567434 -1.09002,3.642127 -0.031,0.06594 -0.0108,-0.146489 0,-0.21853 0.062,-0.414507 0.0936,-0.838102 0.218,-1.238322 0.4661,-1.498983 1.44573,-3.550766 2.68871,-4.589078 0.028,-0.02334 0.0124,0.07502 0,0.109265 -0.0853,0.235193 -0.18705,0.46428 -0.29067,0.692004 -0.75377,1.656461 -1.57856,3.300315 -2.2527,4.989711 -0.0485,0.121404 0.0924,-0.244719 0.14533,-0.364212 0.1893,-0.426935 0.37496,-0.855808 0.58135,-1.274744 0.99915,-2.028145 2.01079,-3.676079 3.27005,-5.681716 0.26319,-0.419195 0.57068,-0.809225 0.87201,-1.201901 0.0626,-0.08163 0.2482,-0.316892 0.21801,-0.218527 -0.43672,1.422736 -2.15516,4.093434 -2.90672,5.463188 -0.21429,0.390554 -0.42674,0.782333 -0.65401,1.165479 -0.0396,0.0668 -0.1904,0.245356 -0.14533,0.182107 1.24473,-1.746824 2.39444,-3.540329 3.70606,-5.244661 0.26341,-0.342286 0.5391,-0.675084 0.79934,-1.019796 0.0791,-0.104728 0.26664,-0.205915 0.218,-0.32779 -0.1222,-0.306255 -0.5393,0.379997 -0.79934,0.582739 -0.49039,0.382331 -2.82704,2.402398 -3.19739,2.476646 -0.0483,0.0097 0.47745,-1.135126 0.50868,-1.201902 0.46683,-0.998302 1.03689,-1.933072 1.52602,-2.9137 0.15389,-0.308515 -0.46308,0.514194 -0.65401,0.801267 -1.03814,1.560957 -1.80303,3.16852 -3.05204,4.589079 -0.22647,0.257569 -0.46884,0.502269 -0.72668,0.728424 -0.0375,0.03293 -0.15116,0.08602 -0.14534,0.03642 0.13605,-1.159195 1.02974,-2.731868 1.52603,-3.71497 0.22041,-0.436626 0.48874,-0.847413 0.72667,-1.274744 0.0528,-0.09483 0.19073,-0.389956 0.14534,-0.29137 -0.46044,1.000022 -3.05205,4.486106 -3.05205,5.098976 0,0.185193 0.20058,-0.311674 0.29067,-0.473477 0.2007,-0.360447 0.36614,-0.740661 0.58134,-1.092636 0.80316,-1.313559 1.88914,-2.492635 3.05205,-3.49644 0.7155,-0.617601 2.68058,-2.404306 3.56073,-2.731595 0.41119,-0.152906 0.86931,-0.145685 1.30802,-0.145685 0.28233,0 0.12735,0.300381 0.436,0.145685 0.10003,-0.05013 0.17726,-0.374878 -0.0727,-0.29137 -0.25008,0.08356 -0.001,0.442859 0.14533,0.473477 0.59326,0.123891 1.21585,0.0064 1.8167,-0.07284 0.66521,-0.08774 2.4841,-0.719027 3.19738,-0.218528 0.33357,0.234061 -0.47263,0.152218 -1.09001,0.218528 -0.56123,0.06027 -2.06487,0.36654 -2.61605,0.473474 -0.31482,0.06108 -0.62932,0.123875 -0.94468,0.182108 -0.1449,0.02676 -0.43601,-0.07451 -0.43601,0.07284 0,0.145841 0.29216,-0.01238 0.43601,-0.03642 0.87628,-0.146396 1.74541,-0.332991 2.61604,-0.509897 0.38883,-0.079 0.77564,-0.167653 1.16269,-0.254947 0.0974,-0.02199 0.37997,-0.117599 0.29067,-0.07284 -0.66879,0.335198 -1.34333,0.661225 -2.0347,0.946951 -1.84974,0.764443 -3.79382,1.269783 -5.66809,1.966749 -0.0421,0.01566 -0.94468,0.196236 -0.94468,0.582739 0,0.316042 0.55832,-0.305466 0.79934,-0.509897 1.58534,-1.344668 0.91061,-0.927124 2.68871,-2.185275 0.32903,-0.232813 -0.57144,0.569145 -0.87201,0.837689 -0.82201,0.734425 -1.27066,1.099608 -2.18004,1.748218 -0.23537,0.167878 -0.4726,0.335526 -0.72667,0.473478 -0.0426,0.02312 -0.17631,0.03725 -0.14534,0 1.46981,-1.76801 4.27212,-4.261287 6.68544,-4.261287 0.52997,0 0.87516,0.401085 1.38069,0.473477 0.29559,0.04233 1.09228,-0.544052 1.30802,-0.327792 0.35469,0.355542 -1.65689,0.754541 -0.72668,1.056217 0.32771,0.106277 0.67538,0.140414 1.01735,0.182104 0.47445,0.05784 5.01408,0.195054 5.01408,0.21853 0,0.793658 -1.96203,-0.07691 -1.96203,0.109263 0,0.619789 1.19228,1.302498 1.74403,0.946951 0.74824,-0.482171 -1.95295,-1.817354 -1.96203,-1.821061 -2.41702,-0.987081 -1.97439,0.801267 0.14533,0.801267 0.33749,0 1.11801,-0.07464 0.94468,-0.364212 -0.22388,-0.374047 -4.36492,-2.24428 -2.97938,-0.692004 1.04738,1.173405 2.52391,1.669928 4.0694,1.711798 1.04213,0.02823 1.31928,-0.276317 1.30801,-0.29137 -0.24334,-0.325244 -1.18941,-0.165235 -1.52601,-0.182104 -0.0975,-0.0049 -0.34176,-0.11964 -0.29067,-0.03642 0.37011,0.60288 0.93468,1.163114 1.38067,1.711799 0.14103,0.173468 0.43815,0.649184 0.50869,0.437054 0.0932,-0.280278 -0.0665,-0.589465 -0.14533,-0.874109 -0.0615,-0.22193 -0.0905,-0.847339 -0.21802,-0.655582 -0.40436,0.608031 1.0917,2.352791 1.3807,2.768015 0.1864,0.26783 0.47332,1.000136 0.654,0.728425 0.53612,-0.806114 -0.4041,-3.265977 -0.58134,-3.78781 -0.25575,-0.753128 0.0537,0.662475 0.21801,1.129059 0.24686,0.701144 1.26064,2.671416 1.96202,3.022963 0.0434,0.02175 0.0159,-0.09976 0,-0.145685 -0.10628,-0.30901 -0.26964,-0.597469 -0.36332,-0.910532 -0.18236,-0.609288 -0.21913,-1.259618 -0.43601,-1.857483 -0.0206,-0.05706 -0.008,0.121936 0,0.182107 0.0405,0.304668 0.0567,0.616236 0.14533,0.910532 0.26191,0.869691 0.78312,1.502558 1.23534,2.258115 0.1278,0.213501 -0.36052,-0.346405 -0.50866,-0.546316 -0.33761,-0.455579 -0.59997,-0.859349 -0.79936,-1.384009 -0.0172,-0.04539 -0.0153,-0.191765 0,-0.145685 0.42514,1.278466 1.09003,2.871202 1.09003,4.224866 0,0.25345 -0.14364,-0.486134 -0.21801,-0.728424 -0.61087,-1.990143 -0.21458,-0.484169 -0.43601,-2.148856 -0.008,-0.06479 -0.0646,-0.246959 -0.0727,-0.182105 -0.11475,0.920187 0.20896,1.93498 0.65399,2.731593 0.0265,0.04731 0.16164,0.124529 0.14534,0.07284 -0.0848,-0.26921 -0.27715,-0.496072 -0.36333,-0.764846 -0.34007,-0.659482 -0.22503,-1.425097 -0.436,-2.112431 -0.0356,-0.11606 -0.0154,0.243779 0,0.364212 0.0575,0.45139 0.0653,0.918943 0.21799,1.347586 0.41891,1.175759 0.76181,2.496 1.67137,3.350755 0.41889,0.393653 -0.18836,-2.277525 -0.21802,-2.403803 -0.17065,-0.727115 0.0908,1.502074 0.29067,2.221696 0.249,0.896234 0.6155,2.299814 1.09003,3.13223 0.0361,0.06328 0,-0.145685 0,-0.218527 0,-0.327793 0,-0.655585 0,-0.983375 0,-0.522038 -0.0143,-1.04427 0,-1.566113 0.0101,-0.364882 0.0301,-0.73011 0.0727,-1.09264 0.006,-0.0539 0.0667,-0.199622 0.0727,-0.145684 0.0749,0.675724 -0.0579,1.362199 0,2.03959 0.0378,0.441444 0.17674,0.870035 0.21799,1.311164 0.006,0.06678 -0.0545,1.206453 0.0727,1.493272 0.0605,0.136501 -0.0656,-1.95067 -0.0727,-1.893904 -0.15571,1.248759 0,2.497852 0,3.75139 0,0.08498 0.0185,-0.171982 0,-0.25495 -0.079,-0.356505 -0.2217,-0.697627 -0.29067,-1.056217 -0.41331,-2.149305 -0.29038,-2.321705 -0.36333,-4.734764 -0.0206,-0.679984 -0.0148,-1.361768 -0.0727,-2.039588 -0.0151,-0.176093 0.0127,-0.589089 -0.14533,-0.509899 -0.7183,0.36001 -0.35431,6.089239 -0.29068,6.992881 0.0265,0.376201 0.0539,0.752396 0.0727,1.12906 0.006,0.109127 0,0.437054 0,0.327792 0,-2.536823 -0.1346,-4.936779 -0.29068,-7.502779 -0.0243,-0.400627 -0.0161,-0.80455 -0.0727,-1.201902 -0.0169,-0.118327 -0.11255,-0.442735 -0.14533,-0.327792 -0.0759,0.266179 0.13417,9.323843 0.0727,9.323843 -0.37687,0 -0.22032,-0.722384 -0.29067,-1.09264 -0.41315,-2.174226 -0.29067,-2.089279 -0.29067,-4.479813 0,-0.522039 -0.0222,-1.044546 0,-1.566114 0.003,-0.05422 0.069,-0.199824 0.0727,-0.145685 0.17859,2.595589 -0.44707,5.200922 -0.50866,7.794149 -0.009,0.364109 0.0206,0.729014 0,1.092636 -0.004,0.06525 -0.0665,0.247171 -0.0727,0.182108 -0.1528,-1.608365 0.0456,-3.162155 0.36335,-4.734764 0.0641,-0.317492 0.15661,-0.62892 0.21799,-0.946952 0.0114,-0.0596 0.0212,-0.238961 0,-0.182107 -0.64352,1.720239 -0.6391,3.956621 -0.87201,5.718138 -0.13343,1.009298 -0.30462,2.013392 -0.43601,3.022962 -0.0867,0.666052 -0.15994,1.334019 -0.21799,2.003171 -0.0146,0.169328 -0.15195,0.586055 0,0.509897 0.13631,-0.06832 1.81909,-5.847278 2.10735,-5.317503 0.20408,0.375005 -1.00012,3.62703 -1.30802,3.897074 -0.10038,0.08806 -0.0159,-0.268036 0,-0.400634 0.10078,-0.841688 0.38775,-2.444983 0.58134,-3.20507 0.30549,-1.19929 0.47451,-1.794103 1.16269,-2.768015 0.30557,-0.43242 0.83608,-0.850805 0.87201,-0.801267 0.11004,0.15164 -1.24153,5.279533 -1.38067,5.790977 -0.0287,0.105432 -0.0265,-0.221773 0,-0.327789 0.0957,-0.383612 0.23857,-0.753899 0.36332,-1.129059 0.50986,-1.533197 1.06781,-3.096914 2.10738,-4.370552 0.26811,-0.328467 -0.15687,0.835991 -0.29067,1.238324 -0.76829,2.310453 -1.48196,4.623922 -2.18003,6.95646 -0.0914,0.305223 -0.29067,1.229132 -0.29067,0.910531 0,-0.667842 1.54366,-4.743603 2.10735,-5.026133 0.40148,-0.201224 -0.23553,0.872879 -0.43601,1.274744 -0.6759,1.35509 -1.70055,2.622685 -2.25269,4.006337 -0.0135,0.03383 -0.0188,-0.07801 0,-0.109263 0.12965,-0.21659 0.27419,-0.425423 0.43601,-0.619162 0.2304,-0.275849 1.06857,-1.190223 1.45336,-1.493271 0.0426,-0.03358 -0.0443,0.09944 -0.0727,0.145685 -0.1655,0.269613 -0.33788,0.534961 -0.50866,0.801267 -0.92644,1.444598 -1.88188,2.890501 -2.68873,4.406971 -0.1175,0.220874 -0.52795,0.612717 -0.29067,0.692004 0.25334,0.08465 0.35288,-0.402217 0.50869,-0.619162 0.78661,-1.095129 1.42661,-2.300787 2.32537,-3.314332 0.21675,-0.244422 -0.31033,0.578115 -0.50869,0.837687 -0.63794,0.834895 -2.07166,1.897756 -2.25269,2.986545 -0.10853,0.652751 0.94158,-0.942287 1.30802,-1.493271 1.3176,-1.981145 -2.44763,1.925172 -2.61604,1.165479 -0.008,-0.03551 2.61906,-3.177376 2.39803,-3.20507 -0.43588,-0.05461 -0.70353,0.530283 -1.01735,0.837689 -0.31242,0.306054 -0.61,0.628973 -0.94467,0.910529 -0.51197,0.430729 -1.14999,0.861629 -1.74403,1.201902 -0.0526,0.03012 0.0988,-0.07041 0.14534,-0.109262 0.24423,-0.204015 0.49696,-0.398921 0.72668,-0.619162 1.17639,-1.127951 2.351,-2.291739 3.48805,-3.46002 0.10835,-0.11131 0.29067,-0.519539 0.29067,-0.364212 0,0.695539 -2.60011,3.589734 -3.12473,4.115601 -0.2304,0.230958 -0.4763,0.44644 -0.72668,0.655582 -0.0416,0.03474 -0.17912,0.115197 -0.14533,0.07284 0.33665,-0.421807 0.64788,-0.585518 1.09003,-0.910529 0.15282,-0.112337 0.57166,-0.433848 0.50866,-0.25495 -0.38891,1.104635 -1.82422,2.069338 -2.6887,2.695173 -0.37045,0.268192 -0.76919,0.495347 -1.16268,0.728424 -0.1504,0.08908 -0.59228,0.213048 -0.43601,0.29137 0.3763,0.188603 1.69635,-0.971995 1.96202,-1.238322 0.0342,-0.0343 -0.0996,-0.01587 -0.14534,0 -0.27204,0.0944 -0.52892,0.228748 -0.79933,0.327792 -1.12377,0.411594 -2.28813,0.701493 -3.41539,1.092637 -0.31489,0.109265 -0.94468,0.661104 -0.94468,0.327792 0,-0.13272 1.89286,-0.961633 2.0347,-1.019796 0.19154,-0.07854 0.38309,-0.158909 0.58134,-0.218528 0.0464,-0.01394 0.18685,-0.02498 0.14534,0 -0.92026,0.553479 -2.15976,1.024967 -3.19739,1.238324 -1.1243,0.23118 -1.88936,-0.0033 -1.88936,0.182105 0,0.264771 3.36198,-0.459327 3.70606,-1.019794 0.0646,-0.10527 -0.23982,-0.07284 -0.36334,-0.07284 -1.12049,0 -1.6765,0.153236 -2.83404,0.291369 -1.55658,0.185751 -1.09401,0.03978 -2.32537,0.327793 -0.0746,0.01744 -0.16822,0.01461 -0.21801,0.07284 -0.0505,0.05903 0.223,0.182105 0.14534,0.182105 -0.58381,0 -0.0848,0.02355 -1.01735,-0.182105 -0.91694,-0.202213 -1.10812,-0.189275 -1.96204,-0.437057 -0.19881,-0.05769 -0.52459,-0.417616 -0.58134,-0.218528 -0.0907,0.318344 0.0985,0.938769 0.21801,1.238325 0.0935,0.234447 -0.29034,-0.413012 -0.43601,-0.619163 -0.5548,-0.785135 -1.04724,-1.764958 -1.52603,-2.585907 -1.71746,-2.797585 -0.0673,0.01085 -0.72667,-1.311167 -0.0343,-0.06869 0.0389,0.149577 0.0727,0.218527 0.28149,0.575186 0.58619,1.138762 0.87202,1.711799 0.0875,0.175456 0.36088,0.68059 0.218,0.54632 -0.2063,-0.193874 -0.40978,-0.393962 -0.58134,-0.619162 -0.33848,-0.444318 -0.65706,-0.905196 -0.94468,-1.384007 -0.39145,-0.651645 -0.71665,-1.341003 -1.09002,-2.003168 -0.25652,-0.454938 -0.51012,-0.912707 -0.79935,-1.347589 -0.03,-0.04512 -0.16218,-0.124346 -0.14533,-0.07284 0.25436,0.777677 0.55981,1.53823 0.87201,2.294541 0.15751,0.381553 0.90019,1.259875 0.50868,1.129059 -0.59729,-0.199575 -0.64415,-1.101479 -0.79935,-1.711798 -0.298,-1.17189 -0.55049,-2.979648 -0.65401,-4.224867 -0.19135,-2.301687 0.58134,2.037048 0.58134,2.367381 0,0.08498 0.012,-0.170815 0,-0.254948 -0.0608,-0.426772 -0.1553,-0.848246 -0.218,-1.274744 -0.3298,-2.243306 -0.74517,-4.487034 -1.01735,-6.737932 -0.017,-0.14093 0.0546,-1.719053 -0.0727,0.546317 -0.10149,1.805906 -0.0683,2.896302 -0.50867,4.661922 -0.0799,0.320373 0.24473,-0.619977 0.29067,-0.946952 0.0761,-0.541536 0.0412,-1.093004 0.0727,-1.638956 0.10854,-1.885953 0.50867,-3.797271 0.50867,-5.681716 0,-0.133545 0.0106,0.267513 0,0.400633 -0.0379,0.47444 -0.11509,0.945443 -0.14533,1.420428 -0.0772,1.212554 -0.10917,2.427658 -0.14534,3.642128 -0.008,0.266969 0.0221,0.535095 0,0.801266 -0.003,0.03418 -0.066,0.106477 -0.0727,0.07284 -0.38995,-1.954464 -0.0289,-4.131562 0.14534,-6.08235 0.0313,-0.350676 0.1427,-1.378072 0,-1.056217 -0.5205,1.173932 -0.2629,1.413338 -0.36334,2.986543 -0.10764,1.685853 -0.15903,3.543405 -0.50868,5.20824 -0.0125,0.05941 0,-0.121404 0,-0.182107 0,-0.400632 0,-0.801267 0,-1.201902 0,-1.189759 0,-2.379519 0,-3.569282 0,-0.145684 0,-0.582739 0,-0.437054 0,2.50063 -0.16606,5.004652 -0.29067,7.502779 -0.0191,0.382828 -0.041,1.469064 -0.218,1.129059 -0.36277,-0.696979 -0.77457,-4.320884 -0.79935,-3.824232 -0.0843,1.689415 0.30986,3.297751 0.58135,4.953291 0.0536,0.326983 0.1078,0.654153 0.14533,0.983371 0.011,0.0965 0,0.388496 0,0.291373 0,-0.940308 -0.35524,-1.861418 -0.58134,-2.768015 -0.0271,-0.108591 -0.0727,-0.439709 -0.0727,-0.327793 0,0.599869 0.4736,2.961426 1.16269,3.16865 0.49552,0.149014 0.29067,-3.044261 0.29067,-3.095807 0,-0.267089 0,-1.068356 0,-0.801267 0,1.071938 0.1901,2.032929 0.50867,3.059385 0.0452,0.145717 0.25487,1.046305 0.21801,0.473474 -0.0679,-1.055732 -0.14554,-2.732497 -0.36334,-3.714966 -0.0611,-0.275564 -0.39136,-1.045705 -0.36334,-0.764847 0.0515,0.515979 0.31751,0.988451 0.43601,1.493271 0.35943,1.531271 0.32992,3.30051 1.23535,4.661921 0.0269,0.04044 0.0133,-0.09898 0,-0.145685 -0.0842,-0.295296 -0.20772,-0.578469 -0.29067,-0.874109 -0.44266,-1.577689 -0.36334,-1.085519 -0.36334,-2.440226 0,-0.435295 -0.008,-0.125862 0.218,0.83769 0.28207,1.201666 0.46028,2.913774 1.16269,3.969917 0.28093,0.422409 0.66901,-0.07349 0.79934,-0.25495 0.10784,-0.150133 0.15968,-0.334492 0.21801,-0.509897 0.0153,-0.04608 -0.0486,-0.145685 0,-0.145685 0.0542,0 0.64845,1.444746 0.72667,1.529694 0.64934,0.705133 1.37543,-0.03115 1.8167,-0.473478 0.0874,-0.08764 -0.11173,0.24674 -0.0727,0.364213 0.0834,0.250801 0.33167,0.574656 0.50868,0.728427 0.44453,0.386191 0.90564,0.636378 1.45335,0.837686 0.70107,0.257678 0.22274,-0.468728 0.65401,-0.03642 0.64058,0.64212 1.64813,1.172856 2.54338,1.384007 0.20447,0.04823 0.64291,-0.03445 0.87201,0 0.52668,0.07919 1.00176,0.379634 1.52603,0.473477 1.67103,0.299117 5.62857,-0.583801 7.12143,-1.201902 0.95925,-0.397163 1.87836,-0.988758 2.76138,-1.529691 0.14906,-0.09131 0.28376,-0.205518 0.436,-0.291372 0.0435,-0.02453 0.16111,0.01098 0.14534,-0.03642 -0.31298,-0.941194 -1.43775,0.101444 -1.74403,0.25495 -0.46098,0.231044 -1.37665,0.25092 -1.74402,0.619159 -0.15243,0.152802 0.33848,-0.267925 0.50868,-0.400632 0.51488,-0.401434 1.39938,-0.815856 1.74403,-1.420429 0.29255,-0.513212 -1.08215,0.478213 -1.59869,0.764844 -1.45375,0.806697 -0.60942,0.387686 -1.74403,0.80127 -0.35737,0.130265 -0.44741,0.416261 -0.87201,0.546317 -0.50929,0.15599 -1.22988,0.178882 -1.74403,0.218527"
       style="fill:none;stroke:#000000;stroke-width:2;stroke-linecap:round;stroke-linejoin:round;stroke-miterlimit:4;stroke-dasharray:none;stroke-opacity:1" />
    <path
       id="path920"
       d="M 68.156475,229.69617 H 328.83287"
       style="fill:none;stroke:#000000;stroke-width:2;stroke-linecap:round;stroke-linejoin:round;stroke-miterlimit:4;stroke-dasharray:none;stroke-opacity:1" />
  </g>
</svg>
