<?xml version="1.0" encoding="UTF-8" standalone="no"?>
<svg
   xmlns:dc="http://purl.org/dc/elements/1.1/"
   xmlns:cc="http://creativecommons.org/ns#"
   xmlns:rdf="http://www.w3.org/1999/02/22-rdf-syntax-ns#"
   xmlns:svg="http://www.w3.org/2000/svg"
   xmlns="http://www.w3.org/2000/svg"
   xmlns:sodipodi="http://sodipodi.sourceforge.net/DTD/sodipodi-0.dtd"
   xmlns:inkscape="http://www.inkscape.org/namespaces/inkscape"
   sodipodi:docname="placeholder.svg"
   inkscape:version="1.0 (4035a4fb49, 2020-05-01)"
   id="svg870"
   version="1.1"
   viewBox="0 0 400 300"
   height="300mm"
   width="400mm">
  <defs
     id="defs864" />
  <sodipodi:namedview
     inkscape:window-maximized="1"
     inkscape:window-y="-8"
     inkscape:window-x="-8"
     inkscape:window-height="1017"
     inkscape:window-width="1920"
     showgrid="false"
     inkscape:document-rotation="0"
     inkscape:current-layer="layer1"
     inkscape:document-units="mm"
     inkscape:cy="559.65626"
     inkscape:cx="703.05954"
     inkscape:zoom="0.88201169"
     inkscape:pageshadow="2"
     inkscape:pageopacity="0.0"
     borderopacity="1.0"
     bordercolor="#666666"
     pagecolor="#ffffff"
     id="base" />
  <metadata
     id="metadata867">
    <rdf:RDF>
      <cc:Work
         rdf:about="">
        <dc:format>image/svg+xml</dc:format>
        <dc:type
           rdf:resource="http://purl.org/dc/dcmitype/StillImage" />
        <dc:title></dc:title>
      </cc:Work>
    </rdf:RDF>
  </metadata>
  <g
     id="layer1"
     inkscape:groupmode="layer"
     inkscape:label="Layer 1">
    <path
       sodipodi:nodetypes="szzccczzzss"
       id="path1435"
       d="m 112.6369,61.988093 c 3.08093,-7.485507 105.5567,-47.525479 138.33929,-30.994045 32.78259,16.531434 42.45507,53.218638 27.85029,88.914172 -14.60479,35.69553 -70.93958,28.25844 -70.93958,28.25844 l -4.53571,92.22619 -19.65476,1.51191 c 0,0 -0.53667,-106.73971 5.00371,-112.10881 5.54037,-5.3691 62.74287,9.69881 74.17923,-18.47915 C 274.31573,83.138847 257.04412,63.988685 241.12477,54.548512 225.20542,45.108338 130.23567,84.555973 124.20405,84.10277 118.08593,83.643067 109.17227,70.405849 112.6369,61.988093 Z"
       style="fill:none;stroke:#000000;stroke-width:3;stroke-linecap:butt;stroke-linejoin:round;stroke-miterlimit:4;stroke-dasharray:none;stroke-opacity:1" />
    <path
       id="path1439"
       d="m 185.69236,256.90751 c 2.14741,-1.78989 4.55136,-2.63006 6.96129,-3.83792 13.28765,-6.6598 15.58779,9.97363 6.26516,16.39835 -1.64517,1.13379 -1.17007,0.50109 -3.13258,0.69781 -6.19271,0.62076 -8.7293,0.11895 -11.83419,-6.10577 -0.94152,-1.88757 1.35739,-6.19285 1.74032,-7.15247 z"
       style="fill:none;stroke:#000000;stroke-width:3;stroke-linecap:round;stroke-miterlimit:4;stroke-dasharray:none" />
    <path
       id="path1441"
       d="m 112.6369,61.988093 c 1.35788,0.120333 2.82187,-0.178826 4.07362,0.360998 0.40665,0.175368 -0.55911,0.687062 -0.82871,1.038384 -0.29835,0.388792 -0.57511,1.402103 -0.96683,1.107606 -0.11279,-0.08479 0.8124,-1.783508 0.96683,-1.938313 0.27895,-0.27962 -0.0171,0.800851 -0.13812,1.176834 -0.21452,0.666618 -0.88681,2.484795 -1.51931,2.90747 -0.0959,0.06411 -0.0206,-0.232604 0,-0.346128 0.11792,-0.650095 0.19104,-1.316495 0.41436,-1.938314 0.27269,-0.759309 1.00509,-1.815579 1.51931,-2.492116 0.13951,-0.183552 0.46096,-0.779597 0.41436,-0.553804 -0.0469,0.227081 -0.26261,3.527083 -1.10496,3.738176 -0.54493,0.136562 0.32815,-0.760667 1.10496,-2.561344 0.41862,-0.970396 0.47619,-1.699646 0.69059,-1.592186 0.77818,0.390025 -5.23807,9.148337 -1.93366,3.738176 0.67839,-1.110707 1.18431,-2.327918 1.93366,-3.392048 0.31575,-0.448389 -0.229,1.076055 -0.41436,1.592186 -0.54758,1.524727 -1.15378,3.029082 -1.65742,4.568883 -0.18441,0.56379 -0.29445,1.149699 -0.41436,1.730637 -0.0186,0.0904 -0.0386,0.360743 0,0.276902 0.90299,-1.961184 1.56566,-4.061888 2.48614,-6.022617 0.33323,-0.709814 0.71981,-1.393728 1.10495,-2.076765 0.26726,-0.473977 0.74629,-1.812719 0.96683,-1.315284 0.39798,0.897594 -5.12792,12.055245 -4.4198,12.183684 0.25383,0.04604 0.0567,-0.516691 0.13812,-0.761478 0.28796,-0.865961 0.60921,-1.721753 0.96683,-2.561344 0.71639,-1.681896 2.43458,-5.268069 3.31485,-6.922548 0.33996,-0.638948 0.71244,-1.261015 1.10496,-1.869091 0.11526,-0.178556 0.46035,-0.692065 0.41435,-0.484576 -0.0893,0.402804 -0.40244,0.72327 -0.55247,1.107606 -1.08929,2.790423 -2.13817,5.656461 -3.03862,8.514737 -0.20855,0.661984 -0.38452,1.334108 -0.55248,2.007539 -0.0167,0.06717 -0.0369,0.266245 0,0.207677 1.53327,-2.433506 2.15924,-6.19302 4.28169,-8.168609 0.0431,-0.04015 0.35893,0.305131 -0.13812,1.799863 -0.92817,2.791222 -3.06725,6.598383 -3.45297,9.691568 -0.0183,0.146481 0.21187,-0.213286 0.27624,-0.346128 0.72003,-1.485979 1.32798,-3.025431 2.07178,-4.499655 0.56607,-1.121971 1.32994,-2.006819 1.38119,-1.938313 0.59597,0.796538 -1.65409,5.717817 -2.07178,7.476352 -0.0596,0.250984 -0.28098,0.976281 -0.13812,0.761479 0.20984,-0.315526 1.93995,-5.42947 2.34802,-5.122685 0.68372,0.514019 -0.44923,3.601799 -0.55248,4.222755 -0.0498,0.299379 -0.37103,1.094496 -0.13812,0.89993 0.83949,-0.701252 0.83413,-2.029487 1.3812,-2.976695 2.17421,-3.764484 -0.11173,5.585111 0.27623,6.022618 0.26319,0.296793 0.50339,-0.619432 0.6906,-0.969158 0.35104,-0.655791 1.28572,-3.812747 2.34802,-3.945853 0.58858,-0.07375 -0.21207,1.173011 -0.41436,1.730637 -0.10482,0.288967 -0.85814,2.393389 -0.41435,2.838246 0.085,0.08521 0.69059,-1.71862 0.69059,-0.692256"
       style="fill:none;stroke:#000000;stroke-width:3;stroke-linecap:round;stroke-linejoin:round;stroke-miterlimit:4;stroke-dasharray:none" />
    <path
       id="path1443"
       d="m 124.85954,58.887817 c 5.55508,-9.147196 -2.29509,7.490674 -1.38119,5.745715 1.18682,-2.266034 2.21953,-4.612327 3.45298,-6.853322 0.2448,-0.444767 1.16793,-1.642993 0.96683,-1.176835 -0.98134,2.274798 -2.42066,4.323662 -3.59109,6.507197 -0.33139,0.618231 -0.61525,1.262118 -0.96684,1.869088 -0.0654,0.112816 -0.27623,0.407279 -0.27623,0.276903 0,-1.665603 1.59742,-2.982934 1.93366,-4.499658 0.13522,-0.60992 0.25158,-2.357374 -0.13812,-1.869088 -0.46149,0.578257 0.0821,1.508903 -0.13811,2.215216 -0.46046,1.476991 -2.04334,4.12501 -3.17674,5.261136 -0.0815,0.08168 -0.044,-0.239479 0,-0.346128 0.23614,-0.57205 0.56656,-1.100801 0.82871,-1.661411 0.42858,-0.91649 0.82436,-1.847977 1.24307,-2.769018 4.09729,-9.012878 0.66752,4.799182 0.6906,4.984234 0.0343,0.275434 0.39876,-0.391909 0.55247,-0.623028 0.22265,-0.334777 2.99756,-4.990687 3.03862,-5.053462 0.34903,-0.533556 1.30338,-2.088457 1.24307,-1.453734 -0.29488,3.103684 -2.84594,8.897633 -4.00545,11.837558 -0.28134,0.713338 -0.55136,1.431089 -0.82871,2.145991 -0.0449,0.115811 -0.21254,0.44559 -0.13812,0.346128 1.77502,-2.372384 3.81802,-6.997401 4.69604,-8.583962 0.45217,-0.817041 0.99354,-1.581936 1.51931,-2.353667 0.11966,-0.175638 0.45367,-0.693436 0.41436,-0.484579 -0.5325,2.829009 -1.42879,5.172742 -2.48614,7.82248 -0.65107,1.631593 -1.59025,3.156373 -2.07179,4.845786 -0.0282,0.09905 0.22175,-0.05105 0.27624,-0.138452 0.41488,-0.665395 0.72201,-1.392491 1.10495,-2.076764 0.99825,-1.783758 3.35725,-6.752739 5.1104,-7.960932 0.1383,-0.09531 0.15829,0.317834 0.13812,0.484579 -0.3003,2.483419 -1.28589,4.831816 -2.34802,7.060999 -0.31057,0.651814 -0.65244,1.288333 -0.96683,1.938314 -0.0541,0.111828 -0.19647,0.455795 -0.13812,0.346128 0.67795,-1.274215 2.89183,-6.546125 4.14357,-6.922548 0.77394,-0.232741 -1.51283,6.716088 -1.65743,7.130224 -0.0776,0.222147 -0.33375,0.822992 -0.13812,0.692256 0.20652,-0.138014 3.76623,-6.457484 4.00545,-6.784099 0.5895,-0.80486 1.23784,-1.569506 1.93367,-2.284442 0.23172,-0.23809 0.82871,-0.886044 0.82871,-0.553802 0,1.321404 -0.50895,2.594494 -0.82871,3.876628 -0.83918,3.364788 -0.40366,1.096706 -1.10495,3.322822 -0.0208,0.06603 -0.0281,0.27096 0,0.207677 0.85691,-1.932699 3.188,-6.514727 4.83416,-7.614803 0.71398,-0.477131 -0.08,1.725332 -0.27624,2.561341 -0.49672,2.116151 -0.856,4.262932 -1.38119,6.368746 -0.15983,0.640863 0.55248,-1.19991 0.82872,-1.799863 1.49768,-3.252771 0.81235,-2.386555 2.76238,-5.261136 2.42128,-3.569272 -0.69091,4.129037 -0.82872,4.430429 -0.16303,0.356566 -0.67619,1.410422 -0.55248,1.038384 0.0691,-0.207738 4.2132,-9.601065 5.11041,-8.791639 0.90594,0.817314 -1.56929,6.30078 -2.20991,7.130228 -0.13283,0.171989 -0.53285,0.562554 -0.55247,0.346127 -0.0576,-0.635547 0.2264,-1.259242 0.41435,-1.869088 0.68758,-2.230932 1.43644,-4.44302 2.20991,-6.645648 0.23986,-0.683064 0.5194,-1.352986 0.82871,-2.007539 0.10656,-0.225502 0.5068,-0.854678 0.41436,-0.62303 -0.39252,0.983655 -7.97527,13.322591 -5.66288,6.368746 1.16112,-3.491738 2.08388,-5.122858 3.86733,-8.860864 0.0801,-0.167807 0.34139,-0.65872 0.27624,-0.484577 -1.40391,3.752747 -4.05774,7.463475 -6.76783,10.383822 -0.23508,0.253325 -0.62576,0.902758 -0.82871,0.62303 -0.38193,-0.526415 3.22723,-8.083121 3.45297,-8.514736 0.55546,-1.062035 1.18266,-2.085184 1.79555,-3.115146 0.17005,-0.285779 0.68726,-1.134713 0.55247,-0.830707 -1.33359,3.007796 -4.01693,5.972635 -5.93911,8.583962 -0.80913,1.099222 -1.61518,2.202695 -2.48614,3.253597 -0.37438,0.451723 -0.67398,1.103444 -1.24308,1.24606 -0.31652,0.07932 0.0276,-0.662109 0.13813,-0.969158 0.60317,-1.676445 2.66591,-6.051926 3.31485,-7.407127 0.44547,-0.930301 0.92079,-1.846014 1.38119,-2.76902 0.0921,-0.1846 0.34659,-0.747729 0.27624,-0.553802 -0.85247,2.349915 -2.38438,4.567375 -3.72921,6.645645 -0.48644,0.751731 -0.9305,1.540669 -1.51931,2.215216 -0.0908,0.104053 -0.44348,0.135014 -0.41436,0 0.8521,-3.950459 3.38682,-7.876474 5.24852,-11.422205 0.0303,-0.05772 -0.10428,0.08273 -0.13812,0.138451 -0.28951,0.476768 -0.53869,0.977278 -0.82871,1.453734 -2.17769,3.577564 -3.25655,5.050544 -6.49159,8.860864 -0.16052,0.189061 -0.66714,0.523804 -0.6906,0.276903 -0.12155,-1.279343 3.47327,-9.749179 3.72921,-10.383824 0.10059,-0.249413 0.41436,-0.961187 0.41436,-0.692256 0,1.238723 -1.14987,2.196462 -1.79555,3.253599 -0.91737,1.501979 -1.79705,3.028035 -2.76238,4.499655 -0.14301,0.218033 -0.29172,0.553805 -0.55247,0.553805 -0.0249,0 0.55483,-1.030637 1.24307,-2.561344 0.9592,-2.133335 2.12205,-4.224954 3.03862,-6.368743 0.24382,-0.570288 -0.86836,0.890275 -1.24307,1.384509 -2.92453,3.857316 -0.0764,0.435523 -3.17674,4.361207 -0.29374,0.371932 -1.46552,1.903354 -1.24307,0.899929 0.44,-1.984779 1.60098,-4.123356 2.48614,-5.953392 0.081,-0.167375 0.37535,-0.641884 0.27624,-0.484579 -0.10134,0.160833 -1.91126,3.110455 -2.07179,3.392051 -0.0351,0.06157 -1.00193,1.653757 -0.96683,1.592186 1.3979,-2.452209 3.71136,-4.698389 6.21536,-5.953392 0.48934,-0.245258 1.37859,-1.151996 1.5193,-0.62303 0.28199,1.059986 -0.96683,2.34697 -0.96683,3.461273 0,0.103148 0.0768,-0.193947 0.13812,-0.276899 0.40016,-0.541515 0.82815,-1.061898 1.24307,-1.592189 1.40943,-1.801339 3.16793,-4.786336 5.52476,-5.538038 0.39622,-0.126373 0.50437,0.770808 0.41436,1.176834 -0.37992,1.713738 -1.18606,3.276722 -1.93367,4.845783 -0.31057,0.651815 -0.64455,1.292209 -0.96683,1.938314 -0.046,0.0923 -0.19311,0.36417 -0.13812,0.276902 1.85686,-2.947103 3.7634,-6.647899 6.76783,-8.583961 0.42848,-0.276112 0.29376,1.037569 0.13812,1.522962 -0.259,0.80771 -2.3775,5.159664 -2.62426,5.607265 -0.41071,0.744971 -0.9101,1.437656 -1.38119,2.14599 -0.0817,0.122912 -0.35493,0.471019 -0.27624,0.346128 1.48263,-2.353146 5.26208,-8.647665 7.45842,-9.830022 0.42962,-0.231272 1.35958,-0.0029 1.38119,0.484579 0.007,0.167468 -2.79759,5.758802 -2.9005,5.953392 -0.4346,0.821799 -0.93685,1.606317 -1.38118,2.422893 -0.10859,0.199546 -0.40205,0.812189 -0.27624,0.62303 1.852,-2.784686 3.25573,-5.8645 5.1104,-8.653187 0.61369,-0.922758 2.48951,-3.452797 2.34802,-2.353667 -0.3304,2.56677 -3.71306,8.486404 -5.1104,10.937629 -1.02282,1.794229 1.9908,-3.619847 3.03862,-5.399591 0.654,-1.110832 2.33007,-3.968059 3.45297,-5.053459 0.46574,-0.450181 0.108,1.339151 -0.13812,1.938314 -0.39733,0.967258 -2.04687,4.158384 -2.62426,5.19191 -0.2122,0.379836 -0.90607,1.485593 -0.69059,1.10761 1.74109,-3.054237 5.36573,-10.412966 8.56337,-11.837559 1.03368,-0.460518 0.21276,2.316199 -0.13812,3.392048 -1.03067,3.160218 -2.14893,5.667648 -3.59109,8.653187 -0.40436,0.837094 -1.74665,3.277685 -1.38119,2.422893 1.35664,-3.173111 3.29147,-6.213245 5.66288,-8.722413 0.91279,-0.965824 2.82641,-2.847805 2.9005,-1.176835 0.15529,3.502621 -3.12218,8.009324 -4.69605,11.006855 -0.0988,0.188166 0.29139,-0.31124 0.41436,-0.484579 0.61427,-0.865892 1.18647,-1.761014 1.79555,-2.630567 0.78054,-1.114364 5.81989,-8.376285 7.3203,-8.376285 0.39497,0 -0.01,0.803344 -0.13812,1.176832 -0.85924,2.497778 -2.18484,5.382562 -4.00545,7.337901 -0.0994,0.106786 0.0705,-0.286038 0.13812,-0.415351 0.43986,-0.841758 0.84703,-1.706805 1.38119,-2.492118 0.85972,-1.263962 8.38005,-10.980565 9.94457,-9.760794 0.63436,0.494583 -2.75094,6.130859 -3.45298,6.922548 -0.11032,0.124407 0.18827,-0.274257 0.27624,-0.415351 0.37247,-0.597387 0.71115,-1.216321 1.10495,-1.799865 1.56089,-2.312953 2.98321,-4.168307 4.83416,-6.299517 0.7484,-0.861714 1.48587,-1.744229 2.34803,-2.492119 3.42018,-2.966892 -1.11652,4.300096 -1.79555,4.776557 -0.11333,0.07953 -0.0564,-0.288919 0,-0.41535 0.73151,-1.63907 1.5272,-3.249571 2.34802,-4.845786 0.33098,-0.643641 0.73324,-1.248079 1.10495,-1.869088 0.0427,-0.07133 0.1931,-0.270039 0.13812,-0.207677 -2.35165,2.667477 -2.54608,3.149923 -4.97228,5.330362 -0.79662,0.715934 -2.23411,1.90881 -2.34802,1.661414 -0.42923,-0.932227 1.9789,-4.405939 2.07178,-4.568883 0.0824,-0.144452 0.36164,-0.558022 0.27624,-0.415353 -1.59027,2.656816 -4.02806,6.576226 -6.90595,7.960931 -3.71102,1.785575 3.26139,-6.114174 3.31486,-6.161069 0.17333,-0.152027 -0.26003,0.382527 -0.41436,0.553805 -1.42496,1.581422 -3.32611,3.788185 -5.1104,5.261136 -0.20716,0.171013 -0.6906,0.68398 -0.6906,0.415354 0,-0.730036 2.42518,-3.486733 2.62427,-3.738177 0.50958,-0.643622 1.01605,-1.289724 1.5193,-1.938313 0.14134,-0.182153 0.62047,-0.657109 0.41436,-0.553805 -1.65517,0.829575 -3.98116,3.896672 -5.38664,5.191913 -0.63609,0.586198 -1.24663,1.205064 -1.93367,1.730637 -0.19698,0.150691 -0.72558,0.522433 -0.69059,0.276903 0.34636,-2.430357 9.3551,-9.548262 -0.55248,-0.830707 -0.66458,0.584761 -1.29947,1.228791 -2.07178,1.661411 -0.12879,0.07214 -0.34347,-0.214712 -0.27624,-0.346128 0.49297,-0.963594 2.65791,-3.599672 3.31486,-4.499655 0.15855,-0.217217 0.67522,-0.757629 0.41435,-0.692256 -1.56682,0.392647 -2.45029,2.11006 -3.59109,3.253597 -2.79061,2.797316 -6.76247,6.407738 -9.11585,9.55312 -3.29827,-0.39375 -1.06811,2.250967 -1.79555,3.253597 -0.97488,1.343684 -2.02202,2.633448 -3.03862,3.945853 -1.52214,1.965055 -2.94506,3.782851 -4.69604,5.538039 -0.24408,0.244668 -0.90351,0.960435 -0.82871,0.62303 0.15664,-0.706601 0.68187,-1.281872 1.10495,-1.869088 1.97307,-2.738522 4.02239,-5.421667 6.07723,-8.099383 0.70801,-0.922623 1.42678,-1.840018 2.20991,-2.699795 0.18936,-0.207899 0.65781,-0.763875 0.69059,-0.484579 0.068,0.579644 -0.32304,1.124781 -0.55248,1.661414 -2.02644,4.739749 -5.01929,9.244436 -8.28713,13.222068 -0.17072,0.207796 0.27207,-0.46405 0.41435,-0.692256 0.54834,-0.879448 1.09744,-1.758492 1.65743,-2.630567 0.82569,-1.285848 3.84969,-6.653172 5.38664,-7.337903 0.93294,-0.415634 -0.53047,1.984046 -0.96683,2.907471 -0.35591,0.753174 -3.45297,6.385081 -3.45297,6.922548 0,0.412583 0.32674,-0.762249 0.55247,-1.107607 0.87478,-1.338405 6.76646,-10.106921 7.87278,-10.106921 0.2807,0 0.22133,0.562618 0.13812,0.830707 -0.17742,0.57165 -2.52778,5.021505 -2.62426,5.19191 -0.42874,0.757222 -0.8993,1.490652 -1.38119,2.215216 -0.16349,0.245827 -0.55248,0.987486 -0.55248,0.692256 0,-0.371859 0.33443,-0.667946 0.55248,-0.969158 1.67102,-2.308283 3.30385,-4.649499 5.1104,-6.853325 0.73031,-0.89091 2.91942,-3.217997 2.76238,-2.076762 -0.28746,2.089071 -3.28719,6.676168 -4.28169,8.72241 -0.32466,0.668026 -0.62682,1.347192 -0.96683,2.007539 -0.0298,0.05796 -0.16821,0.196276 -0.13812,0.138452 1.34963,-2.593002 8.48705,-14.06425 11.32576,-13.637422 0.32269,0.04852 -0.002,0.672751 -0.13812,0.969156 -0.9762,2.120191 -2.23432,4.101105 -3.45298,6.091843 -0.55429,0.905463 -1.19955,1.752 -1.79554,2.63057 -0.18669,0.275203 -0.71717,1.119611 -0.55248,0.830707 2.57326,-4.514027 6.28078,-9.006078 10.2208,-12.391364 0.31249,-0.268491 0.91344,-0.918569 1.10496,-0.553804 0.72355,1.378053 -3.02312,7.531449 -4.14357,9.553117 -0.0602,0.108651 0.0706,-0.241835 0.13812,-0.346125 0.48644,-0.751732 1.01486,-1.475452 1.51931,-2.215216 0.45246,-0.663538 4.68618,-6.672017 5.38663,-6.437972 0.3095,0.103413 -0.0332,0.660173 -0.13811,0.969156 -0.61768,1.818769 -1.53612,3.386928 -2.48614,5.053462 -0.39956,0.700902 -0.83957,1.378127 -1.24308,2.076765 -0.10317,0.178636 -0.39842,0.720018 -0.27623,0.553805 1.81776,-2.472899 5.94355,-8.818428 8.56337,-10.037697 0.60066,-0.27955 -0.58241,2.742137 -1.79554,4.984234 -0.31446,0.581179 -1.39628,2.232861 -0.96684,1.730637 1.85847,-2.173427 4.52381,-4.751564 6.35347,-6.091843"
       style="fill:none;stroke:#000000;stroke-width:3;stroke-linecap:round;stroke-linejoin:round;stroke-miterlimit:4;stroke-dasharray:none" />
    <path
       id="path1445"
       d="m 197.64824,49.403925 c 2.38436,-1.711584 -6.51748,6.649919 -6.07724,4.222756 0.37363,-2.059885 2.34024,-3.487108 3.72921,-5.053463 0.47905,-0.540215 -0.5248,1.367415 -0.96683,1.938314 -1.9624,2.534563 -4.0333,4.989777 -6.21535,7.337904 -0.95623,1.029007 -2.04234,1.940541 -3.17674,2.769018 -0.49099,0.358584 -1.26634,1.227005 -1.65742,0.761481 -0.46077,-0.548476 0.25664,-1.424373 0.55247,-2.076765 2.26304,-4.990663 6.00016,-8.883422 8.97774,-13.360518 0.17168,-0.258154 -0.49456,0.382844 -0.6906,0.623027 -0.63563,0.778754 -1.19049,1.620152 -1.79555,2.422893 -1.75257,2.325158 -5.51612,8.136011 -8.0109,9.553117 -0.24077,0.136766 -0.0995,-0.572296 0,-0.830704 0.41513,-1.07814 0.9685,-2.099609 1.51931,-3.115149 1.33522,-2.461752 3.41969,-5.789999 4.97228,-8.099382 0.5249,-0.780749 1.05601,-1.560997 1.65743,-2.284442 0.0988,-0.118803 0.47584,-0.349414 0.41436,-0.207674 -1.24595,2.872578 -4.0911,5.563052 -6.21536,7.753255 -0.65842,0.67886 -1.32495,1.358127 -2.07178,1.938313 -0.18983,0.147471 -0.72336,0.445813 -0.6906,0.207677 0.33692,-2.448526 5.03716,-8.509698 6.76783,-10.591501 0.17193,-0.206801 -0.26338,0.469702 -0.41435,0.692256 -0.632,0.931645 -1.27592,1.855369 -1.93367,2.769018 -1.81363,2.519214 -3.85856,5.417275 -6.07723,7.614803 -0.89331,0.884796 -3.60542,3.023153 -3.31486,1.799863 0.74409,-3.132693 4.43045,-6.633088 6.21536,-9.276215 0.28862,-0.427403 0.97619,-0.95508 0.69059,-1.384509 -0.2527,-0.37996 -0.66236,0.629269 -0.96683,0.969156 -0.83487,0.931979 -4.12949,5.397238 -5.38664,5.607264 -0.30521,0.05099 0.24756,-0.570071 0.41436,-0.830705 1.55165,-2.424562 2.63476,-3.852214 4.55792,-6.091843 0.65865,-0.767035 1.37632,-1.481391 2.07179,-2.215216 0.17936,-0.189262 0.76592,-0.703577 0.55247,-0.553804 -0.83183,0.583681 -2.41306,2.147985 -3.03862,2.699795 -0.53985,0.47621 -0.94994,1.51748 -1.65742,1.384509 -0.55211,-0.103767 0.26815,-1.107679 0.55247,-1.592186 1.76694,-3.011011 4.22461,-5.855817 6.62971,-8.376285 0.34893,-0.365665 0.73137,-0.697944 1.10495,-1.038381 0.13303,-0.121219 0.23685,-0.375783 0.41436,-0.346128 0.74535,0.124523 -3.51399,4.657294 -3.86733,4.984234 -0.1134,0.104928 -0.48001,0.34753 -0.41436,0.207677 0.63595,-1.354625 1.63689,-2.506028 2.48615,-3.738176 4.63525,-6.72505 -1.79555,4.222051 -1.79555,4.499657 0,0.205994 0.39221,-0.147487 0.55248,-0.276902 0.67299,-0.543436 1.30822,-1.133084 1.93366,-1.730637 0.9848,-0.940888 4.56871,-5.10354 6.07723,-5.330362 1.02,-0.153368 -0.7938,1.92115 -1.38119,2.769018 -1.16742,1.685131 -2.61991,3.675401 -3.86733,5.330365 -0.1777,0.235759 -0.75246,0.909428 -0.55247,0.692253 2.54218,-2.760655 9.05716,-10.552517 12.70694,-10.937626 1.3137,-0.138618 -0.84111,2.561145 -1.65743,3.599725 -2.23618,2.845061 -4.63483,5.559022 -6.90594,8.376284 -0.68919,0.854919 -1.37342,1.713913 -2.07179,2.561342 -0.17652,0.214204 -0.74851,0.819536 -0.55247,0.62303 3.79246,-3.801573 10.51436,-11.351876 15.05496,-13.429745 1.65313,-0.756504 -0.41731,1.893655 -0.82871,2.422893 -2.20675,2.838799 -3.80977,4.331097 -6.35347,6.991773 -1.32915,1.390272 -2.46806,2.997714 -4.00545,4.15353 -0.28783,0.216387 0.43381,-0.578257 0.69059,-0.830704 0.9419,-0.926002 1.95292,-1.779617 2.9005,-2.699795 2.73588,-2.65675 5.35874,-5.430605 8.14902,-8.030157 0.29267,-0.272669 4.54548,-3.926938 5.1104,-3.738176 0.76387,0.255232 -1.48921,2.937488 -2.62426,4.29198 -2.78697,3.325794 -5.80829,6.518632 -8.97773,9.483892 -0.83334,0.779648 1.6666,-1.559536 2.48614,-2.353667 1.26401,-1.224812 2.49159,-2.486703 3.72921,-3.738176 0.84077,-0.850181 8.92814,-9.24659 10.08268,-9.068541 0.55485,0.08557 5.3e-4,1.173009 -0.27623,1.661414 -3.33845,5.889786 -8.86372,10.839918 -13.67378,15.437284 -0.0746,0.07127 0.0653,-0.20388 0.13812,-0.276903 0.94404,-0.946308 1.961,-1.818206 2.9005,-2.76902 3.98307,-4.031036 4.46091,-4.983303 8.70149,-8.722411 0.96097,-0.84733 1.9508,-1.676847 3.03862,-2.353667 0.27643,-0.171989 1.00976,-0.461174 0.96683,-0.138451 -0.33365,2.508441 -6.09184,8.018285 -7.73466,9.760794 -0.80493,0.853773 -1.63834,1.680906 -2.48614,2.492118 -0.16647,0.159285 -0.70345,0.589391 -0.55248,0.415354 2.62921,-3.03086 5.66144,-5.88972 8.56338,-8.653187 0.70957,-0.675714 1.39523,-1.393894 2.2099,-1.938314 0.1914,-0.127902 0.76705,-0.217133 0.6906,0 -0.31436,0.892821 -3.8562,5.491676 -4.00545,5.67649 -0.69757,0.863772 -1.49184,1.645306 -2.20991,2.492118 -0.0667,0.07867 -0.21362,0.347178 -0.13811,0.276902 0.71574,-0.666218 1.35805,-1.408387 2.07178,-2.076764 1.03647,-0.970614 2.1075,-1.903849 3.17674,-2.838247 0.72647,-0.634854 1.43386,-1.295892 2.2099,-1.869088 1.2666,-0.935524 -1.03125,2.421972 -2.07179,4.084304 -1.18125,1.887159 -1.05306,1.380474 0,0.276903 1.22642,-1.28524 2.47456,-2.549726 3.72922,-3.807402 0.288,-0.288698 -0.53792,0.614042 -0.82872,0.89993 -0.90671,0.891413 -1.8235,1.773097 -2.76238,2.630569 -3.33712,3.047802 -6.56429,5.313363 -10.63516,7.268676 -1.00332,0.481915 -2.01594,0.945166 -3.03861,1.384512 -1.3071,0.561527 -2.42645,1.011978 -2.48614,0.623027 -0.46888,-3.054979 3.88934,-6.11791 4.83416,-8.72241 0.1407,-0.387853 -0.16692,-1.254472 -0.55248,-1.107609 -1.54436,0.588266 -7.68067,6.666121 -9.94456,8.099382 -0.54929,0.347753 -1.23843,1.096553 -1.79555,0.761482 -0.46995,-0.282652 0.13161,-1.122291 0.41436,-1.592186 0.60886,-1.011859 1.52324,-1.808255 2.2099,-2.769021 0.42084,-0.58883 1.81881,-1.749824 1.10495,-1.869088 -0.1944,-0.03248 -5.2869,3.163999 -6.07723,3.599725 -0.71276,0.392959 -1.44002,0.774367 -2.20991,1.038384 -0.75016,0.257249 -0.22692,-0.570283 0.13812,-0.692256"
       style="fill:none;stroke:#000000;stroke-width:3;stroke-linecap:round;stroke-linejoin:round;stroke-miterlimit:4;stroke-dasharray:none" />
    <path
       id="path1447"
       d="m 148.47789,69.825446 c 8.43557,-6.811661 -4.40884,2.975724 0.27623,2.561341 2.19221,-0.193895 2.95892,-3.264432 4.55793,-4.776557 0.84718,-0.801151 1.74128,-1.583037 2.76238,-2.145991 0.76938,-0.424177 -0.13313,0.766072 -0.6906,1.799863 -0.47006,0.871712 -0.95622,1.736003 -1.38118,2.630569 -0.0297,0.06253 -0.0553,0.249275 0,0.207674 0.64176,-0.482478 0.97047,-1.283059 1.5193,-1.869088 1.85486,-1.980575 2.26292,-2.343552 4.69605,-3.876627 1.16572,-0.734496 2.6483,-1.455698 2.76238,-1.246058 0.4646,0.853829 -2.41706,3.305482 -3.45298,4.77656 -0.34732,0.493228 0.83443,-0.871527 1.24308,-1.315286 2.22885,-2.4204 4.44303,-4.954918 7.3203,-6.645645 4.36252,-2.56349 -0.28921,3.408304 -0.82872,4.084301 -0.0407,0.05095 0.0969,-0.08795 0.13812,-0.138448 0.37337,-0.457431 0.71804,-0.938488 1.10496,-1.384512 1.94349,-2.240396 4.1047,-4.366461 6.76783,-5.745715 3.41259,-1.767412 -0.42476,3.780813 -0.82872,4.361206 -0.28496,0.409419 -0.55247,0.830707 -0.82871,1.246058 -0.046,0.06922 -0.20457,0.257635 -0.13812,0.207677 0.86302,-0.648822 6.63905,-7.509463 7.59654,-6.645646 0.41816,0.377248 -3.39346,6.967964 -3.72921,7.753255 -0.0513,0.119877 0.1908,-0.178419 0.27624,-0.276902 1.27304,-1.467522 0.92093,-1.038598 1.93366,-2.561344 2.82624,-4.249547 2.30689,-1.499608 2.48614,-8.237834"
       style="fill:none;stroke:#000000;stroke-width:3;stroke-linecap:round;stroke-linejoin:round;stroke-miterlimit:4;stroke-dasharray:none" />
    <path
       id="path1449"
       d="m 197.64824,49.403925 c 8.51487,-6.430806 -5.83332,9.282388 -4.55793,6.853322 1.24823,-2.377326 8.89783,-7.67784 9.39209,-8.030156 0.25536,-0.182026 -0.36353,0.511198 -0.55247,0.761481 -0.45566,0.603562 -0.90946,1.208781 -1.3812,1.799862 -1.4916,1.868985 -3.03823,4.360921 -4.97228,5.814941 -0.14861,0.111729 0.1471,-0.350813 0.27624,-0.484579 0.56636,-0.586644 1.17706,-1.130003 1.79555,-1.661411 2.36955,-2.035926 5.30077,-4.900038 8.28714,-6.022618 1.19714,-0.450006 -3.35711,5.198571 -3.5911,5.468816 -0.48018,0.554588 -1.02237,1.052547 -1.51931,1.592186 -0.0563,0.06116 -0.19683,0.266533 -0.13811,0.207676 1.01885,-1.021304 8.46751,-8.291933 9.39208,-7.960931 1.34174,0.480341 -2.28059,4.218757 -3.17673,5.191911 -0.0563,0.06116 0.087,-0.142145 0.13812,-0.207677 0.36336,-0.465413 0.71203,-0.943761 1.10495,-1.384509 1.48684,-1.667843 1.80509,-1.990841 3.59109,-3.184374 1.19411,-0.797981 1.70638,-0.824733 1.65743,-0.692253 -0.4349,1.177049 -1.42325,2.109517 -2.2099,3.04592 -0.0535,0.06366 -0.20735,0.161637 -0.13812,0.207677 0.0692,0.04604 0.0855,-0.143269 0.13812,-0.207677 0.36207,-0.443598 0.71412,-0.8968 1.10495,-1.315283 0.86106,-0.921981 5.50819,-5.748483 6.76783,-5.538039 0.0611,0.01021 -0.61223,0.843063 -1.24307,1.661411 -1.12174,1.45515 -2.31414,2.865014 -3.45298,4.291981 -0.11226,0.140663 0.29496,-0.211476 0.41436,-0.346128 2.47366,-2.78956 0.181,-0.905277 4.55793,-4.77656 0.50945,-0.450598 1.88522,-1.643353 1.79554,-0.969155 -0.1869,1.405141 -1.96748,3.246165 -2.76238,4.291981 -0.31812,0.418541 -0.6487,0.827516 -0.96683,1.246058 -0.0503,0.06619 -0.20457,0.257635 -0.13812,0.207676 0.4873,-0.366358 8.47523,-9.420584 4.00545,-2.699795 -1.14037,1.714672 -2.26884,3.43794 -3.45297,5.122688 -0.24442,0.34775 -0.52852,0.668237 -0.82872,0.969156 -0.20851,0.20901 0.36681,-0.462714 0.55248,-0.692254 0.50493,-0.62425 0.99917,-1.257456 1.51931,-1.86909 0.67711,-0.796216 1.30302,-1.645534 2.07178,-2.353665 1.98451,-1.827985 3.36275,-2.718464 5.801,-3.66895 0.30333,-0.118248 0.83067,-0.434176 0.96683,-0.138452 0.11673,0.253511 -2.59646,3.965006 -2.9005,4.361204 -0.2696,0.351324 -0.55724,0.688507 -0.82871,1.038384 -0.051,0.06568 -0.19684,0.266533 -0.13812,0.207677 1.40874,-1.412127 2.54662,-2.875553 4.28169,-3.945853 0.7501,-0.462712 2.72772,-1.747512 2.48614,-0.899933 -0.39015,1.368793 -2.26139,3.49077 -3.17674,4.568883 -0.35929,0.423183 -0.71288,0.853049 -1.10495,1.246058 -0.0728,0.07302 0.0707,-0.198874 0.13812,-0.276902 1.30572,-1.510218 6.33496,-6.282632 8.56338,-5.538039 0.74779,0.249865 -1.24185,2.293191 -2.34803,3.322825 -0.20317,0.189114 -0.80062,0.747398 -0.55247,0.623028 0.79978,-0.400854 1.41448,-1.113517 2.2099,-1.52296 3.55555,-1.83021 9.22884,-3.457057 4.00545,2.215216"
       style="fill:none;stroke:#000000;stroke-width:3;stroke-linecap:round;stroke-linejoin:round;stroke-miterlimit:4;stroke-dasharray:none" />
    <path
       id="path1451"
       d="m 224.3052,37.774043 c -2.39407,2.076765 -4.62278,4.361096 -7.18219,6.230295 -0.96315,0.703411 1.43883,-1.927908 2.34802,-2.699795 1.36398,-1.157986 2.77733,-2.336255 4.41981,-3.045923 0.42197,-0.182319 -0.17476,0.922999 -0.41436,1.315286 -0.63951,1.047046 -4.14356,4.589118 -4.14356,5.67649 0,0.319997 0.56354,-0.305451 0.82871,-0.484579 0.55318,-0.37369 6.97194,-5.062691 7.18218,-4.430432 0.31831,0.957204 -3.19355,3.891378 -2.07178,2.907472 2.07934,-1.8238 6.39975,-5.070399 9.25397,-5.261137 1.58344,-0.105817 -0.83001,2.216518 -1.51931,2.907469 -0.68915,0.690814 -1.6638,1.381316 -1.51931,1.453735 0.52566,0.263461 4.5612,-3.072201 6.4916,-3.530499 1.14014,-0.270685 0.61395,0.905118 0.41435,1.315283 -1.09914,2.258666 -3.866,4.014637 0.27624,2.630569"
       style="fill:none;stroke:#000000;stroke-width:3;stroke-linecap:round;stroke-linejoin:round;stroke-miterlimit:4;stroke-dasharray:none" />
    <path
       id="path1453"
       d="m 224.3052,37.774043 c -0.32228,-2.14599 0.50316,-4.841647 -0.96683,-6.437971 -0.87178,-0.946695 -4.14418,7.206104 -3.86734,4.15353 0.10287,-1.134248 2.45661,-3.783999 3.17674,-4.77656 0.11484,-0.15829 -0.27355,0.279638 -0.41436,0.415353 -0.45774,0.441198 -0.92134,0.876282 -1.38119,1.315284 -0.29685,0.283395 -2.69297,3.149933 -3.45297,2.769021 -0.14865,-0.0745 0.19162,-0.27222 0.27624,-0.415354 1.40948,-2.384213 0.25692,-0.519919 1.65743,-2.976695 0.19416,-0.340614 0.87845,-1.256225 0.55247,-1.038383 -0.42574,0.284514 -1.67698,1.47334 -1.93367,1.730636 -0.27623,0.29998 -0.55247,0.599956 -0.82871,0.899933 -0.2302,0.115374 -0.49701,0.176337 -0.69059,0.346128 -0.24782,0.217355 0.65828,-0.09169 0.96683,-0.207677 1.2908,-0.485217 2.48165,-0.722246 3.86733,-0.62303 0.002,1.48e-4 1.26177,0.0036 1.10495,0.553805 -0.0662,0.232306 -1.65615,2.351685 -1.65743,2.353667 -0.2464,0.381727 -0.94469,1.475401 -0.55247,1.246058 2.58162,-1.509567 4.4528,-4.90778 7.59654,-5.538039 1.95644,-0.392229 -4.05575,5.321604 -1.51931,3.668951 1.71903,-1.120053 3.25363,-2.461432 5.1104,-3.392049 0.83465,-0.418327 1.62734,-0.544909 1.65743,-0.484579 0.31304,0.627587 -4.24534,4.404196 -4.83416,5.05346 -0.10379,0.114443 0.28714,-0.120007 0.41435,-0.207677 0.6109,-0.421002 1.1821,-0.898012 1.79555,-1.315283 0.1576,-0.107199 5.93912,-3.621257 5.93912,-2.769018 0,1.824905 -4.52059,4.74174 -5.66288,6.230291 -0.0887,0.115531 0.28996,-0.06274 0.41436,-0.138451 0.524,-0.318907 1.00252,-0.707911 1.5193,-1.038381 1.53145,-0.979307 4.48286,-3.367423 6.4916,-3.184371 0.73017,0.06654 -3.77808,4.367577 -3.86733,4.56888 -0.14008,0.315937 0.54914,-0.419857 0.82871,-0.623027 0.93535,-0.679757 3.22841,-2.31774 4.14357,-2.907472 0.53797,-0.346671 1.09254,-0.668338 1.65743,-0.969156 2.28023,-1.214286 -4.70566,4.424881 -2.34802,2.145988 0.41543,-0.401561 4.15056,-3.485433 3.03861,-4.361204 -1.83665,-1.446551 -5.10334,3.190269 -6.76783,1.799863 -0.66295,-0.553786 1.5122,-2.637698 0.82871,-3.322826 -0.62611,-0.627623 -4.30777,0.965846 -5.24852,1.038384 -1.49881,0.11557 0.41436,-1.348875 0.41436,-1.938313 0,-0.617985 -1.13373,0.50261 -1.65743,0.830704 -1.50789,0.9447 -2.41778,1.707798 -4.14356,2.284441 -0.4848,0.161989 -1.01109,0.153094 -1.51931,0.207677 -0.13733,0.01476 -0.33787,0.115007 -0.41436,0 -0.52916,-0.795642 2.01027,-2.731336 0.82871,-2.007539 -1.09711,0.672068 -1.48318,1.258901 -2.48614,2.14599 -2.24685,1.987286 -1.88793,-0.134665 1.93367,4.915011"
       style="fill:none;stroke:#000000;stroke-width:3;stroke-linecap:round;stroke-linejoin:round;stroke-miterlimit:4;stroke-dasharray:none" />
    <path
       id="path1455"
       d="m 238.66957,42.758277 c 2.9005,1.846014 5.74966,3.775274 8.7015,5.538039 3.62196,1.255549 -4.78718,-3.047412 -3.5911,-2.284439 0.92985,0.593143 1.89044,1.149221 2.9005,1.592186 4.25749,1.867127 -2.1809,-1.489901 -3.03862,-1.730637 -1.21502,-0.341027 -1.89168,-0.125651 -1.65743,0.2769 1.12111,1.926513 4.03679,2.974562 5.801,4.153529 0.3794,0.253543 1.40288,1.103649 0.96683,0.969158 -2.19253,-0.676248 -3.71785,-2.409925 -5.52476,-3.738176 -0.13384,-0.09839 -0.51548,-0.408691 -0.41435,-0.276902 1.11981,1.459251 8.42526,6.192028 8.42526,7.19945 0,0.244959 -0.38556,-0.3053 -0.55248,-0.484576 -0.24805,-0.266404 -2.03076,-2.452365 -2.34802,-2.492119 -0.52921,-0.06631 0.14429,1.935896 0.69059,3.253597 0.14815,0.357339 2.82024,5.538039 3.31486,5.538039 0.22717,0 -0.1436,-0.4386 -0.27624,-0.623028 -1.29768,-1.804336 -2.6524,-3.56717 -4.00545,-5.330364 -0.4888,-0.636961 -0.95226,-1.300673 -1.51931,-1.869088 -0.067,-0.0672 -0.31355,-0.01805 -0.27624,0.06922 0.63215,1.47855 2.12275,3.235455 3.17674,4.291981 0.638,0.63953 2.73272,2.437755 3.17674,2.215216 0.28052,-0.140602 -0.14072,-0.616916 -0.27624,-0.899932 -0.93407,-1.950654 -2.40704,-4.305845 -3.5911,-6.022618 -0.51316,-0.744035 -1.08901,-1.443257 -1.65742,-2.145988 -0.12299,-0.152051 -0.47175,-0.602311 -0.41436,-0.415353 0.67163,2.188053 3.26755,3.731093 4.97228,4.984234 1.1306,0.831101 2.92225,2.331683 2.48615,1.384511 -0.0964,-0.20942 -0.20825,-0.450501 -0.41436,-0.553804 -0.51573,-0.258485 -0.10869,1.164089 0,1.730636 0.38552,2.009556 0.65819,2.468835 1.51931,4.361207 0.26491,0.582165 0.4903,1.187886 0.82871,1.730637 1.33184,2.13606 0.003,-2.580741 -0.82871,-2.699795 -1.63252,-0.233778 1.97278,5.512427 2.2099,5.814941 0.47261,0.602948 1.08711,1.080677 1.65743,1.592188 0.30539,0.273905 0.74814,1.108565 0.96683,0.761479 0.52777,-0.837652 -0.63956,-3.404857 -0.82871,-4.084304 -0.0875,-0.31436 -0.43923,-1.09492 -0.13812,-0.969156 0.5021,0.209709 0.59669,0.916432 0.96683,1.315284 1.25676,1.354267 3.0803,2.896362 4.69603,3.807401 0.28729,0.161981 -1.82046,-3.44878 -2.07177,-3.322822 -1.03899,0.520745 4.76872,9.850194 6.35347,10.522275 0.31866,0.135139 0.0154,-0.692597 0,-1.038384 -0.046,-1.038381 -0.19262,-4.153119 -0.13811,-3.115146 0.15568,2.965157 1.05407,5.424218 2.34802,8.099383 0.28773,0.594865 0.64346,1.154369 0.96684,1.730637 0.091,0.162142 0.11001,0.567886 0.27622,0.484576 0.35441,-0.177625 -0.51842,-4.111855 -0.55247,-4.222752 -0.0338,-0.110297 0,0.230751 0,0.346125 0,0.53073 -0.0596,1.06481 0,1.592188 0.6238,5.523603 0.4047,-2.491335 0.69058,5.67649 0.004,0.124145 -0.10548,0.465992 -0.13811,0.346128 -0.39441,-1.449726 -0.51464,-2.961206 -0.8287,-4.430432 -0.0824,-0.385482 -0.3873,-1.50087 -0.41436,-1.107609 -0.14619,2.124705 0.35165,4.243297 0.8287,6.29952 0.0759,0.327229 0.16467,0.652306 0.27625,0.969158 0.0276,0.07842 0.15825,0.288343 0.13811,0.207677 -0.12583,-0.504529 -0.91371,-2.229435 -0.96684,-2.353667 -0.23577,-0.551455 -0.59222,-2.253033 -0.69059,-1.661412 -0.29503,1.77459 0.30327,4.066175 0.55248,5.814941 0.0728,0.510776 0.1605,1.020175 0.27625,1.52296 0.023,0.100516 0.11578,0.377603 0.13811,0.276903 0.19479,-0.878602 0.0359,-1.80058 0,-2.699795 -0.0278,-0.697796 -0.0315,-2.730844 -0.27625,-2.076765 -0.80253,2.145257 -0.70268,4.879607 -0.96681,7.130227 -0.0787,0.67088 -0.17627,1.33949 -0.27625,2.007539 -0.0449,0.300146 -0.13812,1.20342 -0.13812,0.89993 0,-1.649912 -0.0371,0.524034 0.41437,-2.907469 0.71834,-5.460595 2.10206,-13.844143 1.24306,-19.106237 -0.17518,-1.073041 -0.62375,-2.083448 -0.96684,-3.115146 -0.16356,-0.491908 -0.35348,-0.97505 -0.55247,-1.453737 -0.0319,-0.07677 -0.11801,-0.288343 -0.13812,-0.207674 -0.55493,2.225098 0.37201,4.558768 0.96684,6.645645 0.19024,0.667475 0.37624,1.336231 0.55248,2.007539 0.054,0.205748 0.0866,0.829427 0.13811,0.623031 0.34425,-1.380358 -0.87889,-3.644133 -1.24306,-4.430432 -0.61466,-1.327047 -4.09136,-8.750919 -5.38665,-9.760794 -0.16775,-0.130792 -0.1886,0.416388 -0.13812,0.62303 0.23202,0.949719 0.5778,1.872102 0.96684,2.769018 0.59344,1.3682 2.27867,4.807725 3.45297,6.091843 0.18942,0.207151 0.003,-0.588227 -0.13811,-0.830704 -0.74427,-1.276141 -1.69061,-2.424139 -2.48616,-3.668951 -1.09257,-1.709586 -2.13066,-3.453479 -3.17673,-5.191913 -0.70351,-1.169157 -1.31615,-2.394331 -2.07178,-3.530499 -0.12759,-0.191845 -0.62009,-0.635609 -0.55248,-0.415354 0.96209,3.134315 3.58979,5.852131 5.38663,8.514736 0.39381,0.583541 0.71512,1.213676 1.10495,1.799863 0.0722,0.108558 0.36383,0.373478 0.27626,0.276902 -2.24526,-2.475725 -2.95429,-5.706255 -4.97229,-8.307059 -0.34416,-0.443548 0.0922,1.131027 0.27624,1.661411 0.37235,1.073105 0.93848,2.069102 1.38119,3.115149 0.30461,0.719727 4.02915,9.794361 3.86733,10.037696 -0.006,0.0085 -1.61242,-3.19912 -1.65743,-2.838246 -0.20748,1.663879 -0.0499,3.461818 0.8287,4.915008 0.57539,0.951651 1.24161,1.038384 0.96684,1.038384 -0.41671,0 -1.70621,-2.334885 -2.07179,-3.184372 -0.26117,-0.606893 -0.88098,-2.406062 -0.41434,-1.938313 1.49114,1.494737 2.05206,7.202749 3.86734,7.960931 0.41325,0.172604 -0.55248,-3.041949 -0.55248,-3.945853 0,-0.115377 -0.0515,-0.449374 0,-0.346128 0.19683,0.394629 0.10248,1.656945 0.69059,1.730637 0.34343,0.04303 0.10237,-0.707739 0,-1.038384 -0.31803,-1.02717 -0.75978,-2.016149 -1.24306,-2.976694 -2.54456,-5.057341 -5.63572,-9.838963 -8.56339,-14.675805 -0.42807,-0.707211 -0.83367,-1.427814 -1.24307,-2.145991 -0.6371,-1.117592 -1.30659,-2.285024 -0.6906,-1.799862 0.42747,0.336677 0.65217,0.87136 0.96684,1.315286 0.92847,1.309875 1.80052,2.660293 2.76238,3.945853 1.11082,1.484653 2.31262,2.899108 3.45298,4.361203 0.83941,1.076265 1.64269,2.18049 2.48613,3.2536 0.35385,0.450189 0.57658,1.0946 1.10495,1.315284 0.30996,0.129463 -0.11377,-0.675132 -0.27622,-0.969156 -0.67144,-1.215218 -1.44108,-2.374455 -2.20991,-3.530502 -2.727,-4.100317 -5.36757,-8.258569 -8.14903,-12.322135 -0.80747,-1.179674 -1.73655,-2.271509 -2.62426,-3.392051 -0.36666,-0.462825 -1.49324,-1.829337 -1.10495,-1.384509 3.77409,4.323614 7.79991,8.553235 11.04951,13.291293 0.71139,1.037204 -1.67714,-1.87525 -2.48613,-2.838243 -7.66977,-9.12975 -0.89031,-1.198454 -8.83962,-10.937629 -0.9407,-1.152512 -1.91134,-2.280843 -2.9005,-3.392048 -0.34674,-0.389531 -0.63872,-0.873935 -1.10495,-1.10761 -0.37999,-0.190452 0.51573,0.681564 0.82872,0.969158 3.69052,3.391115 3.03532,2.512732 7.18218,5.607265 0.80175,0.598289 1.58657,1.220295 2.34802,1.869088 0.16177,0.137834 0.60436,0.579805 0.41436,0.484579 -0.68551,-0.34358 -1.34172,-0.758648 -1.93366,-1.246058 -4.2434,-3.494029 -8.10724,-7.309982 -12.70695,-10.383824 -0.43711,-0.292108 -1.18634,-1.24977 -1.38119,-0.761482 -0.0244,0.06114 8.20933,6.317028 8.83961,6.853325 0.73239,0.623168 1.37347,1.346428 2.07179,2.007539 0.13069,0.123728 0.55042,0.463918 0.41436,0.346128 -3.72528,-3.225016 -7.09881,-6.601182 -11.18764,-9.414668 -0.96027,-0.66075 -1.8976,-1.492353 -3.03862,-1.730637 -0.3506,-0.07322 -0.45795,0.729736 -0.27624,1.038384 1.49982,2.547463 4.67317,4.770326 6.90595,6.437968 0.94207,0.70362 1.91212,1.370624 2.9005,2.007539 0.30303,0.195271 1.01769,0.841465 0.96683,0.484579 -0.22552,-1.582457 -7.04745,-7.200601 -8.14901,-8.099382 -0.65368,-0.533337 -1.32938,-1.053018 -2.07179,-1.453735 -0.16362,-0.08831 0.13119,0.368261 0.27624,0.484579 0.78773,0.631696 1.60495,1.237626 2.48614,1.730637 0.33575,0.187846 4.87752,2.283632 5.801,2.561344 0.81084,0.243838 -0.69146,-1.572831 -1.24307,-2.215216 -0.32619,-0.379867 -4.01306,-4.670374 -5.11041,-5.330364 -0.19774,-0.118931 -0.13211,0.503068 0,0.692255 1.45026,2.076779 2.79009,2.684876 4.97229,4.015079 0.85461,0.520943 3.10369,2.117709 2.76238,1.176832 -0.22347,-0.616008 -0.8111,-1.030216 -1.24307,-1.52296 -0.90357,-1.030668 -1.82021,-2.050428 -2.76238,-3.04592 -0.76177,-0.804873 -1.53053,-1.605466 -2.34803,-2.353667 -0.24508,-0.224314 -0.90062,-0.878171 -0.82871,-0.553805 0.14223,0.641591 2.3944,2.399009 2.62426,2.561344 0.52396,0.370041 2.17547,1.209098 1.79555,0.692253 -1.02465,-1.393936 -2.53619,-2.356273 -3.86733,-3.461274 -0.72138,-0.598829 -2.88844,-2.16213 -2.48615,-1.315283 0.40352,0.849413 2.73379,2.477783 3.31486,2.76902 0.75113,0.376471 2.81152,1.18999 2.48614,0.415351 -0.20838,-0.496099 -0.71617,-0.804828 -1.10495,-1.176832 -0.62499,-0.598019 -1.24918,-1.201748 -1.93367,-1.730637 -3.47039,-2.681523 0.20295,2.630567 2.62426,2.630567 0.99375,0 -0.67188,-2.175066 -2.07178,-3.945853 -0.44663,-0.564962 -0.93195,-1.098516 -1.38119,-1.661411 -0.10372,-0.129961 -0.41873,-0.501052 -0.27624,-0.415354 0.9005,0.541597 1.60124,1.3716 2.48614,1.938314 0.29103,0.186383 1.10496,0.830707 0.82872,0.62303 -0.6519,-0.490101 -0.8764,-1.564989 -1.65743,-1.799862 -0.55847,-0.167945 -0.003,0.618365 0.55247,1.52296"
       style="fill:none;stroke:#000000;stroke-width:3;stroke-linecap:round;stroke-linejoin:round;stroke-miterlimit:4;stroke-dasharray:none" />
    <path
       id="path1457"
       d="m 276.79041,91.56225 c 0.53226,-2.045224 2.35035,-9.202322 2.76238,-8.376285 1.27672,2.559611 -0.84693,5.665298 -1.51931,8.44551 -0.43559,1.801109 -1.79555,7.11417 -1.79555,5.261136 0,-2.936787 1.57126,-9.002884 3.17672,-12.322137 0.18527,-0.38299 -0.18552,0.830405 -0.27622,1.24606 -0.23156,1.061157 -0.44347,2.126732 -0.69059,3.184372 -0.66254,2.835314 -2.43308,10.348618 -4.14359,12.599044 -0.3811,0.5014 0.12386,-1.25801 0.27626,-1.869092 0.55874,-2.240381 1.45081,-4.460306 2.34801,-6.576423 0.30724,-0.724638 1.33483,-2.789253 1.24307,-2.007539 -0.38174,3.252592 -5.38218,13.909854 -7.59653,16.129544 -0.19825,0.19872 0.0341,-0.57 0.13811,-0.83071 0.40539,-1.01594 0.88392,-2.00242 1.38118,-2.9767 0.0636,-0.12464 1.8996,-3.790324 2.62427,-4.153526 1.47558,-0.739563 -1.90931,8.498566 -1.93366,8.583956 -0.12901,0.45258 -0.4863,0.9634 -0.27625,1.38451 0.17595,0.35275 0.24868,-0.74992 0.41437,-1.1076 0.22944,-0.4954 2.78204,-5.67157 3.31485,-5.53804 0.62487,0.15659 -1.55651,9.18042 -1.79554,9.89924 -0.29342,0.88234 -0.76033,1.69773 -1.10495,2.56135 -0.0257,0.0643 -0.032,0.26908 0,0.20767 0.48726,-0.93618 3.31957,-8.47225 4.14356,-8.30706 0.7456,0.14948 -3.04562,8.49783 -3.17675,8.79164 -0.31975,0.71646 -0.62521,1.43969 -0.96681,2.14599 -0.0284,0.0587 -0.15772,0.20063 -0.13814,0.13845 0.50644,-1.60758 2.47542,-6.58963 3.59111,-7.6148 0.46001,-0.4227 0.0156,1.26358 -0.13814,1.86909 -0.3743,1.4741 -1.02034,3.20042 -1.6574,4.56888 -0.41799,0.89784 -0.83275,1.80592 -1.38121,2.63057 -0.0808,0.12149 0.0573,-0.29387 0.13812,-0.41536 0.73644,-1.1073 1.84986,-3.48848 3.03863,-4.0843 0.69146,-0.34656 -0.38812,1.50335 -0.69059,2.21522 -0.82439,1.94015 -1.61679,3.89451 -2.48616,5.81494 -0.37433,0.82693 -0.7979,1.63183 -1.24306,2.42289 -0.064,0.11362 -0.27625,0.40728 -0.27625,0.2769 0,-1.84809 3.87503,-11.81141 5.38665,-12.11446 0.27522,-0.0552 -0.0322,0.57073 -0.13811,0.83071 -0.3579,0.87894 -0.78809,1.7285 -1.24307,2.56134 -0.97094,1.77727 -2.58368,4.40019 -3.86733,6.02262 -0.37272,0.47108 -1.5535,1.56888 -1.51932,0.96915 0.21836,-3.83049 2.47134,-7.8879 3.86734,-11.35298 0.34102,-0.84647 1.41877,-3.35415 0.96684,-2.56134 -1.50046,2.6321 -2.77011,5.40556 -4.2817,8.03016 -0.60021,1.04214 -1.25024,2.05636 -1.93366,3.04592 -0.14819,0.21456 -0.58579,0.81242 -0.55247,0.5538 0.32226,-2.50356 1.60252,-4.78782 2.34801,-7.19945 0.83471,-2.70035 2.17742,-7.88815 3.03861,-10.5915 0.32126,-1.00845 0.73208,-1.98617 1.10495,-2.97669 0.0875,-0.23252 0.35089,-0.92922 0.27626,-0.69226 -1.63412,5.18714 -4.0091,10.06076 -6.62972,14.81426 -0.25019,0.4538 -0.36544,1.54747 -0.82873,1.31528 -0.47032,-0.23573 0.26096,-1.01972 0.41436,-1.52296 1.33128,-4.36737 3.04284,-8.55567 4.69604,-12.80672 0.42863,-1.10216 0.76375,-2.241741 1.24309,-3.32282 0.0793,-0.178779 0.44516,-0.608473 0.41434,-0.415354 -0.52329,3.278424 -2.5581,6.830334 -3.86733,9.830024 -0.3963,0.90802 -0.83807,1.7956 -1.24307,2.69979 -0.10155,0.22674 -0.18415,0.92301 -0.27623,0.69226 -0.70887,-1.77644 0.80278,-9.95662 1.10496,-11.976013 0.0864,-0.57775 0.68881,-1.317065 0.27622,-1.73064 -0.3661,-0.366998 -0.39132,0.96103 -0.55247,1.453737 -0.9144,2.795636 -0.82011,2.679036 -1.38118,5.538036 -0.6736,3.43242 -0.27625,-0.6076 -0.27625,-1.45373 0,-3.991075 0.82595,-9.028741 -0.8287,-12.806719 -0.19326,-0.441261 -0.37084,0.904751 -0.41437,1.384509 -0.33065,3.646001 1.15155,7.179705 0.69059,10.79918 -0.12626,0.99146 -0.62042,1.90073 -0.96681,2.83824 -0.11446,0.30978 -0.10115,1.00459 -0.41437,0.89993 -0.45482,-0.15197 1.20806,-12.56337 1.79554,-8.514732 0.57846,3.986532 -1.0152,8.044252 -2.48613,11.629882 -0.42312,1.0314 -0.8836,2.04832 -1.3812,3.04592 -0.14843,0.29759 -0.40404,1.12829 -0.55247,0.83071 -0.53745,-1.07748 3.50887,-7.73936 4.00544,-8.51474 0.43079,-0.67264 1.75054,-2.52395 1.65743,-1.73063 -0.39299,3.34844 -2.73301,7.11753 -4.41981,9.89924 -0.61704,1.01757 -1.26228,2.03517 -2.07177,2.90747 -0.15738,0.16958 -0.705,0.30013 -0.6906,0.0692 0.0504,-0.80847 0.48632,-1.55033 0.82871,-2.28444 0.32904,-0.70547 1.91157,-3.97052 3.03861,-4.63811 0.20246,-0.11992 0.20262,0.46597 0.13814,0.69225 -0.26654,0.93515 -0.67807,1.82613 -1.10495,2.6998 -1.3302,2.72234 -4.2376,8.78989 -6.21536,10.93763 -0.1441,0.15647 -0.20525,-0.42118 -0.13812,-0.62303 0.31262,-0.94013 0.69442,-1.87484 1.24307,-2.6998 1.57807,-2.3728 3.24416,-4.69981 5.11041,-6.85332 0.18089,-0.20876 0.92892,-0.25742 0.8287,0 -0.41532,1.06679 -1.29072,1.89106 -1.93366,2.83824 -0.87638,1.29111 -1.77652,2.56655 -2.62426,3.87663 -0.81006,1.25184 -1.56306,2.53969 -2.34803,3.8074 -4.83447,7.80761 1.5698,-4.67234 3.86734,-5.33036 0.28053,-0.0803 -0.12716,0.57985 -0.27624,0.83071 -0.49992,0.84117 -1.13025,1.59852 -1.65743,2.42289 -0.48421,0.75718 -4.09601,6.94639 -4.55793,6.71487 -1.17126,-0.58704 4.00789,-7.25669 4.14357,-7.40713 0.65626,-0.7276 1.4455,-1.32532 2.20991,-1.93831 0.1607,-0.12887 0.65093,-0.45784 0.55247,-0.2769 -0.36146,0.66427 -0.88444,1.22964 -1.38119,1.79986 -0.93195,1.0698 -1.93066,2.07957 -2.9005,3.11515 -1.60239,1.711 -5.89185,7.12088 -7.87278,8.23783 -0.23425,0.13209 0.25777,-0.47362 0.41436,-0.69225 0.85788,-1.19777 4.76412,-5.27423 4.97228,-6.16107 0.0782,-0.33325 -0.67844,0.16171 -0.96683,0.34613 -0.656,0.41948 -6.07992,4.48671 -6.49159,4.77655 -5.71409,4.02312 -2.39586,-0.93225 1.38119,-2.28444 0.48902,-0.17507 1.02667,-0.51073 1.51931,-0.34613 1.09998,0.36755 -1.55496,1.83542 -2.62426,2.28444 -1.41412,0.59383 -4.32912,1.12207 -5.801,0.13846 -0.0295,-0.0197 1.90297,0.045 2.07178,0 0.96718,-0.25753 1.91306,-0.64733 2.76238,-1.17684 1.38649,-0.8644 5.48367,-4.71616 5.52476,-4.70733 1.18732,0.25504 1.96821,1.39989 3.31486,0.89993 0.98366,-0.36519 9.63481,-6.98974 9.94455,-6.36874 0.65649,1.31608 -6.79617,9.97204 -7.73465,11.00685 -0.52551,0.57945 -1.0641,1.15162 -1.65743,1.66141 -0.0698,0.06 -0.30922,0.086 -0.27623,0 1.75688,-4.57888 6.43174,-8.73645 10.49704,-11.21453 0.50395,-0.3072 1.1194,-0.86572 1.65743,-0.62303 0.4349,0.19617 -0.39634,1.77858 -2.34802,4.08431 -2.75915,3.25965 -5.90289,6.86579 -9.25398,9.55311 -1.61876,1.29813 2.31711,-3.46388 3.72921,-4.98423 0.0393,-0.0423 4.65334,-4.27058 5.66289,-4.77656 0.25833,-0.12948 -0.22501,0.5432 -0.41437,0.76148 -0.73697,0.84955 -1.56535,1.61526 -2.34802,2.42289 -0.78267,0.89993 -1.57801,1.789 -2.34802,2.6998 -2.70442,3.19888 0.44088,-0.11132 1.24307,-0.62303 1.16456,-0.74286 0.31505,0.33273 0.69059,0.0692 0.27228,-0.19105 2.79948,-2.12135 3.03863,-0.62303 0.0725,0.45393 -0.16933,0.92638 -0.41436,1.31529 -0.87019,1.38112 -1.89701,2.65831 -2.9005,3.94585 -0.15059,0.19321 -0.55248,0.72954 -0.55248,0.48458 0,-1.2656 7.36826,-9.02335 8.8396,-9.7608 0.46125,-0.23117 -0.10027,1.03796 -0.27622,1.52296 -0.42585,1.17391 -1.39375,2.8929 -2.07179,3.87663 -0.41887,0.60771 -0.91644,1.15726 -1.38118,1.73064 -0.13383,0.1651 -0.37277,0.693 -0.41437,0.48458 -0.30739,-1.54066 1.59137,-2.92851 1.79555,-4.36121 0.0217,-0.15295 -0.30769,0.0959 -0.41434,0.20768 -0.88503,0.92746 -1.46214,2.1193 -2.34805,3.04592 -2.89396,3.02706 -6.72489,5.37594 -10.22079,7.6148 -1.08783,0.69668 -2.02307,2.00754 -3.31486,2.00754 -0.20629,0 0.16665,-0.37903 0.27624,-0.5538 0.39751,-0.63391 0.76179,-1.29618 1.24307,-1.86909 1.4719,-1.75208 3.37721,-3.03919 4.97229,-4.63811 0.15348,-0.15385 -0.37326,0.22322 -0.55248,0.34613 -2.15556,1.4784 -4.18319,2.72144 -6.62971,3.66895 -0.3192,0.12363 -0.96683,0.68844 -0.96683,0.34613 0,-0.3834 0.66619,-0.38511 0.96683,-0.62303 1.18509,-0.93785 2.31864,-1.99645 3.17674,-3.2536 0.16451,-0.24102 0.55929,-0.75977 0.27623,-0.8307 -1.72404,-0.43205 -5.24998,2.72151 -6.49159,3.5305 -0.55673,0.36275 -1.108,0.73388 -1.65742,1.10761 -0.0953,0.0648 -0.37923,0.25929 -0.27624,0.20767 0.37801,-0.18946 0.76071,-0.3775 1.10495,-0.62303 0.94683,-0.67533 6.78548,-5.80974 6.62971,-6.16107 -0.20071,-0.45267 -4.61829,3.48084 -4.97228,3.87663 -0.18504,0.20689 -0.77969,0.78246 -0.55248,0.62303 1.01186,-0.71001 5.14259,-6.40857 4.69605,-6.57642 -0.53679,-0.20178 -5.50942,6.7808 -6.62971,6.29952 -0.28832,-0.12386 -0.13618,-0.61913 -0.27624,-0.89993"
       style="fill:none;stroke:#000000;stroke-width:3;stroke-linecap:round;stroke-linejoin:round;stroke-miterlimit:4;stroke-dasharray:none" />
    <path
       id="path1459"
       d="m 274.85673,84.085895 c 1.06632,-7.781235 0.55248,14.244597 0.55248,10.729952 0,-3.185703 0.15409,-12.736478 0.27625,-9.553117 0.16515,4.304365 -0.12152,8.509383 0.41436,12.806714 0.11647,0.93414 0.3074,3.483646 0.8287,2.699796 0.81984,-1.232721 0.81209,-5.7275 1.10496,-7.268677 0.0899,-0.47326 0.23582,-1.831932 0.41436,-1.384511 0.18984,0.475765 0.13811,5.586857 0.13811,5.884166 0,3.734442 0.087,1.41949 -0.13811,4.015082 -0.006,0.069 0,0.2769 0,0.20767 0,-0.72756 1.78731,-8.95093 1.51929,-5.122682 -0.21563,3.080442 -0.59645,5.989972 -1.24306,8.999312 -0.0842,0.39199 -0.37992,2.0248 -0.27623,2.07677 0.0788,0.0395 0.70908,-1.84996 1.38118,-3.66896 0.20786,-0.56257 0.46831,-1.10438 0.69059,-1.66141 0.0541,-0.13551 0.13814,-0.56125 0.13814,-0.41535 0,2.22862 -1.40571,4.59568 -1.79557,6.7841 -0.0894,0.50183 -0.0976,1.01484 -0.13811,1.52296 -0.006,0.069 -0.045,0.26029 0,0.20768 0.98115,-1.14743 0.57496,-3.9315 0.69058,-5.19191 0.24506,-2.67143 0.35703,-3.37836 1.10496,-5.814948 0.53099,-1.729857 0.86545,-1.977565 1.10495,-3.738176 0.056,-0.411562 0,-0.830705 0,-1.246058 0,-0.115377 0,-0.461502 0,-0.346128 0,1.800937 0.053,1.662007 -0.55248,4.291981 -0.0292,0.127053 -0.23884,0.401804 -0.27622,0.276902 -0.15933,-0.532384 -0.0532,-1.112218 -0.13811,-1.661411 -0.42183,-2.729114 -0.8463,-5.459394 -1.38121,-8.168608 -0.34036,-1.723838 -0.92694,-3.394242 -1.24306,-5.122688 -0.31015,-1.695739 -0.27625,-2.810907 -0.27625,-4.361204 0,-0.578715 0.0707,1.155867 0.13813,1.730637 0.48554,4.137104 0.45048,2.005677 0.55248,6.299517 0.0204,0.853541 0,1.707563 0,2.561344 0,0.230751 0,0.923007 0,0.692256 0,-2.522426 0.0685,-1.626163 -0.41436,-4.984237 -0.2095,-1.456862 -0.57066,-2.894253 -0.69059,-4.361203 -0.11097,-1.356908 -0.0289,-2.723177 0,-4.084304 0.21659,-10.204069 4.54583,9.401034 1.65743,2.838243 -0.46609,-1.058976 -0.96745,-2.103874 -1.38121,-3.184371 -1.06635,-2.784838 -1.34109,-3.53508 -1.65743,-6.230295 -0.0376,-0.320849 -0.28879,-0.824407 0,-0.969158 0.14322,-0.07177 2.43774,4.589148 4.2817,6.784099 0.0535,0.06366 0.16436,-0.128786 0.13811,-0.207677 -0.21505,-0.646702 -0.57298,-1.237366 -0.8287,-1.869088 -0.70725,-1.747062 -1.45658,-3.47958 -2.07179,-5.261136 -0.18629,-0.539507 -0.1596,-1.150657 -0.41436,-1.661411 -0.81799,-1.63993 0.63553,2.263743 1.79554,2.699792 0.0864,0.03248 0.0386,-0.193061 0,-0.276902 -0.2417,-0.524971 -0.51642,-1.036646 -0.8287,-1.52296 -0.97793,-1.52291 -1.9979,-3.018957 -3.03861,-4.499658 -0.38719,-0.550868 -0.83738,-1.054804 -1.24309,-1.592186 -1.97943,-2.621976 1.34064,0.311023 1.79557,0.623031 2.00615,1.375939 0.70577,0.717552 -0.13814,-0.48458 -0.55899,-0.796282 -1.03272,-1.649629 -1.51929,-2.492118 -0.52658,-0.91168 -1.0041,-1.850882 -1.51932,-2.769018 -0.31356,-0.558784 -0.67244,-1.092295 -0.96684,-1.661411 -0.0318,-0.06149 -0.0474,-0.258144 0,-0.207677 1.49929,1.596829 3.05014,3.268049 4.41981,4.984234 0.11597,0.145322 0.45659,0.529775 0.27625,0.484579 -0.22902,-0.05739 -3.7578,-4.783719 -3.86733,-4.915011 -0.0315,-0.0377 -1.69704,-1.918949 -1.65743,-1.799862 0.16269,0.489307 1.76056,2.250352 1.79554,2.284441 0.48525,0.472908 1.90854,1.806157 1.65743,1.176835 -0.65535,-1.642295 -5.26883,-5.343943 -6.90594,-6.437971 -0.0958,-0.06401 0.17859,0.146515 0.27622,0.207677 0.4553,0.285234 0.91435,0.564816 1.38121,0.830704 0.75197,0.428284 1.50857,1.317969 2.34801,1.107609 0.2122,-0.05318 -1.32402,-1.869292 -1.3812,-1.938313 -1.24703,-1.505726 -2.57815,-3.059729 -4.28167,-4.084304 -0.0713,-0.04285 0.072,0.157215 0.13811,0.207676 0.90461,0.690888 1.8188,1.370904 2.76238,2.007539 0.29075,0.196178 1.17697,0.696201 0.96684,0.415351 -1.42041,-1.898425 -3.2304,-3.481988 -4.97229,-5.053459 -2.00443,-1.808319 2.35699,1.730637 3.86734,1.730637 0.0831,0 0.17928,-0.135451 0.13811,-0.207677 -1.73199,-3.038258 -9.21498,-5.241592 -3.72922,-2.492118 0.0823,0.04126 -0.19391,0.04126 -0.27623,0 -0.34276,-0.171789 -0.67259,-0.377238 -0.96684,-0.623028 -0.53793,-0.449358 -1.03043,-0.951442 -1.51931,-1.453737 -0.62363,-0.640763 -1.52578,-1.835092 -2.2099,-2.42289 -1.02294,-0.878912 -2.34448,-1.629215 -3.45297,-2.422893 -0.22865,-0.163714 -0.47477,-0.304295 -0.6906,-0.484579 -0.0638,-0.0533 -0.0689,-0.253717 -0.13811,-0.207677 -0.0772,0.05134 0.6318,0.899933 0.96683,0.899933 0.37812,0 -0.42354,-0.632238 -0.6906,-0.899933 -1.86363,-1.868109 -1.18321,-1.198036 -3.45297,-2.769018 -0.36781,-0.254571 -1.2461,-1.185939 -1.10495,-0.761481 0.34903,1.04961 1.71516,1.852916 2.48614,2.561344 0.192,0.176426 0.80541,0.490418 0.55248,0.553802 -0.008,0.0019 -2.79549,-1.465112 -3.31486,-1.522961 -0.96575,-0.107563 3.69489,4.024297 3.31486,2.976698 -0.42267,-1.165133 -2.8251,-3.679232 -1.51931,0.138451 0.64188,1.876666 2.18737,3.902564 3.59109,5.261136 1.03764,1.004269 2.55445,2.009291 2.76238,1.522961 0.37757,-0.883121 -2.56305,-2.874288 -2.20991,-1.730637 0.96063,3.111026 1.71233,5.723569 4.41981,7.476352 0.35265,0.228301 0.98554,0.539583 1.24307,0.207677 0.30238,-0.3897 -0.0652,-1.007925 -0.27624,-1.453735 -1.02581,-2.166734 -3.87033,-6.543566 -5.93911,-7.753255 -0.22228,-0.129976 -0.67673,0.08901 -0.6906,0.346128 -0.10173,1.886511 3.38932,7.705352 5.24852,8.237834 0.89244,0.255593 -0.72899,-1.719146 -1.24307,-2.492118 -0.15132,-0.227537 -2.39315,-3.760796 -3.17673,-4.15353 -0.22211,-0.111321 -0.33365,0.450535 -0.27624,0.692256 0.41855,1.762157 4.3508,6.564839 5.24852,5.814941 0.25042,-0.209185 -1.30995,-4.949333 -1.65743,-5.607267 -0.59607,-1.128617 -0.539,1.550265 -0.41435,2.699795 0.21977,2.026812 1.54269,8.39973 3.03861,9.899245 0.3164,0.317159 0.22402,-0.870344 0.27624,-1.315283 0.52741,-4.493787 -0.11745,-0.220814 0.13812,-3.807402 0.009,-0.12391 0.0371,-0.418446 0.13812,-0.346128 2.01345,1.441627 2.07314,4.863068 3.45297,6.784097 1.38369,1.926418 1.66018,-5.189321 0.55247,-6.230292 -1.97212,-1.853324 -0.80703,10.24179 2.0718,8.930087 1.81708,-0.827937 -0.74139,-8.924684 -1.79554,-8.237834 -2.09,1.361755 2.22821,10.89992 3.31483,9.483891 0.34205,-0.445727 -2.02816,-6.281996 -2.20988,-6.853322 -0.15949,-0.501356 0.006,-1.206812 -0.41436,-1.52296 -0.2974,-0.223581 -0.20654,0.741889 -0.13812,1.107607 0.21209,1.133877 0.59352,2.231361 0.96682,3.322823 0.83862,2.451864 2.00263,6.373587 3.86733,8.376284 0.0847,0.09092 0.1665,-0.225192 0.13811,-0.346127 -0.16171,-0.688941 -0.43463,-1.347783 -0.69058,-2.00754 -0.62773,-1.618006 -1.1107,-3.331464 -2.07177,-4.776557 -0.10224,-0.153712 -0.0368,0.372914 0,0.553805 0.19423,0.954111 0.47569,1.888564 0.69059,2.838243 0.82703,3.655275 1.36358,7.339047 2.07176,11.006855 0.083,0.429776 0.0106,1.077362 0.41437,1.246058 0.89715,0.374705 0.55247,-6.759096 0.55247,-7.268676 0,-0.207677 -0.009,0.415539 0,0.623028 0.0373,0.877273 0.0414,1.757849 0.13812,2.630569 0.31181,2.812899 0.56586,6.341999 1.65743,8.999313 0.99478,2.421715 0.96684,-9.646381 0.96684,-6.714871 0,3.288564 -0.41437,6.539338 -0.41437,9.830019"
       style="fill:none;stroke:#000000;stroke-width:3;stroke-linecap:round;stroke-linejoin:round;stroke-miterlimit:4;stroke-dasharray:none" />
    <path
       id="path1461"
       d="m 267.95079,56.811052 c 0.9208,3.576651 4.09572,7.285757 2.76238,10.729952 -0.91556,2.365039 -3.04554,-4.05606 -4.55792,-6.091843 -0.0992,-0.133474 -0.36833,-0.553805 -0.27626,-0.415354 8.97999,13.502336 1.50657,1.491771 0.41437,0.138452 -1.66082,-2.057887 -6.027,-5.877865 -2.62426,-0.761482"
       style="fill:none;stroke:#000000;stroke-width:3;stroke-linecap:round;stroke-linejoin:round;stroke-miterlimit:4;stroke-dasharray:none" />
    <path
       id="path1463"
       d="m 245.71364,139.95087 c -8.25311,-4.70054 3.32955,1.27547 -16.29804,-2.21522 -1.57839,-0.28071 3.11525,-0.7715 4.69604,-1.03838 7.84905,-1.32512 5.81942,-0.92678 10.08269,-1.31528 0.77944,-0.071 -1.56702,-0.0511 -2.34802,0 -3.08849,0.2019 -6.16895,0.51209 -9.25398,0.76147 -1.15299,0.0932 -2.29953,0.25854 -3.45297,0.34613 -0.36726,0.0279 -1.36508,-0.26075 -1.10495,0 0.72334,0.72509 12.01519,0.66177 13.53566,0.69226 0.87458,0.0175 1.7495,0 2.62426,0 0.2302,0 0.9202,0.0164 0.69059,0 -3.76141,-0.26932 -7.55919,-0.34577 -11.32575,-0.48458 -1.33504,-0.0492 -2.66994,-0.10413 -4.00545,-0.13845 -0.46025,-0.0118 -0.9696,0.20629 -1.38119,0 -0.37101,-0.18595 0.83014,-0.0278 1.24307,-0.0692 1.199,-0.12019 2.38926,-0.32791 3.59109,-0.41535 2.4796,-0.18041 8.96748,0.35127 11.18764,-0.76148 0.0529,-0.0265 -1.65743,-0.25982 -1.65743,-0.13845 0,0.1627 5.58059,-0.68509 6.35347,-0.96916 0.33784,-0.12417 1.18063,-0.61666 0.82872,-0.69225 -2.57567,-0.55326 -5.26197,-0.34613 -7.87278,-0.34613 -0.41692,0 -1.58972,0.0932 -1.24307,-0.13845 1.81685,-1.21415 4.55983,-0.84825 6.6297,-1.10761 0.18274,-0.0229 -0.36831,0 -0.55247,0 -0.59852,0 -1.19703,0 -1.79555,0 -3.22277,0 -6.44555,0 -9.66832,0 -0.82872,0 -1.65743,0 -2.48614,0 -0.18417,0 -0.73572,0.0184 -0.55248,0 2.15569,-0.21609 4.33138,-0.26498 6.49159,-0.41535 0.73809,-0.0514 1.47308,-0.14054 2.2099,-0.20768 0.27606,-0.0252 1.10377,-0.0348 0.82872,-0.0692 -3.8046,-0.47672 -7.75456,0.62302 -11.602,0.62302 -0.23019,0 0.4604,0 0.6906,0 1.75653,0 3.49467,0.13845 5.24852,0.13845 0.27624,0 -0.55248,0 -0.82871,0 -2.86713,0 -5.72552,0.17109 -8.56338,-0.34612 -1.62143,-0.29552 -3.21396,-0.73623 -4.83416,-1.03838 -0.40797,-0.0761 -1.65807,-0.0692 -1.24307,-0.0692 1.28911,0 2.57822,0 3.86733,0 0.0921,0 0.36831,0 0.27623,0 -2.41926,0 -4.77244,0.41535 -7.18218,0.41535 -0.0921,0 0.18448,-0.008 0.27624,0 0.46109,0.0385 0.92048,0.0955 1.38119,0.13845 1.51901,0.14165 3.03733,0.29177 4.55792,0.41536 0.18355,0.0149 0.73664,0 0.55248,0 -0.68533,0 -5.97928,-0.0177 -6.07724,0.2769 -0.11192,0.33658 4.30329,0.91535 4.69605,1.03838 0.49124,0.15388 -1.01685,0.16498 -1.51931,0.2769 -0.76342,0.17006 -1.3152,0.41536 -2.07178,0.41536 -0.2302,0 -0.9208,0 -0.6906,0 7.29135,0 -1.45986,-0.3238 -3.59109,-0.41536 -0.82795,-0.0356 -1.65743,0 -2.48614,0 -0.64456,0 -1.28912,0 -1.93367,0 -0.0921,0 -0.3682,0.005 -0.27624,0 2.34141,-0.11735 6.79061,0.12418 8.42526,-0.89993 0.19605,-0.12283 -0.45931,-0.0637 -0.69059,-0.0692 -1.56491,-0.0374 -3.13342,-0.0922 -4.69605,0 -0.74111,0.0437 -1.47057,0.20952 -2.2099,0.2769 -3.55327,0.3238 6.33823,0.006 -0.27624,-0.20768 -0.8286,-0.0268 -1.65846,-0.0218 -2.48614,-0.0692 -0.78445,-0.0449 -1.56351,-0.16399 -2.34803,-0.20768 -0.45968,-0.0256 -0.92079,0 -1.38118,0 -0.0921,0 -0.36832,0 -0.27624,0 1.97657,0 3.95403,-0.20768 5.93911,-0.20768 0.73664,0 -1.47355,-0.0205 -2.2099,0 -9.19506,0.25604 2.97076,0.0188 -5.52476,0.2769 -0.23736,0.007 -2.49295,-0.003 -2.48614,0 0.70422,0.35296 8.92062,0.13846 4.55793,0.13846 -2.14873,0 -4.34794,-0.14326 -6.4916,0 -1.4189,0.0948 1.85467,-0.033 2.07179,-0.0692 0.13623,-0.0228 -0.27624,0 -0.41436,0 -0.87475,0 -1.75009,-0.0321 -2.62426,0 -4.50876,0.16535 -1.52419,0.0659 -4.83416,0.5538 -0.18219,0.0269 -0.55248,-0.18415 -0.55248,0 0,0.084 1.33316,-0.0688 2.07179,-0.20767 1.10511,-0.20771 2.48614,-0.53884 2.48614,-0.76148 0,-0.2302 -0.4604,0 -0.6906,0 -0.41436,0 -0.82871,0 -1.24307,0 -0.18416,0 -0.73663,0 -0.55247,0 0.46097,0 1.83986,-0.0233 1.38118,-0.0692 -1.33234,-0.13355 -2.39282,0.232 -2.34802,0.2769 0.13007,0.13038 0.68254,-0.13037 0.55248,0 -0.22884,0.2294 -2.05921,1.26498 -1.93367,1.45374 0.12748,0.19168 0.4604,0 0.6906,0 0.96683,0 1.93366,0 2.9005,0 5.94594,0 5.56399,-0.16344 11.74011,0.5538 1.71077,0.19868 3.41705,0.44715 5.1104,0.76148 0.79616,0.14779 1.70785,0.12717 2.34802,0.62303 0.26267,0.20346 -0.50911,0.46304 -0.82871,0.55381 -1.08153,0.30717 -2.20438,0.44727 -3.31486,0.62303 -2.99565,0.47413 -7.38152,0.53453 -10.2208,1.24605 -0.40193,0.10073 0.82871,0 1.24307,0 1.33515,0 2.6703,0 4.00545,0 3.40694,0 6.81387,0 10.2208,0 0.78268,0 1.56535,0 2.34803,0 0.41435,0 -0.82886,-0.0106 -1.24307,0 -1.38151,0.0355 -2.7627,0.0835 -4.14357,0.13846 -2.35171,0.0935 -4.79021,-0.19321 -7.04407,0.48457 -0.35547,0.1069 0.73388,0.12892 1.10495,0.13846 1.42676,0.0367 2.85446,0 4.28169,0 3.72921,0 7.45842,0 11.18763,0 1.3812,0 2.76238,0 4.14357,0 0.32228,0 1.28911,0 0.96684,0 -4.97905,0 -9.9459,0.2769 -14.91685,0.2769 -0.50644,0 1.01302,0.0124 1.51931,0 1.38154,-0.0338 2.76308,-0.0746 4.14357,-0.13845 3.55101,-0.16429 7.07867,-0.41536 10.63516,-0.41536 0.46039,0 -0.9208,0 -1.38119,0 -3.77525,0 -7.55051,0 -11.32576,0 -0.0921,0 0.18418,0.002 0.27624,0 1.05895,-0.0212 2.1191,-0.0124 3.17674,-0.0692 5.5381,-0.2974 11.02072,-0.83071 16.57427,-0.83071 0.73664,0 -1.4734,-0.0139 -2.2099,0 -5.61937,0.10628 -11.22919,0.27691 -16.85052,0.27691 -0.46039,0 -1.82379,0.12675 -1.38118,0 2.27042,-0.65026 4.69035,-0.56736 7.04406,-0.76149 2.89691,-0.23892 9.19594,-0.61317 12.15447,-0.69225 1.47274,-0.0394 2.94814,0.0686 4.41981,0 0.51422,-0.024 1.92091,0.0452 1.51931,-0.2769 -1.08827,-0.87271 -12.21809,-0.60021 -13.8119,-0.62303 -1.24294,-0.0178 -2.48614,0 -3.72921,0 -0.36832,0 -1.47199,0.0307 -1.10495,0 2.20523,-0.18421 4.41971,-0.23253 6.62971,-0.34613 2.02517,-0.10411 4.04998,-0.22794 6.07723,-0.2769 2.66952,-0.0645 5.34523,0.15718 8.0109,0 0.10282,-0.006 -0.17357,-0.13015 -0.27624,-0.13845 -1.33259,-0.10773 -2.6695,-0.15617 -4.00545,-0.20768 -7.18134,-0.27687 -6.35132,-0.20768 -13.53566,-0.20768 -0.0782,0 -5.13805,-0.10521 -6.35347,0.13845 -0.18615,0.0373 0.36266,0.14211 0.55248,0.13846 1.01504,-0.0196 2.02597,-0.13517 3.03861,-0.20768 8.44057,-0.60435 3.22957,-0.37538 12.70695,-0.48458 1.65796,-0.0191 6.63019,-0.11537 4.97228,-0.13845 -5.86673,-0.0817 -11.62272,0.5989 -17.40299,1.59219 -1.34386,0.23093 -2.6718,0.54662 -4.00545,0.8307 -0.50801,0.10822 -1.18175,-0.0486 -1.51931,0.34613 -0.24123,0.28212 0.73379,0.14322 1.10496,0.13845 1.42879,-0.0184 2.85324,-0.17143 4.28169,-0.20768 6.66333,-0.16909 7.11735,-0.21545 13.95001,0.69226 1.39209,0.18494 2.83515,0.25143 4.14357,0.76148 0.25056,0.0977 -0.1535,0.62688 -0.41436,0.69225 -1.759,0.44081 -3.58854,0.52639 -5.38664,0.76149 -2.69753,0.35269 -12.58503,0.91823 -15.19308,2.00753 -0.38235,0.1597 0.82876,0.006 1.24307,0 1.10506,-0.0168 2.21088,-0.0173 3.31485,-0.0692 5.80568,-0.2728 11.58432,-0.60123 17.40299,-0.48458 0.60017,0.012 2.21951,-0.28653 1.79555,0.13845 -0.46505,0.46617 -13.20512,1.70483 -13.95002,1.79986 -0.41356,0.0528 -1.65429,0.0697 -1.24307,0.13846 2.36408,0.39495 4.79282,-0.15705 7.18219,-0.34613 2.76537,-0.21885 5.53464,-0.41659 8.28713,-0.76148 0.95961,-0.12024 -1.93821,-0.0272 -2.90049,0.0692 -1.94053,0.19452 -3.87353,0.46424 -5.801,0.76148 -0.18201,0.0281 0.36856,0.01 0.55248,0 1.15152,-0.0597 2.30585,-0.0907 3.45297,-0.20767 3.00262,-0.30609 5.99311,-0.72807 8.97773,-1.17684 1.57122,-0.23625 2.87087,-0.5538 4.41981,-0.5538 0.14563,0 -0.31151,0.0354 -0.41436,0.13845 -0.47826,0.47942 1.35981,-0.2635 1.93367,-0.62303 1.53242,-0.96006 0.62144,-0.71884 2.2099,-1.45373 0.25846,-0.11958 1.1135,-0.20768 0.82872,-0.20768 -1.90653,0 -4.67862,1.29794 -6.4916,1.73064 -0.91813,0.21913 -1.81845,0.62303 -2.76238,0.62303 -0.54736,0 -2.04348,-0.4654 -1.5193,-0.62303 0.92824,-0.27915 1.93158,0.23542 2.9005,0.20767 0.65453,-0.0187 1.29013,-0.22517 1.93366,-0.34613 0.0933,-0.0175 0.37111,-0.066 0.27624,-0.0692 -5.90046,-0.19716 -11.75867,1.38451 -17.67923,1.38451 -0.18416,0 0.36832,0 0.55248,0 1.21714,0 2.79834,0.0215 4.00545,-0.0692 0.23411,-0.0176 0.91833,-0.0814 0.69059,-0.13845 -1.24564,-0.31216 -8.22029,0.0357 -9.25397,0.55381 -0.29105,0.14587 0.64149,0.12637 0.96683,0.13845 1.51827,0.0564 3.03862,0 4.55793,0 0.87597,0 -1.75117,0.0675 -2.62426,0.13845 -1.33529,0.10852 -2.59152,0.18841 -3.86733,0.5538 -0.26556,0.0761 0.55247,0 0.82871,0 0.18416,0 -0.36832,0 -0.55247,0 -0.59852,0 1.19703,0 1.79554,0 1.52459,0 3.03121,-0.23956 4.55793,-0.20767 2.50761,0.0524 1.46959,0.90616 -0.13812,1.10761 -0.29143,0.0365 -3.8222,-0.24434 -3.59109,0.2769 0.12134,0.27367 0.53249,0.30282 0.82871,0.34612 0.82127,0.12006 1.65638,0.11865 2.48614,0.13845 1.10464,0.0264 2.2099,0 3.31486,0 0.73663,0 1.47327,0 2.2099,0 0.18416,0 0.71711,-0.0825 0.55248,0 -3.48069,1.74453 -8.26808,1.43116 -12.01635,1.59219 -0.59797,0.0257 -1.19703,0 -1.79555,0 -0.13812,0 -0.55248,0 -0.41436,0 0.40283,0 10.81702,-1.10679 7.04407,-1.17683 -2.99066,-0.0555 -5.98797,0.0881 -8.97773,0 -0.96889,-0.0286 -3.81309,0.11903 -2.9005,-0.20768 1.64909,-0.59037 3.30158,-0.38776 4.97228,-0.69225 0.0818,-0.0149 -0.0553,-0.1999 -0.13812,-0.20768 -0.68756,-0.0646 -1.38119,0 -2.07178,0 -2.94654,0 -5.89308,0 -8.83961,0 -0.46271,0 0.92544,-0.0585 1.38118,-0.13845 1.38406,-0.24279 2.74105,-0.75934 4.14357,-0.89993 0.36648,-0.0367 1.46407,-0.0818 1.10495,0 -2.52075,0.57428 -3.39551,0.60612 -6.6297,1.03838 -0.41325,0.0552 -0.87035,-0.0484 -1.24308,0.13845 -0.62287,0.31219 1.3765,0.23194 2.07179,0.2769 2.31479,0.1497 4.57933,0.41536 6.90595,0.41536 0.2302,0 -0.4604,0 -0.6906,0 -0.87475,0 -1.74977,0.0214 -2.62426,0 -2.28123,-0.0558 -4.28584,-0.33936 -6.49159,-0.83071 -0.53973,-0.12023 1.10627,-0.0247 1.65743,-0.0692 1.38833,-0.11224 5.17949,0.0605 6.35347,-0.96916 0.72769,-0.63826 -1.93256,-0.13845 -2.9005,-0.13845 -3.28883,0 -8.40089,0.50278 -11.46387,-0.76148 -0.19645,-0.0811 0.21108,-0.42257 0.41435,-0.48458 0.81672,-0.24917 5.67886,-0.89702 6.21536,-0.96916 0.73896,-0.0994 2.95523,-0.32537 2.2099,-0.34613 -1.77315,-0.0494 -4.77561,0.0472 -6.35347,0.13845 -1.10695,0.064 -2.21092,0.17316 -3.31486,0.27691 -0.36957,0.0347 -1.4689,0.0655 -1.10495,0.13845 1.85135,0.37116 3.77881,-0.0137 5.66288,-0.13845 1.15423,-0.0764 2.30933,-0.17244 3.45297,-0.34613 0.38159,-0.058 1.39153,-0.0876 1.10495,-0.34613 -0.37719,-0.34029 -5.29802,-0.41328 -5.38663,-0.41535 -3.04844,-0.0711 -7.87827,0.27323 -10.35893,-1.38451"
       style="fill:none;stroke:#000000;stroke-width:3;stroke-linecap:round;stroke-linejoin:round;stroke-miterlimit:4;stroke-dasharray:none" />
    <path
       id="path1465"
       d="m 199.44378,137.45902 c -0.82872,-0.53082 -2.14843,-2.51684 -2.48614,-1.59246 -1.31259,3.59292 -0.69697,7.61885 -1.10495,11.42221 -0.0526,0.49043 -0.15427,1.93166 -0.27624,1.45373 -0.61907,-2.42582 -0.92898,-4.92333 -1.24307,-7.40712 -0.14474,-1.14465 0.39346,-2.37668 0,-3.46128 -0.19464,-0.53655 -0.39204,1.09108 -0.41435,1.66141 -0.0726,1.85685 0.35625,3.99788 -0.13812,5.81495 -0.10919,0.40129 -0.3668,-0.76368 -0.41436,-1.17684 -0.23541,-2.04513 -0.55247,-4.0329 -0.55247,-6.09184 0,-0.11538 0.0175,0.23208 0,0.34613 -0.49463,3.22279 -0.0754,-0.50301 -0.55248,3.32282 -0.0602,0.48302 -0.0994,0.96852 -0.13812,1.45374 -0.007,0.092 0.0342,0.36262 0,0.2769 -0.59479,-1.49054 -0.0214,-4.03638 -0.13812,-5.53804 -0.0653,-0.83958 -0.28661,-1.65976 -0.41436,-2.49212 -0.0714,-0.46515 -0.0156,-1.77636 -0.27623,-1.38451 -0.39361,0.59183 -0.50062,5.22535 -0.55248,6.16107 -0.0115,0.20736 0.0293,0.82863 0,0.62303 -0.10753,-0.75449 -0.21429,-2.4208 -0.13812,-3.18438 0.0875,-0.87735 0.55248,-3.60231 0.55248,-0.69225 0,3.98952 0.0805,1.03958 -0.27624,5.33036 -0.0594,0.71435 -0.10241,1.43007 -0.13812,2.14599 -0.0103,0.20742 0,0.83071 0,0.62303 0,-2.2897 0.75793,-4.77639 1.24307,-6.99177 0.16759,-0.7653 0.29986,-1.54286 0.55248,-2.28444 0.0743,-0.21824 0.32507,-0.76637 0.41435,-0.55381 0.47609,1.13343 0.63497,7.13551 0.6906,8.37629 0.0404,0.9002 0.10289,1.79937 0.13812,2.69979 0.0108,0.27669 -0.27476,0.86513 0,0.83071 0.85395,-0.107 1.95365,-7.89425 2.48614,-9.06854 0.0538,-0.11874 0.24725,0.14979 0.27623,0.2769 0.16035,0.70318 0.15795,1.43453 0.27624,2.14599 0.16865,1.0143 0.73239,6.24485 1.10496,6.99178 0.10139,0.20328 0.22253,-0.4023 0.27623,-0.62303 0.17761,-0.72992 0.33487,-1.46822 0.41436,-2.21522 0.0891,-0.83764 0.14304,-7.11327 0.82871,-7.19918 1.37444,-0.17222 -0.13812,2.76807 -0.13812,4.15326 1e-5,1.57934 -0.20031,7.12839 0.41436,8.51473 0.33698,0.76002 1.2059,-1.26408 1.38119,-2.07676 0.46847,-2.17186 -0.3083,-6.50245 0.82872,-8.30706 0.13295,-0.21102 0.38349,0.37554 0.41435,0.62303 0.11136,0.89302 0,1.79986 0,2.69979 0,0.26459 0,6.58874 0,6.85333 0,0.66918 0,1.33836 0,2.00754 0,0.16152 -0.0415,0.64067 0,0.48457 0.85903,-3.22909 0.60156,-6.6794 1.51931,-9.89924 0.21506,-0.7545 0,1.56911 0,2.35367 0,3.0126 0.13302,2.31255 -0.41436,5.33036 -0.11389,0.62791 -0.29337,1.24251 -0.41435,1.86909 -0.0175,0.0906 -0.0253,0.36566 0,0.2769 0.58609,-2.05627 0.39338,-4.42172 0.69059,-6.5072 0.12005,-0.84236 0.36434,-1.6623 0.55248,-2.49211 0.0421,-0.18555 0.11753,-0.74295 0.13812,-0.55381 0.19729,1.81288 1.16091,11.47652 0.13812,13.01439 -0.2424,0.36447 -0.26745,-0.83373 -0.41436,-1.24606 -0.31354,-0.88002 -0.71968,-1.72965 -0.96683,-2.63056 -0.55977,-2.04042 -0.80133,-4.38685 -0.55248,-6.5072 0.10504,-0.89497 0.12014,1.79887 0.13812,2.69979 0.016,0.80193 0.38963,10.10693 0.27624,10.10693 -0.66071,0 -0.28508,-1.29039 -0.41436,-1.93832 -0.26566,-1.33147 -1.42433,-7.39469 -1.51931,-8.30706 -0.11229,-1.0787 0.0732,-2.17153 0,-3.25359 -0.0197,-0.29115 -0.15419,-1.09577 -0.27624,-0.83071 -0.24203,0.52567 -0.12386,1.1521 -0.13811,1.73064 -0.0318,1.29181 0.0203,2.58458 0,3.87663 -0.0671,4.26792 0.0234,5.14958 -0.82872,9.20698 -0.16351,0.77853 -0.20921,1.65111 -0.69059,2.28445 -0.18725,0.24635 -0.36682,-0.52495 -0.41436,-0.83071 -1.44861,-9.31761 -1.24307,-7.58771 -1.24307,-14.74503 0,-0.73841 0,-2.95362 0,-2.21521 0,5.00926 0.13812,10.01199 0.13812,15.02193 0,1.1999 0,2.39981 0,3.59972 0,0.3692 0,1.47681 0,1.10761 0,-3.54733 -1.22086,-7.2157 -1.93367,-10.66073 -0.28605,-1.38251 -0.54911,-2.76969 -0.82871,-4.15353 -0.0887,-0.43911 0.0818,-1.58449 -0.27624,-1.31528 -0.40577,0.30506 0,1.01531 0,1.52296 0,1.36144 0.12757,2.72886 0,4.0843 -0.33361,3.54473 -0.76934,7.08408 -1.38119,10.59151 -0.12808,0.73424 -0.24318,1.61559 -0.82871,2.07676 -0.34632,0.27276 -0.1172,-0.87494 -0.13812,-1.31529 -0.0712,-1.4989 -0.11855,-2.99919 -0.13812,-4.49965 -0.0111,-0.84893 -0.35705,-11.82751 0.13812,-12.73749 0.16056,-0.29507 0.23266,0.63607 0.27624,0.96916 0.14119,1.07923 0.22156,2.16653 0.27624,3.25359 0.0835,1.65995 0.1154,3.32234 0.13811,4.98424 0.0233,1.7074 0.0582,3.41611 0,5.12269 -0.034,0.99591 0.69037,3.21892 -0.27624,2.97669 -0.98485,-0.2468 0.0329,-2.03115 0,-3.04592 -0.14784,-4.55723 -0.27623,-9.07612 -0.27623,-13.63742 0,-0.73841 0,1.47681 0,2.21521 0,4.51846 0.11852,4.54505 -0.41436,9.27622 -0.13587,1.20633 -0.33582,2.40525 -0.55248,3.59972 -0.06,0.33053 -0.15173,1.28116 -0.27623,0.96916 -0.2486,-0.62299 -0.10808,-1.33745 -0.13812,-2.00754 -0.21381,-4.7687 -0.12619,-9.31163 0.41435,-14.05277 0.0973,-0.85321 0.19502,-1.70646 0.27624,-2.56135 0.0109,-0.11485 0.0197,-0.4598 0,-0.34612 -0.94673,5.45678 -1.04818,11.04848 -1.65742,16.54489 -0.028,0.25228 0,-0.50765 0,-0.76148 0,-1.10761 0.0186,-2.21537 0,-3.32282 -0.18415,-10.9827 -0.13812,1.15222 -0.13812,-9.83002 0,-0.89994 -0.0399,-1.80075 0,-2.6998 0.006,-0.14576 0.11598,-0.55957 0.13812,-0.41535 0.68662,4.47381 -0.6818,9.51883 -1.24308,13.91432 -0.20592,1.61263 -0.10684,3.28233 -0.55247,4.84579 -0.0759,0.26629 0,-0.55381 0,-0.83071 0,-0.96916 0,-1.93831 0,-2.90747 0,-0.26458 0,-8.04248 0,-8.30706 0,-0.5538 0,-2.21522 0,-1.66141 0,4.71525 0.58866,9.40432 0.41435,14.122 -0.0385,1.04175 -0.13168,2.08276 -0.27623,3.11515 -0.0405,0.28899 -0.0826,1.04903 -0.27624,0.8307 -0.51605,-0.58195 -0.3849,-10.55672 0,-11.00685 0.27649,-0.32334 0.22516,0.8237 0.27624,1.24606 0.13342,1.10339 0.21639,2.21301 0.27623,3.32282 0.21075,3.90814 0.19947,5.04014 -0.13811,8.99932 -0.0987,1.15779 -0.27275,2.30794 -0.41436,3.46127 -0.0426,0.34657 -0.0424,1.37418 -0.13812,1.03838 -0.47623,-1.6708 0.58739,-11.19248 1.24307,-12.94516 0.0457,-0.12212 0.25486,0.14829 0.27624,0.2769 0.16721,1.00567 0.20504,2.02893 0.27624,3.04592 0.42734,6.10422 0.3173,12.0387 -0.27624,18.13708 -0.0514,0.52823 -0.0345,-1.06258 0,-1.59219 0.10376,-1.59479 0.31962,-3.1812 0.41436,-4.77656 0.23227,-3.9116 -0.36734,-11.34119 1.38119,-15.02193 0.12044,-0.25355 0.12909,0.55015 0.13811,0.83071 0.0371,1.15316 -0.0183,2.30766 0,3.46127 0.0739,4.66969 -0.0642,9.38923 0.13812,14.05277 0.73701,16.99202 0.50874,-14.91522 0.55248,-16.61411 0.0345,-1.34108 0.11023,-2.68387 0.27624,-4.01508 0.0206,-0.165 0.25163,-0.5798 0.27623,-0.41535 0.67498,4.51067 0.25718,10.80318 0.13813,15.36805 -0.0374,1.43314 -0.16514,2.86268 -0.27624,4.29199 -0.0271,0.34812 -0.11239,1.38661 -0.13812,1.03838 -0.388,-5.25053 0.0729,-10.97927 0.41436,-16.19877 0.1166,-1.78249 0.30044,-3.56192 0.55247,-5.33036 0.0711,-0.49884 0.0433,-1.79466 0.41436,-1.45373 0.5731,0.52661 0.54822,6.71794 0.55247,7.061 0.0561,4.52323 -0.41435,8.92939 -0.41435,13.42974 0,0.59995 0,-1.19991 0,-1.79986 0,-5.36453 -0.0713,-6.29626 0.27623,-12.04524 0.0937,-1.54936 0.11426,-3.1152 0.41436,-4.63811 0.0767,-0.38919 0.46575,-1.29596 0.69059,-0.96915 0.68419,0.99445 1.21505,7.86313 1.24307,8.30706 0.19824,3.13967 0.71437,7.85371 0,11.07608 -0.0649,0.29286 0,-0.59996 0,-0.89994 0,-1.45373 -0.069,-2.9091 0,-4.3612 0.11531,-2.42715 0.31773,-4.85016 0.55248,-7.26868 0.17973,-1.85161 0.36805,-3.7059 0.6906,-5.53804 0.0936,-0.53184 0.0697,-1.76493 0.55247,-1.52296 0.6718,0.33671 0.54496,1.40878 0.6906,2.14599 1.21114,6.13098 0.70463,8.49324 0.55247,15.85264 -0.0162,0.78574 0.0234,1.58454 -0.13812,2.35367 -0.0718,0.34172 -0.12952,-0.68932 -0.13812,-1.03839 -0.0375,-1.5225 -0.0357,-3.04634 0,-4.56888 0.0564,-2.40092 0.11221,-4.80348 0.27624,-7.19945 0.1584,-2.31355 0.37233,-4.62552 0.6906,-6.92255 0.14288,-1.03122 0.18113,-2.13802 0.69059,-3.04592 0.16274,-0.29001 0.472,0.50804 0.55248,0.83071 0.33963,1.3618 0.57967,2.7544 0.69059,4.15353 0.14622,1.84424 0.1808,11.23392 0.13812,12.94516 -0.0369,1.47922 -0.19435,2.95302 -0.27624,4.43043 -0.0102,0.18432 0,0.73841 0,0.55381 0,-5.5332 0.0561,-2.01741 -0.27623,-9.13777 -0.11249,-2.4101 -0.63346,-7.81525 0.13812,-10.52227 0.26565,-0.93204 0.0531,1.93977 0,2.90747 -0.0851,1.54986 -0.27141,3.09251 -0.41436,4.63811 -0.4888,5.28474 -1.95019,11.15957 -1.24307,16.47566 0.11625,0.87398 0.22407,-1.75043 0.27623,-2.63057 0.0742,-1.25246 -0.0901,-9.8009 0.6906,-10.45304 0.30253,-0.25272 0.36841,0.7161 0.41436,1.1076 0.13997,1.19261 0.15808,2.3991 0.13812,3.59973 -0.0645,3.87818 -0.27378,5.3885 -1.10495,9.13776 -0.18177,0.81989 -0.48738,1.60806 -0.6906,2.4229 -0.0279,0.11194 0,0.4615 0,0.34612 0,-3.67491 -0.0151,-14.86581 2.07178,-17.30637 0.33531,-0.39213 0.25339,1.00753 0.27624,1.52296 0.0695,1.56757 0,3.13822 0,4.70733 0,12.52382 0.46252,7.19047 -0.55247,15.16039 -0.81286,6.3827 -0.27624,-3.77678 -0.27624,-4.08431 0,-0.69225 0,-1.38451 0,-2.07676 0,-0.23075 -0.18444,-0.83092 0,-0.69226 1.0894,0.81902 0.25872,15.3124 -0.27624,7.26868 -0.0919,-1.38222 -0.20491,-2.76987 -0.13812,-4.15353 0.10764,-2.22978 0.26648,-4.48524 0.82872,-6.64565 0.0536,-0.20586 0.11424,0.41166 0.13811,0.62303 0.11441,1.01304 0.21409,2.02835 0.27624,3.04592 0.0425,0.69511 0.25616,6.08072 0.13812,6.99178 -0.0937,0.72348 -0.40626,1.40493 -0.69059,2.07676 -0.0449,0.10609 -0.24466,0.31847 -0.27624,0.20768 -1.14269,-4.00902 -0.79889,-9.22291 -0.96684,-13.29129 -0.0524,-1.26889 -0.0997,-2.53802 -0.13811,-3.80741 -0.008,-0.25371 0,-1.0153 0,-0.76148 0,6.10374 0.92244,12.10004 -0.55248,18.13708 -0.142,0.58122 -0.37329,1.98023 -0.82871,1.59219 -0.71642,-0.61042 -0.39097,-1.84178 -0.55248,-2.76902 -0.78467,-4.50485 -1.44735,-8.70395 -1.79554,-13.2913 -0.13628,-1.79528 -0.10185,-3.5995 -0.13813,-5.39958 -0.01,-0.48449 -0.0735,-1.93271 0,-1.45374 1.08856,7.09262 -0.42412,16.16316 -1.10495,23.32899 -0.0371,0.39052 0.0266,-0.78546 0,-1.17683 -0.24968,-3.67086 -0.60276,-7.33446 -0.82871,-11.00686 -0.0964,-1.56682 -0.0985,-3.13804 -0.13812,-4.70733 -0.006,-0.25374 0,-1.01531 0,-0.76148 0,4.83958 0.38179,9.64098 -0.27624,14.46813 -0.22681,1.66384 -0.72696,3.27887 -1.10495,4.91501 -0.12848,0.55612 0.0147,2.03777 -0.41436,1.66141 -0.53889,-0.47266 -0.12475,-1.4293 -0.13811,-2.14599 -0.0327,-1.75341 -0.0374,-3.50782 0,-5.26114 0.0547,-2.56241 0.12155,-5.1257 0.27624,-7.68403 0.12166,-2.01229 0.37672,-4.01432 0.55247,-6.02261 0.0545,-0.62235 -0.47807,-1.76615 0.13812,-1.86909 0.59868,-0.10002 0.21414,1.19606 0.27624,1.79986 0.60493,5.88196 0.615,11.58822 -0.27624,17.44482 -0.12462,0.81894 0.0539,1.85851 -0.55248,2.4229 -0.3851,0.35845 -0.34858,-1.00099 -0.41435,-1.52296 -0.21131,-1.67688 -0.32186,-3.36586 -0.41436,-5.05347 -0.31943,-5.82759 -0.41436,-11.6784 -0.41436,-17.51405 0,-0.0692 0,0.13846 0,0.20768 0,1.15376 0.0173,2.30765 0,3.46128 -0.13088,8.7247 0.0139,2.85696 -0.82871,11.90678 -0.13078,1.40452 -0.16831,2.8163 -0.27624,4.22275 -0.0302,0.39382 -0.0608,1.56417 -0.13812,1.17684 -0.1219,-0.61099 0.0279,-1.24669 0,-1.86909 -0.0642,-1.43218 -0.21751,-2.85956 -0.27624,-4.29198 -0.0794,-1.93723 -0.11267,-3.87625 -0.13811,-5.81494 -0.0206,-1.56898 0,-3.13822 0,-4.70733 0,-0.59996 0,-1.19991 0,-1.79987 0,-0.43842 0,0.87686 0,1.31529 0,1.17683 0,2.35366 0,3.5305 0,0.33068 -0.13097,8.8901 -0.27624,8.99931 -0.31571,0.23735 -0.0644,-0.78881 -0.13812,-1.17683 -0.20276,-1.06704 -0.50335,-2.11451 -0.6906,-3.18438 -0.75552,-4.31681 -0.8254,-5.5365 -0.96683,-10.03769 -0.0362,-1.15319 0,-2.30752 0,-3.46128 0,-0.2769 0,-1.1076 0,-0.8307 0,5.38951 0.10967,10.74475 0.27624,16.12954 0.0364,1.17627 0,2.35366 0,3.5305 0,0.32305 0,1.29221 0,0.96915 0,-2.73355 -0.64705,-5.43701 -0.82872,-8.1686 -0.16112,-2.42272 -0.13811,-4.15203 -0.13811,-6.43797 0,-0.16153 0,0.32305 0,0.48457 0,0.92301 0,1.84602 0,2.76902 0,1.31529 -0.0448,2.63134 0,3.94586 0.12629,3.70311 0.38485,7.29691 0.13811,11.00685 -0.0277,0.41698 0.23548,1.05881 -0.13811,1.24606 -0.33263,0.16671 -0.11567,-0.73622 -0.13812,-1.10761 -0.0697,-1.15257 -0.0781,-2.30816 -0.13812,-3.46127 -0.0781,-1.50068 -0.22024,-2.99799 -0.27624,-4.49966 -0.0361,-0.96848 -0.0803,-1.94165 0,-2.90747 0.0138,-0.1657 0.20884,-0.56736 0.27624,-0.41535 2.09105,4.71617 1.06503,12.19328 0.82871,17.16792 -0.0537,1.13034 -0.1023,2.26099 -0.13812,3.39205 -0.0102,0.32289 0,1.2922 0,0.96915 0,-4.62613 -0.0571,-9.37616 0.41436,-13.98355 0.0379,-0.37013 0.12809,0.73569 0.13812,1.10761 0.0361,1.33787 -0.0184,2.67685 0,4.01508 0.0932,6.77386 0.2322,5.34604 0.13812,12.18369 -0.0178,1.2929 -0.10075,2.58414 -0.13812,3.87662 -0.009,0.29986 0,1.19991 0,0.89994 0,-7.085 0.0822,6.03985 -0.55248,-6.92255 -0.11625,-2.37439 0.0391,-9.18181 0.13812,-11.83756 0.0258,-0.6933 -0.0923,-1.42236 0.13812,-2.07677 0.10421,-0.29598 0.2368,0.58863 0.27624,0.89994 0.14546,1.14824 0.223,2.30507 0.27624,3.46127 0.14769,3.20773 0.18212,8.40671 0.13811,11.56066 -0.0187,1.33902 -0.13811,5.35423 -0.13811,4.01507 0,-5.23609 -0.10282,-10.48146 0.13811,-15.71418 0.049,-1.06432 0.0496,-2.1433 0.27624,-3.18437 0.059,-0.27122 0.38808,-0.84668 0.55248,-0.62303 1.14348,1.5556 0.56709,13.21841 0.55248,14.53735 -0.0192,1.73114 -0.0989,3.46111 -0.13812,5.19191 -0.007,0.2999 0,1.19991 0,0.89993 0,-5.20963 -0.19994,-10.43996 -0.13812,-15.64496 0.009,-0.77177 -0.0336,-6.39243 0.96683,-7.061 0.34303,-0.22924 0.48481,0.70061 0.55248,1.10761 0.21248,1.27794 0.23852,2.58169 0.27623,3.87663 0.13021,4.47047 0.13198,9.03163 -0.13812,13.49897 -0.01,0.16123 -0.005,-0.32313 0,-0.48458 0.041,-1.31545 0.12062,-2.62988 0.13812,-3.94585 0.0722,-5.42673 -0.16802,-6.85952 0.27624,-12.11447 0.0709,-0.83911 -0.21873,-3.0474 0.41436,-2.49211 1.98759,1.74332 1.83673,11.22224 1.79554,13.63742 -0.0181,1.0623 -0.0974,2.1227 -0.13811,3.18437 -0.005,0.13835 0.007,0.55365 0,0.41536 -0.0526,-1.10732 -0.10537,-2.21475 -0.13812,-3.32283 -0.0593,-2.00719 -0.11384,-4.0147 -0.13812,-6.02262 -0.0217,-1.79973 -0.0323,-3.60001 0,-5.39959 0.0137,-0.76274 -0.1547,-1.58 0.13812,-2.28444 0.10653,-0.2563 0.47639,0.3561 0.55247,0.62303 0.34734,1.21861 0.53961,2.48006 0.6906,3.73818 0.59916,4.99249 0.41306,9.9468 0.27623,14.95271 -0.0107,0.39213 0,1.56911 0,1.17683 0,-5.26114 0,-10.52228 0,-15.78341 0,-1.17683 -0.18918,-2.36898 0,-3.5305 0.0305,-0.18739 0.49677,-0.0431 0.55248,0.13845 0.34285,1.11693 0.41428,2.30111 0.55248,3.46127 0.69825,5.86196 0.69059,11.69137 0.69059,17.58328 0,0.6461 -0.23946,2.5384 0,1.93831 0.28274,-0.70854 0.12453,-1.52169 0.13812,-2.28444 0.0752,-4.22208 0,-8.44551 0,-12.66826 0,-1.93832 -0.0684,-3.87784 0,-5.81494 0.0238,-0.67507 -0.0136,-1.39741 0.27624,-2.00754 0.0989,-0.20825 0.35857,0.3301 0.41436,0.5538 0.22584,0.90555 0.35084,1.8379 0.41435,2.76902 0.19132,2.80472 0.13812,8.8434 0.13812,11.49143 0,1.40759 0,2.81517 0,4.22275 0,0.25383 0,1.01531 0,0.76149 0,-5.04093 -0.26658,-10.0547 -0.41436,-15.09116 -0.0318,-1.08407 -0.0814,-2.17213 0,-3.2536 0.0125,-0.16581 0.2067,-0.56639 0.27624,-0.41535 0.61585,1.33755 1.22696,7.10719 1.24307,7.26867 0.47785,4.78997 0.73664,9.59927 1.10496,14.39891 0.0994,1.29576 0.36546,5.17527 0.41435,3.87662 0.2169,-5.76166 -0.28605,-11.55099 -0.41435,-17.30637 -0.0381,-1.70714 -0.0359,-3.4155 0,-5.12269 0.0102,-0.48665 -0.34865,-1.45373 0.13811,-1.45373 0.48458,0 0,0.96916 0,1.45373 0,5.09231 -0.0438,10.14167 -0.27624,15.22961 -0.0538,1.17651 -0.0969,2.35349 -0.13811,3.5305 -0.005,0.13837 -0.008,0.55358 0,0.41536 0.33888,-5.94475 -0.79752,-12.05796 0.41435,-17.92941 0.11683,-0.56601 0.25167,-1.55509 0.82872,-1.52296 0.54756,0.0305 0.37756,1.04502 0.41435,1.59219 0.1022,1.51953 0.0603,3.04712 0,4.56888 -0.23764,5.99516 -1.24307,11.85138 -1.24307,17.86018 0,1.0394 -0.0822,-2.07726 -0.13811,-3.11515 -0.0846,-1.56953 -0.19161,-3.1378 -0.27624,-4.70733 -0.0535,-0.99186 -0.36511,-2.00968 -0.13812,-2.9767 0.14069,-0.59936 0.28872,1.19717 0.41436,1.79986 1.14524,5.49402 0.667,10.90759 0.55247,16.47567 -0.0157,0.76132 0,1.52296 0,2.28444 0,0.1846 0,0.73841 0,0.5538 0,-3.19927 0.0177,2.58703 -0.13812,-3.73817 -0.0358,-1.45329 0,-2.90747 0,-4.36121 0,-0.3692 0.0333,0.73992 0,1.10761 -0.0631,0.6955 -0.19388,1.38329 -0.27624,2.07677 -0.68012,5.72674 -0.24363,2.6285 -0.96683,9.96847 -0.0204,0.20667 0,-0.41536 0,-0.62303 0,-1.15376 0,-2.30752 0,-3.46128 0,-2.96863 -0.37035,-6.37554 0,-9.34544 0.0154,-0.12327 0.13124,0.2221 0.13812,0.34613 0.0396,0.71423 0,1.43066 0,2.14599 0,1.03838 0,2.07676 0,3.11515 0,0.7384 0,1.47681 0,2.21521 0,0.1846 0.16503,0.63652 0,0.5538 -1.67422,-0.83912 -1.24307,-16.95634 -1.24307,-20.07539 0,-0.20767 -0.01,0.41559 0,0.62303 0.0362,0.76202 0.10859,1.52215 0.13812,2.28444 0.0969,2.50239 0.25812,8.54382 0.13812,10.79918 -0.0791,1.48615 -0.33489,2.95818 -0.55248,4.43043 -0.0589,0.39861 -0.0204,1.48818 -0.27624,1.17684 -0.51903,-0.63177 -0.49625,-1.55947 -0.69059,-2.35367 -1.39085,-5.68403 -2.3103,-11.4719 -2.76238,-17.30637 -0.0446,-0.57516 -0.48886,-1.42437 0,-1.73064 0.42108,-0.26381 0.441,0.90028 0.55247,1.38451 0.7667,3.33033 0.92625,6.39607 1.24307,9.83002 0.68438,7.41759 0.55248,4.25268 0.55248,10.5915 0,0.5538 0.4951,1.41327 0,1.66141 -0.46124,0.23118 -0.18516,-1.01513 -0.27624,-1.52296 -0.30801,-1.71746 -2.6714,-17.9463 -1.79554,-18.27553 0.50549,-0.19002 0.43176,0.9966 0.55247,1.52296 0.34091,1.48652 0.6315,2.98735 0.82872,4.49966 0.26365,2.02183 0.50434,4.05346 0.55247,6.09184 0.0442,1.87083 -0.12617,3.74194 -0.27623,5.60727 -0.0803,0.99857 0.005,2.06671 -0.41436,2.97669 -0.17394,0.37776 -0.34769,-0.76633 -0.41436,-1.17683 -0.25693,-1.58208 -0.43787,-3.17786 -0.55248,-4.77656 -0.27896,-3.89154 -1.10459,-12.51389 -0.13811,-16.26799 0.0727,-0.2826 0.25065,0.54002 0.27623,0.8307 0.11338,1.28805 0.1591,2.58377 0.13812,3.87663 -0.0546,3.36818 -0.24824,5.24411 -0.96683,8.44551 -0.13263,0.59086 0.0531,1.73064 -0.55248,1.73064 -0.60556,0 -0.46146,-1.13195 -0.55247,-1.73064 -0.27881,-1.8341 -0.40896,-3.68842 -0.55248,-5.53804 -0.17882,-2.30472 -0.27733,-4.61496 -0.41435,-6.92255 -0.0932,-1.56904 -0.19984,-3.13738 -0.27624,-4.70733 -0.0157,-0.32267 -0.0279,-1.291 0,-0.96916 0.14579,1.68063 0.2637,6.42066 0.27624,7.40713 0.0255,2.00738 0.0711,4.01634 0,6.02262 -0.0672,1.89601 -0.21474,3.78982 -0.41436,5.67649 -0.47873,4.52455 -0.68264,4.89216 -0.96683,0.76148 -0.31152,-4.52788 -0.41436,-8.96135 -0.41436,-13.49897 0,-0.34613 -0.33575,-0.95425 0,-1.03838 0.32584,-0.0817 0.24343,0.63484 0.27624,0.96915 0.39569,4.03258 0.37897,8.4338 0,12.46059 -0.0903,0.9596 -0.32373,1.90195 -0.55248,2.83825 -0.049,0.20039 -0.2157,0.75101 -0.27624,0.5538 -0.72766,-2.37058 -0.57151,-4.93024 -0.69059,-7.40713 -0.21936,-4.56274 -0.13812,-9.14046 -0.13812,-13.70665 0,-0.32305 -0.0102,0.64627 0,0.96916 0.0358,1.13105 0.10143,2.26103 0.13812,3.39205 0.12884,3.9714 0.19758,6.45951 0.13812,10.45305 -0.0196,1.31595 0.0529,2.6437 -0.13812,3.94585 -0.0455,0.31028 -0.45825,1.06059 -0.55248,0.76149 -0.34086,-1.08201 -0.17221,-2.26241 -0.27624,-3.39206 -0.45091,-4.89668 -0.69059,-9.68867 -0.69059,-14.60657 0,-0.87686 0,1.75371 0,2.63056 0,12.02651 -0.0713,-3.52051 0.27624,10.93763 0.0427,1.77628 0.0303,3.55384 0,5.33037 -0.0176,1.03172 -0.10474,3.97559 -0.55248,3.04592 -1.50451,-3.12399 -1.04259,-7.97093 -1.10495,-11.28376 -0.0165,-0.8767 0,-1.75371 0,-2.63057 0,-0.11537 -0.0215,-0.45947 0,-0.34612 0.55237,2.90691 0.98562,13.37326 0.13812,15.92186 -0.19803,0.59552 -0.50787,-1.17387 -0.55248,-1.79986 -0.15511,-2.17684 -0.17986,-6.58199 -0.13811,-8.65319 0.0158,-0.78327 0.20278,-2.9855 0.55247,-2.28444 1.60119,3.21007 0.16352,13.92628 0,17.86017 -0.005,0.11528 0,-0.23075 0,-0.34612 0,-0.64611 0,-1.29221 0,-1.93832 0,-2.33059 0,-4.66118 0,-6.99177 0,-0.23075 -0.0632,-0.91417 0,-0.69226 1.08429,3.80412 0.13812,7.97804 0.13812,11.83756 0,0.0923 0,-0.1846 0,-0.2769 0,-0.71533 -0.0332,-1.43143 0,-2.14599 1.4e-4,-0.003 0.4106,-6.09102 0.55248,-6.64565 0.22466,-0.87829 0.64653,1.72507 0.69059,2.63057 0.0965,1.98212 0,3.96893 0,5.95339 0,0.46151 -0.0417,0.9249 0,1.38452 0.006,0.0649 0.12472,0.20224 0.13812,0.13845 0.6839,-3.25635 -0.177,-6.67797 0.55247,-9.96847 0.025,-0.11265 -0.0143,0.23163 0,0.34612 0.0779,0.62496 0.21572,1.24221 0.27624,1.86909 0.18277,1.89317 0.13812,2.88738 0.13812,4.77656 0,1.07612 0,3.01443 0,1.93831 0,-2.68684 0.10531,-5.50442 0.41436,-8.16861 0.0761,-0.6563 -0.22653,-1.7777 0.41436,-1.93831 0.6194,-0.15522 0.80282,8.51484 0.82871,9.13777 0.0374,0.90033 -0.76299,2.69979 0.13812,2.69979 0.90111,0 0.11939,-1.79888 0.13812,-2.69979 0.0555,-2.66985 -0.52794,-6.07637 0,-8.72242 0.11606,-0.58171 0.35996,1.13996 0.41435,1.73064 0.37236,4.04354 0.27624,1.66042 0.27624,5.81494 0,0.62303 0,2.49212 0,1.86909 0,-0.4923 -0.14085,-14.61235 0.27624,-8.44551 0.12868,1.90252 0.19648,4.07451 0.27624,5.95339 0.0441,1.03847 0.10414,2.0763 0.13812,3.11515 0.0121,0.36901 -0.0606,1.47181 0,1.10761 0.59282,-3.56551 -0.59724,-7.43531 0.27623,-10.93763 0.11658,-0.46741 0.3795,0.90405 0.41436,1.38451 0.1892,2.6077 0.13812,2.55434 0.13812,5.26114 0,0.69225 -0.0857,1.38983 0,2.07676 0.0128,0.10221 0.26309,0.24061 0.27624,0.13846 0.13863,-1.07699 0.0815,-9.66956 0.55247,-9.62235 0.3079,0.0309 0.34285,0.52965 0.41436,0.83071 0.58552,2.46507 0.61209,5.23503 0.6906,7.75325 0.0172,0.55354 0,1.10761 0,1.66141 0,0.0923 0,0.36921 0,0.27691 0,-2.59155 0.0548,-5.16381 0.13811,-7.75326 0.0134,-0.41514 -0.35198,-1.46657 0,-1.24606 1.14377,0.71657 0.54161,7.15122 1.24307,8.03016 0.18932,0.23721 0.12468,-0.59674 0.13813,-0.89993 0.0327,-0.73768 0,-1.47681 0,-2.21522 0,-1.31517 -0.50008,-4.46982 0.82871,-5.46881 0.60335,-0.45361 0.68593,4.93661 0.69059,5.05346 0.0194,0.48637 0.0978,0.96865 0.13812,1.45373 0.006,0.069 -0.0105,0.27611 0,0.20768 0.36223,-2.36012 -0.002,-4.75674 0.27624,-7.13023 0.008,-0.0688 -0.008,0.13893 0,0.20768 0.0841,0.71632 0.1989,1.42892 0.27624,2.14599 0.46835,4.34266 0.0162,1.54796 0.69059,5.46881 1.16863,6.79436 0.1729,-8.183 0.6906,-2.21521"
       style="fill:none;stroke:#000000;stroke-width:3;stroke-linecap:round;stroke-linejoin:round;stroke-miterlimit:4;stroke-dasharray:none" />
    <path
       id="path1467"
       d="m 200.41062,259.78019 c 1.65045,-2.6278 0.20652,4.25103 0.69059,3.2536 0.58291,-1.20109 0.85675,-2.52946 1.24307,-3.8074 0.0746,-0.24693 0.0536,-1.0052 0.13812,-0.76148 0.26115,0.7526 0.31578,1.56317 0.41436,2.35366 0.0457,0.36637 0,1.47681 0,1.10761 0,-1.06146 0,-2.12292 0,-3.18437 0,-0.2769 0,-1.10761 0,-0.83071 0,0.87686 0,1.75371 0,2.63057 0,0.6298 -0.13993,2.48396 -0.27624,1.86909 -0.27121,-1.22339 0.19467,-2.97567 0.13812,-4.22276 -0.0179,-0.39456 -0.13812,-1.5718 -0.13812,-1.17683 0,2.09984 0,4.19968 0,6.29952 0,0.11538 0.0306,-0.23489 0,-0.34613 -0.15486,-0.5627 -0.40006,-1.09804 -0.55248,-1.66141 -0.3771,-1.3939 -0.67003,-2.80958 -0.96683,-4.22276 -0.0577,-0.2747 -0.0341,-1.09141 -0.13812,-0.8307 -0.14538,0.36434 0.0607,0.78927 0,1.17683 -0.84637,5.40859 -0.65517,-1.28374 0,6.02262 0.0742,0.82739 0,1.66143 0,2.49211 0,0.25384 0.14057,0.97285 0,0.7615 -0.5627,-0.84609 -0.51485,-6.18715 -0.55247,-6.92256 -0.0331,-0.6469 -0.0274,-2.57652 -0.13812,-1.93831 -0.29285,1.68792 -0.31778,3.41227 -0.41436,5.12268 -0.14611,2.58749 0.17,5.50079 -0.27624,0.69226 -0.23222,-2.50244 -0.52964,-4.44932 -0.82871,-6.92255 -0.0529,-0.43765 0.25599,-1.51281 -0.13812,-1.31529 -0.41258,0.20679 0,0.92301 0,1.38452 0,0.13349 -0.19726,12.07558 -0.55248,7.26867 -0.0633,-0.8564 -0.21925,-1.7045 -0.27623,-2.56134 -0.0812,-1.22116 -0.11395,-2.44534 -0.13812,-3.66895 -0.0292,-1.47653 0,-2.95362 0,-4.43044 0,-0.25382 -0.0108,0.50789 0,0.76149 0.0353,0.83123 0.0612,1.66369 0.13812,2.49211 0.46693,3.90047 0.36959,2.8068 0.69059,6.5072 0.05,0.57655 0.097,1.15339 0.13812,1.73063 0.005,0.0691 0,0.27691 0,0.2077 0,-2.0074 0.0337,-0.22064 -0.27624,-3.59974 -0.10363,-1.12969 -0.15776,-2.26383 -0.27624,-3.39205 -0.72492,-6.90331 -0.41435,4.60875 -0.41435,5.88417 0,4.46195 -0.16248,2.9338 -0.82872,-0.55381 -0.25481,-1.33389 -0.53229,-2.66632 -0.69059,-4.01508 -0.15275,-1.30152 -0.13812,-2.68661 -0.13812,-4.01508 0,-0.25382 -0.012,0.50794 0,0.76149 0.034,0.716 0.0483,1.43482 0.13812,2.14599 0.47952,3.79735 0.70367,2.9404 0.96683,6.85332 0.0588,0.87487 -0.0357,1.75443 0,2.63057 0.0105,0.25775 0.13812,1.01944 0.13812,0.76147 0,-1.33527 -0.56187,-2.61678 -0.6906,-3.94584 -0.23933,-2.47108 -0.69634,-7.59462 0,-10.0377 0.12651,-0.44383 0,0.92301 0,1.38451 0,3.41512 0,6.83025 0,10.24537 0,0.29999 0.16613,1.14972 0,0.89993 -0.59391,-0.89302 -1.30138,-6.04333 -1.38118,-6.85332 -0.0769,-0.78078 0,-1.56911 0,-2.35367 0,-0.1846 0,-0.7384 0,-0.5538 0,2.68067 0.13811,5.35177 0.13811,8.03015 0,0.11539 0,-0.23074 0,-0.34613 0,-0.7384 0.035,-1.47764 0,-2.21521 -0.34332,-7.22725 -0.27623,-0.3902 -0.27623,-6.23029 0,-0.50765 0,1.01531 0,1.52296 0,6.1209 -0.0392,-0.81855 0.13812,6.02262 0.0179,0.69201 0,1.38451 0,2.07676 0,0.11539 0.0279,0.45808 0,0.34613 -0.54489,-2.18477 -0.64298,-4.40225 -0.6906,-6.64565 -0.0123,-0.57994 0.11138,-3.29829 -0.13812,-4.36121 -0.10598,-0.45152 -0.13812,0.92072 -0.13812,1.38452 0,6.90345 -0.0337,-1.89604 0.13812,6.71487 0.0202,1.01509 0.0397,2.03138 0,3.04593 -0.007,0.16782 -0.10941,0.65005 -0.13812,0.48456 -0.4694,-2.70555 -0.75353,-5.5631 -0.96683,-8.30705 -0.0556,-0.71466 -0.10241,-1.43007 -0.13812,-2.14599 -0.0103,-0.20742 0,-0.83071 0,-0.62303 0,2.26136 0,4.52273 0,6.7841 0,0.0591 0,1.99742 0,1.93831 0,-2.6769 -0.27623,-5.34721 -0.27623,-8.03015 0,-0.13846 0,0.27689 0,0.41535 0,0.50765 -0.0175,1.0156 0,1.52296 0.0831,2.41556 0.18779,2.52125 0.27623,4.91501 0.0162,0.43813 0,0.87685 0,1.31529 0,0.0692 0,0.27689 0,0.20767 0,-3.02264 -0.96683,-6.06238 -0.96683,-9.20699 0,-0.55381 -0.0394,1.10901 0,1.66141 0.18829,2.64243 0.6906,5.2314 0.6906,7.89171 0,0.0692 0.009,-0.13909 0,-0.20767 -0.0827,-0.60132 -0.17802,-1.20089 -0.27624,-1.79987 -0.37617,-2.29385 -0.96684,-4.65612 -0.96684,-6.99178 0,-0.1846 -0.0111,0.36954 0,0.5538 0.0349,0.57766 0.0816,1.1547 0.13812,1.73064 0.23573,2.40236 0.31069,2.26537 0.41436,4.49966 0.0171,0.36881 0.14514,1.44708 0,1.10761 -1.06451,-2.48983 -0.45282,-5.31721 -1.24307,-7.89171 -0.0271,-0.0882 -0.006,0.18479 0,0.27691 0.0401,0.62343 0.0693,1.24816 0.13812,1.86908 0.26766,2.4148 0.52626,3.39843 0.69059,5.74572 0.0338,0.4834 0.2163,1.88736 0,1.45374 -1.09234,-2.18995 -1.04305,-5.20886 -1.24307,-7.61481 -0.0421,-0.50591 0,1.01531 0,1.52296 0,4.79088 -0.0915,-0.0841 0.27624,4.70733 0.0318,0.41413 0,0.83072 0,1.24606 0,0.0692 0.015,0.27527 0,0.20767 -0.39007,-1.75951 -0.51943,-3.90351 -0.69059,-5.67648 -0.0488,-0.5053 0.0404,-1.01692 0,-1.52296 -0.007,-0.0829 -0.12013,-0.28884 -0.13812,-0.20768 -0.34266,1.54565 0.26643,3.82281 0.41435,5.33036 0.0565,0.57595 0.1032,1.15299 0.13812,1.73063 0.0111,0.18429 -0.1846,0.5538 0,0.5538 0.23788,0 -0.25636,-1.34591 -0.41435,-2.42288 -0.2205,-1.50295 0.11082,-4.27063 -0.6906,-5.67649 -0.0343,-0.0601 0,0.13845 0,0.20768 0,0.48458 0,0.96916 0,1.45373 0,6.25937 -0.0419,-0.72354 0.13812,5.9534 0.0186,0.692 0.0807,2.76429 0,2.07677 -0.0487,-0.41505 -0.0921,-0.83071 -0.13812,-1.24608 -0.18416,-0.78454 -0.44262,-1.5553 -0.55248,-2.35365 -0.37064,-2.69361 -0.27623,-5.39308 -0.27623,-8.09939 0,-0.41535 -0.0172,0.83107 0,1.24606 0.15123,3.6384 0.15671,0.85071 0.27623,4.98424 0.0194,0.6689 -0.0392,1.33951 0,2.00754 0.007,0.12401 0.10806,0.46665 0.13812,0.34613 0.31747,-1.27294 -0.81732,-2.77296 -0.96683,-4.08431 -0.35604,-3.12286 0.13812,4.85274 0.13812,5.74571 0,0.11538 0,-0.23074 0,-0.34613 0,-0.50766 0,-1.01531 0,-1.52295 0,-1.23133 -0.13812,-2.44005 -0.13812,-3.66895 0,-0.7059 -0.24354,1.39184 -0.41436,2.07676"
       style="fill:none;stroke:#000000;stroke-width:3;stroke-linecap:round;stroke-linejoin:round;stroke-miterlimit:4;stroke-dasharray:none" />
  </g>
</svg>
