<?xml version="1.0" encoding="UTF-8" standalone="no"?>
<svg
   xmlns:dc="http://purl.org/dc/elements/1.1/"
   xmlns:cc="http://creativecommons.org/ns#"
   xmlns:rdf="http://www.w3.org/1999/02/22-rdf-syntax-ns#"
   xmlns:svg="http://www.w3.org/2000/svg"
   xmlns="http://www.w3.org/2000/svg"
   xmlns:sodipodi="http://sodipodi.sourceforge.net/DTD/sodipodi-0.dtd"
   xmlns:inkscape="http://www.inkscape.org/namespaces/inkscape"
   inkscape:version="1.0 (4035a4fb49, 2020-05-01)"
   sodipodi:docname="temp_background.svg"
   id="svg8"
   version="1.1"
   viewBox="0 0 200 800"
   height="800mm"
   width="200mm">
  <defs
     id="defs2">
    <inkscape:path-effect
       hide_knots="false"
       only_selected="false"
       apply_with_radius="true"
       apply_no_radius="true"
       use_knot_distance="true"
       flexible="false"
       chamfer_steps="1"
       radius="50"
       mode="F"
       method="auto"
       unit="px"
       satellites_param="F,0,0,1,0,0,0,1 @ F,0,0,1,0,13.229167,0,1 @ F,0,0,1,0,13.229167,0,1 @ F,0,0,1,0,13.229167,0,1 @ F,0,0,1,0,13.229167,0,1 @ F,0,0,1,0,13.229167,0,1 @ F,0,0,1,0,13.229167,0,1 @ F,0,0,1,0,13.229167,0,1 @ F,0,0,1,0,13.229167,0,1 @ F,0,0,1,0,13.229167,0,1 @ F,0,1,1,0,19.421429,0,1 @ F,0,0,1,0,13.229167,0,1 @ F,0,0,1,0,19.421429,0,1 @ F,0,0,1,0,13.229167,0,1 @ F,0,0,1,0,13.229167,0,1 @ F,0,0,1,0,13.229167,0,1 @ F,0,0,1,0,13.229167,0,1 @ F,0,0,1,0,0,0,1"
       lpeversion="1"
       is_visible="true"
       id="path-effect869"
       effect="fillet_chamfer" />
    <inkscape:path-effect
       hide_knots="false"
       only_selected="false"
       apply_with_radius="true"
       apply_no_radius="true"
       use_knot_distance="true"
       flexible="false"
       chamfer_steps="1"
       radius="50"
       mode="F"
       method="auto"
       unit="px"
       satellites_param="F,0,0,1,0,0,0,1 @ F,0,0,1,0,13.229167,0,1 @ F,0,0,1,0,13.229167,0,1 @ F,0,0,1,0,13.229167,0,1 @ F,0,0,1,0,13.229167,0,1 @ F,0,0,1,0,13.229167,0,1 @ F,0,0,1,0,13.229167,0,1 @ F,0,0,1,0,13.229167,0,1 @ F,0,0,1,0,13.229167,0,1 @ F,0,0,1,0,13.229167,0,1 @ F,0,0,1,0,13.229167,0,1 @ F,0,0,1,0,13.229167,0,1 @ F,0,0,1,0,13.229167,0,1 @ F,0,0,1,0,13.229167,0,1 @ F,0,0,1,0,13.229167,0,1 @ F,0,0,1,0,13.229167,0,1 @ F,0,0,1,0,13.229167,0,1 @ F,0,0,1,0,13.229167,0,1 @ F,0,0,1,0,13.229167,0,1"
       lpeversion="1"
       is_visible="true"
       id="path-effect865"
       effect="fillet_chamfer" />
    <inkscape:path-effect
       hide_knots="false"
       only_selected="false"
       apply_with_radius="true"
       apply_no_radius="true"
       use_knot_distance="true"
       flexible="false"
       chamfer_steps="1"
       radius="50"
       mode="F"
       method="auto"
       unit="px"
       satellites_param="F,0,0,1,0,0,0,1 @ F,0,0,1,0,13.229167,0,1 @ F,0,0,1,0,13.229167,0,1 @ F,0,0,1,0,13.229167,0,1 @ F,0,0,1,0,13.229167,0,1 @ F,0,0,1,0,13.229167,0,1 @ F,0,0,1,0,13.229167,0,1 @ F,0,0,1,0,13.229167,0,1 @ F,0,0,1,0,13.229167,0,1 @ F,0,0,1,0,13.229167,0,1 @ F,0,0,1,0,13.229167,0,1 @ F,0,0,1,0,13.229167,0,1 @ F,0,0,1,0,13.229167,0,1 @ F,0,0,1,0,13.229167,0,1 @ F,0,0,1,0,13.229167,0,1 @ F,0,0,1,0,13.229167,0,1 @ F,0,0,1,0,13.229167,0,1 @ F,0,0,1,0,13.229167,0,1 @ F,0,0,1,0,13.229167,0,1"
       lpeversion="1"
       is_visible="true"
       id="path-effect863"
       effect="fillet_chamfer" />
    <inkscape:path-effect
       hide_knots="false"
       only_selected="false"
       apply_with_radius="true"
       apply_no_radius="true"
       use_knot_distance="true"
       flexible="false"
       chamfer_steps="1"
       radius="23"
       mode="F"
       method="auto"
       unit="px"
       satellites_param="F,0,0,1,0,0,0,1 @ F,0,0,1,0,6.0854167,0,1 @ F,0,0,1,0,6.0854167,0,1 @ F,0,0,1,0,6.0854167,0,1 @ F,0,0,1,0,6.0854167,0,1 @ F,0,0,1,0,6.0854167,0,1 @ F,0,0,1,0,6.0854167,0,1 @ F,0,0,1,0,6.0854167,0,1 @ F,0,0,1,0,6.0854167,0,1 @ F,0,0,1,0,6.0854167,0,1 @ F,0,0,1,0,6.0854167,0,1 @ F,0,0,1,0,6.0854167,0,1 @ F,0,0,1,0,6.0854167,0,1 @ F,0,0,1,0,6.0854167,0,1 @ F,0,0,1,0,6.0854167,0,1 @ F,0,0,1,0,6.0854167,0,1 @ F,0,0,1,0,6.0854167,0,1 @ F,0,0,1,0,6.0854167,0,1 @ F,0,0,1,0,6.0854167,0,1"
       lpeversion="1"
       is_visible="true"
       id="path-effect861"
       effect="fillet_chamfer" />
    <inkscape:path-effect
       hide_knots="false"
       only_selected="false"
       apply_with_radius="true"
       apply_no_radius="true"
       use_knot_distance="true"
       flexible="false"
       chamfer_steps="1"
       radius="50"
       mode="F"
       method="auto"
       unit="px"
       satellites_param="F,0,0,1,0,0,0,1 @ F,0,0,1,0,13.229167,0,1 @ F,0,0,1,0,13.229167,0,1 @ F,0,0,1,0,13.229167,0,1 @ F,0,0,1,0,13.229167,0,1 @ F,0,0,1,0,13.229167,0,1 @ F,0,0,1,0,13.229167,0,1 @ F,0,0,1,0,13.229167,0,1 @ F,0,0,1,0,13.229167,0,1 @ F,0,0,1,0,13.229167,0,1 @ F,0,0,1,0,13.229167,0,1 @ F,0,0,1,0,13.229167,0,1 @ F,0,0,1,0,13.229167,0,1 @ F,0,0,1,0,13.229167,0,1 @ F,0,0,1,0,9.5304176,0,1 @ F,0,0,1,0,9.8710102,0,1 @ F,0,0,1,0,5.791939,0,1 @ F,0,1,1,0,0,0,1"
       lpeversion="1"
       is_visible="true"
       id="path-effect859"
       effect="fillet_chamfer" />
    <inkscape:path-effect
       hide_knots="false"
       only_selected="false"
       apply_with_radius="true"
       apply_no_radius="true"
       use_knot_distance="true"
       flexible="false"
       chamfer_steps="1"
       radius="50"
       mode="F"
       method="auto"
       unit="px"
       satellites_param="F,0,0,1,0,0,0,1 @ F,0,0,1,0,13.229167,0,1 @ F,0,0,1,0,13.229167,0,1 @ F,0,0,1,0,13.229167,0,1 @ F,0,0,1,0,13.229167,0,1 @ F,0,0,1,0,13.229167,0,1 @ F,0,0,1,0,13.229167,0,1 @ F,0,0,1,0,13.229167,0,1 @ F,0,0,1,0,13.229167,0,1 @ F,0,0,1,0,26.59339,0,1 @ F,0,0,1,0,21.541766,0,1 @ F,0,0,1,0,18.277088,0,1 @ F,0,1,1,0,21.541766,0,1 @ F,0,0,1,0,25.412385,0,1 @ F,0,0,1,0,0,0,1 @ F,0,0,1,0,13.229167,0,1 @ F,0,0,1,0,13.229167,0,1 @ F,0,0,1,0,13.229167,0,1 @ F,0,0,1,0,7.9281543,0,1 @ F,0,0,1,0,0,0,1"
       lpeversion="1"
       is_visible="true"
       id="path-effect857"
       effect="fillet_chamfer" />
    <inkscape:path-effect
       hide_knots="false"
       only_selected="false"
       apply_with_radius="true"
       apply_no_radius="true"
       use_knot_distance="true"
       flexible="false"
       chamfer_steps="1"
       radius="50"
       mode="F"
       method="auto"
       unit="px"
       satellites_param="F,0,0,1,0,0,0,1 @ F,0,0,1,0,13.229167,0,1 @ F,0,0,1,0,13.229167,0,1 @ F,0,0,1,0,13.229167,0,1 @ F,0,0,1,0,13.229167,0,1 @ F,0,0,1,0,13.229167,0,1 @ F,0,0,1,0,13.229167,0,1 @ F,0,0,1,0,13.229167,0,1 @ F,0,0,1,0,13.229167,0,1 @ F,0,0,1,0,13.229167,0,1 @ F,0,0,1,0,13.229167,0,1 @ F,0,0,1,0,13.229167,0,1 @ F,0,0,1,0,13.229167,0,1 @ F,0,0,1,0,13.229167,0,1 @ F,0,0,1,0,13.229167,0,1 @ F,0,0,1,0,13.229167,0,1 @ F,0,0,1,0,13.229167,0,1 @ F,0,0,1,0,13.229167,0,1 @ F,0,0,1,0,13.229167,0,1 @ F,0,0,1,0,13.229167,0,1 @ F,0,0,1,0,13.229167,0,1"
       lpeversion="1"
       is_visible="true"
       id="path-effect855"
       effect="fillet_chamfer" />
    <inkscape:path-effect
       hide_knots="false"
       only_selected="false"
       apply_with_radius="true"
       apply_no_radius="true"
       use_knot_distance="true"
       flexible="false"
       chamfer_steps="1"
       radius="50"
       mode="F"
       method="auto"
       unit="px"
       satellites_param="F,0,0,1,0,0,0,1 @ F,0,0,1,0,13.229167,0,1 @ F,0,0,1,0,13.229167,0,1 @ F,0,0,1,0,13.229167,0,1 @ F,0,0,1,0,13.229167,0,1 @ F,0,0,1,0,13.229167,0,1 @ F,0,0,1,0,13.229167,0,1 @ F,0,0,1,0,13.229167,0,1 @ F,0,0,1,0,22.182217,0,1 @ F,0,1,1,0,22.182217,0,1 @ F,0,1,1,0,22.182217,0,1 @ F,0,0,1,0,13.229167,0,1 @ F,0,0,1,0,13.229167,0,1 @ F,0,0,1,0,13.229167,0,1 @ F,0,0,1,0,13.229167,0,1 @ F,0,0,1,0,13.229167,0,1 @ F,0,0,1,0,13.229167,0,1 @ F,0,0,1,0,13.229167,0,1 @ F,0,0,1,0,0,0,1"
       lpeversion="1"
       is_visible="true"
       id="path-effect853"
       effect="fillet_chamfer" />
    <inkscape:path-effect
       hide_knots="false"
       only_selected="false"
       apply_with_radius="true"
       apply_no_radius="true"
       use_knot_distance="true"
       flexible="false"
       chamfer_steps="1"
       radius="50"
       mode="F"
       method="auto"
       unit="px"
       satellites_param="F,0,0,1,0,0,0,1 @ F,0,0,1,0,13.229167,0,1 @ F,0,0,1,0,13.229167,0,1 @ F,0,0,1,0,13.229167,0,1 @ F,0,0,1,0,13.229167,0,1 @ F,0,0,1,0,13.229167,0,1 @ F,0,0,1,0,13.229167,0,1 @ F,0,0,1,0,19.644357,0,1 @ F,0,0,1,0,13.229167,0,1 @ F,0,0,1,0,13.229167,0,1 @ F,0,0,1,0,13.229167,0,1 @ F,0,0,1,0,13.229167,0,1 @ F,0,0,1,0,0,0,1"
       lpeversion="1"
       is_visible="true"
       id="path-effect851"
       effect="fillet_chamfer" />
  </defs>
  <sodipodi:namedview
     inkscape:window-maximized="0"
     inkscape:window-y="0"
     inkscape:window-x="1998"
     inkscape:window-height="1040"
     inkscape:window-width="1375"
     showgrid="false"
     inkscape:document-rotation="0"
     inkscape:current-layer="layer1"
     inkscape:document-units="mm"
     inkscape:cy="334.77001"
     inkscape:cx="469.0434"
     inkscape:zoom="0.64879682"
     inkscape:pageshadow="2"
     inkscape:pageopacity="0.0"
     borderopacity="1.0"
     bordercolor="#666666"
     pagecolor="#ffffff"
     id="base" />
  <metadata
     id="metadata5">
    <rdf:RDF>
      <cc:Work
         rdf:about="">
        <dc:format>image/svg+xml</dc:format>
        <dc:type
           rdf:resource="http://purl.org/dc/dcmitype/StillImage" />
        <dc:title></dc:title>
      </cc:Work>
    </rdf:RDF>
  </metadata>
  <g
     id="layer1"
     inkscape:groupmode="layer"
     inkscape:label="Layer 1">
    <path
       sodipodi:nodetypes="cccccccccccccccccc"
       inkscape:original-d="m 91.359013,127.52685 7.428042,21.52951 19.442135,10.3341 14.71296,5.42979 18.91667,16.28935 19.9676,15.58874 19.09183,33.45448 v 32.57871 l -5.7801,32.92902 -12.2608,6.13039 -22.59492,-4.02854 -11.20987,-22.94522 18.74151,-14.71297 14.1875,11.9105 -0.52546,12.61112 -11.56019,3.15278 -4.55401,-8.75773 4.91594,-8.30386"
       inkscape:path-effect="#path-effect859"
       id="path841"
       d="m 91.359013,127.52685 3.113342,9.02374 a 33.607699,33.607699 49.478371 0 0 15.996225,18.71486 162.85025,162.85025 23.343105 0 0 20.17158,8.70526 43.749607,43.749607 37.568154 0 1 12.32664,9.48188 519.46995,519.46995 39.273229 0 0 19.3197,15.79792 64.240653,64.240653 49.635582 0 1 16.09695,18.93766 l 5.97777,10.47482 a 49.871957,49.871957 75.143713 0 1 6.55703,24.719 v 6.12037 a 151.88443,151.88443 94.977912 0 1 -2.28718,26.25912 l -1.20574,6.86912 a 26.258065,26.258065 126.69541 0 1 -14.11971,18.94621 21.639964,21.639964 8.9057932 0 1 -13.45205,-2.10793 22.661754,22.661754 41.473672 0 1 -15.37827,-13.59295 15.801552,15.801552 104.5847 0 1 5.00297,-19.22772 14.732093,14.732093 6.0641603 0 1 18.4679,1.96196 18.582006,18.582006 77.570415 0 1 3.52994,16.01566 8.530576,8.530576 49.537553 0 1 -16.1142,-5.60495 l 4.91594,-8.30386"
       style="fill:none;stroke:#000000;stroke-width:2;stroke-linecap:butt;stroke-linejoin:miter;stroke-miterlimit:4;stroke-dasharray:none;stroke-opacity:1" />
    <path
       sodipodi:nodetypes="cccccccccccccccccccc"
       inkscape:original-d="m 172.0877,198.78858 -4.28983,17.52705 -14.1875,23.82099 -67.08412,52.02084 -58.501555,35.03086 -6.831018,15.58875 -11.2098788,27.84954 -0.3503088,29.42592 6.8310196,22.41976 12.611114,4.02855 32.443233,-14.71295 -8.972551,-19.61729 -14.638899,-15.89801 -20.088704,11.15933 3.024666,25.23174 14.884619,9.29619 11.649216,-15.31218 -3.41346,-11.3243 -19.286999,-0.31979 4.048571,10.65389"
       inkscape:path-effect="#path-effect857"
       id="path843"
       d="m 172.0877,198.78858 -1.14476,4.67717 a 88.389251,88.389251 112.26529 0 1 -9.91451,24.21586 l -0.64862,1.08903 a 69.911594,69.911594 131.49275 0 1 -17.22366,19.47278 l -46.17568,35.80724 a 220.11644,220.11644 145.64735 0 1 -21.80413,14.90315 l -35.801735,21.43816 a 41.422985,41.422985 131.37493 0 0 -16.659546,18.91322 561.2019,561.2019 112.31252 0 0 -6.461175,15.74418 l -1.330292,3.30494 a 70.541314,70.541314 101.30381 0 0 -5.0972728,25.50053 l -0.035351,2.96946 a 85.320364,85.320364 81.86837 0 0 3.6982796,25.88303 22.400706,22.400706 41.51879 0 0 15.57707,13.79054 37.021021,37.021021 155.6199 0 0 24.228581,-10.98043 16.471123,16.471123 88.192056 0 0 -0.736081,-23.31948 58.314774,58.314774 47.390299 0 0 -12.392964,-13.47267 18.236855,18.236855 159.20737 0 0 -21.089762,8.00815 23.304523,23.304523 86.101033 0 0 1.767276,25.93022 l 3.664039,2.28838 a 14.507185,14.507185 169.62502 0 0 19.230539,-3.52079 17.730695,17.730695 90.803108 0 0 0.225797,-16.10788 8.9662026,8.9662026 113.92459 0 0 -16.470721,7.0913 l 1.232293,3.2428"
       style="fill:none;stroke:#000000;stroke-width:2;stroke-linecap:butt;stroke-linejoin:miter;stroke-miterlimit:4;stroke-dasharray:none;stroke-opacity:1" />
    <path
       sodipodi:nodetypes="ccccccccccccccccccccc"
       inkscape:original-d="m 33.511575,325.09808 23.238435,35.89505 24.52161,12.08564 36.43211,9.80866 50.96991,24.52161 9.28318,13.48687 12.78627,22.59491 -1.22608,47.11652 -25.39738,22.77007 -28.37501,-2.277 -4.72916,-23.47069 21.54398,-27.14892 23.29553,-3.50308 6.65587,20.66819 -8.75772,19.09183 -22.59491,6.65586 -6.83102,-13.83718 10.85957,-17.86575 18.04089,3.15277 -8.23225,16.98998 -11.9105,-0.17515"
       inkscape:path-effect="#path-effect855"
       id="path845"
       d="m 33.511575,325.09808 16.049007,24.78996 a 47.955749,47.955749 41.658848 0 0 19.055666,16.95344 l 0.789134,0.38894 a 135.30833,135.30833 20.652601 0 0 24.640529,9.28759 l 10.883529,2.93018 a 142.28634,142.28634 20.380352 0 1 24.69557,9.17456 l 27.12735,13.05097 a 49.775347,49.775347 40.576038 0 1 19.42199,16.63257 186.26561,186.26561 59.528698 0 1 8.29786,14.10311 46.815077,46.815077 76.296544 0 1 5.92674,24.30611 l -0.5378,20.66714 a 30.694559,30.694559 114.80638 0 1 -10.19417,22.05576 l -5.69732,5.10793 a 30.817046,30.817046 161.35504 0 1 -23.03681,7.77288 l -2.00145,-0.16062 a 17.549349,17.549349 41.597925 0 1 -15.79984,-14.02672 25.805212,25.805212 106.31499 0 1 6.10726,-20.86494 l 5.09726,-6.42336 a 33.571749,33.571749 149.94094 0 1 21.30544,-12.33001 13.939755,13.939755 37.771406 0 1 14.26861,11.05647 28.024409,28.024409 98.251898 0 1 -2.91508,20.1003 23.235287,23.235287 145.85367 0 1 -15.93197,10.80555 14.076235,14.076235 29.575803 0 1 -15.761,-8.94469 15.087822,15.087822 113.94299 0 1 5.89654,-13.27939 15.56823,15.56823 165.87252 0 1 17.01981,-4.28377 8.0188736,8.0188736 93.399949 0 1 -0.7593,12.78065 14.136893,14.136893 161.14219 0 1 -14.37423,4.90958"
       style="fill:none;stroke:#000000;stroke-width:2;stroke-linecap:butt;stroke-linejoin:miter;stroke-miterlimit:4;stroke-dasharray:none;stroke-opacity:1" />
    <path
       sodipodi:nodetypes="cccccccscccccsccccc"
       inkscape:original-d="m 187.64857,489.11259 -13.3764,43.5244 -64.24934,53.43017 -42.811614,6.42374 -23.76801,-19.90612 -26.132503,-22.96997 -11.6514348,-35.2872 c 0,0 12.6181788,-30.81793 19.5408078,-28.79803 l 7.423941,2.16618 22.308075,16.58253 -1.66449,32.45757 -23.30677,-2.10146 -16.14556,-14.14817 c 0,0 5.825718,-17.47716 9.154699,-19.64099 l 3.328981,-2.16384 16.079292,10.31984 -2.09757,11.31854 -15.479763,1.66449 0.166449,-11.31854"
       inkscape:path-effect="#path-effect853"
       id="path847"
       d="m 187.64857,489.11259 -9.49006,30.87896 a 44.420177,44.420177 123.66834 0 1 -14.0579,21.10418 l -43.90622,36.51269 a 47.35961,47.35961 155.85974 0 1 -23.254275,10.42176 l -16.646184,2.4977 a 29.38126,29.38126 15.706688 0 1 -23.224743,-6.5311 L 53.585234,581.0789 A 1108.0215,1108.0215 40.630805 0 1 33.506871,563.85093 l -6.259833,-5.50227 A 48.670426,48.670426 56.521106 0 1 13.162843,537.05272 L 9.8071285,526.8897 c -2.2908,-6.93785 -1.9155388,-18.05903 1.3851295,-24.57549 1.418463,-2.80046 3.00867,-5.72651 4.644776,-8.34076 3.69411,-5.90262 12.68682,-7.47405 16.786983,-6.27769 a 27.257783,27.257783 82.473337 0 1 21.172019,38.73564 16.720971,16.720971 159.82329 0 1 -22.621029,8.31248 22.982212,22.982212 38.336583 0 1 -11.163781,-8.82821 c -3.422003,-2.99866 -4.421898,-11.10106 -1.457921,-17.77662 1.91108,-4.30417 5.907087,-8.26258 7.745647,-9.45765 a 13.239827,13.239827 78.88119 0 1 13.981722,21.63838 9.0512191,9.0512191 78.95765 0 1 -15.313314,-9.65405"
       style="fill:none;stroke:#000000;stroke-width:2;stroke-linecap:butt;stroke-linejoin:miter;stroke-miterlimit:4;stroke-dasharray:none;stroke-opacity:1" />
    <path
       sodipodi:nodetypes="ccccccccccccc"
       inkscape:original-d="m 70.574402,590.06192 -36.618793,26.29897 -15.146865,24.63445 -12.6501286,45.27415 15.6462116,29.46149 30.959526,1.83092 17.310703,-28.62924 -21.30548,-29.29501 -24.96736,10.48628 -3.828329,23.30286 17.144254,16.81136 15.313314,-10.65273 c 4.224248,-19.32801 -8.722664,-35.45834 -23.027863,-18.43243"
       inkscape:path-effect="#path-effect851"
       id="path849"
       d="M 70.574402,590.06192 44.700786,608.64389 A 65.820251,65.820251 132.95034 0 0 27.026483,627.63023 L 25.73787,629.726 a 94.280114,94.280114 113.59845 0 0 -10.489154,24.0105 l -5.5300721,19.79183 a 33.089876,33.089876 83.819704 0 0 2.6448941,24.4249 l 3.236366,6.09401 a 23.552932,23.552932 32.706451 0 0 19.411016,12.46474 l 4.54734,0.26892 a 21.919351,21.919351 152.27189 0 0 20.05112,-10.53962 l 3.620649,-5.988 A 19.916511,19.916511 87.565954 0 0 62.29403,678.23376 l -1.970193,-2.70901 a 24.80502,24.80502 15.59511 0 0 -29.66601,-8.28017 18.906471,18.906471 119.46041 0 0 -9.000227,15.93352 22.779279,22.779279 68.306035 0 0 7.761976,19.51097 14.547762,14.547762 179.98264 0 0 18.55846,-0.006 c 2.459624,-1.71104 6.137971,-9.11897 4.709892,-16.23224 -2.426996,-12.08887 -12.467349,-18.17249 -23.284336,-5.29822"
       style="fill:none;stroke:#000000;stroke-width:2;stroke-linecap:butt;stroke-linejoin:miter;stroke-miterlimit:4;stroke-dasharray:none;stroke-opacity:1" />
    <path
       sodipodi:nodetypes="cccccccccccccccccc"
       inkscape:original-d="m 47.291683,0 -22.208802,28.218241 -9.92864,31.092322 -8.6222408,44.417597 2.0902403,25.08288 17.5057605,12.01889 29.263361,1.3064 24.56032,-8.09969 11.407331,-6.50979 17.594747,-24.84381 -12.280155,-28.479518 -33.182562,-6.79328 -20.902401,25.082883 6.009439,30.831045 34.488963,4.96431 7.57712,-32.92128 -22.208802,-7.315836 -10.973759,14.109116"
       inkscape:path-effect="#path-effect869"
       id="path867"
       d="M 47.291683,0 33.264645,17.822588 A 73.178916,73.178916 117.95689 0 0 21.058638,40.820476 l -1.880154,5.887852 a 225.1874,225.1874 104.34761 0 0 -6.5452,25.588983 L 9.0529576,90.741412 a 95.649269,95.649269 93.110929 0 0 -1.4223347,26.170218 26.533015,26.533015 58.462945 0 0 11.8977501,19.38721 37.221159,37.221159 14.490299 0 0 19.815632,5.12109 l 2.831353,0.1264 a 72.051495,72.051495 172.15212 0 0 25.779594,-3.55332 128.3921,128.3921 155.90608 0 0 23.404061,-10.46616 l 9.948917,-14.04788 A 23.558669,23.558669 95.990668 0 0 103.71565,90.535075 35.66636,35.66636 37.807873 0 0 77.64681,70.308273 l -1.19541,-0.24473 a 22.119918,22.119918 160.68777 0 0 -21.429463,7.509627 40.869124,40.869124 104.38802 0 0 -8.717687,33.98265 17.760778,17.760778 41.581206 0 0 15.388047,13.65312 l 8.300531,1.19477 a 14.379194,14.379194 145.57612 0 0 16.061447,-11.00734 l 1.642658,-7.13706 a 14.505846,14.505846 60.596941 0 0 -9.597764,-17.031164 16.657765,16.657765 157.7568 0 0 -17.765731,7.26569 l -2.851835,3.666644"
       style="fill:none;stroke:#000000;stroke-width:2;stroke-linecap:butt;stroke-linejoin:miter;stroke-miterlimit:4;stroke-dasharray:none;stroke-opacity:1" />
  </g>
</svg>
